<svg xmlns="http://www.w3.org/2000/svg" width="537" height="485" viewBox="0 0 537 485" fill="none"><g clip-path="url(#clip0_12_87)"><path opacity="0.7" fill-rule="evenodd" clip-rule="evenodd" d="M177.34 0.907979C257.185 2.53215 304.678 79.7237 328.847 155.83C352.37 229.894 355.261 317.697 292.508 363.543C229.379 409.663 144.776 382.851 82.1377 336.068C22.5242 291.544 -14.7355 220.823 5.59359 149.254C28.4444 68.8078 93.7186 -0.793017 177.34 0.907979Z" fill="#C7B9FF"></path><mask id="mask0_12_87" style="mask-type:alpha" maskUnits="userSpaceOnUse" x="98" y="62" width="423" height="423"><path d="M505.696 62.2917H113.558C105.355 62.2917 98.7046 68.9419 98.7046 77.1454V469.283C98.7046 477.486 105.355 484.136 113.558 484.136H505.696C513.899 484.136 520.549 477.486 520.549 469.283V77.1454C520.549 68.9419 513.899 62.2917 505.696 62.2917Z" fill="#C4C4C4"></path></mask><g mask="url(#mask0_12_87)"><path fill-rule="evenodd" clip-rule="evenodd" d="M292.201 409.899C292.414 412.097 291.978 414.197 290.939 415.971L290.602 416.55L291.244 416.772C292.415 417.176 293.717 417.373 295.224 417.373C296.777 417.373 298.39 417.159 299.686 416.988L300.517 416.879L300.109 416.165C299.781 415.593 299.72 414.9 299.655 414.165C299.638 413.968 299.62 413.764 299.597 413.561C298.369 402.713 296.815 391.723 295.315 381.095C294.919 378.298 294.51 375.406 294.114 372.561L292.976 372.605C292.671 377.87 292.375 383.225 292.087 388.403C291.961 390.68 291.834 392.957 291.707 395.234C291.254 400.991 291.41 405.651 292.201 409.899ZM292.664 474.953C290.994 474.953 289.321 474.781 287.691 474.442C282.591 473.385 277.959 470.889 274.017 468.634C273.815 468.521 273.61 468.408 273.401 468.292C271.857 467.439 269.937 466.377 268.733 465.082C267.413 463.661 267.185 462.246 268.018 460.627L268.15 460.371L268.012 460.118C267.15 458.532 267.214 456.571 268.167 455.348L268.97 454.319L267.652 454.458C266.323 454.597 264.983 454.786 263.687 454.968C262.25 455.171 260.763 455.38 259.299 455.52L258.893 455.56L258.799 455.947C258.747 456.163 258.682 456.293 258.231 456.293C257.839 456.293 257.312 456.181 256.755 456.061C256.064 455.912 255.281 455.743 254.525 455.743C254.193 455.743 253.894 455.774 253.611 455.839L253.446 455.876L253.33 455.995C253.255 456.07 253.127 456.117 252.998 456.117C252.899 456.117 252.807 456.09 252.746 456.043L252.562 455.901L252.328 455.926C248.246 456.369 244.726 457.145 241.569 458.302L241.555 458.306L241.485 458.336C240.345 458.822 239.164 459.326 238.088 459.326C237.302 459.326 236.664 459.062 236.079 458.494L235.915 458.335L235.681 458.332C233.317 458.311 232.237 455.587 232.087 453.761L232.069 453.531L231.889 453.382C227.768 449.966 225.336 445.274 224.452 439.038C223.647 433.358 224.265 427.369 224.976 422.259C226.62 409.019 228.334 397.149 232.694 385.891L232.897 385.366L232.354 385.173C230.472 384.505 229.033 383.707 227.956 382.735L227.881 382.667L227.787 382.629C226.243 382.002 225.487 379.689 225.292 378.995L225.277 378.938L225.249 378.887C224.934 378.29 224.861 377.459 225.05 376.608L225.07 376.517L225.058 376.424C224.956 375.615 225.294 374.77 225.652 373.876C225.815 373.467 225.984 373.044 226.108 372.624C226.532 371.422 226.955 370.198 227.365 369.015C228.284 366.359 229.234 363.615 230.247 360.944L230.386 360.578L230.082 360.327C229.56 359.897 229.734 359.39 230.485 358.18C230.663 357.894 230.83 357.624 230.958 357.357C231.921 355.713 232.953 354.137 234.026 352.668L234.047 352.637L234.065 352.604C239.57 342.446 249.336 336.851 261.561 336.851H261.812L261.949 336.77C264.24 335.409 265.876 333.072 266.95 329.628L266.984 329.519L266.97 329.405C266.934 329.088 266.894 328.672 266.908 328.268C266.942 327.244 267.348 326.332 268.021 325.764C269.296 324.685 271.233 324.594 273.107 324.594H273.376C275.772 324.602 277.464 325.013 278.701 325.888C280.137 326.907 280.93 328.55 281.127 330.912C281.186 331.618 281.184 332.351 281.182 333.058L281.181 333.256L281.206 333.335C281.377 333.896 281.58 334.436 281.805 334.938L282.037 335.456L282.565 335.222C282.906 335.071 283.339 334.994 283.889 334.986C284.046 334.981 284.201 334.98 284.356 334.98C285.631 334.98 286.995 335.095 288.314 335.206C289.308 335.29 290.336 335.377 291.33 335.414L291.344 335.416C291.344 335.416 291.482 335.414 291.543 335.414C293.961 335.414 295.713 335.79 297.059 336.596C298.507 337.465 299.548 338.858 300.336 340.983C304.56 353.159 306.297 366.274 307.829 377.843C308.697 383.895 308.962 390.098 309.218 396.097C309.487 402.428 309.767 408.975 310.754 415.376L310.833 415.881L311.357 415.848C313.664 415.7 316.159 415.384 318.801 415.048C322.812 414.538 326.961 414.01 330.973 414.01C336.581 414.01 340.833 415.101 343.97 417.343C346.157 419.379 347.289 422.136 347.242 425.318C347.177 429.814 344.769 434.784 341.111 437.98L341.097 437.992C336.472 442.309 328.031 446.053 316.006 449.121C304.949 451.941 293.512 453.474 287.678 454.136L286.234 454.301L287.407 455.137C287.88 455.477 288.314 455.775 288.73 456.05L288.998 456.226L289.291 456.094C290.13 455.714 290.663 455.634 290.962 455.634C291.227 455.634 291.548 455.692 291.565 455.963C291.577 456.141 291.449 456.404 291.179 456.438L289.744 456.614L290.915 457.44C291.698 457.991 292.866 458.656 294.217 459.426C298.641 461.944 305.327 465.75 304.177 469.093L304.102 469.313L304.209 469.52C304.518 470.118 304.544 470.674 304.29 471.218C303.743 472.383 302.036 473.269 300.586 473.629L300.561 473.636L300.537 473.644C298.013 474.513 295.364 474.953 292.664 474.953Z" fill="white"></path><path fill-rule="evenodd" clip-rule="evenodd" d="M287.81 453.481C287.984 453.306 288.058 453.076 287.894 452.807C287.264 452.011 285.959 452.555 285.146 452.739C284.839 452.486 284.535 452.234 284.241 451.967C284.343 451.342 283.583 450.926 283.27 450.444C282.964 450.089 282.675 449.686 282.307 449.388C281.41 448.698 280.168 449.164 279.128 449.133C278.327 448.127 277.502 447.151 276.741 446.11C277.618 444.652 277.681 442.944 277.389 441.318C290.862 436.267 302.524 426.704 317.096 424.494C317.596 424.412 317.877 423.809 317.752 423.368C316.736 420.971 302.13 427.156 299.946 428.275C293.506 431.322 287.475 435.12 281.215 438.47C279.911 439.155 278.475 439.523 277.047 439.879C274.855 432.769 271.145 426.25 268.3 419.393C268.486 419.077 268.643 418.746 268.776 418.405C268.682 422.174 272.393 422.122 272.905 418.545C272.694 420.41 274.121 424.402 276.181 421.783C276.664 421.124 276.836 420.281 276.917 419.432C277.023 420.019 277.144 420.605 277.276 421.187C277.805 422.342 279.248 420.938 279.583 420.335C279.777 420.301 279.958 420.214 280.091 420.108C283.732 420.607 288.022 420.579 290.694 417.737C295.227 419.455 300.243 417.916 304.828 417.231C314.156 416.171 323.521 414.555 332.933 414.679C337.135 414.92 342.092 415.591 344.75 419.133C348.159 424.24 346.232 431.137 342.472 435.557C333.424 446.874 302.37 451.795 287.81 453.481ZM288.063 457.559C288.229 457.515 288.395 457.475 288.559 457.438C291.2 459.609 303.636 465.251 302.691 468.62C302.357 469.039 301.557 469.134 301.05 469.269C300.169 469.504 299.279 469.709 298.38 469.87C295.477 470.393 292.47 470.483 289.57 469.888C288.503 469.728 287.541 469.278 286.569 468.843C283.429 467.479 279.971 465.971 276.845 464.617C272.876 463.063 265.914 459.998 268.777 454.828C271.491 457.842 274.933 457.579 276.669 453.832C277.267 452.694 277.789 451.161 279.194 450.701C279.936 450.205 280.883 450.103 281.502 450.654C281.547 450.586 281.587 450.49 281.609 450.404C282.307 451.386 282.91 452.42 283.728 453.317C283.447 453.332 280.522 455.471 281.386 455.472C282.423 454.943 283.455 454.503 284.576 454.218C285.389 455.025 286.282 455.777 287.208 456.471C286.309 457.058 285.502 457.776 284.852 458.556C284.796 458.625 284.864 458.714 284.948 458.678C285.957 458.233 286.994 457.842 288.063 457.559ZM301.45 472.128C291.349 476.611 280.656 471.62 272.042 466.298C270.055 465.2 267.439 463.646 267.841 461.064C269.305 463.18 271.72 464.386 274.036 465.431C277.929 467.168 281.846 468.851 285.749 470.569C286.118 471.777 287.879 471.823 288.945 472.091C293.686 472.999 298.782 472.548 303.245 470.736C302.987 471.491 302.142 471.838 301.45 472.128ZM261.15 454.672C260.901 454.703 260.651 454.733 260.402 454.76C260.427 454.434 260.228 454.108 259.908 454.007C260.051 453.315 260.105 452.6 260.028 451.899C260.445 452.963 261.793 452.64 262.648 452.333C263.87 452.004 265.084 451.652 266.292 451.275C266.769 452.15 267.274 453.011 267.894 453.802C265.636 454.001 263.399 454.396 261.15 454.672ZM260.156 451.322C260.096 451.446 260.01 451.579 260.009 451.729C259.948 451.211 259.828 450.699 259.647 450.209C259.818 450.58 259.987 450.95 260.156 451.322ZM258.732 448.543C257.62 447.111 255.567 445.942 253.67 446.342C253.549 446.368 253.545 446.562 253.67 446.585C256.22 446.927 258.458 448.926 258.546 451.508C258.748 452.678 257.924 453.826 258.202 454.947C258.147 454.95 258.091 454.954 258.037 454.957C258.017 455.033 257.999 455.099 257.975 455.157C258.25 455.203 258.331 455.641 258.007 455.719C257.814 455.765 257.613 455.789 257.409 455.799C256.369 455.522 255.272 455.458 254.279 455.048C253.296 454.619 253.542 453.413 253.195 452.578C252.94 451.614 252.647 450.654 252.28 449.731C252.253 449.655 252.15 449.673 252.142 449.747C251.882 451.592 251.891 453.467 251.954 455.326C251.612 455.36 251.274 455.399 250.933 455.44C250.955 454.921 249.378 448.596 248.548 450.218C248.966 452.003 249.016 453.868 249.061 455.705C246.595 456.106 244.165 456.705 241.8 457.518C240.134 458.017 238.153 459.493 236.535 458.158C235.282 457.135 234.861 455.35 234.979 453.83C236.608 444.84 249.474 443.79 257.069 444.453C257.787 446.089 258.517 447.719 259.257 449.345C259.104 449.066 258.929 448.796 258.732 448.543ZM232.827 453.655C232.688 451.614 233.036 449.073 234.566 447.551C238.07 444.624 242.975 443.704 247.354 442.644C249.394 442.247 251.461 441.982 253.537 441.851C254.274 441.793 255.209 441.958 255.728 441.363C255.996 441.989 256.268 442.616 256.539 443.241C247.823 442.113 229.637 446.033 234.73 457.83C233.651 456.676 232.937 455.271 232.827 453.655ZM276.132 446.907C276.534 447.898 277.024 448.84 277.665 449.702C276.937 450.174 276.342 450.869 275.923 451.618C273.237 458.562 270.364 454.842 266.794 451.116C269.815 449.99 273.816 449.147 276.132 446.907ZM231.416 452.243C224.431 445.424 223.076 434.066 225.656 425.138C225.885 421.828 227.057 418.673 228.107 415.538C231.451 406.029 235.846 396.881 241.119 388.244C247.66 390.019 254.191 391.842 260.748 393.56C261.652 393.752 262.555 394.135 263.483 394.192C263.814 394.4 264.146 394.63 264.491 394.832C263.989 397.262 264.452 399.743 264.569 402.188C264.676 404.113 264.465 405.997 264.208 407.902C263.918 410.672 262.73 419.682 265.111 421.332C265.918 421.717 266.639 420.578 266.987 420.891C267.3 420.675 267.593 420.394 267.831 420.084C268.75 423.022 270.252 425.747 271.18 428.687C272.415 433.006 276.469 440 275.569 444.121C274.872 446.666 271.827 447.215 269.628 448.047C267.088 448.92 264.518 449.721 261.907 450.372C260.632 447.7 259.413 445.002 258.218 442.294C252.754 429.798 247.914 417.043 243.59 404.136C243.509 403.849 242.514 400.745 242.332 401.611C242.316 401.522 242.203 401.293 242.16 401.489C242.894 404.519 243.638 407.55 244.443 410.564C242.465 410.29 240.339 410.183 238.529 411.141C238.436 411.19 238.504 411.312 238.597 411.297C240.741 410.93 242.807 411.624 244.866 412.121C247.757 421.845 251.488 431.322 255.437 440.68C254.215 440.296 252.798 440.721 251.523 440.752C247.509 441.162 243.539 442.029 239.748 443.379C234.98 444.906 231.61 446.898 231.416 452.243ZM227.57 381.285C226.397 380.036 225.474 378.441 225.653 376.749C226.358 375.82 226.592 374.608 227.002 373.534C228.607 369.042 230.097 364.515 231.844 360.07C235.56 361.2 239.216 362.553 242.665 364.332C243.3 364.653 243.927 364.985 244.548 365.329C245.197 365.688 245.906 366.313 246.685 366.135C245.833 367.325 244.08 368.565 243.784 369.942C243.719 370.378 244.032 370.782 244.512 370.685C252.027 375.96 259.788 381.123 266.893 386.998C272.212 391.159 276.295 394.534 278.12 401.284C279.349 405.658 279.354 410.229 279.173 414.726C279.138 415.6 279.137 416.494 279.065 417.374C279.172 418.032 278.969 419.372 278.22 419.397C278.237 419.555 278.291 419.703 278.375 419.833C278.352 419.864 278.327 419.894 278.301 419.924C278.264 419.744 278.227 419.566 278.193 419.386C277.61 416.835 277.533 413.874 277.629 411.158C277.67 410.379 276.461 410.398 276.394 411.158C276.212 413.211 276.03 415.265 275.848 417.318C275.629 418.648 275.973 420.388 274.897 421.4C273.803 420.4 274.165 418.43 274.218 417.139C274.304 415.036 274.396 412.933 274.475 410.829C274.5 410.163 273.382 409.991 273.255 410.669C272.897 412.601 272.508 414.528 272.09 416.448C271.837 417.191 271.664 420.523 270.402 419.945C269.652 419.438 270.193 416.465 270.095 415.48C270.14 413.531 270.169 411.585 270.313 409.641C270.372 408.856 269.079 408.689 268.902 409.456C268.615 410.695 268.339 411.935 268.09 413.183C267.542 415.286 267.741 418.138 265.763 419.536C264.989 414.071 266.103 408.645 266.259 403.2C266.166 401.436 265.86 399.689 265.589 397.946C265.29 396.019 265.116 393.92 265.816 392.061C265.625 391.229 264.871 393.481 264.801 393.669C264.235 392.565 262.854 392.48 261.762 392.135C259.336 391.36 256.851 390.775 254.396 390.085C247.885 388.299 241.367 386.54 234.848 384.784C232.244 384.072 229.501 383.23 227.57 381.285ZM292.764 410.351C291.865 405.54 291.891 400.665 292.274 395.802C292.696 388.258 293.106 380.714 293.544 373.171C295.446 386.822 297.474 400.457 299.026 414.152C299.136 415.105 299.118 416.114 299.606 416.964C296.915 417.32 294.048 417.679 291.432 416.775C292.58 414.814 292.985 412.581 292.764 410.351ZM306.357 376.465C308.391 389.403 307.231 402.569 309.204 415.492C306.467 415.795 303.75 416.244 301.042 416.736C301.339 415.141 300.776 413.492 300.68 411.884C299.209 400.417 297.585 388.958 295.432 377.592C294.905 374.871 294.371 372.162 293.76 369.457C293.852 367.819 293.933 366.181 293.987 364.542C296.973 362.686 300.34 361.485 303.823 360.88C304.765 366.061 305.705 371.238 306.357 376.465ZM282.812 335.808C282.693 335.607 282.58 335.401 282.471 335.192C282.839 335.206 283.198 335.219 283.559 335.278C283.543 335.854 283.575 336.434 283.582 337.015C283.401 336.591 283.047 336.203 282.812 335.808ZM344.241 416.887C335.553 410.646 321.285 414.622 311.221 415.264C309.303 402.833 310.086 390.2 308.298 377.75C306.65 365.311 304.914 352.699 300.778 340.783C299.07 336.175 296.117 334.807 291.255 334.843C288.787 334.748 286.179 334.358 283.78 334.413C283.255 334.421 282.705 334.491 282.231 334.7C281.564 333.215 281.202 331.62 281.019 330.013C281.007 329.911 280.877 329.893 280.837 329.99C280.273 331.389 280.213 332.916 280.52 334.38C280.742 335.431 282.064 339.561 283.598 337.944C283.719 341.333 282.966 345.38 279.607 347.139C273.735 349.668 265.62 347.366 262.219 341.997C261.561 340.924 260.995 339.783 260.268 338.753C265.338 337.334 268.184 331.331 266.99 326.76C266.251 330.316 264.906 334.289 261.553 336.279C249.347 336.252 239.196 341.745 233.462 352.326C232.34 353.863 231.302 355.46 230.352 357.083C229.84 358.17 228.341 359.681 229.614 360.731C228.144 364.604 226.841 368.532 225.464 372.436C225.085 373.736 224.22 375.102 224.393 376.468C224.206 377.312 224.215 378.308 224.642 379.118C225.049 380.563 225.959 382.506 227.469 383.119C228.75 384.275 230.371 385.072 232.06 385.671C227.554 397.309 225.838 409.86 224.311 422.154C222.814 432.912 222.042 445.996 231.42 453.77C231.602 455.995 232.937 458.829 235.577 458.853C237.407 460.627 239.636 459.654 241.672 458.786C245.108 457.528 248.712 456.831 252.292 456.443C252.677 456.74 253.302 456.691 253.644 456.345C255.813 455.85 258.819 457.851 259.257 456.038C262.055 455.77 264.821 455.269 267.615 454.975C266.438 456.485 266.522 458.71 267.41 460.341C265.15 464.731 270.412 467.274 273.629 469.076C277.972 471.56 282.507 473.918 287.474 474.947C291.841 475.856 296.416 475.579 300.63 474.129C302.843 473.581 305.935 471.775 304.621 469.232C306.286 464.392 294.592 459.378 291.153 456.954C292.558 456.781 292.61 453.897 288.953 455.554C288.511 455.262 288.076 454.961 287.646 454.654C302.439 452.974 330.69 448.352 341.395 438.361C347.277 433.225 350.669 422.832 344.241 416.887Z" fill="#2B283A"></path><path fill-rule="evenodd" clip-rule="evenodd" d="M285.825 298.219C278.942 294.733 268.686 295.108 263.843 301.701C263.072 302.952 262.29 304.322 261.91 305.717C261.434 307.517 260.592 310.188 260.396 312.778C260.283 314.282 260.799 315.74 260.659 317.032C260.548 318.054 259.49 317.743 259.533 318.723C259.617 320.637 259.678 323.422 260.659 324.929C261.58 326.23 263.302 326.15 264.313 327.378C265.267 328.534 266.091 329.818 267.297 330.743C269.82 335.396 277.02 336.452 281.874 336.018C293.439 334.202 293.303 317.121 293.136 308.135C293.189 303.536 289.774 300.132 285.825 298.219Z" fill="white"></path><path fill-rule="evenodd" clip-rule="evenodd" d="M295.604 308.69C295.693 308.765 295.781 308.839 295.864 308.916C297.479 310.426 298.274 312.718 297.964 314.887C297.699 316.758 296.552 318.712 294.872 319.709C295.126 319.995 295.323 320.342 295.457 320.68C295.786 321.515 295.762 322.406 295.404 323.225C295.037 324.059 294.308 325.071 293.477 325.506C293.067 325.721 292.584 325.795 292.143 325.657C291.871 328.594 291.05 331.399 288.922 333.656C287.21 335.473 284.877 336.735 282.382 337.082C281.026 337.269 279.635 337.214 278.292 336.959C277.66 336.84 277.037 336.663 276.436 336.434L276.414 336.426C275.754 336.173 275.09 335.921 274.609 335.391C274.103 334.833 274.597 333.991 275.341 334.151C275.757 334.24 276.144 334.415 276.532 334.591C276.796 334.71 277.06 334.83 277.336 334.924C277.969 335.137 278.627 335.301 279.289 335.387C280.615 335.56 281.976 335.42 283.255 335.049C285.326 334.448 287.247 333.126 288.503 331.389C289.948 329.389 290.541 326.988 290.756 324.572C290.938 322.513 290.932 320.443 290.927 318.376C290.925 317.647 290.922 316.92 290.929 316.193C290.936 315.417 290.935 314.641 290.935 313.864C290.935 313.171 290.934 312.477 290.94 311.785C290.942 311.4 290.941 311.014 290.941 310.63C290.939 309.616 290.936 308.603 291.001 307.591C290.938 307.58 290.872 307.553 290.808 307.506C290.432 307.236 290.102 306.903 289.771 306.569C289.512 306.308 289.254 306.047 288.973 305.816C288.327 305.284 287.625 304.817 286.895 304.407C284.163 302.87 281.005 302.21 277.877 302.26C276.157 302.288 274.469 302.51 272.788 302.865L267.576 304.241C266.635 303.595 265.586 303.117 264.545 302.642C264.401 302.577 264.258 302.512 264.115 302.447C264.031 302.772 263.842 303.089 263.662 303.392C263.577 303.535 263.493 303.675 263.424 303.811C263.136 304.374 262.87 304.95 262.635 305.537C262.163 306.718 261.783 307.944 261.498 309.184C261.215 310.413 261.056 311.659 260.897 312.908C260.893 312.95 260.887 312.992 260.882 313.034C260.873 313.111 260.862 313.188 260.853 313.266C260.781 313.823 260.709 314.384 260.678 314.943C260.665 315.174 260.664 315.407 260.664 315.638C260.662 315.751 260.662 315.863 260.66 315.974C260.66 316.015 260.657 316.065 260.653 316.12C260.637 316.375 260.614 316.743 260.783 316.925C260.8 316.942 260.817 316.958 260.839 316.972C261.964 316.635 263.259 317.005 263.774 318.145C263.807 318.216 263.727 318.28 263.665 318.228C262.614 317.36 260.794 317.854 260.219 319.034C259.951 319.583 259.912 320.249 260.049 320.838C260.151 321.269 260.358 321.656 260.566 322.042C260.692 322.277 260.817 322.512 260.92 322.758C261.072 323.124 261.147 323.486 261.205 323.875C261.211 323.912 261.216 323.95 261.222 323.992C261.25 324.215 261.285 324.483 261.436 324.64C261.586 324.799 261.85 324.847 262.079 324.889C262.136 324.899 262.191 324.909 262.242 324.92C262.593 324.999 262.933 325.094 263.252 325.259C264.095 325.694 264.66 326.521 265.211 327.326C265.478 327.718 265.742 328.103 266.031 328.437C266.542 329.024 267.099 329.577 267.693 330.084C267.834 330.206 267.996 330.322 268.162 330.44C268.662 330.795 269.19 331.171 269.247 331.775C269.273 332.042 269.033 332.304 268.789 332.37C268.238 332.52 267.828 332.195 267.426 331.874C267.385 331.842 267.345 331.81 267.304 331.779C266.894 331.458 266.498 331.119 266.121 330.761C265.373 330.054 264.701 329.272 264.096 328.444C263.975 328.277 263.86 328.098 263.742 327.916C263.437 327.442 263.121 326.95 262.667 326.637C262.366 326.429 262.015 326.344 261.661 326.258C261.266 326.163 260.869 326.068 260.538 325.796C259.996 325.353 259.92 324.797 259.84 324.207C259.808 323.973 259.775 323.734 259.712 323.495C259.612 323.115 259.436 322.766 259.258 322.417C259.058 322.022 258.859 321.627 258.768 321.188C258.464 319.701 258.92 317.882 260.386 317.15C260.476 317.106 260.566 317.067 260.659 317.033C260.631 317.013 260.605 316.989 260.581 316.964C260.419 316.791 260.352 316.502 260.299 316.277L260.296 316.261C260.143 315.617 260.051 314.951 259.962 314.295C259.954 314.229 259.944 314.165 259.936 314.1C259.733 312.638 259.84 311.153 260.077 309.702C260.3 308.336 260.649 306.999 261.127 305.7C260.961 305.586 260.829 305.419 260.756 305.206C260.621 304.819 260.706 304.426 260.789 304.034C260.803 303.969 260.818 303.904 260.83 303.838C260.857 303.7 260.888 303.56 260.919 303.421C260.848 298.928 264.663 295.203 268.41 293.143C272.61 290.832 277.628 289.862 282.402 290.377C284.793 290.635 287.177 291.222 289.275 292.418C291.188 293.507 292.754 295.111 293.784 297.041C294.765 298.88 295.261 300.989 295.315 303.061C295.343 304.108 295.238 305.157 295.035 306.185C295.021 306.253 295.007 306.322 294.993 306.392C294.898 306.849 294.795 307.336 294.902 307.79C294.995 308.181 295.303 308.439 295.604 308.69ZM261.137 320.246C261.773 320.235 262.313 320.355 262.866 320.691C263.396 321.015 263.889 321.483 264.128 322.057C264.326 322.532 263.531 322.845 263.298 322.403C263.259 322.329 263.223 322.257 263.186 322.186C262.996 321.814 262.82 321.468 262.498 321.163C262.134 320.819 261.607 320.504 261.122 320.356C261.061 320.336 261.072 320.246 261.137 320.246Z" fill="#2B283A"></path><path fill-rule="evenodd" clip-rule="evenodd" d="M277.059 324.063C278.656 323.872 280.204 324.355 281.764 324.599C282.589 324.727 283.414 324.822 284.248 324.859C284.415 324.866 284.583 324.871 284.751 324.873C284.766 324.727 284.85 324.593 285.028 324.513C285.396 324.349 285.69 324.275 286.093 324.29C286.462 324.304 286.833 324.342 287.196 324.408C287.857 324.528 288.519 324.799 289.002 325.27C290.12 326.362 289.949 328.114 289.086 329.302C287.302 331.758 284.047 331.872 281.259 331.839L281.001 331.836C278.462 331.8 274.83 332.174 273.676 329.319C273.252 328.27 273.311 327.053 273.83 326.047C274.449 324.846 275.754 324.22 277.059 324.063ZM284.99 328.153H284.967C283.796 328.197 282.625 328.229 281.455 328.249C281.489 328.546 281.525 328.843 281.567 329.141C281.598 329.373 281.632 329.607 281.669 329.84C281.684 329.939 281.739 330.091 281.724 330.189L281.718 330.228C281.778 330.255 281.832 330.298 281.873 330.36C281.887 330.383 281.898 330.404 281.907 330.426C282.817 330.433 283.796 330.416 284.723 330.252L284.724 330.232C284.742 330.116 284.791 330.037 284.856 329.983C284.921 329.61 284.916 329.212 284.94 328.842C284.955 328.612 284.973 328.382 284.99 328.153ZM280.56 328.264C279.716 328.278 278.871 328.29 278.029 328.279L277.645 328.274C277.727 328.702 277.813 329.129 277.888 329.561C277.964 330.01 277.563 330.297 277.217 330.285C277.255 330.291 277.294 330.298 277.333 330.304C278.416 330.454 279.541 330.415 280.641 330.413C280.581 330.073 280.605 329.687 280.596 329.403L280.595 329.358C280.578 328.994 280.567 328.628 280.56 328.264ZM274.829 328.187C274.858 328.41 274.915 328.627 275 328.831C275.36 329.69 276.186 330.089 277.059 330.258C276.908 330.207 276.788 330.082 276.757 329.869C276.682 329.341 276.654 328.802 276.653 328.264C276.044 328.26 275.43 328.247 274.829 328.187ZM288.165 328.003C287.731 328.104 287.227 328.059 286.801 328.077C286.403 328.095 286.005 328.11 285.606 328.127C285.625 328.396 285.644 328.664 285.664 328.933C285.689 329.281 285.691 329.647 285.759 329.993C286.561 329.722 287.28 329.289 287.818 328.596C287.953 328.423 288.073 328.22 288.165 328.003ZM276.877 325.472C276.154 325.64 275.472 325.997 275.105 326.65C274.888 327.037 274.791 327.496 274.81 327.948C275.42 327.878 276.04 327.852 276.657 327.829C276.66 327.72 276.662 327.61 276.665 327.5L276.675 327.22C276.691 326.685 276.7 326.012 276.877 325.472ZM280.611 325.538L280.293 325.503C279.412 325.404 278.529 325.3 277.647 325.359C277.52 325.368 277.389 325.382 277.26 325.401C277.415 325.956 277.402 326.61 277.468 327.16C277.493 327.374 277.524 327.584 277.56 327.794L277.712 327.787C278.66 327.737 279.608 327.706 280.555 327.668C280.555 327.492 280.556 327.317 280.558 327.141L280.562 326.965C280.573 326.516 280.543 326.009 280.611 325.538ZM285.041 325.466C284.118 325.613 283.162 325.645 282.254 325.646C281.892 325.646 281.53 325.624 281.167 325.592C281.191 325.782 281.204 325.976 281.221 326.163C281.256 326.544 281.298 326.922 281.342 327.302L281.382 327.633C282.547 327.58 283.711 327.524 284.876 327.466L285.04 327.457L285.086 326.82C285.116 326.396 285.152 325.97 285.2 325.547L285.163 325.535C285.121 325.517 285.08 325.493 285.041 325.466ZM285.442 325.624C285.494 326.225 285.522 326.828 285.559 327.43L286.327 327.389C286.455 327.382 286.582 327.375 286.71 327.368C287.208 327.339 287.847 327.19 288.338 327.33C288.376 326.888 288.248 326.457 287.845 326.161C287.136 325.639 286.235 325.825 285.442 325.624ZM282.819 320.255C283.963 319.608 286.831 318.947 287.012 320.98C287.095 321.915 286.391 322.69 285.57 323.036L285.539 323.049C284.769 323.362 283.402 323.716 282.736 323.036C282.18 322.471 282.917 321.458 283.607 321.921C283.961 322.159 284.708 321.984 285.102 321.871L285.127 321.864C285.555 321.739 286.123 321.343 285.947 320.824C285.791 320.364 285.126 320.28 284.71 320.264C284.088 320.243 283.484 320.385 282.869 320.432C282.771 320.44 282.741 320.3 282.819 320.255ZM287.554 316.986C289.106 316.914 290.07 318.588 289.713 319.96C289.652 320.196 289.384 320.429 289.126 320.402L289.06 320.396C289.027 320.392 288.994 320.389 288.964 320.381C288.718 320.313 288.498 320.061 288.516 319.799L288.521 319.723C288.557 319.075 288.485 318.329 287.706 318.172C287.046 318.039 286.677 318.668 286.669 319.246C286.668 319.349 286.55 319.421 286.458 319.365C285.981 319.078 285.898 318.507 286.081 318.014C286.312 317.39 286.891 317.017 287.554 316.986ZM276.042 317.346C277.171 316.973 278.388 317.568 278.936 318.555C279.127 318.609 279.319 318.756 279.292 318.979C279.253 319.301 279.195 319.503 278.97 319.747C278.616 320.129 277.956 319.934 277.809 319.464L277.802 319.443C277.636 318.836 276.959 318.435 276.342 318.648C275.623 318.895 275.643 319.648 275.139 320.085C275.079 320.136 275.009 320.145 274.937 320.11C274.401 319.854 274.498 319.083 274.688 318.642C274.939 318.064 275.427 317.548 276.042 317.346ZM274.505 313.958C275.42 313.035 277.805 312.142 278.43 313.846C278.55 314.171 278.296 314.608 277.955 314.676C277.395 314.785 276.898 314.545 276.342 314.589C275.892 314.623 275.422 314.772 275.063 315.047C274.066 315.811 273.847 317.101 273.152 318.073C273.118 318.12 273.052 318.1 273.046 318.045C272.888 316.63 273.503 314.968 274.505 313.958ZM286.436 313.05C287.042 312.838 287.73 312.856 288.341 313.044C288.955 313.233 289.519 313.592 289.954 314.062C290.152 314.276 290.334 314.511 290.481 314.762C290.558 314.894 290.64 315.169 290.729 315.333C291.207 315.605 291.411 316.227 290.984 316.67L290.964 316.689L290.906 316.745C290.677 316.97 290.329 317.068 290.015 316.978C289.313 316.777 289.227 316.229 288.984 315.649C288.823 315.266 288.548 314.926 288.213 314.677C287.424 314.087 286.131 313.9 285.18 314.178C285.129 314.192 285.071 314.128 285.106 314.082C285.286 313.852 285.39 313.663 285.631 313.477C285.876 313.288 286.142 313.152 286.436 313.05Z" fill="#2B283A"></path><path fill-rule="evenodd" clip-rule="evenodd" d="M377.245 435.037C376.582 432.021 379.618 431.001 381.532 430.33C382.903 429.463 387.983 426.457 391.914 422.747C395.13 419.711 397.319 415.82 398.231 415.448C398.231 415.448 399.168 414.918 399.266 414.524C399.837 412.211 399.361 410.057 399.266 408.655C397.436 408.187 395.97 407.601 394.874 406.784C394.554 406.888 394.075 407.021 393.931 406.565C392.941 400.112 392.513 393.735 391.707 387.278C388.654 362.681 388.31 333.947 393.561 311.482C393.616 310.368 393.516 309.363 393.414 308.406C392.704 308.332 392.276 307.661 391.695 307.26C390.796 306.562 389.73 306.025 389.774 304.805C389.56 304.648 389.586 304.558 389.69 304.358C389.004 301.477 392.066 298.442 392.931 296.068C391.358 281.043 393.499 266.847 392.305 251.821C390.796 251.204 391.81 247.352 391.914 245.763C392.749 235.53 398.2 225.41 408.018 222.067C408.578 221.957 409.422 221.331 409.886 221.751C410.784 221.403 411.978 222.087 412.672 221.3L412.665 221.295C413.25 220.503 413.512 219.497 413.705 218.547C413.672 218.815 413.619 219.08 413.552 219.34C415.246 214.686 415.671 213.441 421.12 213.221C423.573 213.19 426.809 213.261 428.239 215.546C428.826 216.608 428.647 217.826 429.011 218.945C429.679 220.996 432.562 220.005 434.077 221.07C446.193 224.863 456.132 232.604 459.398 245.029C460.066 246.526 460.824 248.017 461.382 249.562C461.468 249.792 461.706 250.568 461.135 250.925L460.859 251.098C464.496 267.688 464.737 281.666 452.518 292.724C451.602 297.476 453.96 303.966 453.054 308.581C453.57 309.295 452.915 309.872 452.255 309.918C452.192 309.952 451.934 310.062 451.864 310.093C452.914 324.576 448.502 344.092 446.556 351.794C446.292 356.42 447.909 360.22 451.236 362.74C454.913 364.949 462.181 374.93 460.833 385.399C462.408 385.7 463.972 385.865 465.481 386.443C472.092 385.305 472.027 397.74 472.447 402.113C473.16 409.434 473.603 420.046 466.477 424.732C464.6 426.061 460.793 427.617 458.842 425.49C458.203 424.741 458.042 424.017 458.294 423.252C455.073 418.81 455.941 413 455.645 407.791C454.711 407.735 453.733 408.163 452.83 408.007C451.903 407.21 455.286 407.427 455.637 407.38C455.6 406.577 455.535 405.731 455.449 404.921C454.919 405.024 454.239 405.274 453.729 405.292C453.427 405.364 453.213 404.959 453.395 404.748C453.793 404.377 454.808 404.435 455.381 404.382C455.284 403.704 455.166 402.992 455.035 402.336C454.336 402.311 453.613 402.746 452.952 402.657C453.452 402.33 454.394 402.43 455.004 402.214C454.606 400.102 453.798 398.098 453.045 396.122C451.2 396.865 449.608 396.894 447.805 396.672C447.068 396.783 446.709 396.636 446.589 395.736L446.636 395.679C445.208 387.338 440.6 379.387 432.038 370.37C430.347 368.523 428.437 366.349 427.164 363.918C424.606 358.858 424.169 353.274 422.197 348.02C420.357 342.738 417.841 337.687 415.478 332.68C415.132 335.245 414.666 337.878 414.182 340.394C412.053 349.31 412.26 358.822 413.826 367.788C416.146 380.345 415.027 392.961 415.543 405.607C415.536 406.337 415.443 407 415.553 407.759C415.568 407.818 415.539 407.887 415.469 407.885L415.335 407.888C414.22 408.685 412.682 408.828 411.371 409.261C410.821 409.685 410.977 410.358 410.926 410.883C410.783 413.145 410.598 415.415 410.826 417.747C411.837 419.636 413.092 419.246 413.349 421.91C413.573 424.95 413.971 428.184 412.454 430.892L413.027 430.988C413.879 432.733 413.36 433.866 411.357 434.604C401.472 438.387 387.561 441.821 377.245 438.966C377.059 439.147 376.785 438.959 376.572 438.673C376.368 438.4 376.217 438.036 376.25 437.825C376.428 436.899 376.184 435.208 377.245 435.037Z" fill="white"></path><path fill-rule="evenodd" clip-rule="evenodd" d="M376.775 438.067C385.658 441.96 401.789 437.048 410.516 434.206C412.87 433.377 413.653 433.215 412.994 430.567C411.76 432.891 409.107 433.453 406.565 433.918C397.953 435.833 389.175 439.371 379.966 437.645C378.613 437.437 377.276 436.723 376.882 435.406C376.64 435.964 376.79 436.72 376.693 437.335C376.676 437.579 376.67 437.844 376.775 438.067ZM412.703 423.587C412.543 422.025 412.286 420.377 411.376 418.998C411.475 421.228 410.102 425.019 407.095 423.756C406.243 423.315 405.766 422.428 405.218 421.716C403.396 419.373 401.061 417.338 398.422 415.858C396.955 416.105 396.324 418.724 395.378 419.821C396.432 420.279 398.344 421.325 398.536 422.405C397.22 421.973 396.008 421.167 394.627 420.885C394.184 421.481 393.715 422.058 393.223 422.617C393.867 422.894 396.46 424.173 396.443 424.811C395.04 424.589 393.682 423.919 392.271 423.644C391.645 424.251 391.073 424.904 390.448 425.514C391.392 425.892 392.388 426.316 392.903 427.2C392.928 427.24 392.868 427.285 392.835 427.246C392.128 426.414 390.912 426.262 389.858 426.074C388.242 427.561 386.431 428.871 384.405 429.852C382.378 430.933 379.297 431.181 378.491 433.528C377.846 435.873 379.858 436.123 381.714 436.289C383.592 436.55 385.484 436.59 387.35 436.437C393.182 436.201 398.695 434.524 404.207 433.06C410.946 431.85 413.132 430.87 412.703 423.587ZM410.726 409.868C410.743 409.971 410.757 410.075 410.772 410.178C410.791 410.069 410.804 409.958 410.831 409.85C410.797 409.856 410.762 409.862 410.726 409.868ZM399.838 415.106C402.42 416.97 404.94 419.046 406.733 421.646C407.92 423.761 409.5 422.473 409.892 420.78C410.209 416.997 409.935 413.73 410.308 409.926C406.738 410.401 403.071 410.108 399.583 409.268C400.003 410.967 400.195 411.611 400.208 413.353C400.186 413.928 400.194 414.628 399.838 415.106ZM394.058 275.897C393.982 281.463 393.945 287.031 394.144 292.596C399.165 279.932 397.628 266.188 398.341 252.876C396.857 252.393 395.264 252.183 393.735 251.976C394.348 260.239 394.19 267.621 394.058 275.897ZM422.436 304.019C434.764 298.266 436.469 283.517 446.232 275.39C446.547 275.097 446.809 274.797 446.96 274.442C446.26 267.541 446.312 261.49 445.484 254.595C444.56 252.959 444.194 251.058 443.506 249.316C443.145 248.256 442.708 247.205 442.604 246.092C442.517 245.726 443.104 245.567 443.213 245.913C444.516 248.384 445.164 251.131 446.137 253.737C446.274 253.79 446.455 253.748 446.509 253.608C446.517 253.642 446.527 253.676 446.536 253.71C450.722 252.113 455.036 250.627 459.597 250.638C459.593 250.625 459.59 250.609 459.587 250.595C459.868 250.603 460.458 250.582 460.282 250.184C456.274 235.92 449.077 226.142 433.811 221.499C435.763 232.566 407.357 233.207 407.75 222.905C397.049 227.391 392.439 239.994 393.653 250.603C394.669 250.337 397.317 251.391 398.349 252.003C398.56 247.694 398.038 242.494 398.345 238.643C399.973 258.285 403.012 281.789 392.97 299.613C392.318 300.808 391.256 301.951 391.281 303.354C391.204 303.432 391.196 303.567 391.291 303.665C391.291 303.672 391.291 303.678 391.292 303.685C391.297 303.687 391.303 303.687 391.308 303.687C391.6 304.025 392.212 304.092 392.634 304.167C393.63 304.363 394.679 304.511 395.59 304.963C405.309 309.943 412.932 303.523 422.436 304.019ZM419.364 313.069C418.894 313.945 418.106 314.65 417.17 315.089C417.285 315.31 417.325 315.559 417.337 315.792C419.021 316.128 418.547 316.907 419.685 317.28C420.43 317.481 421.145 317.566 421.789 318.006C423.979 319.996 424.521 319.849 426.872 318.099C426.839 317.94 430.037 314.893 431.028 313.188C431.853 311.767 432.717 310.336 433.982 309.236C440.177 303.046 446.776 297.205 452.772 290.843C464.789 279.156 462.497 265.905 459.737 251.307C455.281 251.827 450.802 252.87 446.79 254.784C448.205 261.227 448.295 267.067 448.905 273.605C449.088 274.414 448.881 275.971 447.708 275.611C436.921 283.969 435.668 301.145 421.512 306.111C415.744 308.4 418.178 310.257 416.271 314.578C417.321 314.391 418.256 313.532 418.707 312.712C418.93 312.304 419.581 312.663 419.364 313.069ZM451.968 307.999C452.213 306.361 452.022 304.731 452.011 303.09C452.142 300.103 452.04 297.191 451.922 294.193C448.54 297.614 445.023 300.918 441.569 304.274C445.248 304.726 449.49 305.1 451.968 307.999ZM452.031 310.409C451.973 310.39 451.917 310.366 451.865 310.335C451.878 311.621 451.858 312.905 451.81 314.188C451.903 312.93 451.975 311.669 452.031 310.409ZM456.168 401.757C457.161 401.683 461.405 401.54 461.914 402.19C461.341 402.426 460.552 402.296 459.935 402.322C458.737 402.37 457.542 402.473 456.356 402.637C456.445 403.088 456.525 403.538 456.591 403.99C457.787 404.102 460.116 404.153 460.875 404.969C459.52 405.18 458.11 404.99 456.752 405.254C456.818 405.872 456.866 406.492 456.901 407.111C457.443 407.168 460.627 407.682 460.625 408.171C459.432 408.325 458.169 408.122 456.954 408.237C457.217 411.95 456.325 423.161 461.525 423.848C466.07 423.614 468.064 416.424 468.682 412.975C470.051 404.937 469.817 396.369 467.102 388.622C466.132 386.468 463.493 386.094 461.261 385.983C461.176 386.348 461.093 386.705 460.999 387.066C461.966 389.208 462.275 391.619 462.301 393.935C462.096 397.267 457.885 399.743 454.827 397.543C455.398 398.905 455.84 400.323 456.168 401.757ZM462.185 425.717C471.189 423.828 472.666 413.652 472.046 406.169C471.542 400.961 472.149 389.979 467.222 386.919C473.589 392.592 473.036 431.209 458.926 424.469C459.277 425.557 461.087 425.871 462.185 425.717ZM460.419 389.41C460.403 389.276 460.385 389.142 460.366 389.008C459.368 391.657 457.657 394.174 455.108 395.707C456.083 396.895 457.983 397.249 459.265 396.276C461.502 394.64 460.569 391.681 460.419 389.41ZM429.73 220.213C429.748 220.244 429.767 220.274 429.786 220.303C429.91 220.312 430.036 220.323 430.163 220.336C430.018 220.294 429.875 220.255 429.73 220.213ZM412.622 221.185C412.626 221.171 412.631 221.157 412.635 221.144C412.624 221.15 412.612 221.158 412.602 221.165C412.61 221.171 412.616 221.177 412.622 221.185ZM375.901 436.455C375.925 435.796 375.935 434.945 376.725 434.711C376.366 431.872 378.781 430.255 381.317 429.469C383.479 428.179 385.93 427.276 387.917 425.721C386.995 425.551 386.072 425.347 385.252 424.956C384.634 424.66 384.931 423.676 385.602 423.768C386.79 423.921 387.857 424.509 388.972 424.919C389.607 424.41 390.22 423.881 390.801 423.319C390.078 423.183 389.159 423.232 388.739 422.533C388.608 422.314 388.666 422.086 388.824 421.917C389.556 421.194 391.008 421.917 391.917 422.127C392.353 421.636 392.775 421.134 393.19 420.628C392.502 420.566 390.716 420.689 391.066 419.582C391.736 418.717 393.179 419.237 394.149 419.414C395.379 417.938 395.775 415.674 397.697 414.862C397.767 414.504 398.245 414.531 398.566 414.638C399.036 412.444 399 411.329 398.862 409.081C397.435 408.695 396.019 408.189 394.832 407.359C394.287 407.516 393.626 407.335 393.513 406.709C393.173 404.507 392.984 401.965 392.746 399.716H392.66C392.207 395.611 391.843 391.496 391.332 387.402C388.405 363.742 387.767 334.864 393.185 311.49C393.229 310.604 393.164 309.718 393.072 308.839C392.426 308.67 392.042 308.054 391.507 307.698C390.512 306.907 389.501 306.464 389.41 305.085C389.209 304.898 389.185 304.615 389.296 304.37C389.038 302.953 389.417 301.547 390.19 300.322C391.037 298.928 391.837 297.52 392.543 296.057C390.998 281.303 393.095 267.005 391.948 252.178C390.479 251.419 391.401 247.199 391.538 245.793C392.397 236.555 396.816 226.354 406.212 222.511C406.871 221.969 407.791 221.785 408.597 221.486C409.141 221.224 410.027 220.998 410.4 221.607C410.794 221.427 412.067 221.289 412.503 220.978C412.584 220.92 412.636 220.857 412.649 220.785C412.68 220.786 412.718 220.781 412.759 220.772C413.161 220.218 413.544 216.358 414.039 216.633C414.579 217.959 414.204 219.456 413.687 220.795C413.331 221.979 412.843 225.024 410.948 224.246C410.622 224.087 410.824 223.676 411.116 223.642C412.014 223.392 412.215 222.104 412.562 221.349C412.15 221.683 410.277 222.182 410.072 222.288C406.008 231.391 430.579 230.913 432.511 224.637C433.888 222.469 432.699 221.295 430.244 220.947C432.048 222.904 429.763 223.339 428.895 221.419C428.064 220.045 427.686 218.375 427.969 216.794C427.823 216.238 427.7 215.496 428.551 215.646C428.58 215.572 428.626 215.629 428.608 215.682C428.918 216.165 428.702 216.858 428.813 217.415C428.906 218.326 429.171 219.219 429.621 220.025C430.455 220.181 431.287 220.348 432.115 220.53C432.61 219.546 435.829 221.508 436.693 221.739C448.172 225.05 456.901 233.862 459.948 244.98C460.627 246.46 461.362 247.948 461.919 249.474C462.168 250.135 462.168 250.955 461.484 251.383C464.816 266.302 465.63 281.847 453.039 293.038C452.753 294.25 452.944 295.535 452.952 296.768C452.846 299.577 455.307 309.207 452.449 310.453C453.284 322.927 450.154 339.899 447.119 351.933C446.894 356.069 448.173 359.832 451.612 362.442C458.154 367.214 460.909 375.179 461.674 382.77C461.782 383.548 461.675 384.34 461.497 385.104C462.914 385.361 464.242 385.529 465.618 386.037C473.209 384.617 472.667 400.532 473.249 405.255C473.703 412.237 473.419 420.606 466.845 425.178C464.635 426.712 460.733 428.187 458.58 425.863C457.971 425.151 457.638 424.319 457.878 423.409C454.791 418.997 455.521 413.357 455.289 408.337C454.481 408.364 453.599 408.715 452.803 408.523C452.19 408.364 452.112 407.597 452.631 407.291C453.38 406.876 454.397 407.034 455.235 407.006C455.209 406.526 455.173 406.046 455.126 405.565C454.33 405.754 453.19 406.21 452.954 405.126C452.859 404.137 454.137 404.062 454.933 404.02C454.878 403.647 454.815 403.276 454.745 402.906C454.135 402.966 453.492 403.345 452.893 403.163C452.554 403.033 452.435 402.698 452.684 402.426C453.145 401.986 453.933 402.074 454.544 401.936C454.173 400.164 453.503 398.47 452.858 396.774C451.69 397.17 450.425 397.432 449.179 397.333C448.532 397.2 447.827 397.162 447.174 397.248C446.448 397.06 446.28 396.303 446.185 395.684C446.199 395.662 446.213 395.64 446.229 395.622C444.551 386.084 438.532 377.845 431.781 370.747C429.922 368.715 428.098 366.604 426.835 364.192C424.27 359.151 423.809 353.479 421.847 348.242C420.193 343.487 417.982 338.926 415.817 334.359C414.947 340.374 413.324 346.29 413.139 352.39C412.855 360.108 414.598 367.712 415.342 375.368C416.416 383.463 415.844 391.599 415.912 399.716H415.865C415.882 401.672 415.938 403.714 416.062 405.665C416.057 406.378 415.963 407.05 416.067 407.763C416.124 408.158 415.834 408.406 415.529 408.414C414.405 409.134 412.995 409.389 411.705 409.696C411.348 409.963 411.502 410.62 411.44 411.023C411.301 413.283 411.118 414.988 411.343 417.266C412.605 419.087 413.515 418.797 413.865 421.566C414.059 424.455 414.484 427.581 413.19 430.204C413.77 430.333 413.989 432.058 413.902 432.514C413.754 433.802 412.592 434.208 411.468 434.653C403.251 437.658 385.792 442.604 377.348 439.202C376.742 439.537 376.069 438.881 375.873 438.355C375.614 437.713 375.853 437.092 375.901 436.455Z" fill="#2B283A"></path><path fill-rule="evenodd" clip-rule="evenodd" d="M398.317 198.261C399.179 193.667 401.308 189.296 404.576 185.877C404.954 185.47 405.293 184.83 405.869 184.728C406.446 183.578 407.548 182.766 408.428 181.838C410.349 179.969 412.188 177.879 414.666 176.699C426.162 172.084 437.225 185.241 439.573 195.135C441.904 203.093 439.358 214.069 429.252 214.391C427.823 216.237 425.85 217.514 423.825 218.654C421.057 220.383 418.039 221.085 414.837 220.123C411.649 220.936 408.344 218.327 406.428 216.039C404.913 214.266 403.876 212.103 402.49 210.269C400.855 210.229 399.442 208.877 399.222 207.293C397.695 204.554 397.764 201.271 398.317 198.261Z" fill="white"></path><path fill-rule="evenodd" clip-rule="evenodd" d="M423.356 175.137C421.264 174.66 419.07 174.759 416.999 175.283C412.892 176.321 409.514 179.024 406.711 182.037C403.979 184.974 401.725 188.343 400.079 191.972L399.996 192.156C398.831 194.744 397.819 197.432 397.776 200.281C397.738 202.732 397.992 205.285 398.804 207.618C399.527 209.694 400.857 211.788 403.145 212.285C404.463 215.558 407.045 218.392 410.296 219.908C412.313 220.849 414.526 221.268 416.755 221.06C419.03 220.846 421.155 219.781 422.933 218.42C422.981 218.382 422.919 218.311 422.868 218.339C420.728 219.542 418.197 219.972 415.745 219.894C411.717 219.763 408.024 217.642 405.901 214.306C405.374 213.475 404.903 212.6 404.528 211.689C404.549 211.614 404.562 211.539 404.562 211.465C404.562 211.151 404.409 210.91 404.182 210.756C404.077 210.434 403.983 210.109 403.905 209.779C403.728 209.034 403.629 208.277 403.57 207.514C403.522 206.894 403.548 206.237 403.484 205.601C403.508 205.093 403.54 204.584 403.588 204.076C403.739 202.44 404.047 200.808 404.639 199.267C405.24 197.705 406.188 196.329 407.384 195.143C409.951 192.602 413.146 190.745 415.64 188.134L415.771 187.996L415.78 187.993C416.089 188.302 416.399 188.612 416.71 188.921L418.127 190.333C421.02 193.215 423.889 196.126 426.406 199.335C427.855 201.182 429.157 203.118 430.279 205.171C430.81 206.144 431.292 207.141 431.727 208.157L431.898 208.562C432.103 209.047 432.323 209.589 432.445 210.136C432.082 210.488 431.815 211.007 431.52 211.407C431.186 211.861 430.801 212.292 430.405 212.695C430.003 213.104 429.564 213.495 429.096 213.83L429.041 213.869C428.505 214.24 427.889 214.497 427.809 215.204C427.774 215.511 428.055 215.757 428.316 215.853C429.028 216.115 429.766 215.364 430.24 214.932C430.536 214.663 430.809 214.373 431.062 214.066C431.307 214.101 431.554 214.118 431.8 214.09C432.178 214.045 432.554 213.981 432.923 213.887C435.988 213.101 438.257 210.619 439.48 207.853C441.124 204.141 441.085 199.861 440.402 195.935C439.154 188.762 435.115 182.061 429.015 177.821C427.307 176.633 425.413 175.606 423.356 175.137ZM420.055 176.097C423.995 175.895 427.587 177.877 430.47 180.346C435.717 184.84 438.95 191.42 439.601 198.177C439.946 201.767 439.688 205.638 437.769 208.809C437.025 210.041 436.066 211.112 434.935 212.017C433.869 212.869 432.653 213.36 431.354 213.694C431.413 213.615 431.472 213.534 431.528 213.453C431.83 213.022 432.071 212.562 432.272 212.082C432.29 212.099 432.323 212.103 432.343 212.076C433.163 210.978 432.905 209.667 432.515 208.46C432.105 207.194 431.586 205.961 430.992 204.765C428.831 200.409 425.618 196.612 422.282 193.071C420.578 191.262 418.817 189.505 417.063 187.743C416.187 186.863 415.314 185.98 414.451 185.087C414.021 184.643 413.595 184.197 413.173 183.747C412.754 183.301 412.378 182.829 411.858 182.495C411.443 182.23 411.028 182.738 411.222 183.115C411.521 183.697 412.034 184.158 412.488 184.63L412.535 184.678C412.976 185.145 413.423 185.608 413.873 186.067C414.389 186.596 414.911 187.121 415.432 187.645C414.987 187.595 414.536 187.567 414.093 187.501C413.492 187.411 412.899 187.28 412.308 187.138C411.686 186.987 411.072 186.796 410.479 186.557C409.923 186.333 409.396 185.973 408.784 185.938C408.265 185.909 408.104 186.535 408.39 186.865C408.786 187.32 409.498 187.498 410.078 187.666L410.159 187.691C410.799 187.882 411.455 188.025 412.117 188.12C412.988 188.247 413.996 188.305 414.928 188.175C413.066 189.241 411.353 190.561 409.644 191.848L409.343 192.075C407.673 193.329 406.044 194.68 404.854 196.396C403.743 197.996 403.072 199.86 402.696 201.748C402.51 202.68 402.387 203.623 402.305 204.567C401.999 205.406 402.047 206.403 402.125 207.325L402.153 207.642L402.151 207.736C402.139 208.313 401.902 209.597 402.461 210.032C402.47 210.078 402.479 210.125 402.489 210.171C402.42 210.13 402.35 210.087 402.282 210.042C402.254 210.024 402.227 210.003 402.2 209.984L402.123 209.922C402.12 209.92 402.115 209.916 402.115 209.916C401.942 209.767 401.776 209.612 401.622 209.444C401.336 209.134 401.065 208.74 400.809 208.285C400.245 207.288 399.884 206.203 399.606 205.081C399.096 203.03 398.885 200.828 399.118 198.725C399.151 198.431 399.217 198.063 399.32 197.686C399.566 196.79 399.848 195.902 400.164 195.027C400.796 193.276 401.57 191.578 402.474 189.944C404.308 186.627 406.668 183.56 409.496 180.985C412.36 178.379 416.073 176.301 420.055 176.097ZM425.611 186.697C425.468 186.612 425.322 186.777 425.392 186.91C425.734 187.552 426.307 188.094 426.783 188.645C427.277 189.215 427.767 189.789 428.256 190.362C429.251 191.531 430.222 192.722 431.155 193.938L431.401 194.26C432.222 195.334 433.031 196.425 433.748 197.566C434.123 198.164 434.454 198.781 434.754 199.418C435.039 200.023 435.171 200.754 435.515 201.323C435.536 201.358 435.603 201.356 435.612 201.31C435.723 200.698 435.447 199.96 435.248 199.386C435.013 198.705 434.679 198.055 434.321 197.428C433.574 196.12 432.679 194.893 431.779 193.68C430.866 192.45 429.916 191.245 428.922 190.075C428.454 189.527 427.976 188.988 427.484 188.461L427.299 188.263C426.783 187.718 426.264 187.087 425.611 186.697ZM428 184.796C427.766 184.627 427.566 184.972 427.715 185.154C428.606 186.248 429.619 187.229 430.593 188.249C431.528 189.228 432.424 190.243 433.267 191.3C434.988 193.452 436.366 195.814 437.532 198.29C437.554 198.336 437.623 198.302 437.613 198.256C436.995 195.579 435.55 193.147 433.905 190.95L433.843 190.866C432.179 188.657 430.266 186.435 428 184.796Z" fill="#2B283A"></path><path fill-rule="evenodd" clip-rule="evenodd" d="M415.175 209.93C414.647 209.083 413.522 211.158 413.403 211.515C413.297 211.831 413.227 212.156 413.192 212.482C412.783 212.572 412.357 212.573 411.939 212.494C411.315 212.378 410.934 212.05 410.393 211.77C410.019 211.577 409.548 211.803 409.353 212.125C409.125 212.504 409.27 212.896 409.571 213.179C410.141 213.714 411.264 213.837 412.009 213.695C412.436 213.613 412.827 213.458 413.173 213.23C413.175 213.272 413.176 213.316 413.18 213.358L413.186 213.431C413.243 214.024 413.41 214.77 413.882 215.157C414.658 215.79 415.615 214.572 414.861 213.94L414.838 213.92C414.37 213.551 414.268 212.561 414.293 212.016C414.309 211.66 414.376 211.299 414.491 210.961L414.515 210.893C414.55 210.797 414.927 209.889 415.065 210.004L415.07 210.011C415.127 210.076 415.217 210 415.175 209.93ZM410.962 205.151C410.25 205.574 409.165 206.559 409.931 207.607C410.833 208.531 412.132 207.472 412.772 206.993C413.365 206.621 414.032 207.575 413.482 208.009C408.857 211.351 406.98 205.262 410.603 204.654C411.001 204.587 411.149 205.021 410.962 205.151ZM418.569 201.244C417.873 201.124 417.16 201.292 416.584 201.691L416.54 201.721C415.985 202.117 415.364 202.813 415.683 203.496C415.811 203.769 416.193 203.813 416.436 203.688C416.84 203.482 416.914 202.973 417.275 202.691C417.57 202.459 417.969 202.319 418.35 202.353C419.245 202.432 419.795 203.295 420.074 204.037C420.109 204.131 420.252 204.169 420.308 204.067C420.963 202.871 419.804 201.458 418.569 201.244ZM407.418 200.794C406.085 200.687 404.524 202.036 404.875 203.41C405.044 204.069 406.045 204.05 406.223 203.41C406.321 203.057 406.312 202.746 406.571 202.453C406.786 202.211 407.091 202.071 407.418 202.093C407.779 202.116 408.113 202.292 408.366 202.54C408.595 202.764 408.731 203.09 408.967 203.289C409.026 203.337 409.104 203.341 409.161 203.289C409.569 202.922 409.324 202.158 409.066 201.775C408.696 201.228 408.094 200.848 407.418 200.794ZM421.108 198.806C420.252 198.067 418.698 197.352 417.544 197.717C416.881 197.926 416.592 198.968 417.332 199.3C418.19 199.681 419.178 199.526 420.05 199.922C420.417 200.089 420.762 200.298 421.017 200.604C421.218 200.845 421.423 201.161 421.713 201.299C421.789 201.337 421.893 201.337 421.955 201.27C422.592 200.566 421.665 199.287 421.108 198.806ZM408.887 197.683C408.359 197.538 407.772 197.542 407.235 197.632C406.698 197.724 406.153 197.94 405.715 198.257L405.664 198.294C405.185 198.646 404.614 199.159 404.644 199.781C404.67 200.302 405.232 200.654 405.716 200.382C406.111 200.158 406.296 199.713 406.631 199.416C406.907 199.171 407.232 198.979 407.577 198.842C407.961 198.693 408.346 198.623 408.758 198.616C409.075 198.611 409.395 198.712 409.706 198.745C409.68 198.795 409.927 198.772 410.068 198.726C410.173 198.683 410.173 198.553 410.136 198.47C409.957 198.056 409.303 197.797 408.887 197.683Z" fill="#2B283A"></path><path fill-rule="evenodd" clip-rule="evenodd" d="M408.966 215.454C409.844 214.69 410.829 213.156 412.091 214.371C412.403 214.714 412.529 215.484 413.007 215.634C413.64 215.835 414.269 215.18 414.485 214.677C415.369 211.884 411.714 211.119 409.633 211.571C408.617 211.977 407.867 213.618 407.823 214.474C407.793 215.05 408.292 215.896 408.966 215.454ZM402.338 211.151C402.346 211.113 402.358 211.081 402.373 211.05C402.761 210.907 403.068 211.052 403.259 211.326C403.252 211.393 403.232 211.462 403.218 211.529C403.365 211.831 403.497 212.204 403.696 212.465C403.735 212.467 403.776 212.464 403.815 212.452C407.108 212.788 405.5 209.425 408.84 208.589C411.422 208.175 416.089 208.651 417.308 211.273C418.268 215.462 423.152 212.544 424.756 210.365C426.467 208.381 427.574 205.959 428.641 203.607C428.867 203.11 429.569 203.466 429.493 203.943C430.48 205.874 430.447 208.193 430.69 210.307C431.106 214.527 431.511 220.445 427.494 223.021C422.259 228.795 409.19 230.832 403.153 225.527C401.064 221.143 401.321 215.794 402.338 211.151Z" fill="#2B283A"></path><path d="M202.934 299.538C202.953 299.549 202.953 299.561 202.933 299.573C202.893 301.33 200.102 319.919 199.998 320.011C195.214 353.852 187.766 387.057 184.042 421.079C185.166 422.548 183.545 424.681 184.042 426.421C184.428 428.601 179.904 429.903 179.302 429.875C178.351 430.737 176.537 430.579 175.627 431.481C174.98 432.528 174.851 436.473 174.874 436.315C174.753 436.537 192.211 444.383 200.305 448.989C202.037 449.902 203.715 451.509 205.608 452.326C206.51 452.78 205.113 454.345 204.589 455.163C203.932 456.251 204.877 457.417 203.314 457.097C202.034 458.154 194.34 457.364 192.42 457.097C185.142 456.278 178.179 456.382 170.961 455.163C169.277 454.862 167.615 454.526 166.049 453.823C164.646 454.345 163.106 453.979 161.675 453.789C157.882 452.941 158.387 448.35 158.869 445.484C159.269 441.749 160.85 438.207 162.98 435.071C162.704 434.823 162.453 434.557 162.181 434.296C160.308 434.259 159.173 432.328 159.513 430.677C159.114 429.899 158.625 429.18 158.457 428.325C157.563 428.641 156.234 428.844 155.925 429.834C155.497 431.37 154.211 432.669 152.466 432.727C151.778 433.47 150.762 433.981 149.75 434.171C151.557 439.779 151.952 446.248 153.363 452.076C153.838 454.754 154.273 457.439 154.636 460.132C155.198 462.72 154.597 465.955 151.611 466.804C149.011 467.404 146.276 466.71 143.633 466.707C140.9 466.377 137.921 466.863 135.363 465.756C132.616 464.301 132.858 461.209 133.068 458.642C133.618 453.234 134.323 447.703 136.33 442.592C134.854 440.971 135.829 438.54 136.056 436.63C136.056 436.63 137.499 431.481 137.499 428.749C135.333 428.755 132.878 426.329 134.242 424.311C134.088 418.283 138.041 412.972 139.908 407.372C143.395 399.594 145.381 391.467 147.847 383.354C149.885 376.957 152.467 363.998 152.466 364.006C154.832 348.158 149.384 332.651 145.274 317.549C143.755 311.686 143.93 307.046 142.877 300.399C142.81 301.788 201.853 300.24 202.933 299.573C202.933 299.56 202.934 299.548 202.934 299.538Z" fill="white"></path><path fill-rule="evenodd" clip-rule="evenodd" d="M204.566 298.9C203.5 302.1 201.852 320.452 201.852 320.452C201.852 320.452 186.35 388.744 185.325 424.62C186.363 427.62 183.381 429.797 180.632 430.235L180.257 430.452C179.003 431.172 177.708 431.876 176.337 432.321C176.303 432.341 176.269 432.361 176.234 432.38C176.167 432.416 176.095 432.439 176.022 432.449C176.098 433.367 176.389 434.229 176.762 435.068C180.439 435.917 183.827 437.652 187.206 439.386C189.071 440.341 190.935 441.296 192.843 442.1C193.89 442.744 195.588 443.475 197.468 444.286C201.803 446.152 207.11 448.437 207.67 451.044L207.691 451.158C208.013 452.834 207.113 454.901 205.205 455.06C206.2 455.798 205.548 457.286 204.463 457.573C203.604 457.802 202.696 457.816 201.793 457.829C201.326 457.836 200.86 457.843 200.403 457.881C187.744 458.278 174.974 457.159 162.635 454.32C161.598 454.082 160.52 453.768 159.645 453.15C155.601 449.947 157.792 444.043 159.673 438.978C160.282 437.337 160.859 435.785 161.181 434.441C160.703 434.366 160.23 434.261 159.766 434.122L159.662 434.092C159.211 433.956 158.744 433.791 158.394 433.473C158.386 433.464 158.377 433.456 158.37 433.448L158.354 433.432C156.636 433.407 157.56 430.519 158.187 428.556C158.383 427.942 158.55 427.419 158.598 427.102C158.292 427.756 158.003 428.425 157.715 429.096C157.141 430.426 156.565 431.762 155.836 432.998C155.272 433.851 154.208 433.628 153.242 433.426C152.912 433.356 152.593 433.289 152.308 433.268C152.678 440.065 154.3 446.691 155.966 453.276C156.065 453.675 156.168 454.08 156.273 454.487C157.604 459.676 159.081 465.437 151.978 466.977C146.7 468.36 134.122 467.831 131.873 462.051C131.376 458.532 132.064 454.976 132.744 451.466C132.972 450.284 133.2 449.107 133.38 447.938L133.506 447.278C133.615 446.704 133.724 446.13 133.833 445.556C134.574 441.618 135.316 437.676 136.402 433.815C136.573 433.094 136.783 432.388 137.01 431.688C137.04 431.278 137.062 430.869 137.035 430.458C137.001 429.919 136.899 429.393 136.79 428.865C136.776 428.798 136.765 428.721 136.752 428.637C134.53 427.612 132.879 426.452 132.666 425.2C132.476 424.16 132.789 423.108 133.089 422.101C133.133 421.958 133.175 421.816 133.215 421.675L133.235 421.608C135.359 414.145 138.054 406.901 140.73 399.702C147.071 382.65 153.318 365.853 151.687 346.997C151.252 340.279 149.418 333.835 147.583 327.39C145.817 321.183 144.051 314.975 143.534 308.522C142.928 305.898 142.38 303.246 142.292 300.541C141.918 300.453 204.566 298.9 204.566 298.9ZM137.403 463.459C135.574 462.769 134.014 462.182 134.324 459.896C140.661 462.46 147.77 462.91 154.541 462.291C154.233 463.093 153.615 463.641 152.75 464.006C147.872 465.686 142.33 465.267 137.531 463.507L137.403 463.459ZM160.136 449.485C160.516 451.364 162.722 451.76 164.478 452.075C164.685 452.113 164.886 452.148 165.078 452.185C169.402 453.091 173.769 453.818 178.162 454.332C186.673 455.359 195.282 455.535 203.834 455.145C203.913 455.112 203.981 455.068 204.049 455.024C204.182 454.939 204.313 454.854 204.505 454.855H204.541L204.561 454.856L204.589 454.857C204.447 454.763 204.326 454.64 204.235 454.496C199.79 454.007 195.336 453.565 190.882 453.123C180.607 452.104 170.327 451.084 160.136 449.485ZM163.809 431.861C167.374 432.417 170.978 432.094 174.509 431.481C173.957 432.62 173.869 433.991 174.12 435.298C172.369 435.71 170.8 436.822 169.235 437.93C166.861 439.612 164.497 441.287 161.528 440.502C161.705 439.943 161.893 439.382 162.081 438.819C162.843 436.54 163.616 434.227 163.809 431.861ZM138.116 429.225C138.128 429.245 138.135 429.269 138.132 429.299C138.115 432.738 137.767 436.164 137.26 439.568C140.39 436.193 145.628 435.339 149.942 436.742L149.923 436.522C149.909 436.367 149.894 436.211 149.879 436.054C149.776 434.958 149.671 433.846 149.849 432.766L149.651 432.711C149.224 432.594 148.687 432.453 148.067 432.291C145.461 431.609 141.412 430.55 138.116 429.225ZM143.339 305.124C162.794 309.259 183.291 308.945 202.547 303.944C202.371 305.148 202.19 306.353 202.01 307.557C201.664 309.857 201.32 312.155 201.018 314.461C199.112 329.753 195.873 344.576 192.647 359.347C188.025 380.505 183.427 401.551 182.803 423.703C182.239 424.198 182.284 424.998 182.773 425.515C182.715 425.454 182.743 425.493 182.784 425.549C182.79 425.558 182.796 425.567 182.803 425.575L182.846 425.637C182.844 425.644 182.849 425.667 182.856 425.696L182.888 425.822C182.886 425.823 182.884 425.834 182.883 425.85C182.882 425.863 182.881 425.881 182.881 425.899L182.877 426.04C182.683 427.157 181.431 427.552 180.351 427.825L179.82 427.958C175.489 428.983 171.13 430.003 166.677 430.412C166.471 430.517 165.313 430.519 164.047 430.521C162.257 430.523 160.252 430.527 160.418 430.824C160.361 430.823 160.303 430.822 160.246 430.821C163.464 420.387 166.557 409.913 169.649 399.44C171.12 394.454 172.592 389.468 174.076 384.488C180.921 362.98 187.257 342.278 183.452 319.663C185.237 318.53 189.295 311.215 188.999 309.326C188.172 310.33 187.432 311.396 186.693 312.462C185.569 314.079 184.446 315.696 183.019 317.1C182.754 315.665 182.448 314.239 182.143 312.811C182.054 312.392 181.963 311.972 181.875 311.551C181.859 311.482 181.733 311.496 181.741 311.569C181.977 313.726 182.122 315.894 182.226 318.064C181.924 318.535 181.745 319.27 182.294 319.619C184.317 344.284 177.216 366.759 169.948 389.758C168.354 394.804 166.752 399.876 165.236 405.001C162.898 414.076 159.329 422.72 155.106 431.147C154.617 431.044 154.125 430.94 153.631 430.837C147.34 429.517 140.721 428.129 135.288 424.937C137.336 416.532 140.334 408.332 143.336 400.127C147.632 388.383 151.931 376.627 153.455 364.235L153.49 363.951C154.667 354.564 154.104 346.826 151.742 337.636C151.047 334.995 150.238 332.379 149.429 329.765C147.855 324.674 146.281 319.586 145.552 314.307C145.037 311.2 144.308 308.134 143.339 305.124Z" fill="#2B283A"></path><path fill-rule="evenodd" clip-rule="evenodd" d="M242.072 247.138C240.377 247.304 238.683 247.471 236.989 247.637C228.874 248.257 220.762 249.552 212.71 250.329C212.509 250.002 212.116 250.056 211.878 250.283C211.074 250.212 210.174 249.599 209.445 250.237C209.422 250.233 209.398 250.23 209.375 250.228C208.079 247.74 207.183 245.087 206.314 242.43C205.758 240.797 205.012 239.216 203.632 238.119C201.277 236.484 195.882 233.169 193.117 233.309C193.071 232.814 192.841 232.303 192.461 231.974C193.296 230.55 189.957 229.621 189.722 229.786C189.872 225.029 187.635 220.898 182.701 219.951C178.282 219.03 171.994 218.875 169.617 223.494C169.356 223.464 166.684 223.45 166.425 223.48C166.023 222.971 161.611 227.793 163.42 229.473C147.25 236.626 138.055 235.772 133.579 255.883C132.974 257.771 132.93 259.839 132.291 261.685C130.019 266.994 128.175 272.646 127.716 278.422C126.607 278.706 126.481 280.66 127.764 280.942C128.254 281.05 128.664 281.198 129.022 281.478C128.743 286.211 129.887 297.023 130.609 296.99C132.078 301.67 138.639 302.991 143.283 301.347C142.482 302.852 143.283 303.799 143.283 304.604C159.993 305.237 178.264 304.872 194.971 305.739C197.107 305.709 199.355 306.265 201.463 305.945C202.749 305.637 202.751 303.616 201.447 303.366L207.145 302.129C207.016 302.08 209.492 300.433 211.364 297.357C213.106 293.914 211.92 289.759 212.71 286.014C218.873 285.51 225.138 285.294 231.234 284.25C232.066 286.738 235.664 283.762 236.808 282.566C236.806 282.564 236.805 282.563 236.804 282.56C237.358 282.409 237.802 281.891 237.816 281.276C238.205 280.721 238.286 279.94 237.913 279.404C239.619 269.558 242.221 259.506 243.161 249.568C243.494 249.494 243.806 249.349 244.072 249.124L244.051 249.103C244.499 248.601 244.588 247.736 243.838 247.311C243.233 246.967 242.729 247.074 242.072 247.138Z" fill="white"></path><path fill-rule="evenodd" clip-rule="evenodd" d="M169.925 222.421C170.429 221.156 172.13 221.648 171.941 222.977C171.827 223.774 171.391 224.614 171 225.312C170.68 225.88 170.317 226.435 169.824 226.86C170.701 227.679 171.613 228.469 172.547 229.219C173.567 230.037 174.64 230.79 175.748 231.483C176.72 232.091 177.735 232.629 178.652 233.322C179.504 233.966 180.28 234.742 180.675 235.753C181.096 236.831 180.913 237.944 180.602 239.02L180.567 239.142C180.251 240.209 179.703 241.495 180.463 242.5C180.849 243.012 181.412 243.373 181.897 243.784C182.329 244.147 182.734 244.542 183.105 244.967C183.915 245.893 184.573 246.934 184.989 248.095L185.026 248.201C185.383 249.228 185.643 250.487 185.162 251.495C185.023 251.785 184.578 251.691 184.5 251.41C184.326 250.772 184.334 250.103 184.189 249.457C184.036 248.783 183.782 248.145 183.45 247.54C182.808 246.372 181.94 245.373 180.913 244.529L180.605 244.279C179.805 243.621 179.068 242.925 178.906 241.837C178.732 240.672 179.198 239.564 179.498 238.462C179.707 237.694 179.775 236.958 179.55 236.264C179.273 236.714 178.897 237.142 178.599 237.523C178.007 238.283 177.407 239.038 176.81 239.794C176.198 240.57 175.601 241.358 175.033 242.166C174.779 242.527 174.527 242.892 174.277 243.255C174.088 243.529 173.825 243.802 173.619 244.082C173.67 244.231 173.666 244.403 173.576 244.525C172.485 245.997 170.935 242.925 170.53 242.149C169.707 240.567 169.094 238.888 168.268 237.308C167.411 235.669 166.437 234.074 165.35 232.578C164.693 231.673 163.957 230.824 163.355 229.89C161.939 231.174 160.074 232.035 158.362 232.817C156.481 233.675 154.527 234.375 152.598 235.119L152.029 235.34C148.706 236.637 145.301 238.062 142.54 240.365C139.293 243.073 137.373 246.846 135.944 250.753C134.298 255.251 132.937 259.87 131.668 264.487C131.019 266.849 130.403 269.221 129.824 271.602C129.312 273.699 128.889 275.817 128.298 277.892C129.497 277.85 130.863 278.314 131.887 278.448C136.551 279.059 141.151 280.032 145.553 281.716C146.097 281.924 146.254 282.468 146.136 282.907C146.449 282.819 146.763 282.73 147.077 282.641C146.733 282.115 146.897 281.174 146.924 280.59L146.925 280.55C146.954 279.772 147.038 278.994 147.092 278.217C147.197 276.738 147.332 275.269 147.513 273.798L147.559 273.43C147.763 271.83 147.915 270.22 148.137 268.622L148.164 268.439C148.057 268.03 147.932 267.627 147.802 267.225C147.453 266.153 146.962 265.145 146.532 264.109C146.48 263.986 146.655 263.916 146.736 263.989C147.465 264.646 148.044 265.477 148.509 266.348C148.518 266.307 148.525 266.266 148.533 266.225L148.587 265.963C148.717 265.326 148.877 264.655 149.267 264.138C149.309 264.083 149.392 264.072 149.432 264.138C149.805 264.771 149.848 265.574 149.905 266.294C149.97 267.11 149.978 267.934 149.966 268.752C149.944 270.35 149.831 271.952 149.742 273.547C149.654 275.114 149.481 276.662 149.258 278.214L149.215 278.505C149.107 279.243 149.018 279.992 148.875 280.725L148.834 280.925C148.757 281.289 148.71 281.801 148.557 282.228C152.489 281.13 156.427 280.059 160.373 279.006C163.224 278.246 166.08 277.495 168.933 276.74C169.083 276.469 169.271 276.216 169.505 275.989C170.276 275.243 171.298 274.91 172.235 275.484C172.311 275.531 172.317 275.651 172.235 275.696C172.055 275.794 171.875 275.894 171.699 276L173.412 275.536C174.693 275.188 175.989 274.755 177.299 274.512C179.714 273.321 182.311 272.458 184.855 271.607L185.155 271.505C186.456 271.061 187.803 270.564 189.149 270.318C190.134 270.138 191.29 270.355 191.687 271.364C192.187 271.695 192.66 272.082 193.114 272.466C193.443 272.74 193.759 273.034 194.08 273.32L194.139 273.373C194.402 273.599 194.609 273.752 194.674 274.114C194.708 274.302 194.588 274.555 194.358 274.53C193.651 274.454 193.077 273.636 192.599 273.147C192.228 272.769 191.855 272.379 191.517 271.963C191.321 272.071 191.051 272.051 190.925 271.813C190.275 270.583 188.495 271.436 187.511 271.728L186.1 272.146C185.394 272.354 184.689 272.564 183.985 272.778C182.051 273.366 180.125 274.024 178.174 274.563C178.349 274.755 178.324 275.096 177.993 275.227C176.464 275.826 174.788 276.136 173.201 276.548C172.198 276.807 171.196 277.069 170.195 277.333C170.023 277.61 169.9 277.925 169.847 278.291C169.657 279.638 170.025 281.193 170.384 282.495L170.438 282.69C170.733 283.737 171.168 285.021 172.071 285.683C172.291 285.844 172.572 285.955 172.855 285.981C174.625 285.07 176.393 284.16 178.163 283.251C178.491 283.083 178.794 283.311 178.868 283.582C179.492 283.479 180.114 283.318 180.681 283.126C181.634 282.802 182.378 282.184 183.271 281.758C184.999 280.932 186.764 281.947 188.312 282.718L188.669 282.893C189.362 283.23 190.807 283.876 191.14 282.955C191.462 282.065 190.443 281.113 189.785 280.712C189.002 280.234 188.09 279.978 187.204 279.765C186.697 279.643 186.185 279.543 185.67 279.471C185.086 279.389 184.482 279.401 183.92 279.211C183.641 279.117 183.598 278.673 183.92 278.6C184.786 278.403 185.82 278.618 186.723 278.838L187.196 278.954C188.106 279.177 189.025 279.458 189.855 279.904C190.458 280.228 191.094 280.72 191.51 281.323C191.871 280.988 192.32 280.999 192.789 281.123L193.043 281.194C193.462 281.31 193.803 281.39 194.211 281.31C194.265 281.013 194.321 280.716 194.38 280.418C194.962 277.497 195.6 274.588 196.303 271.693C197.518 266.702 198.923 261.764 200.508 256.878L200.666 256.39C201.032 255.272 201.326 254.055 201.914 253.028C202.471 252.056 203.364 251.497 204.425 251.201C205.629 250.864 206.893 250.689 208.121 250.463C208.395 250.412 208.669 250.364 208.944 250.313C208.712 249.895 208.538 249.42 208.383 249.056L208.356 248.994C208.021 248.23 207.72 247.453 207.43 246.673L207.213 246.086C206.689 244.673 206.148 243.283 205.411 241.961C204.636 240.57 203.606 239.432 202.324 238.491C199.709 236.571 196.557 235.592 194.02 233.541C193.917 233.456 194.05 233.313 194.155 233.366C195.869 234.227 197.717 234.812 199.498 235.512L199.85 235.651C201.257 236.209 202.688 236.817 203.906 237.72C205.264 238.729 206.335 239.98 207.14 241.468C207.932 242.935 208.439 244.577 208.999 246.143L209.148 246.561C209.374 247.187 209.606 247.812 209.873 248.42C210.086 248.904 210.48 249.457 210.66 250.009C211.153 249.923 211.644 249.837 212.136 249.755C222.8 247.975 233.583 246.929 244.39 246.623C244.812 246.611 245.032 247.015 244.97 247.383C243.932 253.517 243.011 259.67 241.999 265.808C241.557 268.486 241.107 271.162 240.646 273.838C240.413 275.193 240.144 276.543 239.923 277.9C239.744 278.996 239.615 280.102 239.308 281.173C239.033 282.133 238.611 283.059 237.919 283.791C237.172 284.58 236.13 284.962 235.081 285.143C232.419 285.601 229.687 285.788 227.003 286.094L212.71 287.72C212.919 289.619 212.934 291.487 212.839 293.409L212.784 294.457C212.739 295.3 212.686 296.144 212.565 296.979C212.413 298.026 211.934 298.912 211.229 299.695C210.58 300.413 209.794 301.025 209.028 301.613C208.234 302.223 207.412 302.811 206.478 303.188L206.357 303.235C205.538 303.556 204 304.052 202.88 303.87C203.027 304.604 203.31 305.393 203.059 306.119C202.943 306.456 202.502 306.624 202.232 306.338C201.696 305.769 201.655 305.018 201.528 304.277C201.396 303.505 201.282 302.73 201.181 301.953C200.986 300.453 200.834 298.937 200.787 297.424C200.74 295.869 200.758 294.312 200.842 292.759C200.885 291.961 200.939 291.164 201.04 290.372C201.082 290.034 201.127 289.695 201.178 289.358C201.196 289.236 201.216 289.114 201.239 288.991L199.956 289.136C197.988 289.356 196.02 289.553 194.039 289.585C193.805 289.588 193.624 289.481 193.507 289.325C193.381 289.531 193.163 289.677 192.849 289.675C190.083 289.665 187.506 288.761 184.99 287.694C183.722 287.157 182.473 286.576 181.203 286.042C180.017 285.545 178.75 285.19 177.593 284.63L174.553 286.224C174.531 286.303 174.503 286.377 174.472 286.439C174.274 286.842 173.883 287.062 173.485 287.227C173.102 287.386 172.706 287.436 172.321 287.395C170.015 288.604 167.708 289.81 165.401 291.015L163.093 292.218C158.494 294.613 153.913 297.046 149.286 299.385L148.945 299.556C147.346 300.358 145.63 301.17 143.856 301.776C143.824 302.226 143.844 302.662 143.882 303.138L143.891 303.241C143.944 303.803 144.057 304.507 143.607 304.906C143.372 305.114 142.954 305.114 142.795 304.802C142.505 304.233 142.764 303.337 142.856 302.718C142.889 302.5 142.929 302.273 142.988 302.055C140.954 302.66 138.859 302.953 136.789 302.614C134.774 302.283 133.214 301.013 131.955 299.461C130.627 297.822 129.685 295.913 129.178 293.866C128.603 291.537 128.564 289.131 128.578 286.746C128.592 284.205 128.686 281.652 128.995 279.129C128.657 279.049 128.282 278.98 127.939 279.005C127.77 279.275 127.441 279.389 127.144 279.354C126.498 280.067 128.136 280.794 128.66 280.976C128.841 281.04 128.822 281.336 128.612 281.327L128.48 281.321C127.672 281.277 126.835 281.139 126.361 280.388C125.979 279.785 126.094 279.07 126.548 278.579C126.848 275.742 127.565 272.979 128.234 270.211C128.888 267.494 129.617 264.795 130.39 262.109L130.735 260.906C131.952 256.695 133.223 252.451 134.9 248.406C135.738 246.388 136.704 244.405 138.011 242.645C139.23 241.003 140.669 239.599 142.324 238.399C145.408 236.163 149.029 234.812 152.584 233.524L152.744 233.467C154.587 232.8 156.426 232.126 158.247 231.403C159.858 230.764 161.402 229.954 163.006 229.306C162.953 229.212 162.904 229.115 162.854 229.019L162.825 229.044C162.82 229.048 162.814 229.052 162.81 229.055C162.649 229.167 162.411 229.113 162.277 228.987C161.903 228.634 162.029 228.24 162.28 227.873L162.313 227.826C162.619 227.396 162.892 226.943 163.175 226.499L163.353 226.22C163.827 225.477 164.326 224.729 164.959 224.116C165.251 223.83 165.572 223.617 165.913 223.459C165.884 223.398 166.139 223.272 166.21 223.335C167.288 222.94 168.526 223.024 169.701 223.132M212.019 287.799L210.52 287.969C208.873 288.156 207.226 288.337 205.577 288.517L201.997 288.906C201.987 289.11 201.963 289.31 201.958 289.464C201.934 290.258 201.918 291.054 201.901 291.849C201.867 293.443 201.904 295.037 202.01 296.627C202.111 298.169 202.245 299.709 202.453 301.24L202.495 301.546L202.519 301.707C202.69 301.723 202.857 301.804 202.995 301.97C203.299 302.332 204.395 301.981 204.823 301.828C205.528 301.577 206.19 301.153 206.803 300.729C207.399 300.314 207.938 299.831 208.455 299.321L208.878 298.903C209.3 298.485 209.72 298.039 209.979 297.513C210.328 296.8 210.374 295.924 210.476 295.148C210.602 294.191 210.752 293.236 210.912 292.285M168.546 277.766L168.391 277.807C162.749 279.307 157.114 280.851 151.455 282.283C148.654 282.993 145.84 283.651 143.036 284.346L142.581 284.46C140.37 285.019 138.13 285.692 136.437 287.297C136.373 287.356 136.283 287.265 136.342 287.202C138.168 285.258 140.764 284.436 143.258 283.723C143.719 283.591 144.18 283.462 144.641 283.331C141.25 282.122 137.806 281.07 134.282 280.321C133.375 280.127 132.457 279.985 131.55 279.791C130.918 279.656 130.301 279.461 129.674 279.298L129.182 279.174L129.176 280.73C129.168 282.933 129.171 285.134 129.284 287.337L129.305 287.745C129.436 290.196 129.641 292.699 130.511 295.01C131.217 296.888 132.344 298.657 133.818 300.025C134.564 300.717 135.365 301.257 136.356 301.522C137.276 301.769 138.239 301.798 139.185 301.733C143.722 301.417 147.76 298.951 151.7 296.911C158.146 293.574 164.591 290.238 171.043 286.914C170.869 286.795 170.705 286.658 170.556 286.503C169.69 285.61 169.234 284.386 168.934 283.202C168.614 281.941 168.424 280.59 168.402 279.288M176.755 288.202C176.813 288.171 176.879 288.21 176.881 288.274C176.901 288.767 176.628 289.252 176.425 289.697L176.404 289.745C176.157 290.293 175.886 290.836 175.606 291.371C175.047 292.438 174.465 293.493 173.859 294.533C172.638 296.627 171.282 298.632 169.679 300.455C169.317 300.867 168.721 300.339 168.954 299.895C170.074 297.759 171.381 295.74 172.725 293.74C173.397 292.739 174.069 291.736 174.749 290.739C175.033 290.323 175.319 289.908 175.614 289.5L175.793 289.256M243.676 247.847C238.013 248.017 232.358 248.387 226.722 248.966C221.481 249.504 216.261 250.221 211.068 251.114C209.983 251.3 208.9 251.494 207.819 251.696L207.169 251.817C206.088 252.023 204.766 252.108 203.803 252.686C202.787 253.294 202.512 254.568 202.175 255.619C201.777 256.854 201.39 258.092 201.013 259.334C199.517 264.264 198.151 269.236 196.932 274.241C196.327 276.726 195.79 279.224 195.224 281.718C194.721 283.933 194.166 286.123 193.587 288.317C193.658 288.262 193.747 288.219 193.852 288.197C196.729 287.585 199.666 287.318 202.586 286.98L202.868 286.947C205.89 286.592 208.911 286.239 211.934 285.9L231.946 283.649C233.127 283.516 234.392 283.498 235.541 283.181C237.493 282.643 237.951 280.459 238.279 278.72L238.288 278.667C239.276 273.414 240.062 268.114 240.984 262.848M194.053 282.21C193.275 282.159 192.212 281.446 191.623 281.498C191.932 282.018 192.072 282.61 191.893 283.242C191.398 285.002 189.152 284.091 188.071 283.553C187.185 283.113 186.328 282.573 185.347 282.367C184.236 282.133 183.482 282.574 182.542 283.084C181.772 283.503 180.931 283.804 180.067 283.959C179.607 284.042 179.171 284.05 178.735 284.019C178.709 284.04 178.68 284.06 178.646 284.077L178.416 284.198C179.458 284.245 180.519 284.567 181.488 284.862C182.493 285.167 183.48 285.534 184.461 285.91L185.426 286.282C187.807 287.194 190.272 288.058 192.849 288.051C193.034 288.051 193.186 288.102 193.305 288.185M189.706 276.695C190.473 276.601 191.181 276.702 191.795 277.201C192.535 277.804 193.032 278.804 194.096 278.868C194.406 278.888 194.477 279.324 194.17 279.415C193.378 279.65 192.737 279.221 192.198 278.665L191.835 278.287C191.301 277.734 190.81 277.308 189.906 277.341C188.937 277.376 187.968 277.599 187.005 277.713C185.915 277.843 184.826 277.952 183.732 278.047C183.681 278.052 183.673 277.972 183.72 277.96L184.944 277.655M188.965 273.557L189.091 273.544C190.206 273.436 191.225 273.431 192.221 274.032L192.412 274.147C193.309 274.692 194.286 275.335 194.848 276.219C194.939 276.363 194.788 276.534 194.634 276.496C193.555 276.237 192.767 275.445 191.859 274.853C190.842 274.189 189.79 274.299 188.629 274.402C187.505 274.502 186.381 274.639 185.269 274.826C184.223 275.002 183.173 275.28 182.117 275.369V275.367C181.997 275.367 181.928 275.185 182.051 275.123C183.123 274.589 184.365 274.335 185.531 274.091M150.796 243.247C150.795 243.157 150.918 243.124 150.962 243.201C151.687 244.477 152.066 246.041 152.453 247.447C152.857 248.92 153.184 250.407 153.477 251.906C154.072 254.941 154.388 257.957 154.41 261.05C154.413 261.492 153.694 261.609 153.623 261.157C153.155 258.149 152.709 255.137 152.238 252.129C152 250.617 151.725 249.11 151.461 247.601M157.976 245.469C157.921 245.292 158.178 245.234 158.243 245.395C159.699 248.968 160.192 253.017 159.258 256.786C159.114 257.363 158.27 257.113 158.377 256.544M176.751 242.294C176.744 242.162 176.914 242.141 176.979 242.233C177.668 243.204 177.954 244.505 179.164 245.007C179.768 245.258 180.448 245.215 180.982 245.638C181.338 245.921 181.612 246.369 181.344 246.798C181.258 246.936 181.016 247.006 180.898 246.855C180.728 246.635 180.638 246.372 180.405 246.208C180.077 245.976 179.635 245.962 179.259 245.853C178.773 245.712 178.344 245.465 177.993 245.098M188.272 226.086C188.342 226.05 188.411 226.073 188.456 226.134C188.521 226.222 188.513 226.307 188.434 226.367C188.54 226.584 188.666 227.128 188.683 227.207C188.756 227.528 188.834 227.847 188.914 228.166C189.077 228.809 189.22 229.456 189.384 230.099C189.556 230.782 189.762 231.455 189.992 232.12C190.006 232.163 190.023 232.207 190.039 232.252L190.066 232.319L190.072 232.309C190.119 232.235 190.215 232.287 190.205 232.364C190.194 232.435 190.179 232.505 190.167 232.577L190.192 232.641C190.341 233.045 190.445 233.47 190.168 233.826C190.066 233.959 189.952 234.038 189.811 234.061C189.584 234.809 189.301 235.541 188.997 236.244L188.908 236.45C188.46 237.476 187.983 238.489 187.271 239.363C186.493 240.317 185.424 240.968 184.746 242.014C184.431 242.5 184.211 243.012 184.034 243.56L183.967 243.769C183.841 244.157 183.694 244.534 183.33 244.762C183.213 244.834 183.039 244.812 182.945 244.712C182.199 243.922 182.981 242.446 183.432 241.68C184.058 240.617 184.964 239.935 185.871 239.133C186.85 238.268 187.474 237.109 188.078 235.969C188.448 235.27 188.804 234.557 189.18 233.854C188.788 233.508 188.662 232.818 188.529 232.34L188.516 232.296C188.297 231.529 188.123 230.742 188.012 229.951C187.905 229.191 187.862 228.442 187.89 227.677L187.898 227.482M189.731 229.704C189.644 229.585 189.789 229.45 189.908 229.475C190.631 229.625 191.339 230.064 191.987 230.417L192.057 230.455C192.576 230.735 193.098 231.077 193.369 231.621C193.665 232.21 193.641 232.891 193.601 233.531L193.597 233.592C193.548 234.361 193.54 235.16 193.376 235.915C193.294 236.302 192.944 236.411 192.644 236.32C192.288 237.445 191.287 238.274 190.556 239.161C189.624 240.293 189.8 241.82 189.897 243.183C189.936 243.735 189.25 243.892 188.897 243.598L188.082 242.921C187.946 242.808 187.811 242.695 187.676 242.582C187.56 242.484 187.445 242.386 187.332 242.287L187.162 242.136C187.086 242.069 186.754 241.698 186.656 241.683C186.421 241.645 185.862 242.265 185.67 242.46L185.647 242.484C185.286 242.838 184.961 243.217 184.657 243.62C184.602 243.694 184.493 243.633 184.533 243.547C184.804 242.966 185.12 242.409 185.495 241.888L185.571 241.785C185.821 241.449 186.156 240.855 186.596 240.755C187.133 240.634 187.67 241.174 188.062 241.473L188.087 241.492C188.273 241.631 188.458 241.773 188.641 241.916C188.622 240.902 188.75 239.877 189.273 239.002C189.643 238.385 190.197 237.928 190.67 237.398C191.198 236.808 191.473 236.083 191.95 235.469C192.011 235.39 192.096 235.348 192.187 235.334C192.206 234.84 192.279 234.341 192.335 233.852L192.352 233.705C192.408 233.175 192.542 232.527 192.282 232.028C192.037 231.559 191.474 231.227 191.056 230.909L190.716 230.644M166.247 224.09C166.028 224.215 165.825 224.373 165.64 224.568C165.059 225.185 164.643 225.953 164.239 226.691C164.02 227.09 163.811 227.491 163.591 227.889C163.495 228.061 163.397 228.232 163.297 228.402C163.252 228.481 163.115 228.637 163.047 228.733C163.122 228.838 163.2 228.943 163.28 229.045C163.31 229.084 165.396 231.356 166.123 232.246C167.237 233.609 168.233 235.047 169.083 236.588C169.916 238.096 170.551 239.693 171.323 241.23C171.708 242 172.141 242.765 172.691 243.431C172.712 243.457 172.734 243.482 172.755 243.507C172.966 242.94 173.504 242.332 173.767 241.985L173.792 241.952C174.391 241.143 175.024 240.361 175.671 239.59C176.261 238.887 176.867 238.2 177.486 237.523L177.72 237.269C178.152 236.803 178.701 236.105 179.333 235.771C179.265 235.65 179.186 235.531 179.097 235.413C178.504 234.638 177.667 234.076 176.84 233.569L176.304 233.243C174.283 232.012 172.295 230.723 170.54 229.124C169.612 228.276 168.697 227.39 167.916 226.402L167.64 226.053M169.618 223.48C168.672 223.56 167.65 223.541 166.775 223.849C167.553 224.583 168.291 225.378 169.05 226.125C169.119 225.62 169.256 225.12 169.374 224.627" fill="#2B283A"></path><path d="M224.392 265.892L221.069 266.193C220.669 266.228 220.374 266.582 220.41 266.98L220.427 267.166C220.463 267.564 220.816 267.859 221.216 267.823L224.539 267.523C224.94 267.487 225.235 267.134 225.198 266.735L225.182 266.55C225.145 266.151 224.792 265.857 224.392 265.892Z" fill="#2B283A"></path><path d="M222.77 267.983L221.148 268.13C220.801 268.16 220.546 268.467 220.577 268.812L220.591 268.973C220.622 269.319 220.929 269.575 221.276 269.543L222.897 269.396C223.245 269.366 223.5 269.059 223.47 268.714L223.454 268.553C223.424 268.207 223.117 267.951 222.77 267.983Z" fill="#2B283A"></path><path d="M222.828 269.702L219.505 270.001C219.105 270.038 218.81 270.39 218.846 270.79L218.863 270.976C218.899 271.374 219.252 271.668 219.652 271.632L222.976 271.332C223.376 271.296 223.67 270.944 223.634 270.544L223.618 270.359C223.581 269.96 223.228 269.665 222.828 269.702Z" fill="#2B283A"></path><path d="M217.551 270.178L217.342 270.196C216.941 270.233 216.647 270.585 216.682 270.985L216.699 271.169C216.735 271.569 217.089 271.863 217.489 271.826L217.698 271.807C218.097 271.772 218.392 271.418 218.357 271.02L218.339 270.834C218.304 270.436 217.95 270.141 217.551 270.178Z" fill="#2B283A"></path><path fill-rule="evenodd" clip-rule="evenodd" d="M180.283 183.272C184.803 183.272 190.227 185.464 190.688 185.508L190.701 185.509C190.943 185.509 191.891 186.232 193.544 187.677L191.754 191.173L191.898 191.31C192.593 191.977 193.184 192.583 193.651 193.061C197.467 196.963 198.153 212.29 197.254 217.634C196.354 222.979 194.689 228.208 186.935 228.208C179.181 228.208 170.554 223.543 169.226 222.091C168.34 221.121 167.344 220.657 166.24 220.698C166.195 220.641 166.15 220.583 166.106 220.527L165.942 220.503C164.415 220.282 163.32 219.984 162.657 219.609C161.364 218.877 159.944 215.03 159.944 214.183C159.944 213.344 157.823 207.241 157.78 206.594L157.779 206.577C157.779 206.036 155.007 203.554 155.007 202.766C155.007 201.977 154.449 202.026 155.007 199.248L155.171 198.432C155.764 195.475 156.929 190.577 161.364 188.449C166.24 186.111 175.717 183.272 180.283 183.272Z" fill="white"></path><path fill-rule="evenodd" clip-rule="evenodd" d="M160.612 188.339C163.044 185.756 176.848 181.762 183.831 182.608L184.042 182.635C184.599 182.707 185.148 182.814 185.69 182.958C187.442 183.368 189.252 183.989 190.7 185.024C191.909 185.871 195.722 187.255 194.597 189.471C195.014 190.261 195.17 191.238 194.889 192.015C194.852 192.284 194.77 192.531 194.664 192.789C195.554 194.102 196.259 195.589 196.83 197.004C197.826 200.562 198.447 204.265 198.538 207.895C198.84 214.794 198.085 223.033 192.08 227.493C188.454 230.32 182.773 230.415 178.698 226.91C178.466 226.636 177.378 225.897 177.741 225.768C177.849 225.882 177.961 225.993 178.074 226.101C178.068 226.09 178.068 226.078 178.069 226.065L177.963 225.969C177.762 225.783 177.504 225.514 177.799 225.567C177.812 225.582 177.826 225.595 177.84 225.61C177.902 225.648 177.95 225.68 177.987 225.709L178.006 225.724L178 225.718C177.829 225.536 177.727 225.351 177.982 225.469L178.016 225.486C178.129 225.604 178.244 225.72 178.362 225.83C178.359 225.817 178.362 225.804 178.369 225.79L178.259 225.684C178.152 225.58 178.169 225.58 178.221 225.495C177.994 225.177 178.417 225.366 178.447 225.489C178.712 225.427 178.944 225.924 179.115 225.985C186.586 231.732 197.428 226.633 197.253 210.617L197.249 210.303C197.199 205.182 196.768 199.918 194.651 195.282C194.445 194.836 194.214 194.401 193.962 193.98C193.787 193.665 193.6 193.358 193.399 193.059C192.837 193.013 192.281 192.911 191.734 192.751C191.546 192.703 191.36 192.651 191.174 192.589C188.461 192.737 185.807 192.898 183.085 193.051L182.236 193.105C179.93 193.253 177.546 193.49 175.686 194.917C173.86 196.216 173.852 198.778 172.289 200.204C170.061 201.718 170.045 203.082 169.616 205.312C169.647 206.994 170.812 209.436 168.674 210.144C169.035 210.658 168.532 210.411 168.492 210.231C168.489 210.231 168.485 210.232 168.482 210.232C168.803 210.83 168.33 210.454 168.289 210.262C168.263 210.255 168.238 210.237 168.213 210.211C168.537 210.735 168.014 210.369 168.045 210.273C167.418 209.311 166.132 209.162 165.223 209.417C165.213 209.451 165.172 209.453 165.147 209.436C161.287 210.272 162.283 218.267 166.239 217.495C166.408 217.46 166.403 217.541 166.437 217.549C166.345 217.31 166.603 217.407 166.6 217.458L166.616 217.457C166.629 217.455 166.624 217.454 166.633 217.458C166.544 216.967 167.042 217.677 167.002 217.707C167.018 217.697 167.035 217.693 167.05 217.69L167.033 217.645C166.951 217.425 166.958 217.515 166.958 217.39C166.897 217.234 166.892 217.303 166.906 217.2C167.123 217.032 167.188 217.545 167.261 217.582C167.136 217.408 167.235 217.266 167.352 217.36C168.243 219.236 169.395 220.997 170.881 222.385C171.045 222.513 171.209 222.64 171.379 222.758C172.012 223.309 172.982 223.664 173.574 224.153C173.574 224.161 173.571 224.171 173.564 224.181L173.578 224.193L173.592 224.206L173.798 224.306C173.858 224.358 173.913 224.415 173.961 224.479C174.013 224.537 174.057 224.603 174.096 224.674C174.116 224.758 174.073 224.794 173.993 224.757C173.957 224.745 173.922 224.731 173.887 224.717C173.888 224.721 173.889 224.723 173.892 224.724C173.903 224.742 173.981 224.924 173.892 224.895L173.88 224.89C173.831 224.872 173.781 224.852 173.733 224.832C173.791 224.905 173.842 224.983 173.889 225.049C173.939 225.099 173.969 225.16 173.981 225.23C173.979 225.267 173.959 225.284 173.92 225.279C173.861 225.259 173.804 225.239 173.746 225.218L173.762 225.249C173.804 225.329 173.861 225.463 173.758 225.419C173.671 225.392 173.585 225.36 173.5 225.326C173.493 225.34 173.479 225.345 173.451 225.332C173.182 225.237 172.921 225.119 172.672 224.98C172.452 224.821 172.231 224.664 172.012 224.506C171.805 224.381 171.605 224.242 171.413 224.087C170.137 223.262 169.019 222.213 168.133 221.046C166.65 222.332 163.684 221.104 161.85 220.098C160.227 219.198 159.59 217.535 159.424 215.743C159.082 213.33 157.111 212.504 157.248 207.209C157.245 207.21 157.242 207.21 157.238 207.21C157.166 207.189 157.097 207.161 157.031 207.124C156.964 207.091 156.9 207.053 156.84 207.007L156.766 206.905C156.729 206.883 156.694 206.861 156.668 206.839L156.654 206.856C156.611 206.908 156.64 206.831 156.643 206.814L156.515 206.64C156.211 206.225 155.878 205.76 155.607 205.388L155.598 205.403C155.591 205.415 155.589 205.423 155.591 205.426C154.946 204.498 154.339 203.377 154.17 202.291C153.971 201.456 154.049 200.593 154.222 199.819C154.967 197.107 157.408 190.97 160.612 188.339ZM178.135 225.848L178.094 225.811L178.13 225.856C178.149 225.879 178.168 225.9 178.198 225.922C178.197 225.915 178.197 225.908 178.197 225.899C178.177 225.883 178.156 225.866 178.135 225.848ZM183.801 183.971C179.065 183.563 174.408 184.608 169.888 185.871L169.576 185.96C167.006 186.695 164.289 187.355 162.118 188.925C159.084 191.25 157.516 194.951 156.15 198.367C154.956 200.904 155.566 203.765 157.365 205.538C157.551 203.777 157.871 202.067 158.369 200.371C158.474 200.107 158.395 200.02 158.619 199.985C158.958 204.554 157.289 207.93 160.592 213.346C162.025 215.902 160.366 217.771 164.413 219.116L164.522 219.158C165.365 219.476 166.286 219.728 167.112 219.549L167.038 219.429C166.962 219.305 166.94 219.245 167.049 219.192C167.046 219.186 167.042 219.18 167.038 219.173C166.949 219.005 166.864 218.835 166.781 218.663C166.749 218.675 166.716 218.683 166.68 218.692C166.703 218.734 166.706 218.775 166.644 218.789C166.421 218.865 166.193 218.896 165.959 218.882L165.908 218.878C165.644 218.862 165.478 218.814 165.329 218.769C165.28 218.761 165.23 218.753 165.181 218.742C164.703 218.636 164.195 218.366 163.867 218.098C160.126 215.971 160.512 208.733 165.123 208.048C165.219 203.49 167.385 195.8 170.98 191.457C174.23 187.463 183.103 185.731 189.275 186.342C189.365 186.372 189.455 186.402 189.545 186.432C190.498 186.516 191.405 186.942 192.358 187.139C191.674 186.625 190.897 186.283 190.098 185.993C188.505 185.018 186.679 184.49 184.914 184.118C184.548 184.029 184.178 183.979 183.801 183.971ZM164.913 211.709C165.161 211.574 165.132 211.705 165.189 211.667C166.973 211.521 168.896 213.084 169.893 214.387C169.814 214.468 169.602 214.226 169.564 214.188C169.559 214.193 169.553 214.197 169.546 214.199L169.575 214.238C169.979 214.819 169.177 214.136 169.102 213.995C169.089 214.002 169.076 214.007 169.061 214.003C169.124 214.065 169.318 214.227 169.352 214.344L169.403 214.386C169.888 214.802 169.848 215.115 169.297 214.525C169.31 214.552 169.316 214.576 169.307 214.598L169.325 214.609C169.596 214.799 169.819 215.326 169.253 214.784C169.311 215.18 168.692 214.415 168.672 214.421C167.6 213.579 166.022 212.76 164.677 212.651L164.631 212.645C164.384 212.613 164.268 212.54 164.354 212.378C164.051 212.306 164.121 212.156 164.266 212.161C164.051 212.02 164.244 211.886 164.368 211.937C164.283 211.701 164.625 211.859 164.657 211.826C164.836 211.551 164.883 211.78 164.913 211.709ZM161.174 197.025C162.031 196.71 164.561 197.65 164.358 198.895C164.239 199.181 163.841 199.344 163.562 199.183L163.197 198.939C162.563 198.513 161.992 198.141 161.31 197.771C160.94 197.586 160.78 197.196 161.174 197.025ZM166.048 195.174L165.718 194.959C163.932 193.79 161.408 192.018 165.885 193.851C166.395 194.069 167.073 194.2 167.351 194.685C167.788 195.582 166.637 195.642 166.048 195.174ZM166.248 189.927C166.105 189.383 167.888 190.023 168.406 190.191L168.485 190.22C168.991 190.409 169.57 190.583 169.872 191.019C170.225 191.622 169.509 191.746 169.066 191.474C168.156 190.879 167.159 190.431 166.248 189.927ZM170.781 187.393C169.779 186.296 172.464 187.347 172.866 187.638L172.878 187.648C173.178 187.859 173.117 188.314 172.835 188.448C172.033 188.463 171.442 187.793 170.781 187.393ZM175.349 186.192C173.753 185.045 175.854 185.59 176.585 186.04C177.082 186.48 176.57 187.22 175.349 186.192Z" fill="#2B283A"></path><path fill-rule="evenodd" clip-rule="evenodd" d="M182.929 213.492C184.658 213.283 186.333 213.811 188.023 214.077C188.915 214.218 189.808 214.323 190.711 214.361C190.892 214.37 191.074 214.374 191.255 214.378C191.273 214.218 191.362 214.071 191.556 213.984C191.953 213.804 192.272 213.723 192.709 213.74C193.109 213.756 193.509 213.797 193.903 213.869C194.617 213.999 195.335 214.296 195.858 214.811C197.068 216.004 196.884 217.919 195.949 219.218C194.018 221.902 190.493 222.026 187.474 221.991L187.196 221.987C184.447 221.947 180.514 222.356 179.265 219.237C178.807 218.09 178.87 216.76 179.432 215.66C180.103 214.347 181.514 213.663 182.929 213.492ZM191.515 217.96L191.49 217.962C190.223 218.01 188.956 218.045 187.688 218.067C187.726 218.392 187.764 218.717 187.809 219.04C187.843 219.297 187.881 219.55 187.919 219.805C187.936 219.913 187.996 220.08 187.979 220.187L187.972 220.23C188.038 220.259 188.097 220.306 188.142 220.374C188.157 220.399 188.167 220.422 188.178 220.446C189.163 220.454 190.223 220.435 191.226 220.257L191.228 220.234C191.246 220.106 191.299 220.02 191.371 219.962C191.441 219.554 191.434 219.119 191.461 218.715C191.479 218.463 191.498 218.212 191.515 217.96ZM186.72 218.084C185.806 218.1 184.893 218.112 183.978 218.1L183.565 218.094C183.652 218.563 183.747 219.03 183.827 219.501C183.909 219.993 183.475 220.306 183.099 220.293C183.142 220.3 183.184 220.307 183.226 220.313C184.399 220.479 185.616 220.434 186.807 220.433C186.743 220.06 186.769 219.64 186.76 219.328L186.757 219.28C186.74 218.882 186.727 218.482 186.72 218.084ZM180.514 217.998C180.546 218.243 180.607 218.481 180.7 218.703C181.09 219.641 181.983 220.078 182.929 220.262C182.766 220.206 182.635 220.07 182.602 219.837C182.52 219.259 182.491 218.671 182.488 218.084C181.829 218.078 181.165 218.064 180.514 217.998ZM194.952 217.798C194.482 217.909 193.937 217.858 193.476 217.878C193.045 217.898 192.614 217.916 192.183 217.932C192.203 218.226 192.223 218.52 192.244 218.814C192.272 219.193 192.274 219.594 192.347 219.972C193.215 219.676 193.993 219.203 194.577 218.445C194.722 218.255 194.852 218.035 194.952 217.798ZM182.73 215.032C181.949 215.217 181.21 215.606 180.813 216.319C180.577 216.742 180.473 217.244 180.493 217.738C181.154 217.662 181.824 217.633 182.493 217.608C182.495 217.488 182.498 217.368 182.501 217.248L182.512 216.942C182.531 216.357 182.539 215.622 182.73 215.032ZM186.774 215.103L186.431 215.064C185.475 214.956 184.52 214.842 183.565 214.908C183.427 214.917 183.286 214.932 183.145 214.952C183.314 215.56 183.3 216.274 183.371 216.876C183.398 217.109 183.433 217.339 183.471 217.569L183.636 217.561C184.661 217.506 185.688 217.472 186.714 217.431C186.713 217.239 186.714 217.046 186.717 216.855L186.721 216.662C186.733 216.171 186.701 215.617 186.774 215.103ZM191.57 215.025C190.57 215.186 189.536 215.22 188.554 215.221C188.16 215.221 187.769 215.198 187.377 215.163C187.402 215.372 187.415 215.582 187.434 215.788C187.473 216.203 187.518 216.617 187.566 217.031L187.608 217.393C188.869 217.337 190.13 217.274 191.391 217.211L191.568 217.201L191.619 216.505C191.653 216.04 191.69 215.576 191.742 215.115L191.703 215.1C191.656 215.082 191.613 215.055 191.57 215.025ZM192.005 215.197C192.06 215.854 192.091 216.513 192.131 217.171L192.963 217.126C193.1 217.118 193.239 217.111 193.378 217.103C193.916 217.072 194.608 216.909 195.14 217.062C195.181 216.579 195.043 216.107 194.606 215.783C193.839 215.213 192.863 215.417 192.005 215.197ZM189.166 209.33C190.404 208.622 193.508 207.901 193.704 210.122C193.795 211.144 193.033 211.991 192.144 212.37L192.11 212.384C191.275 212.726 189.797 213.112 189.075 212.37C188.474 211.753 189.271 210.645 190.018 211.151C190.401 211.411 191.21 211.219 191.637 211.096L191.664 211.088C192.126 210.952 192.743 210.519 192.552 209.951C192.382 209.448 191.663 209.357 191.212 209.34C190.54 209.317 189.885 209.473 189.218 209.524C189.113 209.531 189.08 209.379 189.166 209.33ZM194.292 205.758C195.972 205.68 197.017 207.508 196.63 209.008C196.563 209.266 196.274 209.52 195.993 209.491L195.923 209.485C195.888 209.481 195.851 209.477 195.818 209.467C195.553 209.394 195.314 209.118 195.334 208.833L195.339 208.749C195.378 208.041 195.301 207.225 194.457 207.054C193.742 206.908 193.342 207.595 193.334 208.228C193.333 208.34 193.206 208.418 193.106 208.358C192.589 208.044 192.5 207.419 192.697 206.882C192.948 206.201 193.574 205.792 194.292 205.758ZM181.828 206.149C183.051 205.742 184.37 206.392 184.961 207.471C185.169 207.531 185.377 207.691 185.347 207.935C185.306 208.286 185.243 208.508 184.998 208.775C184.616 209.192 183.9 208.978 183.741 208.465L183.734 208.441C183.554 207.777 182.822 207.34 182.155 207.572C181.374 207.843 181.398 208.665 180.85 209.143C180.787 209.199 180.709 209.209 180.633 209.171C180.051 208.891 180.156 208.049 180.363 207.567C180.634 206.934 181.163 206.371 181.828 206.149ZM180.164 202.447C181.154 201.439 183.736 200.464 184.414 202.325C184.544 202.68 184.269 203.158 183.898 203.231C183.292 203.351 182.755 203.089 182.152 203.136C181.666 203.175 181.157 203.337 180.767 203.638C179.688 204.472 179.451 205.883 178.699 206.944C178.662 206.996 178.592 206.975 178.585 206.914C178.413 205.369 179.078 203.551 180.164 202.447ZM193.08 201.455C193.737 201.223 194.482 201.242 195.143 201.447C195.808 201.654 196.419 202.048 196.89 202.561C197.104 202.795 197.301 203.053 197.46 203.326C197.543 203.471 197.632 203.771 197.728 203.949C198.246 204.248 198.467 204.927 198.004 205.411L197.983 205.432L197.92 205.493C197.671 205.739 197.295 205.846 196.956 205.748C196.194 205.528 196.101 204.93 195.838 204.295C195.664 203.876 195.366 203.505 195.005 203.232C194.15 202.588 192.749 202.384 191.721 202.687C191.666 202.704 191.602 202.633 191.641 202.583C191.836 202.331 191.948 202.124 192.208 201.921C192.474 201.715 192.763 201.566 193.08 201.455Z" fill="#2B283A"></path></g></g><defs><clipPath id="clip0_12_87"><rect width="537" height="484.123" fill="white" transform="translate(0 0.877441)"></rect></clipPath></defs></svg>