<svg xmlns="http://www.w3.org/2000/svg" width="316" height="370" viewBox="0 0 316 370" fill="none"><path fill-rule="evenodd" clip-rule="evenodd" d="M307.799 212.889L294.342 214.135C272.912 215.63 251.481 219.118 230.051 221.112C229.552 220.364 228.306 220.364 227.559 221.112C225.565 220.863 223.322 219.118 221.329 221.112C218.012 214.375 215.261 207.373 213.105 200.18C211.865 195.736 209.353 191.752 205.879 188.717C199.649 184.481 185.445 175.759 177.969 176.257C177.969 174.762 177.222 173.516 176.225 172.519C178.717 168.781 169.746 166.289 168.998 166.788C169.497 154.328 163.516 143.114 150.309 140.622C138.597 138.13 121.901 137.881 115.671 150.092H107.198C106.201 148.597 94.4892 161.555 99.2239 165.791C56.3626 184.979 31.9416 182.487 19.9804 235.814C18.4852 240.798 18.236 246.281 16.7408 251.264C10.2138 265.278 6.00585 280.258 4.28115 295.621C1.78921 296.368 1.29082 301.601 4.53034 302.349C6.0255 302.598 7.02228 303.097 8.01905 303.844C7.27147 316.304 10.2618 344.961 12.2553 344.712C15.9932 357.172 33.4368 360.66 45.8965 356.424C43.6537 360.411 45.8965 362.903 45.8965 364.897C90.2529 366.641 138.596 365.644 182.953 368.136C188.684 368.136 194.665 369.382 200.397 368.635C203.636 367.638 203.636 362.405 200.147 361.657L215.099 358.418C215.099 358.418 221.578 353.932 226.313 345.958C231.047 336.738 227.808 325.773 230.051 315.806C246.248 314.31 262.944 313.812 279.142 311.071C281.384 317.55 290.854 309.825 294.093 306.585C295.339 306.087 296.585 304.841 296.585 303.097C297.582 301.602 297.831 299.608 296.834 298.113C301.32 272.197 308.297 245.533 310.789 219.118C311.786 219.118 312.534 218.62 313.281 217.872C314.278 216.626 314.527 214.384 312.534 213.138C311.038 212.141 309.543 212.639 307.799 212.639V212.889Z" fill="white"></path><path fill-rule="evenodd" clip-rule="evenodd" d="M116.418 147.1C117.914 143.861 122.399 145.107 121.901 148.595C121.481 150.814 120.635 152.929 119.409 154.825C118.591 156.42 117.494 157.855 116.169 159.061C118.581 161.232 121.075 163.31 123.645 165.291L131.868 171.272C134.36 172.767 137.101 174.262 139.593 176.256C142.085 177.751 144.079 179.744 145.076 182.486C145.862 185.353 145.775 188.39 144.826 191.207V191.457C143.83 194.447 142.335 197.686 144.328 200.428L148.315 203.916C151.913 206.943 154.733 210.788 156.539 215.13V215.628C157.535 218.12 158.283 221.609 157.037 224.35C156.539 225.098 155.293 224.849 155.043 224.101L154.296 218.868C154.001 217.081 153.321 215.381 152.302 213.884C150.591 210.82 148.307 208.113 145.574 205.91L144.826 205.162C142.584 203.418 140.839 201.424 140.341 198.683C139.843 195.693 141.089 192.703 141.836 189.712C142.397 187.843 142.397 185.85 141.836 183.981L139.344 187.22L134.859 193.201C132.493 196.182 130.248 199.258 128.13 202.421L126.386 204.664V205.91C123.396 209.648 119.159 201.424 118.163 199.431L112.182 186.722C109.69 182.236 107.198 178 104.457 174.262L98.9748 166.786C95.0015 170.098 90.5483 172.786 85.7675 174.761C80.7837 177.253 75.7998 178.997 70.5667 180.741L69.0716 181.489C60.0301 184.518 51.5328 188.977 43.903 194.696C35.7663 202.129 29.747 211.588 26.4595 222.107C21.974 234.318 18.2361 246.528 14.9966 258.739C13.2436 264.944 11.5821 271.174 10.0127 277.428L6.02558 294.124C9.2651 294.124 12.7538 295.37 15.4949 295.62C27.9546 297.364 40.1651 299.856 51.8772 304.341C53.3724 304.84 53.6216 306.335 53.3724 307.581L55.8643 306.833C54.8675 305.338 55.3659 302.846 55.3659 301.351L55.8643 295.121L57.1103 283.409V282.412L58.6054 269.703V269.205C58.3876 268.118 58.1383 267.038 57.8579 265.965L54.12 257.742C54.12 257.244 54.6183 257.244 54.6183 257.493C56.6119 258.988 58.107 261.231 59.6022 263.723V262.726C59.8514 260.982 60.3498 259.237 61.3466 257.742H61.845C62.8417 259.486 63.0909 261.48 63.0909 263.474V269.953C63.0909 274.189 63.0909 278.425 62.5925 282.661C62.5925 286.898 62.0942 290.885 61.3466 295.121V295.869L60.3498 301.6V302.348L59.6022 305.587L91.0006 297.115L113.428 291.134L115.172 289.141C117.166 287.147 119.907 286.399 122.399 287.895V288.393L120.904 289.141L125.389 287.895C128.878 287.147 132.367 285.901 135.855 285.403C142.308 282.355 148.97 279.774 155.791 277.678L156.539 277.179C160.027 276.182 163.765 274.687 167.254 274.189C169.746 273.69 172.985 274.189 173.982 276.681L177.72 279.92L180.212 282.163H180.461C181.209 282.911 181.707 283.16 181.956 284.157C181.956 284.655 181.707 285.403 180.959 285.403C179.215 285.153 177.72 282.911 176.474 281.665L173.484 278.425C172.985 278.674 172.238 278.674 171.989 278.176C170.244 274.936 165.509 277.179 163.018 277.927L159.03 278.924L153.548 280.668L138.098 285.403C138.597 285.901 138.597 286.898 137.6 287.147C133.613 288.642 129.127 289.639 125.14 290.636L116.917 292.629L115.92 295.121C115.422 298.859 116.418 302.846 117.415 306.335V306.833C118.412 309.824 119.658 313.063 121.901 314.807C122.399 315.306 123.147 315.555 123.894 315.555L138.098 308.328C138.846 308.079 139.843 308.578 139.843 309.325L144.826 308.079C147.318 307.332 149.312 305.587 151.555 304.341C156.289 302.348 161.024 304.84 165.011 306.833L166.008 307.581C167.752 308.328 171.739 310.073 172.487 307.581C173.484 305.089 170.743 302.597 168.998 301.6C166.755 300.354 164.513 299.856 162.021 299.108L158.034 298.361C156.539 298.361 154.794 298.361 153.299 297.613C152.551 297.613 152.551 296.367 153.299 296.118C155.791 295.62 158.283 296.118 160.775 296.616L162.021 297.115C164.513 297.613 167.005 298.361 168.998 299.607C170.743 300.354 172.487 301.6 173.484 303.345C174.48 302.348 175.726 302.348 176.972 302.846H177.471C178.717 303.345 179.464 303.594 180.71 303.345L181.209 300.853C185.417 279.795 190.825 258.995 197.406 238.554L197.905 237.308C198.652 234.318 199.649 231.078 201.144 228.337C202.639 225.845 204.882 224.35 207.872 223.353L217.591 221.609L219.834 221.111C219.086 220.114 218.588 218.619 218.339 217.871V217.622L215.847 211.392L215.099 209.897C213.853 206.159 212.358 202.421 210.364 198.932C208.371 195.194 205.38 192.204 202.141 189.712C195.164 184.728 186.94 182.236 180.212 176.754C179.963 176.505 180.212 176.007 180.461 176.256C184.947 178.499 189.93 179.994 194.665 181.987L195.662 182.236C199.4 183.732 203.138 185.476 206.377 187.719C209.993 190.348 212.973 193.754 215.099 197.686C217.093 201.674 218.339 205.91 220.083 210.146V211.143L222.326 216.127L224.319 220.363L228.306 219.615C256.577 214.929 285.134 212.181 313.78 211.392C315.026 211.392 315.524 212.389 315.275 213.386L307.55 262.228L303.812 283.409L302.068 294.124L300.323 302.846C299.576 305.338 298.579 307.83 296.585 309.824C294.592 312.066 291.851 313.063 289.11 313.312C282.132 314.558 274.905 315.057 267.679 315.804L229.801 320.29C230.3 325.274 230.3 330.257 230.051 335.241V338.232C230.051 340.474 229.801 342.468 229.303 344.711C229.054 347.452 227.808 349.695 225.814 352.186C222.235 355.902 218.014 358.941 213.355 361.157H212.856C210.614 362.154 206.626 363.649 203.636 363.151C204.135 364.895 204.882 367.138 204.135 369.132C203.885 369.879 202.639 370.378 201.892 369.63C200.646 368.135 200.397 366.141 200.147 364.148C198.501 354.018 197.834 343.754 198.154 333.497C198.376 330.153 198.792 326.825 199.4 323.529L195.911 324.028L180.212 325.274C179.92 325.284 179.63 325.221 179.369 325.091C179.108 324.96 178.883 324.766 178.717 324.526C178.468 325.024 177.969 325.523 176.972 325.523C169.497 325.523 162.768 323.031 156.289 320.29L146.322 315.804C143.082 314.558 139.593 313.561 136.354 312.066L128.629 316.303L128.38 316.801C127.881 318.047 126.635 318.545 125.888 319.044C124.642 319.293 123.396 319.542 122.648 319.293L104.208 329.011L98.2272 332.251L61.5958 351.19L60.599 351.688C56.2461 353.896 51.7506 355.811 47.1425 357.42V361.407C47.1425 362.902 47.6409 364.646 46.395 365.892C45.8966 366.39 44.6506 366.391 44.1522 365.643C43.4046 364.148 44.1522 361.656 44.4014 359.911L44.6506 358.167C39.4175 359.911 33.9353 360.659 28.2038 359.662C23.0992 358.58 18.5737 355.652 15.4949 351.439C11.9206 347.074 9.36649 341.966 8.01914 336.487C6.52398 330.257 6.52398 324.028 6.52398 317.798C6.52398 311.07 6.77317 304.092 7.76995 297.613C6.80441 297.295 5.79597 297.127 4.77961 297.115C4.5475 297.424 4.24652 297.675 3.9005 297.848C3.55448 298.021 3.17294 298.111 2.78608 298.111C1.04172 299.856 5.27801 301.849 6.77317 302.348C7.27156 302.348 7.27156 303.345 6.77317 303.345H6.27479C4.03205 303.345 2.03849 302.846 0.543329 300.853C-0.453445 299.108 0.0449344 297.364 1.04171 295.869C2.03848 288.393 3.78285 281.166 5.5272 273.94L11.2587 252.509L12.2554 249.27C15.4949 238.056 18.9837 226.842 23.2199 216.127C25.7119 210.645 28.2038 205.411 31.4433 200.926C34.6457 196.533 38.5131 192.665 42.9062 189.463C51.4131 183.982 60.6377 179.705 70.3175 176.754L70.5667 176.505L85.2692 171.023L97.7288 165.54C97.6421 165.292 97.5591 165.043 97.4797 164.793H95.9845C94.9877 163.547 95.2369 162.55 95.9845 161.553L98.4764 158.065L98.7256 157.317C99.9716 155.323 101.218 153.33 102.962 151.586C103.69 150.87 104.532 150.281 105.454 149.841C105.454 149.841 106.201 149.343 106.451 149.841C109.192 148.595 112.431 148.844 115.671 149.094M227.808 320.539L224.07 321.037L210.863 322.283L201.393 323.529V324.775L201.144 331.254C200.967 335.406 200.967 339.563 201.144 343.714L202.639 356.174V357.42C203.138 357.42 203.636 357.42 203.885 357.918C204.882 358.915 207.623 357.918 208.869 357.669C212.478 356.013 215.767 353.735 218.588 350.94L219.585 349.944L222.575 346.206C223.322 344.212 223.572 341.97 223.821 339.976L225.067 332.5M112.68 293.875H112.182L67.3272 305.836L44.8998 311.319L43.6538 311.568C37.9224 313.063 31.9417 314.807 27.4562 319.044C27.4562 319.293 26.9578 319.044 27.207 319.044C32.1909 313.811 38.9191 311.568 45.3982 309.574L49.1361 308.578C40.185 305.317 31.0279 302.654 21.7248 300.603L14.249 299.357L9.26511 297.862L8.01914 297.613V301.849C8.01914 307.581 8.01913 313.312 8.51752 319.293V320.29C8.76671 326.769 9.26511 333.497 11.757 339.478C13.5014 344.461 16.7409 349.445 20.4788 352.934C22.4724 354.678 24.4659 356.174 27.207 356.921C29.699 357.42 32.1909 357.669 34.6828 357.42C46.6441 356.672 57.3595 349.944 67.8256 344.711L119.159 318.047C118.713 317.756 118.296 317.422 117.914 317.05C115.422 314.558 114.425 311.319 113.677 308.328C112.68 304.84 112.182 301.351 112.182 297.862M134.36 321.536H134.61C134.581 322.956 134.149 324.339 133.364 325.523C131.506 329.952 129.254 334.205 126.635 338.232C123.494 343.805 119.822 349.063 115.671 353.931C114.674 355.177 113.179 353.931 113.677 352.436C116.668 346.953 120.156 341.471 123.645 336.238L129.127 328.264L131.37 325.024L131.868 324.277M311.786 214.632C279.931 215.535 248.191 218.867 216.843 224.599L215.099 225.098C212.109 225.596 208.62 225.845 206.128 227.59C203.636 229.085 202.639 232.574 201.892 235.065C196.543 251.391 191.887 267.936 187.937 284.655C186.193 291.134 184.947 297.862 183.451 304.59C182.302 310.26 181.056 315.909 179.714 321.536C187.189 319.791 195.164 319.044 202.889 318.296H203.636L227.808 315.555L280.886 309.574C283.876 309.076 287.365 309.076 290.355 308.328C295.339 306.833 296.835 300.853 297.582 296.367L304.809 254.253M180.212 305.587C178.218 305.587 175.228 303.594 173.733 303.843C174.73 305.089 174.979 306.833 174.48 308.328C173.235 313.063 167.254 310.82 164.513 309.325C162.021 308.079 159.529 306.833 157.037 306.086C154.296 305.338 152.053 306.584 149.561 308.079C147.568 309.076 145.325 309.824 143.082 310.322H139.593C139.6 310.405 139.6 310.488 139.593 310.571L138.846 310.82C141.338 310.82 144.328 311.817 146.82 312.565L154.794 315.555L157.286 316.552C163.765 319.044 170.244 321.037 177.222 321.037L178.218 321.536M168.749 291.134C170.743 290.885 172.736 291.134 174.231 292.38C176.225 293.875 177.471 296.616 180.461 296.865C181.209 296.865 181.458 298.111 180.461 298.361C178.468 298.859 176.723 297.862 175.477 296.367L174.48 295.37C172.985 293.875 171.739 292.878 169.247 292.878L161.772 293.626C158.785 293.923 155.795 294.172 152.801 294.374L156.04 293.626M166.755 282.661H167.005C169.995 282.412 172.736 282.412 175.477 283.907L175.976 284.406C178.468 285.652 180.96 287.396 182.455 289.888C182.455 290.137 182.205 290.636 181.707 290.636C178.966 289.888 176.723 287.645 174.231 286.15C171.739 284.406 168.998 284.655 165.759 284.904L157.037 286.15L148.564 287.645C148.315 287.645 148.066 287.147 148.564 286.898C151.056 285.403 154.545 284.904 157.535 284.157M65.3337 202.421C65.3337 202.172 65.832 202.172 65.832 202.421C67.8256 205.661 68.8224 209.897 69.8192 213.635C72.9095 225.361 74.665 237.398 75.0522 249.519C75.0522 250.765 73.0587 251.014 73.0587 249.768L69.3208 225.845L67.3272 213.884M84.5216 208.402C84.5216 207.903 85.02 207.654 85.2692 208.153C89.0071 217.622 90.253 228.088 87.7611 238.056C87.7611 239.8 85.2692 239.053 85.5184 237.557M134.36 199.929C134.36 199.431 134.859 199.431 134.859 199.929C136.852 202.421 137.351 205.661 140.839 207.156C142.335 207.654 144.079 207.654 145.574 208.651C146.571 209.399 147.318 210.644 146.571 211.89C146.322 212.14 145.574 212.389 145.325 211.89L144.079 210.146L141.089 209.399C139.765 209.065 138.559 208.375 137.6 207.405M165.011 156.819H165.509V157.566L166.008 160.058L166.506 162.55L167.752 167.534C168.248 169.47 168.83 171.382 169.497 173.265L169.995 173.515V174.262C170.493 175.259 170.743 176.505 169.995 177.502L168.998 178C168.359 179.951 167.61 181.865 166.755 183.732V184.479C165.509 186.971 164.264 189.712 162.27 191.955C160.276 194.447 157.286 196.44 155.542 199.182L153.797 202.919V203.418C153.299 204.664 153.05 205.661 152.053 206.159H151.056C149.063 203.916 151.056 199.929 152.302 197.936C154.047 195.194 156.289 193.45 158.781 191.207C161.273 188.965 163.018 185.974 164.762 182.984L167.503 177.253C166.506 176.256 166.257 174.511 165.759 173.265C164.689 169.201 164.185 165.008 164.264 160.806V160.557M169.247 166.537C168.749 166.288 169.247 165.79 169.497 165.79C171.49 166.288 173.234 167.534 174.979 168.282C176.474 169.278 177.969 170.026 178.717 171.521C179.464 173.265 179.464 175.01 179.215 176.505V176.754C179.215 178.748 179.215 180.99 178.717 182.984C178.717 183.981 177.471 184.23 176.723 183.981C175.726 186.971 173.234 189.214 171.241 191.457C168.749 194.696 169.247 198.683 169.497 202.172C169.497 203.667 167.752 204.165 167.005 203.418L164.513 201.424L163.516 200.677C163.265 200.43 163.016 200.18 162.768 199.929L162.27 199.431L160.775 198.185C160.276 198.185 158.781 199.68 158.283 200.428C157.286 201.424 156.289 202.421 155.791 203.418H155.293L157.785 198.683C158.781 197.686 159.529 196.191 160.775 195.693C162.021 195.693 163.516 196.939 164.513 197.686L166.257 198.932C166.257 196.191 166.257 193.45 167.752 191.207C168.749 189.463 170.244 188.217 171.49 186.971L174.979 181.987C174.979 181.489 175.228 181.489 175.477 181.489L175.976 177.502V177.003C175.976 175.757 176.474 174.013 175.976 172.767C175.228 171.521 173.484 170.524 172.487 169.777L171.739 169.029M106.949 151.586C106.307 151.909 105.718 152.329 105.205 152.832C103.46 154.576 102.464 156.569 101.467 158.563L99.7224 161.803C99.4774 162.22 99.2282 162.636 98.9748 163.049L98.2272 164.045L98.9748 164.793L106.451 173.265C109.441 176.754 111.933 180.741 114.176 184.728C116.668 188.715 118.163 192.952 120.156 197.188C121.153 199.182 122.399 201.175 123.894 202.919L126.635 198.932L131.619 192.703C133.24 190.839 134.902 189.011 136.603 187.22L137.101 186.473C138.347 185.227 139.593 183.482 141.338 182.486C141.186 182.227 141.019 181.978 140.839 181.738C139.167 179.726 137.14 178.036 134.859 176.754L133.364 176.007C125.03 171.084 117.472 164.954 110.936 157.815L110.438 156.819M115.671 150.09C113.179 150.09 110.687 150.09 108.195 151.087L114.176 157.068C114.176 155.573 114.674 154.576 114.923 153.081" fill="#2B283A"></path><path fill-rule="evenodd" clip-rule="evenodd" d="M200.646 78.3245C199.4 68.3567 195.662 58.389 191.675 49.418C182.704 30.2301 162.021 27.7382 143.58 23.7511C125.389 21.2591 106.201 18.7672 88.2594 24.0003C78.2917 26.4922 74.3046 38.4535 75.7997 47.9228C76.7965 53.9035 79.5376 59.3857 81.7804 64.868C86.2659 76.0817 89.2562 88.043 89.2562 100.253C89.007 108.228 87.761 117.199 96.732 120.687C105.703 124.924 106.451 136.636 117.166 143.115C121.651 152.086 133.613 153.083 142.085 155.076L158.781 157.568C174.73 159.312 187.438 154.827 195.911 140.623C202 132.061 205.069 121.716 204.633 111.218L200.646 78.3245Z" fill="white"></path><path fill-rule="evenodd" clip-rule="evenodd" d="M143.83 0.575488C144.826 -0.421286 146.322 0.0771008 147.069 0.575488L148.564 1.57226H152.053L153.05 1.07387C155.292 0.0771003 157.286 0.575489 158.781 1.57226C159.778 0.824683 160.775 0.575488 162.021 0.575488C163.267 0.575488 164.014 1.07387 164.513 1.82145C165.26 0.824679 166.506 0.0771013 168.001 0.0771013C169.995 0.0771013 171.739 0.575486 173.484 1.82145C174.231 0.824679 175.477 0.326293 176.972 0.326293H179.464C180.959 0.824681 181.956 1.57226 182.953 2.31984C184.448 1.07387 186.192 0.0770998 187.937 0.326293C190.429 0.326293 192.921 2.31984 193.668 4.56258C195.413 5.31017 197.157 6.30694 198.652 7.8021L200.646 9.04807C202.639 10.7924 203.138 13.0352 202.39 15.2779V16.2747C204.384 16.5239 205.879 17.5207 206.876 19.265C207.494 20.4232 207.797 21.724 207.753 23.0363C207.709 24.3487 207.321 25.6264 206.626 26.7408C206.025 27.6921 205.267 28.5347 204.384 29.2328C205.38 31.4755 204.882 33.9674 203.387 35.7118L201.892 37.2069C202.192 38.3032 202.109 39.4693 201.656 40.5118C201.202 41.5543 200.406 42.4105 199.4 42.9384V43.9352C199.4 44.6828 198.901 45.4303 198.403 46.1779C197.406 47.6731 195.911 48.6699 195.413 50.4142C194.914 51.411 194.167 51.9094 193.17 51.6602C197.518 61.1499 200.456 71.2241 201.892 81.5634L203.636 96.7642L204.134 101.748C204.633 106.483 205.131 110.968 205.131 115.454C205.131 125.92 202.141 135.638 195.911 143.862C189.959 151.618 181.507 157.077 171.988 159.312C162.021 161.804 150.558 160.807 141.836 155.574C139.344 154.079 141.338 150.59 144.079 151.587C148.907 154.133 154.204 155.668 159.646 156.096C165.087 156.525 170.559 155.838 175.726 154.079C182.003 151.789 187.588 147.93 191.95 142.87C196.312 137.81 199.306 131.717 200.646 125.172C201.892 119.69 201.892 114.208 201.393 108.726V108.227C200.646 97.761 199.4 87.0457 197.905 76.8287C196.345 67.5951 194.011 58.509 190.927 49.6666C189.803 48.6664 188.545 47.8277 187.189 47.1747C168.015 46.3604 148.808 47.5296 129.875 50.6634H129.127C127.134 51.1618 125.14 51.411 123.396 52.1586C121.651 52.9062 121.153 54.1521 120.904 55.6473C119.658 59.6344 119.658 64.1199 119.409 68.107V80.0683C119.278 83.4099 117.951 86.5934 115.671 89.0392C114.425 90.2852 112.93 91.0328 111.434 92.0295C110.438 92.7771 109.939 93.2755 110.188 94.5215C110.438 97.0134 112.68 100.004 110.188 101.997C109.69 102.496 109.192 102.745 108.693 101.997L105.454 99.5053C104.955 99.2562 105.454 98.5086 105.952 98.7578L107.946 99.7545C106.451 98.5086 104.208 98.0102 102.214 97.5118C101.223 97.3651 100.215 97.3651 99.2239 97.5118C97.5972 98.2596 95.9338 98.9249 94.2401 99.5053C92.6088 100.891 91.3621 102.674 90.62 104.682C89.878 106.69 89.6658 108.855 90.0038 110.968C90.253 113.46 91.4989 115.952 93.4925 117.447C95.9844 118.942 99.2239 118.195 101.965 119.441C104.457 120.687 105.952 122.93 106.949 125.421L107.697 126.418C110.337 132.641 114.871 137.872 120.655 141.37C122.15 142.367 122.897 142.865 123.147 144.36C123.147 144.859 122.648 145.357 122.15 145.606C120.405 146.852 118.661 145.606 117.166 144.36C115.498 143.323 113.915 142.157 112.431 140.871C109.939 138.38 107.447 135.14 105.454 131.901C104.208 129.409 103.211 125.92 101.217 123.926C99.7223 122.93 97.7288 122.93 96.2336 122.68C94.4893 122.431 92.9941 122.182 91.7481 121.434C86.0167 118.195 84.2723 110.47 85.7675 104.738L86.7642 101.748C84.5215 101.997 82.2788 100.004 83.0263 97.761L83.2755 97.2626C81.8053 96.2525 80.7447 94.75 80.2852 93.0263V90.5344L78.5409 88.5408C77.4345 88.0414 76.5484 87.1553 76.0489 86.0489C75.0522 84.5537 75.0521 83.0586 75.7997 81.8126C75.7112 81.6493 75.6281 81.483 75.5505 81.3142C74.3759 80.6371 73.4076 79.6533 72.7492 78.4681C72.0908 77.2829 71.767 75.941 71.8126 74.586C71.8126 73.8384 72.0618 72.8416 72.5602 72.0941C71.5226 71.6387 70.602 70.9534 69.8681 70.09C69.1342 69.2266 68.6061 68.2077 68.3239 67.1102C67.8255 64.8674 68.3239 62.8739 69.8191 61.1295C67.8255 59.6344 66.5796 57.6408 67.3272 54.6505C67.5764 53.4045 68.0747 52.4078 69.0715 51.411H68.8223C66.3304 49.4174 65.0844 46.9255 66.3304 43.9352C67.078 42.6892 68.0747 41.4432 69.0715 40.9449C68.6546 40.053 68.418 39.0875 68.3753 38.104C68.3325 37.1204 68.4844 36.1381 68.8223 35.2134C69.0715 33.7182 70.3175 32.2231 71.5634 31.4755V28.9836C71.8126 27.4884 72.5602 26.4916 73.557 25.4948L73.8062 24.9965C74.0554 23.7505 74.803 22.5045 75.5505 21.5078C76.2981 20.7602 76.7965 20.511 77.7933 20.511C77.7072 19.8492 77.7072 19.1792 77.7933 18.5174C78.0148 17.3988 78.4892 16.3458 79.1802 15.4387C79.8713 14.5317 80.7607 13.7948 81.7804 13.2844C82.554 12.9057 83.4126 12.734 84.2723 12.786C85.2691 11.2908 86.7643 10.294 88.5086 9.79565H90.253L91.4989 9.29726H92.2465C93.0058 8.21714 94.0375 7.35734 95.2368 6.80533C96.732 6.30694 98.2272 6.30694 99.4731 6.80533H99.9715C100.305 6.18459 100.766 5.64155 101.324 5.21201C101.882 4.78247 102.526 4.4762 103.211 4.31339C105.205 3.815 106.949 4.31339 108.444 5.55936C109.192 3.815 110.438 2.81823 112.68 2.81823C113.926 2.81823 115.172 3.56581 116.169 4.56258L117.664 4.31339L119.658 2.56904C120.655 1.57226 122.15 1.82145 122.897 3.06742L123.396 3.81501H124.143C125.14 2.56904 126.386 1.82146 127.881 1.57226C129.376 1.57226 130.373 2.31984 131.37 3.31662H133.363C134.148 2.35402 135.072 1.51409 136.105 0.82468C136.852 0.575487 138.098 0.824682 138.597 1.32307L140.092 2.81823C141.088 1.57226 142.584 0.824682 143.83 0.575488ZM95.9844 103.991C97.4796 103.243 99.4731 103.991 100.968 104.988C102.713 105.735 104.457 107.23 105.703 108.726C107.198 111.217 103.709 112.962 101.965 110.968L99.2239 107.23C97.978 106.234 96.4828 105.486 95.9844 104.24V103.991ZM96.9812 48.1715C97.4796 46.9255 95.486 46.4271 95.2368 47.4239C94.4893 49.1682 95.2368 51.1618 96.9812 51.9094C97.4796 52.1586 97.978 51.9094 98.2272 51.6602C98.4763 51.1618 98.2272 50.4142 97.978 50.165C96.9812 49.9158 96.732 49.1683 96.9812 48.1715ZM80.7836 44.6828C81.7804 43.9352 80.2852 42.6892 79.2884 43.4368C78.5409 44.1844 77.7933 45.1811 78.0425 46.4271C78.0425 47.6731 79.0393 48.4207 80.036 48.9191C81.282 49.9158 82.2788 48.1715 81.0328 47.4239C80.5344 47.1747 80.036 46.6763 80.036 46.1779L80.7836 44.6828ZM86.0167 29.9803C87.2626 29.2328 86.0167 27.4884 85.2691 28.236C84.2723 28.9836 83.5247 29.9803 83.2755 30.9771C83.2755 32.2231 84.0231 33.469 84.7707 33.9674C85.5183 34.9642 87.0135 33.7182 86.0167 32.7215C85.2691 31.7247 85.0199 30.7279 86.0167 30.2295V29.9803Z" fill="#2B283A"></path><path fill-rule="evenodd" clip-rule="evenodd" d="M202.889 123.428C202.39 122.182 200.397 122.431 200.397 123.677C200.397 125.422 200.147 127.166 198.403 127.914C196.908 128.91 194.914 127.914 194.167 126.668L191.675 122.93L187.937 120.687C186.87 120.45 185.764 120.45 184.697 120.687C182.205 119.939 178.966 121.185 177.222 123.179C177.216 123.345 177.216 123.511 177.222 123.677C177.064 123.423 176.898 123.173 176.723 122.93C176.225 122.431 175.477 122.431 174.979 122.431C172.238 120.189 168.001 119.939 164.513 121.933C162.021 123.677 159.529 125.92 156.289 126.169C153.797 126.169 150.807 124.674 150.807 121.933C150.807 120.438 148.564 119.192 147.568 120.438C146.37 121.869 145.577 123.593 145.271 125.433C144.964 127.274 145.155 129.162 145.823 130.904C146.524 132.715 147.596 134.359 148.969 135.732C150.342 137.105 151.987 138.177 153.797 138.878C157.784 140.373 162.27 141.121 166.506 140.872C168.817 140.889 171.091 140.299 173.103 139.162C175.114 138.026 176.792 136.381 177.969 134.393C180.461 137.632 184.448 138.878 188.435 139.127C192.422 139.127 197.406 138.38 200.397 135.14C201.804 133.579 202.776 131.675 203.214 129.618C203.651 127.562 203.539 125.427 202.889 123.428Z" fill="#2B283A"></path><path fill-rule="evenodd" clip-rule="evenodd" d="M167.254 138.876C164.814 137.961 162.723 136.306 161.273 134.141C160.775 133.643 160.526 132.895 160.526 132.147C160.586 131.752 160.725 131.373 160.934 131.033C161.143 130.692 161.418 130.397 161.744 130.165C162.069 129.932 162.437 129.768 162.827 129.68C163.217 129.593 163.621 129.584 164.014 129.655C164.513 129.655 165.26 130.154 165.759 130.901C166.755 132.147 168.001 133.393 169.247 133.892C170.605 134.385 172.039 134.638 173.484 134.639C176.186 134.117 178.639 132.715 180.461 130.652L181.209 129.905C181.387 129.651 181.654 129.474 181.956 129.406H182.953C183.156 129.53 183.327 129.701 183.451 129.905C183.613 130.12 183.701 130.383 183.701 130.652C183.701 132.895 182.455 134.889 180.71 136.384C178.987 138.038 176.825 139.163 174.48 139.623C171.988 140.122 169.497 139.623 167.005 138.876H167.254ZM175.477 105.235C177.969 106.979 182.205 110.468 179.464 114.455C175.976 117.943 171.241 113.956 168.998 112.212C166.506 110.717 164.263 114.455 166.506 115.95C183.451 128.659 190.18 105.733 176.972 103.49C175.477 103.241 174.979 104.736 175.477 105.235ZM145.076 90.7813C145.076 87.2926 150.807 86.545 151.305 90.0337C151.804 93.2732 151.305 96.0143 149.81 99.0047C148.315 101.497 144.826 100.5 144.826 98.0079C144.328 94.5192 144.826 93.024 144.826 90.7813H145.076ZM186.691 89.2861C187.438 88.2893 188.684 87.5418 189.93 88.0402C194.167 89.2861 192.921 95.0176 191.426 98.0079C190.678 99.5031 188.186 99.7522 186.94 98.5063C184.947 96.0143 184.199 91.7781 186.442 89.5353C186.519 89.447 186.603 89.3638 186.691 89.2861ZM149.81 75.0821H150.309C152.551 74.5837 155.043 74.3345 156.289 75.8297C157.037 76.8264 157.286 78.3216 156.289 79.3184C154.545 80.5643 152.551 80.0659 150.558 80.3151C148.564 80.3151 147.069 80.5643 145.325 81.0627C141.587 82.0595 138.597 84.053 135.357 86.0466C134.859 86.545 134.36 86.0466 134.609 85.5482C136.707 81.9695 139.833 79.1043 143.58 77.3248C145.535 76.2731 147.634 75.5173 149.81 75.0821ZM182.953 73.5869H183.451C188.934 74.8329 195.911 77.0756 198.403 82.3087C198.652 83.0563 198.403 83.3055 198.403 83.3055L197.905 83.8039L194.665 82.5579L193.668 82.0595C190.025 80.429 186.163 79.3377 182.205 78.82L180.71 78.0724C180.25 77.7776 179.9 77.3398 179.713 76.8264L179.963 74.8329L181.209 73.5869H182.953Z" fill="#2B283A"></path></svg>