<svg xmlns="http://www.w3.org/2000/svg" width="480" height="219" viewBox="0 0 480 219" fill="none"><g clip-path="url(#clip0_23_74)"><path d="M1 1C8.255 24.316 13.132 50.428 32.848 68.45C44.168 78.799 49.532 87.17 65.368 92.845C79.328 97.848 116.693 111.451 131.837 98.209C139.3 91.683 148.461 77.891 135.618 71.389C129.172 68.127 118.602 69.175 111.417 69.773C106.103 70.216 104.463 75.737 102.678 79.031C97.304 88.953 99.864 103.342 107.552 111.287C124.915 129.229 149.145 143.487 176.794 146.997C199.042 149.82 221.991 148.974 244.355 151.038C278.568 154.195 315.242 158.255 348.386 166.615C367.106 171.336 385.767 176.162 404.519 180.795C415.317 183.464 432.32 187.132 442.245 191.932C463.073 201.574 473.557 214.827 479 218" stroke="#AAD1B6" stroke-width="2" stroke-linecap="round" stroke-linejoin="round" stroke-dasharray="4 8 4 8"></path></g><defs><clipPath id="clip0_23_74"><rect width="480" height="219" fill="white"></rect></clipPath></defs></svg>