<svg xmlns="http://www.w3.org/2000/svg" width="264" height="422" viewBox="0 0 264 422" fill="none"><path fill-rule="evenodd" clip-rule="evenodd" d="M93.629 184.35C92.6903 184.663 92.3775 185.289 92.0646 186.227C92.0646 187.166 91.4389 188.418 90.8132 189.356L88.6229 195.927C87.2494 199.249 85.6823 202.488 83.9297 205.626L82.3653 208.129C82.3813 207.921 82.3813 207.712 82.3653 207.503H82.6781C82.5069 206.997 82.178 206.558 81.7395 206.252C80.4879 205 54.5186 211.258 47.3222 218.142C34.494 230.657 25.7332 246.614 20.1013 263.197L11.0278 291.356L1.64126 320.455C0.702608 322.645 2.26699 324.522 4.14429 325.461L14.7822 328.902C13.2178 335.786 11.6535 342.669 11.0278 349.553C9.15047 363.945 8.83747 378.338 6.02152 392.731L3.83129 402.117L3.51849 403.056L1.95407 408.688L0.0768404 413.381C-0.236043 415.258 0.389571 417.449 2.26687 418.387C3.51841 419.013 5.39579 418.7 6.64733 417.449C6.7533 417.038 6.7533 416.607 6.64733 416.197L7.27313 415.571V414.945L8.21174 412.442L9.46336 408.375V407.749L12.5922 398.05C15.4081 386.473 15.721 374.271 16.6596 362.381V361.755C17.5983 351.117 17.9111 340.479 16.9725 329.528L20.7271 330.78L23.2301 331.405H23.8559L24.1687 331.718L27.6106 332.344L33.2425 332.97C31.4711 359.12 28.8624 385.207 25.4204 411.191C25.1075 413.694 24.1688 416.197 24.7945 418.7C24.7945 419.326 25.4204 419.952 26.0462 420.577C26.4321 420.786 26.8576 420.911 27.2949 420.944C27.7322 420.977 28.1717 420.918 28.5847 420.771C28.9978 420.623 29.3752 420.39 29.6925 420.088C30.0098 419.785 30.2598 419.419 30.4264 419.013L32.9296 419.639H67.6597L130.236 420.89H138.371L173.414 421.203C182.176 421.259 190.939 421.154 199.697 420.89H207.206C207.832 422.142 209.396 422.455 210.335 421.203C211.899 418.387 212.525 414.633 212.838 411.191V409.939C215.889 383.53 215.784 356.851 212.525 330.467V318.89C214.402 318.89 215.967 318.264 217.531 317.951C224.365 316.636 231.149 315.07 237.869 313.258L238.807 312.945C244.659 311.232 250.32 308.926 255.703 306.062V309.191L256.329 315.761V317.951L256.954 327.964C257.734 353.974 256.688 380.008 253.826 405.872C253.2 409.626 252.261 413.068 251.948 416.823C251.635 420.577 257.267 421.203 258.206 417.761C259.145 413.694 259.457 409.626 260.083 405.246C263.953 378.694 264.058 351.729 260.396 325.148V324.209L258.832 314.823L258.519 313.571L256.954 305.123L258.519 303.559C259.457 303.246 260.709 302.307 260.396 300.743C260.083 295.424 258.206 290.105 256.329 285.099C254.619 280.091 252.634 275.182 250.384 270.393C242.379 253.45 230.985 238.329 216.905 225.964C209.396 219.706 201.261 213.448 191.875 209.694C185.286 206.612 178.172 204.807 170.911 204.375C169.034 203.123 166.531 203.749 164.654 205H164.028V205.313L163.402 206.252C162.463 207.191 162.464 208.129 162.776 209.381C159.96 211.571 158.396 215.013 156.519 218.454C154.329 221.896 151.826 225.025 148.697 227.841C137.12 237.227 120.224 241.608 105.519 237.227C94.8805 233.786 85.8069 224.712 83.3039 213.761H85.1811C87.9971 212.822 89.2487 209.694 90.1874 207.191C92.3052 201.987 93.6746 196.509 94.2548 190.921V186.54C94.2548 185.602 94.2548 184.976 93.629 184.35ZM140.562 176.841H139.936C137.433 182.16 139.31 189.356 141.5 194.362C144.394 200.15 148.835 205.023 154.329 208.442C158.083 210.945 161.525 204.062 157.144 202.497C152.591 200.126 148.878 196.412 146.506 191.859C144.948 189.634 143.686 187.215 142.752 184.663L140.249 176.841H140.562Z" fill="#2B283A"></path><path fill-rule="evenodd" clip-rule="evenodd" d="M152.764 32.2863C130.862 30.7219 112.089 24.7771 96.4451 38.544C96.4451 38.544 72.0402 19.771 67.6598 26.9673C65.1567 31.6606 68.9113 37.9183 67.6598 43.863C61.4021 55.1269 61.4021 74.5257 61.4021 79.2189C60.1506 90.4827 54.2058 133.661 54.2058 143.986C54.2058 148.992 58.5862 162.759 61.0893 170.268C67.347 187.164 78.6108 195.925 97.0709 195.925C115.531 195.925 146.194 180.28 155.893 166.514C156.832 165.262 162.151 168.704 168.095 162.446C174.353 156.188 177.795 143.36 177.795 135.538C177.795 126.152 184.053 119.581 183.427 107.378C181.55 79.8447 176.231 33.225 152.764 32.2863Z" fill="white"></path><path fill-rule="evenodd" clip-rule="evenodd" d="M155.267 0.061479H154.329C154.016 0.0379796 153.702 0.0379796 153.39 0.061479C151.826 0.687247 150.261 1.31301 149.322 2.56455C148.748 3.03023 148.224 3.55454 147.758 4.12897V3.81608C147.457 3.58946 147.144 3.38052 146.819 3.19032C145.817 2.32927 144.644 1.68955 143.378 1.31301H143.065C142.067 0.921243 141.008 0.709376 139.936 0.687243C138.997 0.687243 137.746 0.687246 136.807 1.31301L133.365 3.81608L131.488 5.3805C130.028 6.8725 128.954 8.69834 128.359 10.6995C127.008 10.548 125.651 10.4436 124.292 10.3866C118.161 10.0448 112.018 10.7862 106.144 12.5768C105.285 12.8177 104.447 13.1318 103.641 13.5155C102.321 13.9939 101.061 14.6239 99.8868 15.3928L98.9482 16.0186C97.3289 16.9767 95.7622 18.0212 94.2549 19.1474C92.9085 20.3004 91.6532 21.5556 90.5003 22.902L84.5556 27.2824C80.1837 24.8195 75.4212 23.1262 70.4758 22.2762C69.8501 22.2605 69.2241 22.2605 68.5984 22.2762L67.034 21.9634H66.0954L65.4695 22.2762V22.902C65.3653 22.8996 65.261 22.8996 65.1567 22.902L64.2181 23.5278L63.9051 24.1535C63.7628 26.6549 63.6586 29.1582 63.5923 31.6627V34.7916L64.5309 36.9818V37.9204L66.7212 43.2395L65.1567 45.1168C65.1548 45.221 65.1548 45.3254 65.1567 45.4296C65.1092 45.4022 65.0553 45.3877 65.0003 45.3877C64.9454 45.3877 64.8913 45.4022 64.8437 45.4296H64.2181C63.2043 46.4926 62.4541 47.7786 62.0279 49.1843L61.7149 49.81V50.1229L60.4635 53.2517C60.2907 54.1815 60.186 55.1227 60.1505 56.0677C59.4061 58.9613 58.7799 61.8839 58.2733 64.8284L57.3346 65.4542L54.8316 68.583L52.9542 72.0248V72.3377L52.6414 72.9634L52.0156 74.5278L51.3898 77.9696C51.3898 79.8469 51.3898 81.7242 52.0156 83.2886C52.0156 84.853 53.2671 86.4174 54.5186 87.3561L55.4572 87.9818C56.083 88.6076 56.7088 88.6076 57.6474 88.2947H57.9604L58.5861 88.6076V88.9205H59.5249V89.5463L58.2733 97.9941C58.1004 101.967 57.7874 105.933 57.3346 109.884L57.0216 111.448L54.8316 124.902C54.3399 126.972 53.9224 129.06 53.58 131.16C53.13 132.587 52.8157 134.054 52.6414 135.54C52.3524 137.093 52.1435 138.659 52.0156 140.233C51.3898 141.485 51.3898 142.424 51.3898 143.362V148.056L52.0156 152.436L53.58 158.381C55.2298 163.712 57.6545 168.773 60.7763 173.399C67.3741 184.366 77.7053 192.587 89.8744 196.553L94.8807 197.804C98.6353 198.43 102.39 198.43 105.832 197.804C109.997 197.315 114.031 196.041 117.721 194.049L120.224 192.485C121.937 191.311 123.511 189.946 124.917 188.418C125.23 188.418 124.917 188.105 124.917 188.105V187.792H125.23V186.54H124.605V186.227C124.397 186.206 124.187 186.206 123.979 186.227H123.666C123.979 185.914 123.666 185.602 123.666 185.602H123.353L122.414 185.914C122.01 186.345 121.593 186.762 121.163 187.166L120.537 187.479C120.031 187.915 119.51 188.333 118.973 188.73L118.347 189.043L115.844 190.608L107.709 193.424H107.396L104.58 193.737C102.812 193.933 101.029 193.933 99.261 193.737C98.002 193.763 96.7438 193.658 95.5065 193.424C90.7354 192.659 86.1627 190.958 82.0524 188.418C81.2 187.925 80.3652 187.404 79.5493 186.853C77.6813 185.512 75.9043 184.049 74.2303 182.473C73.4709 181.773 72.7404 181.042 72.0402 180.283L69.85 178.092L69.2242 177.467C64.865 171.759 61.3848 165.431 58.8991 158.694C58.5318 157.456 58.2186 156.204 57.9604 154.939C57.3544 153.431 56.934 151.855 56.7088 150.246V148.994C56.6945 148.473 56.6945 147.951 56.7088 147.43C56.6943 146.908 56.6943 146.387 56.7088 145.865V141.798L57.0216 137.73V136.166L57.3346 135.227V134.914L57.9604 132.098V131.786L58.8991 128.657L59.5249 125.528L60.4635 119.583L62.0279 110.197V109.571C62.4465 106.558 62.7595 103.532 62.9665 100.497C63.0833 97.3695 63.0833 94.2384 62.9665 91.1107V88.6076L67.9726 88.2947C69.6526 88.1899 71.3247 87.9809 72.9788 87.669H73.6046V88.2947H74.2303C75.3694 88.4873 76.5329 88.4873 77.6721 88.2947L78.6107 87.669L81.4267 87.0432H84.2426C85.1812 87.0432 86.12 87.669 87.0586 87.0432H87.6844C88.936 87.0432 89.8746 86.1045 90.8133 85.7917C91.0106 85.7055 91.2235 85.6611 91.4389 85.6611C91.6542 85.6611 91.8673 85.7055 92.0647 85.7917L92.6905 86.1045L93.0033 86.7303L94.5677 88.2947L96.4451 88.9205H98.0095C99.574 89.2334 101.451 89.5463 103.329 88.9205C103.954 88.9205 104.58 88.9205 105.206 88.2947C105.525 88.2104 105.838 88.1058 106.144 87.9818L109.586 89.5463H109.899C111.151 90.4849 112.402 91.1107 113.654 90.7978C115.437 90.688 117.213 90.4791 118.973 90.172H120.85C123.666 91.1107 126.795 92.0493 129.611 91.1107C130.549 91.1107 131.801 90.7978 132.74 89.8592H133.365V89.5463C134.93 88.9205 135.868 87.3561 135.556 85.7917V84.2272L137.12 85.7917L142.439 92.6751L143.065 93.3009L145.568 97.3684C147.353 100.041 149.231 102.65 151.2 105.19L151.826 105.816L153.077 107.694C154.697 110.044 156.06 112.562 157.144 115.203L157.77 116.141C158.661 118.463 159.291 120.877 159.648 123.338V124.902H159.022C158.709 125.215 158.083 125.528 158.396 125.841L159.022 127.092L160.273 129.908C159.951 130.103 159.638 130.311 159.335 130.534C158.638 130.834 158.002 131.258 157.457 131.786L156.206 133.037C155.612 133.599 155.087 134.229 154.641 134.914L153.703 136.792C153.638 137.206 153.638 137.629 153.703 138.043C154.016 140.859 157.457 138.982 157.457 138.669C158.083 136.792 158.396 135.54 159.648 134.289L161.838 133.35C161.838 133.663 161.838 133.976 162.464 133.976H167.157C168.095 133.976 168.721 134.602 169.347 134.914C171.173 136.403 172.575 138.345 173.414 140.546C174.666 145.24 173.415 149.933 171.537 154C170.544 155.802 169.5 157.576 168.408 159.319L166.844 160.884L164.967 162.761C164.862 162.763 164.758 162.763 164.654 162.761C164.341 163.387 164.028 163.387 163.402 163.7C163.298 163.702 163.194 163.702 163.089 163.7C162.413 164.064 161.666 164.278 160.899 164.326C159.846 164.426 158.783 164.319 157.77 164.013L156.206 162.761H155.58C155.461 162.56 155.357 162.351 155.267 162.135H154.954L154.016 162.761L153.703 163.387C152.764 163.387 151.826 164.326 151.826 164.326C151.96 164.682 152.174 165.003 152.451 165.264H152.764L152.451 165.89C152.444 165.994 152.444 166.099 152.451 166.203L150.887 168.393C150.315 169.731 149.58 170.992 148.697 172.148C148.006 173.298 147.164 174.35 146.194 175.276L143.691 176.841L143.378 177.154C143.065 177.154 142.752 177.154 143.065 177.78C142.557 178.115 142.035 178.428 141.5 178.718C141.187 178.718 140.875 179.031 141.187 179.344L142.439 178.718L142.126 179.031L141.813 179.657H142.439L143.065 179.344C142.764 179.668 142.451 179.981 142.126 180.283C141.813 180.283 141.5 180.595 141.813 180.908L142.752 180.595L143.378 180.283H142.752L142.126 181.221H143.065V180.908H144.004L144.942 180.283L145.568 179.97C148.013 178.537 150.228 176.744 152.138 174.651C153.502 172.915 154.658 171.024 155.58 169.019L155.893 168.393C157.634 168.873 159.472 168.873 161.212 168.393C162.777 168.08 164.654 167.141 166.218 166.203L168.408 164.951C169.528 163.988 170.573 162.942 171.537 161.822L173.414 159.319L175.292 156.503C177.735 152.786 179.04 148.436 179.046 143.988C179.027 143.042 178.923 142.099 178.734 141.172V140.859H179.046L179.985 140.233L181.55 138.356C183.323 135.751 184.4 132.735 184.678 129.595C184.681 129.387 184.681 129.178 184.678 128.97V123.651H184.365V123.025C186.556 120.522 188.12 117.706 188.12 114.264C188.12 113.013 187.807 112.074 187.181 111.135C189.059 110.509 190.623 109.258 191.875 107.694C191.876 107.589 191.876 107.485 191.875 107.381C194.065 105.503 195.629 103 196.568 100.497C197.227 99.0075 197.649 97.424 197.819 95.8039C197.821 95.6997 197.821 95.5954 197.819 95.4911C198.445 92.6751 198.445 90.172 198.132 87.3561C198.877 85.0114 199.401 82.6021 199.697 80.1597V79.2211C200.323 71.7119 198.758 64.2027 195.942 57.3192C195.635 56.7941 195.323 56.2726 195.004 55.7548V55.129C191.875 50.7487 188.12 46.9941 184.678 43.2395C183.427 41.9879 185.304 40.1106 186.556 41.3622L193.439 48.8714C194.492 48.9437 195.55 48.838 196.568 48.5585C198.445 48.5585 199.697 47.6198 201.261 46.6812C202.826 45.7425 204.39 44.1781 204.39 42.3008C204.407 42.0926 204.407 41.8833 204.39 41.675V38.5462C204.3 38.3306 204.196 38.1215 204.077 37.9204L202.2 35.7302C202.017 35.4977 201.807 35.2877 201.574 35.1045L202.826 32.9143C203.43 31.6427 203.75 30.2547 203.764 28.8468V28.221C203.764 26.9695 203.764 25.4051 203.138 24.1535C203.053 23.8346 202.949 23.5211 202.826 23.2149L200.635 20.086C200.148 19.7196 199.624 19.405 199.071 19.1474C198.677 18.8948 198.258 18.6851 197.819 18.5216C197.062 18.0321 196.209 17.7119 195.316 17.583L194.065 11.9511L191.875 8.50934C191.282 7.81852 190.53 7.28172 189.684 6.94492H189.372L186.868 6.31916C185.514 6.31916 184.197 6.75831 183.114 7.57069C182.921 7.24755 182.712 6.93427 182.488 6.63204L180.298 3.5032H179.672C179.282 3.06018 178.864 2.64218 178.421 2.25166C177.364 1.54996 176.202 1.02181 174.979 0.687243C173.573 0.198954 172.085 -0.0135118 170.599 0.061479H169.973C166.945 0.235704 164.071 1.45167 161.838 3.5032C161.578 3.0484 161.263 2.62793 160.899 2.25166H160.586C160.486 2.14371 160.381 2.03935 160.273 1.93878C159.886 1.58786 159.467 1.27363 159.022 1.00013C158.457 0.578379 157.821 0.260544 157.144 0.061479C156.521 -0.020493 155.89 -0.020493 155.267 0.061479ZM162.464 142.424L157.457 144.301L153.077 147.117C153.077 148.994 153.077 151.184 154.641 150.246L155.267 149.933H155.58C158.709 147.743 161.838 146.178 165.592 145.24C165.592 145.24 164.028 142.424 163.402 142.737L162.464 142.424ZM129.611 67.3315C135.033 67.5676 140.456 67.7761 145.881 67.9573L147.758 67.6444L149.322 68.583L154.641 72.9634C158.405 75.8368 161.96 78.9735 165.28 82.3499C171.271 88.3089 175.959 95.4475 179.046 103.313C179.359 106.442 180.924 109.571 181.55 112.7C181.862 115.829 181.55 118.332 179.359 120.522C179.046 121.148 178.108 121.148 177.482 120.522C177.482 121.148 176.856 121.148 176.856 119.896L174.666 116.767C174.353 115.829 174.666 115.203 175.605 115.203C173.474 107.829 169.612 101.071 164.341 95.4911L164.028 95.1782H163.715L163.402 94.5524H163.089L162.151 94.8653V95.4911L161.525 95.8039C160.899 95.8039 159.96 96.7426 160.273 96.7426L161.212 97.6813L160.899 98.307L164.341 102.687C165.26 103.881 166.096 105.135 166.844 106.442C169.643 111.586 171.447 117.212 172.163 123.025V128.344C171.456 128.707 170.724 129.021 169.973 129.283C169.869 129.284 169.764 129.284 169.66 129.283C169.556 129.277 169.451 129.277 169.347 129.283C168.545 128.96 167.703 128.749 166.844 128.657C166.323 128.616 165.8 128.616 165.28 128.657C164.967 128.642 164.654 128.642 164.341 128.657V128.344C164.654 126.467 164.654 125.215 164.341 123.338C164.352 122.608 164.352 121.878 164.341 121.148C164.154 120.411 163.946 119.681 163.715 118.957L161.838 113.638C159.96 108.632 156.832 104.252 154.016 99.8714L147.758 90.172C143.847 84.5802 139.45 79.3451 134.617 74.5278C134.205 74.2085 133.787 73.8955 133.365 73.5892C131.111 71.6281 128.705 69.8495 126.169 68.2702H124.917C124.71 68.1633 124.502 68.059 124.292 67.9573L123.979 67.6444C125.861 67.4782 127.738 67.2696 129.611 67.0186V67.3315ZM105.519 44.1781H112.089C110.525 45.7425 109.273 47.3069 108.647 49.1843C107.709 51.3744 111.151 52.3131 111.776 50.1229C112.715 48.2456 114.279 46.6812 116.157 45.7425C116.48 45.9353 116.793 46.1442 117.095 46.3683C118.751 47.6922 120.043 49.4147 120.85 51.3744C121.154 52.2892 121.364 53.2328 121.476 54.1904C121.476 57.6321 120.537 61.0738 118.973 64.2027C117.368 63.3335 115.694 62.6009 113.967 62.0125C112.656 61.1068 111.298 60.2713 109.899 59.5094C106.827 57.8771 103.571 56.6167 100.2 55.7548H99.8868C99.059 55.5208 98.2243 55.3121 97.3837 55.129H96.7579V54.5033C97.3071 50.8236 99.2026 47.4788 102.077 45.1168L103.954 44.491H104.267L105.519 44.1781ZM147.445 41.0493C154.282 40.4088 161.178 41.0454 167.783 42.9266L166.844 44.491C164.861 48.5269 162.559 52.3981 159.961 56.0677C159.293 56.8578 158.56 57.5905 157.77 58.2579C157.57 58.4748 157.361 58.6836 157.144 58.8836C156.489 59.5917 155.754 60.2217 154.954 60.7609C154.259 61.2364 153.527 61.6549 152.764 62.0125H152.451L149.948 62.9511H149.322L148.697 63.264C148.592 63.2621 148.488 63.2621 148.384 63.264H147.758C147.142 63.4226 146.514 63.5273 145.881 63.5769H144.629V63.8898C141.5 63.8898 139.31 63.8898 136.494 63.264L125.543 62.3254C124.918 62.3254 124.605 62.6383 124.917 62.9511L124.292 63.264L125.543 60.1352V58.5708L125.856 56.3806C125.869 56.0678 125.869 55.7547 125.856 55.4419V54.8162L128.046 54.1904L134.304 53.2517C136.827 53.3711 139.338 53.6849 141.813 54.1904L142.439 53.5646H143.065C143.065 53.5646 143.69 53.2517 143.065 52.9388C142.96 52.9377 142.856 52.9377 142.752 52.9388H143.691C144.003 52.9388 144.003 52.3131 143.691 52.3131C143.691 52.3131 144.003 51.6873 143.691 51.6873H143.378V51.0615H144.004L143.691 50.7487H143.378L143.065 50.1229C142.037 49.7624 140.993 49.4492 139.936 49.1843C139.314 49.0553 138.688 48.9509 138.059 48.8714C136.498 48.7145 134.926 48.7145 133.365 48.8714C133.053 48.8656 132.74 48.8656 132.427 48.8714C131.905 48.8527 131.384 48.8527 130.862 48.8714C129.471 49.161 128.109 49.58 126.795 50.1229H126.482C126.166 50.2192 125.853 50.3235 125.543 50.4358C125.366 49.9023 125.157 49.3799 124.917 48.8714V48.5585H125.23C127.796 47.0112 130.524 45.752 133.365 44.8039C135.963 43.5639 138.692 42.6194 141.5 41.9879C143.553 41.4835 145.648 41.1693 147.758 41.0493H147.445ZM68.5984 46.3683C68.5984 46.9941 68.9112 47.6198 69.537 47.9327C70.7885 50.4358 72.6659 52.626 74.8561 54.5033C74.3349 54.4796 73.8128 54.4796 73.2916 54.5033L70.4758 55.129H70.1628C68.2655 55.6688 66.4689 56.5142 64.8437 57.6321C64.8111 57.1111 64.8111 56.5886 64.8437 56.0677C65.1486 53.5965 65.78 51.1766 66.7212 48.8714C67.2882 47.9945 67.9154 47.1581 68.5984 46.3683ZM67.9726 26.9695L70.1628 27.5953L73.9174 28.5339L79.2365 30.7241C83.3758 32.5956 87.1807 35.1322 90.5003 38.2333L92.0647 40.1106L94.2549 42.6137L94.8807 42.9266H94.2549V43.8652H94.8807V44.1781C94.9849 44.1856 95.0894 44.1856 95.1935 44.1781L94.5677 45.1168V45.4296C94.7755 45.4558 94.9857 45.4558 95.1935 45.4296V45.7425L96.4451 45.4296L93.9421 49.1843C93.6363 48.8643 93.3232 48.5514 93.0033 48.2456H93.6291L93.3163 47.9327C92.3648 47.08 91.3143 46.3447 90.1874 45.7425C89.3957 45.245 88.5574 44.8259 87.6844 44.491L81.4267 41.9879H80.4879C80.175 41.9879 79.5494 41.9879 79.8623 42.6137C79.758 42.6104 79.6536 42.6104 79.5493 42.6137H79.2365L78.2979 43.5523C77.985 43.5523 77.6721 44.1781 78.2979 44.1781L78.6107 44.491H79.2365C79.1239 44.6953 79.0194 44.9041 78.9235 45.1168L78.6107 45.7425H78.9235V46.3683C81.7395 46.9941 83.9297 48.2456 86.4328 49.4971C88.2191 50.3686 90.1128 50.9998 92.0647 51.3744L92.6905 51.0615H93.0033C92.6864 52.0799 92.4769 53.1285 92.3777 54.1904C92.3739 54.2946 92.3739 54.399 92.3777 54.5033C91.9605 54.4967 91.5432 54.4967 91.1261 54.5033C88.4195 54.2678 85.6977 54.2678 82.9912 54.5033L79.8623 52.626C79.5439 52.3186 79.2308 52.0057 78.9235 51.6873L74.2303 46.6812C73.0119 44.9068 71.9643 43.0211 71.1014 41.0493C70.1061 39.2477 69.2687 37.3634 68.5984 35.4174L67.9726 30.0983C67.9628 29.7855 67.9628 29.4725 67.9726 29.1597V26.9695ZM93.0033 50.1229H93.6291V50.4358H93.0033C93.0164 50.3319 93.0164 50.2268 93.0033 50.1229Z" fill="#2B283A"></path><path fill-rule="evenodd" clip-rule="evenodd" d="M89.2488 174.023C91.7519 173.084 93.9421 171.207 95.5065 169.017C96.1323 168.391 96.1321 167.765 96.1321 166.826C96.0577 166.412 95.9004 166.016 95.6694 165.664C95.4384 165.311 95.1387 165.009 94.7881 164.775C94.4374 164.541 94.0431 164.381 93.6289 164.303C93.2147 164.226 92.7892 164.232 92.3777 164.323C91.618 164.493 90.9486 164.939 90.5002 165.575C89.5469 166.931 88.2515 168.011 86.7456 168.704C85.4941 169.329 83.9297 169.642 82.3653 169.642C79.2365 169.017 77.3591 167.452 74.856 165.262L74.2302 164.323C74.0556 164.162 73.8387 164.053 73.6046 164.01C73.2991 163.914 72.9713 163.914 72.6658 164.01C72.286 164.095 71.9514 164.318 71.7272 164.636C71.6742 164.841 71.6742 165.057 71.7272 165.262C71.9248 167.673 73.0457 169.915 74.856 171.52C76.7333 173.084 79.2365 174.648 81.4267 174.648C84.2427 175.274 86.7457 174.961 89.2488 174.023ZM80.1751 138.354C77.3591 140.231 73.2917 143.986 76.1077 148.366C79.8623 152.121 84.8683 147.74 87.3714 145.863C89.5616 144.299 92.3776 148.053 90.1874 149.931C72.0402 163.385 64.8437 138.98 78.9235 136.477C80.4879 136.477 81.1138 138.041 80.1751 138.354ZM112.715 122.71C112.402 119.268 106.457 118.329 105.832 122.084C105.519 125.213 105.832 128.342 107.396 131.471C108.96 134.599 112.715 133.035 113.028 130.532L112.715 123.023V122.71ZM68.2856 121.145C67.9378 120.66 67.4583 120.284 66.9039 120.062C66.3495 119.841 65.7433 119.782 65.1567 119.894C60.7763 121.145 62.0279 127.403 63.5923 130.532C64.2181 132.096 66.7211 132.409 68.2856 131.158C70.1629 128.655 71.4143 123.961 68.5984 121.771C68.6193 121.563 68.6193 121.353 68.5984 121.145H68.2856ZM107.709 106.44H106.77C104.893 105.814 102.077 105.501 100.513 107.066C99.8868 108.004 99.5739 109.882 100.513 110.507C102.39 112.072 104.58 111.446 106.77 111.759C108.677 111.856 110.567 112.171 112.402 112.697C116.157 113.636 119.599 115.826 123.04 118.017C123.04 118.329 123.666 118.017 123.666 117.391C121.483 113.598 118.213 110.547 114.28 108.63C112.089 107.691 109.899 106.753 107.709 106.44ZM72.353 104.562H71.7272C66.0953 105.814 58.5861 108.317 56.083 113.949V114.888L56.396 115.513H56.7088L59.8377 113.949L61.0893 113.636L64.8437 112.072C67.5908 111.169 70.4206 110.54 73.2916 110.194L74.856 109.569C75.1689 109.256 75.7947 108.63 75.7947 108.004V105.814C75.3918 105.336 74.8414 105.006 74.2302 104.875C73.6192 104.683 72.964 104.683 72.353 104.875V104.562Z" fill="#2B283A"></path></svg>