<svg xmlns="http://www.w3.org/2000/svg" width="207" height="186" viewBox="0 0 207 186" fill="none"><g clip-path="url(#clip0_23_60)"><path fill-rule="evenodd" clip-rule="evenodd" d="M96.1525 -0.000429386C139.342 -0.82009 186.504 10.9074 201.258 51.4491C217.336 95.5847 197.16 144.89 158.51 171.498C122.697 196.088 75.9132 187.45 41.1722 161.41C8.19659 136.631 -8.82713 94.7019 4.6027 55.7365C17.2759 18.2843 56.6196 0.882282 96.0895 0.0626215L96.1525 -0.000429386Z" fill="#FBF5E5"></path><path d="M87.1076 92.9685L90.1616 66.0645H119.829V74.8265H98.7781L97.4693 86.2062C99.9658 84.8731 102.62 84.2065 105.431 84.2065C110.473 84.2065 114.424 85.7699 117.284 88.8966C120.144 92.0232 121.574 96.3982 121.574 102.021C121.574 105.439 120.847 108.505 119.392 111.22C117.962 113.91 115.902 116.007 113.212 117.509C110.521 118.988 107.346 119.727 103.686 119.727C100.487 119.727 97.5178 119.085 94.7789 117.8C92.04 116.491 89.8707 114.661 88.271 112.31C86.6955 109.959 85.8593 107.281 85.7624 104.275H96.1604C96.3786 106.481 97.1421 108.202 98.4509 109.438C99.784 110.65 101.517 111.256 103.65 111.256C106.025 111.256 107.855 110.408 109.14 108.711C110.424 106.99 111.067 104.566 111.067 101.44C111.067 98.4342 110.327 96.1316 108.849 94.5319C107.37 92.9322 105.274 92.1323 102.559 92.1323C100.063 92.1323 98.0389 92.7867 96.4876 94.0956L95.4697 95.0409L87.1076 92.9685Z" fill="#ED5564"></path></g><defs><clipPath id="clip0_23_60"><rect width="206.807" height="186" fill="white"></rect></clipPath></defs></svg>