<svg xmlns="http://www.w3.org/2000/svg" width="1727" height="114" viewBox="0 0 1727 114" fill="none"><rect width="1727" height="114" fill="white"></rect><g clip-path="url(#clip0_120_946)"><path d="M82.5574 26.0576C83.9533 26.0576 85.0868 27.1911 85.0868 28.5871C85.0868 30.0109 83.9533 31.1444 82.5574 31.1444C81.1335 31.1444 80 30.0109 80 28.5871C80 27.1911 81.1335 26.0576 82.5574 26.0576ZM80.2029 32.8884H84.8821V47.6258H80.2029V32.8884Z" fill="#2B0482"></path><path d="M99.2993 32.5682C97.1775 32.5682 95.521 33.4412 94.3875 34.9227C93.3712 33.4691 91.7427 32.5682 89.4459 32.5682C87.7949 32.5682 86.3525 33.4188 85.7513 34.2545C85.7513 34.2545 85.755 40.9066 85.755 39.6019C85.755 38.299 86.9927 36.9571 88.4296 36.9571C90.3188 36.9571 91.1899 38.5261 91.1899 40.2701V47.6239H95.8411V40.3278C95.8411 38.1483 96.8872 36.9571 98.5157 36.9571C100.405 36.9571 101.278 38.5261 101.278 40.2701V47.6239H105.929V40.272C105.927 36.1437 103.835 32.5682 99.2993 32.5682Z" fill="#2B0482"></path><path d="M112.989 26H108.338V47.6259H112.989V26Z" fill="#2B0482"></path><path d="M115.023 40.272C115.023 36.1159 117.901 32.5702 122.377 32.5702C123.976 32.5702 125.342 33.0634 126.446 33.8787V32.8903H131.097V47.6277H126.446V46.6692C125.342 47.4825 123.976 47.9776 122.377 47.9776C117.901 47.9739 115.023 44.3984 115.023 40.272ZM122.9 43.4697C124.674 43.4697 126.098 42.0458 126.098 40.272C126.098 38.4983 124.674 37.0465 122.9 37.0465C121.126 37.0465 119.702 38.5001 119.702 40.272C119.702 42.044 121.126 43.4697 122.9 43.4697Z" fill="#2B0482"></path><path d="M138.361 46.6655V47.624H133.71V26H138.361V33.8768C139.465 33.0634 140.831 32.5684 142.43 32.5684C146.906 32.5684 149.784 36.114 149.784 40.2702C149.784 44.3985 146.906 47.9739 142.43 47.9739C140.831 47.9739 139.465 47.4807 138.361 46.6655ZM141.907 43.4697C143.681 43.4697 145.133 42.0458 145.133 40.2721C145.133 38.4983 143.679 37.0465 141.907 37.0465C140.135 37.0465 138.709 38.5002 138.709 40.2721C138.709 42.044 140.133 43.4697 141.907 43.4697Z" fill="#2B0482"></path><path d="M150.8 43.7302L155.422 42.887C155.422 43.5552 156.032 44.3407 157.428 44.3407C158.241 44.3407 158.794 43.9628 158.794 43.3523C158.794 42.7121 158.329 42.5967 155.946 42.0736C153.534 41.5506 151.5 40.5046 151.5 37.4522C151.5 34.2266 154.348 32.5682 157.052 32.5682C159.814 32.5682 162.051 33.8767 162.662 36.2591L158.709 37.1897C158.593 36.7821 158.186 36.2014 157.167 36.2014C156.442 36.2014 155.889 36.5495 155.889 37.1022C155.889 37.8002 156.499 37.9454 158.359 38.3809C160.683 38.9337 163.445 39.6317 163.445 42.9726C163.445 46.5481 160.481 47.972 157.195 47.972C153.91 47.9738 151.208 46.7528 150.8 43.7302Z" fill="#2B0482"></path></g><g clip-path="url(#clip1_120_946)"><rect width="17.7057" height="17.7057" transform="translate(170.304 68.2943)" fill="#FBF9FF"></rect><path d="M186.699 68.2943H171.611C170.888 68.2943 170.304 68.8649 170.304 69.5704V84.7205C170.304 85.426 170.888 86 171.611 86H186.699C187.422 86 188.01 85.426 188.01 84.724V69.5704C188.01 68.8649 187.422 68.2943 186.699 68.2943ZM175.557 83.3822H172.929V74.9305H175.557V83.3822ZM174.243 73.7789C173.399 73.7789 172.718 73.0977 172.718 72.2573C172.718 71.417 173.399 70.7358 174.243 70.7358C175.083 70.7358 175.764 71.417 175.764 72.2573C175.764 73.0942 175.083 73.7789 174.243 73.7789ZM185.392 83.3822H182.767V79.2739C182.767 78.2953 182.75 77.033 181.401 77.033C180.035 77.033 179.828 78.1016 179.828 79.2048V83.3822H177.206V74.9305H179.724V76.0855H179.759C180.108 75.4216 180.965 74.7195 182.242 74.7195C184.901 74.7195 185.392 76.4694 185.392 78.7448V83.3822Z" fill="#2B0482"></path></g><g clip-path="url(#clip2_120_946)"><rect width="17.7057" height="17.7057" transform="translate(140.495 67.1512)" fill="#FBF9FF"></rect><path d="M149.347 68.7455C151.713 68.7455 151.993 68.7558 152.923 68.7973C153.788 68.8354 154.255 68.9806 154.566 69.1016C154.977 69.2607 155.275 69.4544 155.582 69.7621C155.894 70.0734 156.084 70.3673 156.243 70.7788C156.364 71.0901 156.509 71.5604 156.547 72.4215C156.589 73.3552 156.599 73.6353 156.599 75.9972C156.599 78.3626 156.589 78.6427 156.547 79.5729C156.509 80.4374 156.364 80.9043 156.243 81.2155C156.084 81.6271 155.89 81.9245 155.582 82.2322C155.271 82.5435 154.977 82.7337 154.566 82.8927C154.255 83.0138 153.784 83.159 152.923 83.1971C151.989 83.2385 151.709 83.2489 149.347 83.2489C146.982 83.2489 146.702 83.2385 145.772 83.1971C144.907 83.159 144.44 83.0138 144.129 82.8927C143.718 82.7337 143.42 82.54 143.112 82.2322C142.801 81.921 142.611 81.6271 142.452 81.2155C142.331 80.9043 142.186 80.434 142.148 79.5729C142.106 78.6392 142.096 78.3591 142.096 75.9972C142.096 73.6318 142.106 73.3517 142.148 72.4215C142.186 71.5569 142.331 71.0901 142.452 70.7788C142.611 70.3673 142.805 70.0699 143.112 69.7621C143.424 69.4509 143.718 69.2607 144.129 69.1016C144.44 68.9806 144.911 68.8354 145.772 68.7973C146.702 68.7558 146.982 68.7455 149.347 68.7455ZM149.347 67.1512C146.944 67.1512 146.643 67.1616 145.699 67.2031C144.758 67.2446 144.112 67.3968 143.552 67.6146C142.967 67.8429 142.473 68.1437 141.982 68.6382C141.487 69.1293 141.186 69.6238 140.958 70.2048C140.74 70.7685 140.588 71.4117 140.546 72.3523C140.505 73.2998 140.495 73.6007 140.495 76.0041C140.495 78.4075 140.505 78.7084 140.546 79.6524C140.588 80.5931 140.74 81.2397 140.958 81.8C141.186 82.3844 141.487 82.8789 141.982 83.37C142.473 83.861 142.967 84.1653 143.548 84.3901C144.112 84.608 144.755 84.7601 145.696 84.8016C146.64 84.8431 146.941 84.8535 149.344 84.8535C151.747 84.8535 152.048 84.8431 152.992 84.8016C153.933 84.7601 154.58 84.608 155.14 84.3901C155.721 84.1653 156.215 83.861 156.706 83.37C157.197 82.8789 157.502 82.3844 157.726 81.8034C157.944 81.2397 158.097 80.5965 158.138 79.6559C158.18 78.7118 158.19 78.411 158.19 76.0076C158.19 73.6041 158.18 73.3033 158.138 72.3592C158.097 71.4186 157.944 70.7719 157.726 70.2117C157.509 69.6238 157.208 69.1293 156.713 68.6382C156.222 68.1472 155.728 67.8429 155.147 67.6181C154.583 67.4002 153.94 67.2481 152.999 67.2066C152.052 67.1616 151.751 67.1512 149.347 67.1512Z" fill="#2B0482"></path><path d="M149.347 71.4567C146.837 71.4567 144.8 73.4935 144.8 76.0041C144.8 78.5147 146.837 80.5516 149.347 80.5516C151.858 80.5516 153.895 78.5147 153.895 76.0041C153.895 73.4935 151.858 71.4567 149.347 71.4567ZM149.347 78.9539C147.719 78.9539 146.398 77.6329 146.398 76.0041C146.398 74.3753 147.719 73.0543 149.347 73.0543C150.976 73.0543 152.297 74.3753 152.297 76.0041C152.297 77.6329 150.976 78.9539 149.347 78.9539Z" fill="#2B0482"></path><path d="M155.136 71.2767C155.136 71.8646 154.659 72.3384 154.075 72.3384C153.487 72.3384 153.013 71.8612 153.013 71.2767C153.013 70.6889 153.49 70.2151 154.075 70.2151C154.659 70.2151 155.136 70.6923 155.136 71.2767Z" fill="#2B0482"></path></g><g clip-path="url(#clip3_120_946)"><rect width="17.7057" height="17.7057" transform="translate(110.247 67.1512)" fill="#FBF9FF"></rect><path d="M115.817 83.1971C122.497 83.1971 126.152 77.6616 126.152 72.8628C126.152 72.7071 126.148 72.5481 126.141 72.3925C126.852 71.8783 127.466 71.2415 127.953 70.5119C127.291 70.8065 126.588 70.9989 125.868 71.0825C126.626 70.6282 127.193 69.9145 127.465 69.0737C126.752 69.4962 125.973 69.7943 125.159 69.9552C124.612 69.373 123.887 68.9876 123.098 68.8585C122.31 68.7293 121.5 68.8636 120.795 69.2406C120.09 69.6177 119.529 70.2164 119.199 70.9442C118.868 71.6721 118.787 72.4885 118.967 73.2674C117.523 73.1949 116.111 72.8199 114.821 72.1665C113.532 71.5132 112.394 70.5961 111.481 69.4748C111.018 70.2743 110.876 71.2204 111.085 72.1208C111.293 73.0211 111.837 73.8082 112.605 74.3221C112.029 74.3038 111.465 74.1485 110.96 73.8691V73.914C110.959 74.7531 111.249 75.5664 111.781 76.2157C112.312 76.8651 113.052 77.3104 113.874 77.4759C113.34 77.6221 112.779 77.6434 112.235 77.5382C112.467 78.2597 112.919 78.8908 113.527 79.3434C114.135 79.796 114.869 80.0474 115.627 80.0626C114.341 81.0732 112.751 81.6214 111.115 81.6188C110.825 81.6184 110.535 81.6006 110.247 81.5655C111.909 82.6318 113.843 83.1981 115.817 83.1971Z" fill="#2B0482"></path></g><g clip-path="url(#clip4_120_946)"><rect width="17.7057" height="17.7057" transform="translate(80 67.1512)" fill="white"></rect><path d="M97.7057 76.0041C97.7057 71.1148 93.7422 67.1512 88.8529 67.1512C83.9636 67.1512 80 71.1148 80 76.0041C80 80.4228 83.2373 84.0853 87.4696 84.7494V78.5631H85.2218V76.0041H87.4696V74.0537C87.4696 71.835 88.7913 70.6094 90.8135 70.6094C91.7817 70.6094 92.7951 70.7823 92.7951 70.7823V72.9609H91.6789C90.5792 72.9609 90.2361 73.6434 90.2361 74.3442V76.0041H92.6914L92.2989 78.5631H90.2361V84.7494C94.4684 84.0853 97.7057 80.4228 97.7057 76.0041Z" fill="#2B0482"></path></g><path d="M1301.79 53.392V51.3636H1311.35V53.392H1307.79V63H1305.36V53.392H1301.79ZM1315.59 63.1705C1314.69 63.1705 1313.92 62.9886 1313.27 62.625C1312.63 62.2576 1312.13 61.7386 1311.78 61.0682C1311.44 60.3939 1311.26 59.5966 1311.26 58.6761C1311.26 57.7784 1311.44 56.9905 1311.78 56.3125C1312.13 55.6345 1312.62 55.1061 1313.26 54.7273C1313.89 54.3485 1314.64 54.1591 1315.5 54.1591C1316.07 54.1591 1316.61 54.2519 1317.1 54.4375C1317.6 54.6193 1318.04 54.8939 1318.41 55.2614C1318.78 55.6288 1319.08 56.0909 1319.28 56.6477C1319.49 57.2008 1319.6 57.8485 1319.6 58.5909V59.2557H1312.23V57.7557H1317.32C1317.32 57.4072 1317.24 57.0985 1317.09 56.8295C1316.94 56.5606 1316.73 56.3504 1316.46 56.1989C1316.2 56.0436 1315.89 55.9659 1315.53 55.9659C1315.17 55.9659 1314.84 56.0511 1314.56 56.2216C1314.28 56.3883 1314.06 56.6136 1313.9 56.8977C1313.74 57.178 1313.66 57.4905 1313.65 57.8352V59.2614C1313.65 59.6932 1313.73 60.0663 1313.89 60.3807C1314.06 60.6951 1314.28 60.9375 1314.58 61.108C1314.88 61.2784 1315.23 61.3636 1315.63 61.3636C1315.9 61.3636 1316.15 61.3258 1316.37 61.25C1316.59 61.1742 1316.78 61.0606 1316.94 60.9091C1317.1 60.7576 1317.22 60.572 1317.31 60.3523L1319.55 60.5C1319.43 61.0379 1319.2 61.5076 1318.85 61.9091C1318.5 62.3068 1318.05 62.6174 1317.5 62.8409C1316.95 63.0606 1316.31 63.1705 1315.59 63.1705ZM1321.18 63V54.2727H1323.52V55.7955H1323.61C1323.77 55.2538 1324.04 54.8447 1324.42 54.5682C1324.79 54.2879 1325.22 54.1477 1325.71 54.1477C1325.83 54.1477 1325.96 54.1553 1326.1 54.1705C1326.24 54.1856 1326.37 54.2064 1326.47 54.233V56.3807C1326.36 56.3466 1326.2 56.3163 1326 56.2898C1325.8 56.2633 1325.62 56.25 1325.45 56.25C1325.09 56.25 1324.78 56.3277 1324.5 56.483C1324.22 56.6345 1324 56.8466 1323.84 57.1193C1323.68 57.392 1323.6 57.7064 1323.6 58.0625V63H1321.18ZM1327.72 63V54.2727H1330.03V55.8125H1330.13C1330.31 55.3011 1330.62 54.8977 1331.04 54.6023C1331.47 54.3068 1331.97 54.1591 1332.56 54.1591C1333.16 54.1591 1333.67 54.3087 1334.09 54.608C1334.51 54.9034 1334.79 55.3049 1334.93 55.8125H1335.02C1335.2 55.3125 1335.52 54.9129 1335.99 54.6136C1336.46 54.3106 1337.02 54.1591 1337.66 54.1591C1338.47 54.1591 1339.13 54.4186 1339.64 54.9375C1340.15 55.4527 1340.41 56.1837 1340.41 57.1307V63H1337.99V57.608C1337.99 57.1231 1337.86 56.7595 1337.6 56.517C1337.35 56.2746 1337.02 56.1534 1336.64 56.1534C1336.2 56.1534 1335.86 56.2936 1335.61 56.5739C1335.36 56.8504 1335.24 57.2159 1335.24 57.6705V63H1332.89V57.5568C1332.89 57.1288 1332.77 56.7879 1332.52 56.5341C1332.28 56.2803 1331.96 56.1534 1331.56 56.1534C1331.3 56.1534 1331.05 56.2216 1330.84 56.358C1330.63 56.4905 1330.46 56.678 1330.33 56.9205C1330.21 57.1591 1330.14 57.4394 1330.14 57.7614V63H1327.72ZM1349.58 56.7614L1347.36 56.8977C1347.33 56.7083 1347.24 56.5379 1347.12 56.3864C1346.99 56.2311 1346.83 56.108 1346.62 56.017C1346.42 55.9223 1346.18 55.875 1345.9 55.875C1345.53 55.875 1345.21 55.9545 1344.95 56.1136C1344.7 56.2689 1344.57 56.4773 1344.57 56.7386C1344.57 56.947 1344.65 57.1231 1344.82 57.267C1344.98 57.411 1345.27 57.5265 1345.68 57.6136L1347.25 57.9318C1348.1 58.1061 1348.74 58.3864 1349.15 58.7727C1349.57 59.1591 1349.78 59.6667 1349.78 60.2955C1349.78 60.8674 1349.61 61.3693 1349.27 61.8011C1348.94 62.233 1348.48 62.5701 1347.9 62.8125C1347.32 63.0511 1346.65 63.1705 1345.89 63.1705C1344.74 63.1705 1343.82 62.9299 1343.13 62.4489C1342.45 61.964 1342.05 61.3049 1341.93 60.4716L1344.31 60.3466C1344.38 60.6989 1344.56 60.9678 1344.83 61.1534C1345.11 61.3352 1345.47 61.4261 1345.9 61.4261C1346.32 61.4261 1346.66 61.3447 1346.92 61.1818C1347.18 61.0152 1347.31 60.8011 1347.32 60.5398C1347.31 60.3201 1347.22 60.1402 1347.04 60C1346.86 59.8561 1346.58 59.7462 1346.2 59.6705L1344.69 59.3693C1343.83 59.1989 1343.2 58.9034 1342.78 58.483C1342.37 58.0625 1342.16 57.5265 1342.16 56.875C1342.16 56.3144 1342.32 55.8314 1342.62 55.4261C1342.93 55.0208 1343.36 54.7083 1343.91 54.4886C1344.47 54.2689 1345.12 54.1591 1345.86 54.1591C1346.97 54.1591 1347.83 54.392 1348.47 54.858C1349.1 55.3239 1349.47 55.9583 1349.58 56.7614ZM1358.95 63.1705C1358.07 63.1705 1357.3 62.983 1356.66 62.608C1356.02 62.2292 1355.52 61.7027 1355.18 61.0284C1354.83 60.3504 1354.65 59.5644 1354.65 58.6705C1354.65 57.7689 1354.83 56.9811 1355.18 56.3068C1355.52 55.6288 1356.02 55.1023 1356.66 54.7273C1357.3 54.3485 1358.07 54.1591 1358.95 54.1591C1359.83 54.1591 1360.59 54.3485 1361.23 54.7273C1361.88 55.1023 1362.37 55.6288 1362.72 56.3068C1363.07 56.9811 1363.24 57.7689 1363.24 58.6705C1363.24 59.5644 1363.07 60.3504 1362.72 61.0284C1362.37 61.7027 1361.88 62.2292 1361.23 62.608C1360.59 62.983 1359.83 63.1705 1358.95 63.1705ZM1358.96 61.2955C1359.36 61.2955 1359.7 61.1818 1359.97 60.9545C1360.23 60.7235 1360.44 60.4091 1360.57 60.0114C1360.71 59.6136 1360.78 59.161 1360.78 58.6534C1360.78 58.1458 1360.71 57.6932 1360.57 57.2955C1360.44 56.8977 1360.23 56.5833 1359.97 56.3523C1359.7 56.1212 1359.36 56.0057 1358.96 56.0057C1358.55 56.0057 1358.21 56.1212 1357.94 56.3523C1357.66 56.5833 1357.46 56.8977 1357.32 57.2955C1357.18 57.6932 1357.11 58.1458 1357.11 58.6534C1357.11 59.161 1357.18 59.6136 1357.32 60.0114C1357.46 60.4091 1357.66 60.7235 1357.94 60.9545C1358.21 61.1818 1358.55 61.2955 1358.96 61.2955ZM1369.51 54.2727V56.0909H1364.12V54.2727H1369.51ZM1365.36 63V53.642C1365.36 53.0095 1365.48 52.4848 1365.73 52.0682C1365.98 51.6515 1366.32 51.339 1366.75 51.1307C1367.18 50.9223 1367.67 50.8182 1368.22 50.8182C1368.59 50.8182 1368.93 50.8466 1369.24 50.9034C1369.55 50.9602 1369.78 51.0114 1369.93 51.0568L1369.5 52.875C1369.4 52.8447 1369.29 52.8163 1369.15 52.7898C1369.01 52.7633 1368.87 52.75 1368.73 52.75C1368.37 52.75 1368.12 52.8333 1367.98 53C1367.84 53.1629 1367.77 53.392 1367.77 53.6875V63H1365.36ZM1381.95 56.7614L1379.74 56.8977C1379.7 56.7083 1379.62 56.5379 1379.49 56.3864C1379.37 56.2311 1379.2 56.108 1379 56.017C1378.8 55.9223 1378.56 55.875 1378.28 55.875C1377.9 55.875 1377.59 55.9545 1377.33 56.1136C1377.07 56.2689 1376.94 56.4773 1376.94 56.7386C1376.94 56.947 1377.03 57.1231 1377.19 57.267C1377.36 57.411 1377.65 57.5265 1378.05 57.6136L1379.63 57.9318C1380.48 58.1061 1381.11 58.3864 1381.53 58.7727C1381.94 59.1591 1382.15 59.6667 1382.15 60.2955C1382.15 60.8674 1381.98 61.3693 1381.65 61.8011C1381.31 62.233 1380.86 62.5701 1380.27 62.8125C1379.69 63.0511 1379.02 63.1705 1378.27 63.1705C1377.11 63.1705 1376.19 62.9299 1375.5 62.4489C1374.82 61.964 1374.42 61.3049 1374.31 60.4716L1376.69 60.3466C1376.76 60.6989 1376.93 60.9678 1377.21 61.1534C1377.49 61.3352 1377.84 61.4261 1378.27 61.4261C1378.7 61.4261 1379.04 61.3447 1379.29 61.1818C1379.56 61.0152 1379.69 60.8011 1379.69 60.5398C1379.69 60.3201 1379.6 60.1402 1379.41 60C1379.23 59.8561 1378.95 59.7462 1378.57 59.6705L1377.06 59.3693C1376.21 59.1989 1375.58 58.9034 1375.16 58.483C1374.75 58.0625 1374.54 57.5265 1374.54 56.875C1374.54 56.3144 1374.69 55.8314 1374.99 55.4261C1375.3 55.0208 1375.73 54.7083 1376.28 54.4886C1376.84 54.2689 1377.49 54.1591 1378.24 54.1591C1379.34 54.1591 1380.21 54.392 1380.84 54.858C1381.48 55.3239 1381.85 55.9583 1381.95 56.7614ZM1387.65 63.1705C1386.76 63.1705 1385.98 62.9886 1385.34 62.625C1384.69 62.2576 1384.2 61.7386 1383.85 61.0682C1383.5 60.3939 1383.32 59.5966 1383.32 58.6761C1383.32 57.7784 1383.5 56.9905 1383.85 56.3125C1384.2 55.6345 1384.69 55.1061 1385.32 54.7273C1385.96 54.3485 1386.7 54.1591 1387.56 54.1591C1388.13 54.1591 1388.67 54.2519 1389.17 54.4375C1389.67 54.6193 1390.1 54.8939 1390.47 55.2614C1390.85 55.6288 1391.14 56.0909 1391.35 56.6477C1391.56 57.2008 1391.66 57.8485 1391.66 58.5909V59.2557H1384.29V57.7557H1389.38C1389.38 57.4072 1389.31 57.0985 1389.15 56.8295C1389 56.5606 1388.79 56.3504 1388.52 56.1989C1388.26 56.0436 1387.95 55.9659 1387.6 55.9659C1387.23 55.9659 1386.9 56.0511 1386.62 56.2216C1386.34 56.3883 1386.12 56.6136 1385.96 56.8977C1385.8 57.178 1385.72 57.4905 1385.72 57.8352V59.2614C1385.72 59.6932 1385.8 60.0663 1385.96 60.3807C1386.12 60.6951 1386.35 60.9375 1386.64 61.108C1386.94 61.2784 1387.29 61.3636 1387.69 61.3636C1387.96 61.3636 1388.21 61.3258 1388.43 61.25C1388.66 61.1742 1388.85 61.0606 1389.01 60.9091C1389.17 60.7576 1389.29 60.572 1389.37 60.3523L1391.61 60.5C1391.5 61.0379 1391.26 61.5076 1390.91 61.9091C1390.56 62.3068 1390.11 62.6174 1389.56 62.8409C1389.01 63.0606 1388.37 63.1705 1387.65 63.1705ZM1393.24 63V54.2727H1395.59V55.7955H1395.68C1395.84 55.2538 1396.1 54.8447 1396.48 54.5682C1396.85 54.2879 1397.28 54.1477 1397.77 54.1477C1397.89 54.1477 1398.03 54.1553 1398.17 54.1705C1398.31 54.1856 1398.43 54.2064 1398.53 54.233V56.3807C1398.42 56.3466 1398.26 56.3163 1398.06 56.2898C1397.86 56.2633 1397.68 56.25 1397.51 56.25C1397.16 56.25 1396.84 56.3277 1396.56 56.483C1396.28 56.6345 1396.06 56.8466 1395.9 57.1193C1395.74 57.392 1395.66 57.7064 1395.66 58.0625V63H1393.24ZM1408.19 54.2727L1405.14 63H1402.41L1399.36 54.2727H1401.92L1403.73 60.517H1403.82L1405.63 54.2727H1408.19ZM1409.43 63V54.2727H1411.85V63H1409.43ZM1410.64 53.1477C1410.28 53.1477 1409.97 53.0284 1409.72 52.7898C1409.46 52.5473 1409.34 52.2576 1409.34 51.9205C1409.34 51.5871 1409.46 51.3011 1409.72 51.0625C1409.97 50.8201 1410.28 50.6989 1410.64 50.6989C1411 50.6989 1411.31 50.8201 1411.56 51.0625C1411.82 51.3011 1411.95 51.5871 1411.95 51.9205C1411.95 52.2576 1411.82 52.5473 1411.56 52.7898C1411.31 53.0284 1411 53.1477 1410.64 53.1477ZM1417.73 63.1705C1416.84 63.1705 1416.07 62.9811 1415.42 62.6023C1414.78 62.2197 1414.29 61.6894 1413.95 61.0114C1413.6 60.3333 1413.43 59.553 1413.43 58.6705C1413.43 57.7765 1413.61 56.9924 1413.95 56.3182C1414.3 55.6402 1414.79 55.1117 1415.43 54.733C1416.07 54.3504 1416.84 54.1591 1417.72 54.1591C1418.48 54.1591 1419.15 54.2973 1419.72 54.5739C1420.29 54.8504 1420.74 55.2386 1421.08 55.7386C1421.41 56.2386 1421.59 56.8258 1421.63 57.5H1419.34C1419.28 57.0644 1419.11 56.714 1418.83 56.4489C1418.56 56.1799 1418.2 56.0455 1417.76 56.0455C1417.38 56.0455 1417.06 56.1477 1416.77 56.3523C1416.5 56.553 1416.28 56.8466 1416.13 57.233C1415.97 57.6193 1415.89 58.0871 1415.89 58.6364C1415.89 59.1932 1415.97 59.6667 1416.12 60.0568C1416.28 60.447 1416.49 60.7443 1416.77 60.9489C1417.06 61.1534 1417.38 61.2557 1417.76 61.2557C1418.03 61.2557 1418.28 61.1989 1418.5 61.0852C1418.73 60.9716 1418.91 60.8068 1419.05 60.5909C1419.2 60.3712 1419.3 60.108 1419.34 59.8011H1421.63C1421.59 60.4678 1421.41 61.0549 1421.08 61.5625C1420.76 62.0663 1420.31 62.4602 1419.75 62.7443C1419.18 63.0284 1418.51 63.1705 1417.73 63.1705ZM1427.15 63.1705C1426.26 63.1705 1425.48 62.9886 1424.84 62.625C1424.19 62.2576 1423.7 61.7386 1423.35 61.0682C1423 60.3939 1422.82 59.5966 1422.82 58.6761C1422.82 57.7784 1423 56.9905 1423.35 56.3125C1423.7 55.6345 1424.19 55.1061 1424.82 54.7273C1425.46 54.3485 1426.2 54.1591 1427.06 54.1591C1427.63 54.1591 1428.17 54.2519 1428.67 54.4375C1429.17 54.6193 1429.6 54.8939 1429.97 55.2614C1430.35 55.6288 1430.64 56.0909 1430.85 56.6477C1431.06 57.2008 1431.16 57.8485 1431.16 58.5909V59.2557H1423.79V57.7557H1428.88C1428.88 57.4072 1428.81 57.0985 1428.65 56.8295C1428.5 56.5606 1428.29 56.3504 1428.02 56.1989C1427.76 56.0436 1427.45 55.9659 1427.1 55.9659C1426.73 55.9659 1426.4 56.0511 1426.12 56.2216C1425.84 56.3883 1425.62 56.6136 1425.46 56.8977C1425.3 57.178 1425.22 57.4905 1425.22 57.8352V59.2614C1425.22 59.6932 1425.3 60.0663 1425.46 60.3807C1425.62 60.6951 1425.85 60.9375 1426.14 61.108C1426.44 61.2784 1426.79 61.3636 1427.19 61.3636C1427.46 61.3636 1427.71 61.3258 1427.93 61.25C1428.16 61.1742 1428.35 61.0606 1428.51 60.9091C1428.67 60.7576 1428.79 60.572 1428.87 60.3523L1431.11 60.5C1431 61.0379 1430.76 61.5076 1430.41 61.9091C1430.06 62.3068 1429.61 62.6174 1429.06 62.8409C1428.51 63.0606 1427.87 63.1705 1427.15 63.1705Z" fill="#2B0482"></path><path d="M1301.23 66.1818H1431.77V67.2727H1301.23V66.1818Z" fill="#2B0482"></path><path d="M1470.32 63V51.3636H1474.91C1475.8 51.3636 1476.55 51.5322 1477.17 51.8693C1477.79 52.2027 1478.27 52.6667 1478.59 53.2614C1478.92 53.8523 1479.09 54.5341 1479.09 55.3068C1479.09 56.0795 1478.92 56.7614 1478.59 57.3523C1478.25 57.9432 1477.77 58.4034 1477.14 58.733C1476.51 59.0625 1475.75 59.2273 1474.85 59.2273H1471.93V57.2557H1474.45C1474.93 57.2557 1475.32 57.1742 1475.62 57.0114C1475.94 56.8447 1476.17 56.6155 1476.32 56.3239C1476.47 56.0284 1476.55 55.6894 1476.55 55.3068C1476.55 54.9205 1476.47 54.5833 1476.32 54.2955C1476.17 54.0038 1475.94 53.7784 1475.62 53.6193C1475.31 53.4564 1474.92 53.375 1474.44 53.375H1472.78V63H1470.32ZM1480.64 63V54.2727H1482.98V55.7955H1483.08C1483.23 55.2538 1483.5 54.8447 1483.88 54.5682C1484.25 54.2879 1484.68 54.1477 1485.17 54.1477C1485.29 54.1477 1485.42 54.1553 1485.56 54.1705C1485.7 54.1856 1485.83 54.2064 1485.93 54.233V56.3807C1485.82 56.3466 1485.66 56.3163 1485.46 56.2898C1485.26 56.2633 1485.08 56.25 1484.91 56.25C1484.55 56.25 1484.24 56.3277 1483.96 56.483C1483.68 56.6345 1483.46 56.8466 1483.3 57.1193C1483.14 57.392 1483.06 57.7064 1483.06 58.0625V63H1480.64ZM1487.18 63V54.2727H1489.61V63H1487.18ZM1488.4 53.1477C1488.04 53.1477 1487.73 53.0284 1487.47 52.7898C1487.22 52.5473 1487.09 52.2576 1487.09 51.9205C1487.09 51.5871 1487.22 51.3011 1487.47 51.0625C1487.73 50.8201 1488.04 50.6989 1488.4 50.6989C1488.76 50.6989 1489.07 50.8201 1489.32 51.0625C1489.58 51.3011 1489.71 51.5871 1489.71 51.9205C1489.71 52.2576 1489.58 52.5473 1489.32 52.7898C1489.07 53.0284 1488.76 53.1477 1488.4 53.1477ZM1499.68 54.2727L1496.63 63H1493.9L1490.85 54.2727H1493.41L1495.22 60.517H1495.31L1497.12 54.2727H1499.68ZM1503.17 63.1648C1502.62 63.1648 1502.12 63.0682 1501.68 62.875C1501.25 62.678 1500.9 62.3883 1500.65 62.0057C1500.4 61.6193 1500.28 61.1383 1500.28 60.5625C1500.28 60.0777 1500.36 59.6705 1500.54 59.3409C1500.72 59.0114 1500.96 58.7462 1501.27 58.5455C1501.58 58.3447 1501.93 58.1932 1502.32 58.0909C1502.71 57.9886 1503.12 57.9167 1503.55 57.875C1504.06 57.822 1504.47 57.7727 1504.78 57.7273C1505.09 57.678 1505.32 57.6061 1505.46 57.5114C1505.6 57.4167 1505.67 57.2765 1505.67 57.0909V57.0568C1505.67 56.697 1505.55 56.4186 1505.33 56.2216C1505.1 56.0246 1504.79 55.9261 1504.37 55.9261C1503.94 55.9261 1503.59 56.0227 1503.33 56.2159C1503.07 56.4053 1502.9 56.6439 1502.82 56.9318L1500.58 56.75C1500.7 56.2197 1500.92 55.7614 1501.25 55.375C1501.59 54.9848 1502.02 54.6856 1502.54 54.4773C1503.07 54.2652 1503.69 54.1591 1504.38 54.1591C1504.87 54.1591 1505.33 54.2159 1505.78 54.3295C1506.22 54.4432 1506.62 54.6193 1506.96 54.858C1507.31 55.0966 1507.59 55.4034 1507.79 55.7784C1507.99 56.1496 1508.09 56.5947 1508.09 57.1136V63H1505.79V61.7898H1505.72C1505.58 62.0625 1505.4 62.303 1505.16 62.5114C1504.93 62.7159 1504.64 62.8769 1504.32 62.9943C1503.99 63.108 1503.61 63.1648 1503.17 63.1648ZM1503.87 61.4943C1504.22 61.4943 1504.54 61.4242 1504.81 61.2841C1505.08 61.1402 1505.3 60.947 1505.45 60.7045C1505.61 60.4621 1505.68 60.1875 1505.68 59.8807V58.9545C1505.61 59.0038 1505.5 59.0492 1505.37 59.0909C1505.24 59.1288 1505.1 59.1648 1504.93 59.1989C1504.77 59.2292 1504.61 59.2576 1504.45 59.2841C1504.28 59.3068 1504.14 59.3277 1504 59.3466C1503.72 59.3883 1503.47 59.4545 1503.26 59.5455C1503.05 59.6364 1502.88 59.7595 1502.76 59.9148C1502.65 60.0663 1502.59 60.2557 1502.59 60.483C1502.59 60.8125 1502.71 61.0644 1502.95 61.2386C1503.19 61.4091 1503.5 61.4943 1503.87 61.4943ZM1513.91 63.1705C1513.02 63.1705 1512.25 62.9811 1511.6 62.6023C1510.96 62.2197 1510.47 61.6894 1510.12 61.0114C1509.78 60.3333 1509.61 59.553 1509.61 58.6705C1509.61 57.7765 1509.79 56.9924 1510.13 56.3182C1510.48 55.6402 1510.97 55.1117 1511.61 54.733C1512.25 54.3504 1513.02 54.1591 1513.9 54.1591C1514.66 54.1591 1515.33 54.2973 1515.9 54.5739C1516.47 54.8504 1516.92 55.2386 1517.26 55.7386C1517.59 56.2386 1517.77 56.8258 1517.81 57.5H1515.52C1515.46 57.0644 1515.29 56.714 1515.01 56.4489C1514.74 56.1799 1514.38 56.0455 1513.94 56.0455C1513.56 56.0455 1513.23 56.1477 1512.95 56.3523C1512.68 56.553 1512.46 56.8466 1512.31 57.233C1512.15 57.6193 1512.07 58.0871 1512.07 58.6364C1512.07 59.1932 1512.15 59.6667 1512.3 60.0568C1512.46 60.447 1512.67 60.7443 1512.95 60.9489C1513.23 61.1534 1513.56 61.2557 1513.94 61.2557C1514.21 61.2557 1514.46 61.1989 1514.68 61.0852C1514.91 60.9716 1515.09 60.8068 1515.23 60.5909C1515.38 60.3712 1515.48 60.108 1515.52 59.8011H1517.81C1517.77 60.4678 1517.59 61.0549 1517.26 61.5625C1516.94 62.0663 1516.49 62.4602 1515.93 62.7443C1515.36 63.0284 1514.69 63.1705 1513.91 63.1705ZM1520.85 66.2727C1520.54 66.2727 1520.26 66.2481 1519.99 66.1989C1519.72 66.1534 1519.5 66.0947 1519.33 66.0227L1519.87 64.2159C1520.16 64.303 1520.41 64.3504 1520.64 64.358C1520.87 64.3655 1521.07 64.3125 1521.24 64.1989C1521.41 64.0852 1521.55 63.892 1521.65 63.6193L1521.79 63.25L1518.66 54.2727H1521.21L1523.02 60.6818H1523.11L1524.93 54.2727H1527.49L1524.1 63.9432C1523.94 64.4129 1523.72 64.822 1523.44 65.1705C1523.16 65.5227 1522.81 65.7936 1522.38 65.983C1521.96 66.1761 1521.45 66.2727 1520.85 66.2727ZM1536.18 63V51.3636H1540.77C1541.66 51.3636 1542.41 51.5322 1543.03 51.8693C1543.65 52.2027 1544.12 52.6667 1544.45 53.2614C1544.78 53.8523 1544.94 54.5341 1544.94 55.3068C1544.94 56.0795 1544.78 56.7614 1544.44 57.3523C1544.11 57.9432 1543.63 58.4034 1543 58.733C1542.37 59.0625 1541.61 59.2273 1540.71 59.2273H1537.79V57.2557H1540.31C1540.79 57.2557 1541.18 57.1742 1541.48 57.0114C1541.79 56.8447 1542.03 56.6155 1542.18 56.3239C1542.33 56.0284 1542.41 55.6894 1542.41 55.3068C1542.41 54.9205 1542.33 54.5833 1542.18 54.2955C1542.03 54.0038 1541.79 53.7784 1541.48 53.6193C1541.17 53.4564 1540.78 53.375 1540.3 53.375H1538.64V63H1536.18ZM1550.3 63.1705C1549.42 63.1705 1548.65 62.983 1548.01 62.608C1547.37 62.2292 1546.88 61.7027 1546.53 61.0284C1546.18 60.3504 1546 59.5644 1546 58.6705C1546 57.7689 1546.18 56.9811 1546.53 56.3068C1546.88 55.6288 1547.37 55.1023 1548.01 54.7273C1548.65 54.3485 1549.42 54.1591 1550.3 54.1591C1551.18 54.1591 1551.94 54.3485 1552.58 54.7273C1553.23 55.1023 1553.72 55.6288 1554.07 56.3068C1554.42 56.9811 1554.6 57.7689 1554.6 58.6705C1554.6 59.5644 1554.42 60.3504 1554.07 61.0284C1553.72 61.7027 1553.23 62.2292 1552.58 62.608C1551.94 62.983 1551.18 63.1705 1550.3 63.1705ZM1550.31 61.2955C1550.71 61.2955 1551.05 61.1818 1551.32 60.9545C1551.59 60.7235 1551.79 60.4091 1551.92 60.0114C1552.06 59.6136 1552.13 59.161 1552.13 58.6534C1552.13 58.1458 1552.06 57.6932 1551.92 57.2955C1551.79 56.8977 1551.59 56.5833 1551.32 56.3523C1551.05 56.1212 1550.71 56.0057 1550.31 56.0057C1549.91 56.0057 1549.56 56.1212 1549.29 56.3523C1549.02 56.5833 1548.81 56.8977 1548.67 57.2955C1548.53 57.6932 1548.46 58.1458 1548.46 58.6534C1548.46 59.161 1548.53 59.6136 1548.67 60.0114C1548.81 60.4091 1549.02 60.7235 1549.29 60.9545C1549.56 61.1818 1549.91 61.2955 1550.31 61.2955ZM1558.59 51.3636V63H1556.17V51.3636H1558.59ZM1560.53 63V54.2727H1562.95V63H1560.53ZM1561.74 53.1477C1561.38 53.1477 1561.08 53.0284 1560.82 52.7898C1560.56 52.5473 1560.44 52.2576 1560.44 51.9205C1560.44 51.5871 1560.56 51.3011 1560.82 51.0625C1561.08 50.8201 1561.38 50.6989 1561.74 50.6989C1562.1 50.6989 1562.41 50.8201 1562.66 51.0625C1562.92 51.3011 1563.05 51.5871 1563.05 51.9205C1563.05 52.2576 1562.92 52.5473 1562.66 52.7898C1562.41 53.0284 1562.1 53.1477 1561.74 53.1477ZM1568.83 63.1705C1567.94 63.1705 1567.17 62.9811 1566.52 62.6023C1565.88 62.2197 1565.39 61.6894 1565.05 61.0114C1564.71 60.3333 1564.54 59.553 1564.54 58.6705C1564.54 57.7765 1564.71 56.9924 1565.05 56.3182C1565.4 55.6402 1565.9 55.1117 1566.54 54.733C1567.18 54.3504 1567.94 54.1591 1568.82 54.1591C1569.58 54.1591 1570.25 54.2973 1570.82 54.5739C1571.39 54.8504 1571.84 55.2386 1572.18 55.7386C1572.51 56.2386 1572.69 56.8258 1572.73 57.5H1570.44C1570.38 57.0644 1570.21 56.714 1569.93 56.4489C1569.66 56.1799 1569.3 56.0455 1568.86 56.0455C1568.48 56.0455 1568.16 56.1477 1567.88 56.3523C1567.6 56.553 1567.38 56.8466 1567.23 57.233C1567.07 57.6193 1567 58.0871 1567 58.6364C1567 59.1932 1567.07 59.6667 1567.22 60.0568C1567.38 60.447 1567.6 60.7443 1567.88 60.9489C1568.16 61.1534 1568.48 61.2557 1568.86 61.2557C1569.14 61.2557 1569.38 61.1989 1569.6 61.0852C1569.83 60.9716 1570.01 60.8068 1570.15 60.5909C1570.3 60.3712 1570.4 60.108 1570.44 59.8011H1572.73C1572.69 60.4678 1572.51 61.0549 1572.18 61.5625C1571.86 62.0663 1571.42 62.4602 1570.85 62.7443C1570.28 63.0284 1569.61 63.1705 1568.83 63.1705ZM1575.77 66.2727C1575.47 66.2727 1575.18 66.2481 1574.91 66.1989C1574.64 66.1534 1574.42 66.0947 1574.25 66.0227L1574.8 64.2159C1575.08 64.303 1575.34 64.3504 1575.56 64.358C1575.79 64.3655 1575.99 64.3125 1576.16 64.1989C1576.33 64.0852 1576.47 63.892 1576.57 63.6193L1576.72 63.25L1573.59 54.2727H1576.13L1577.94 60.6818H1578.03L1579.85 54.2727H1582.41L1579.02 63.9432C1578.86 64.4129 1578.64 64.822 1578.36 65.1705C1578.08 65.5227 1577.73 65.7936 1577.31 65.983C1576.88 66.1761 1576.37 66.2727 1575.77 66.2727Z" fill="#2B0482"></path><path d="M1469.31 66.1818H1582.69V67.2727H1469.31V66.1818Z" fill="#2B0482"></path><defs><clipPath id="clip0_120_946"><rect width="151.926" height="40.0081" fill="white" transform="translate(80 26)"></rect></clipPath><clipPath id="clip1_120_946"><rect width="17.7057" height="17.7057" fill="white" transform="translate(170.304 68.2943)"></rect></clipPath><clipPath id="clip2_120_946"><rect width="17.7057" height="17.7057" fill="white" transform="translate(140.495 67.1512)"></rect></clipPath><clipPath id="clip3_120_946"><rect width="17.7057" height="17.7057" fill="white" transform="translate(110.247 67.1512)"></rect></clipPath><clipPath id="clip4_120_946"><rect width="17.7057" height="17.7057" fill="white" transform="translate(80 67.1512)"></rect></clipPath></defs></svg>