<svg xmlns="http://www.w3.org/2000/svg" width="474" height="363" viewBox="0 0 474 363" fill="none"><g clip-path="url(#clip0_23_68)"><path d="M473.174 0.825684C460.339 22.3398 422 28.89 424.374 90.9005C424.6 105.784 427.015 120.472 431.047 134.827C435.58 150.971 443.349 166.559 445.849 183.174C448.384 200.026 448.122 217.707 447.728 234.678C447.222 256.558 441.16 275.718 428.227 294.029C416.334 310.867 397.699 322.668 379.872 332.995C360.554 344.186 340.417 355.521 317.843 359.152C293.583 363.056 269.722 360.868 245.663 357.168C217.08 352.771 188.876 352.793 160.044 351.576C135.655 350.546 111.454 346.655 87.2061 344.134C71.1264 342.463 53.1483 339.508 37.0183 342.736C26.2765 344.886 18.8262 348.7 8.67074 352.61M8.67074 352.61C-28.5837 533.273 -2.06445 360.042 8.67074 352.61Z" stroke="#F3BF99" stroke-width="1.65157" stroke-linecap="round" stroke-linejoin="round" stroke-dasharray="3.3 6.61 3.3 6.61"></path></g><defs><clipPath id="clip0_23_68"><rect width="474" height="362.519" fill="white"></rect></clipPath></defs></svg>