<svg xmlns="http://www.w3.org/2000/svg" width="999" height="1039" viewBox="0 0 999 1039" fill="none"><path fill-rule="evenodd" clip-rule="evenodd" d="M991.879 373.458C993.07 382.688 995.452 393.108 990.986 402.04C993.963 402.04 991.581 402.933 989.795 403.231C989.2 404.124 988.009 404.124 986.818 404.124C980.863 405.315 975.206 405.91 969.55 406.506C897.5 412.46 825.152 410.972 753.102 408.292C751.018 408.292 749.231 406.506 749.231 404.124C746.301 370.464 745.009 336.682 745.361 302.897C746.552 290.988 737.322 295.751 742.384 279.972C746.098 263.507 751.692 247.523 759.056 232.335C764.118 222.212 768.881 211.494 776.622 203.456C779.004 203.158 781.088 200.478 783.172 199.287C784.959 198.99 786.745 197.203 788.829 196.608C792.699 195.715 801.631 193.631 805.204 196.012H805.502C806.097 196.608 806.99 196.012 807.586 195.417C809.372 194.226 816.518 193.928 817.709 192.142C821.877 187.974 823.068 179.637 823.068 174.576C824.854 172.79 824.854 173.087 827.236 172.194C829.371 169.371 831.992 166.952 834.977 165.049C851.649 154.331 875.765 165.644 879.636 184.699C885.536 189.881 892.284 194.011 899.584 196.906C903.454 195.119 907.622 194.524 911.493 194.524C914.47 194.524 918.34 192.737 920.425 195.715C951.984 206.135 971.038 236.503 985.031 265.085C986.818 269.253 989.2 273.422 988.604 278.185C988.307 283.842 982.054 287.117 983.245 293.072L988.604 341.601L991.879 373.458Z" fill="white"></path><path fill-rule="evenodd" clip-rule="evenodd" d="M759.056 295.754C761.14 296.647 764.118 297.242 765.606 299.029L766.202 294.265H753.102L759.056 295.754ZM768.584 394.301L773.049 394.599C793.292 395.371 813.538 396.066 833.786 396.683L903.156 398.47L922.211 399.363C925.486 399.363 928.761 399.363 932.334 399.958L940.372 401.149L940.075 390.431L939.479 380.308C928.761 380.904 917.745 380.904 906.729 381.201L872.788 381.499L804.609 381.201L785.554 380.904H770.965C769.477 380.904 768.286 380.308 767.095 379.117C766.499 378.522 766.499 377.033 767.095 376.438C767.988 375.842 768.881 374.949 770.37 374.949H783.47L800.738 375.247L834.977 375.842C845.993 375.842 857.306 375.842 868.62 376.438C879.934 376.438 891.545 377.331 902.859 377.629L939.479 379.415L938.586 360.36C889.319 363.407 839.925 363.805 790.615 361.551H779.897L774.538 361.254C773.049 361.254 771.561 361.254 770.37 360.36C767.988 359.169 767.69 355.299 770.37 354.406C772.156 353.81 773.645 354.406 774.24 355.894H778.408L787.34 356.192C804.109 356.7 820.882 357.097 837.656 357.383L904.347 358.574L938.586 359.467L937.693 338.924V336.542L932.632 337.435C929.654 337.435 926.677 338.031 923.997 338.329L907.622 339.519C874.214 341.43 840.747 342.125 807.288 341.604L770.965 341.306H768.584L766.797 373.46L765.309 395.195C766.499 394.599 767.393 394.301 768.584 394.301ZM977.886 285.333C979.97 284.142 982.352 283.249 983.841 281.76C986.222 280.272 986.818 278.485 985.925 275.806V275.21L940.67 274.317C884.002 272.93 827.303 273.426 770.668 275.806V290.99H787.936C802.227 290.692 816.518 290.99 830.511 291.288L915.959 293.372L939.181 293.967L940.075 290.097C940.67 288.31 941.266 286.226 942.754 284.738C943.647 286.524 943.35 288.31 943.35 290.097L943.052 294.265C947.816 294.265 952.579 294.86 957.343 295.456L961.511 293.372C966.87 290.394 972.229 288.013 977.886 285.333ZM803.12 335.054H836.763C859.093 335.054 881.422 334.458 903.454 333.863C912.782 333.727 922.112 333.727 931.441 333.863H937.395V314.808C915.959 317.785 894.522 318.679 873.086 319.572C842.33 320.48 811.559 320.778 780.79 320.465H775.729C774.24 320.465 773.05 319.869 771.859 318.679C771.674 318.54 771.524 318.36 771.42 318.153C771.317 317.947 771.263 317.719 771.263 317.488C771.263 317.257 771.317 317.029 771.42 316.822C771.524 316.615 771.674 316.435 771.859 316.297C773.943 314.213 776.622 314.808 779.302 314.808C798.157 315.09 817.015 315.09 835.87 314.808C857.902 314.808 879.636 314.213 901.37 313.617L937.097 313.915C937.296 308.84 937.693 303.775 938.288 298.731L920.425 298.433C892.236 298.142 864.051 297.646 835.87 296.944C821.579 296.647 807.586 296.647 793.593 295.754L770.668 294.563V296.647C770.543 309.258 770.146 321.864 769.477 334.458L803.12 335.054ZM980.863 260.622L976.397 250.797C970.145 252.583 963.297 253.774 956.747 254.369C949.718 255.025 942.667 255.422 935.609 255.56C921.616 255.56 907.622 254.965 893.927 254.369C851.177 252.615 808.385 252.119 765.606 252.881H762.629L759.652 251.988C758.461 251.392 757.568 249.308 759.056 248.713C760.843 247.819 762.034 247.522 763.82 247.522C769.377 247.397 774.935 247.298 780.493 247.224C801.83 246.925 823.171 247.024 844.504 247.522C873.086 248.117 901.072 250.201 929.654 251.094H953.472C960.916 251.094 968.359 250.201 976.1 249.903L967.168 233.826C947.912 234.491 928.635 234.192 909.409 232.933H899.286L894.522 232.635C892.736 232.635 890.95 232.635 889.461 232.04L888.568 231.742C873.966 238.523 857.885 241.494 841.825 240.376C832.893 239.483 824.259 237.399 816.815 233.231C799.249 234.719 781.684 233.826 764.415 233.826C762.629 233.826 762.034 232.338 762.331 230.849C757.013 243.072 752.731 255.72 749.529 268.66L743.574 292.479H743.872C743.872 291.585 743.872 290.692 745.361 290.692H766.499L767.095 285.631L767.988 278.485L768.286 275.806L751.613 276.401C748.04 276.401 748.04 270.744 751.613 270.744L843.611 268.363C874.277 267.767 904.943 267.469 935.609 268.958C952.282 269.851 968.954 271.042 985.329 274.019L980.863 260.622ZM954.663 218.344C954.068 218.344 954.068 218.94 953.175 218.94L950.197 219.238L944.243 219.535L932.929 220.131C925.188 220.131 917.15 220.726 909.409 220.131C907.622 220.131 906.729 218.642 907.027 217.153C905.571 218.96 903.979 220.652 902.263 222.215C899.286 224.894 896.309 226.978 893.331 229.063H899.286C909.21 229.554 919.135 230.051 929.059 230.551C941.861 231.147 954.068 232.04 966.572 233.231C963.061 227.919 959.074 222.937 954.663 218.344ZM751.315 244.247C756.674 229.658 763.224 214.474 775.729 204.649C781.684 199.588 788.829 196.015 796.868 194.228C796.868 194.228 797.165 194.526 796.868 194.824C783.172 199.29 773.049 211.199 766.202 223.406L762.629 230.253C763.224 229.658 763.522 229.36 764.415 229.36C780.493 229.658 797.165 229.36 813.243 230.849L812.052 230.253C807.502 227.026 803.484 223.109 800.143 218.642C798.356 219.238 796.272 219.535 794.188 219.535L786.15 220.131H777.813C776.027 220.131 772.454 220.726 772.454 217.749C772.454 214.772 776.027 215.367 777.813 215.367H786.15L793.89 215.963C795.379 215.963 796.868 215.963 798.654 216.558C795.301 211.686 792.878 206.235 791.509 200.481C791.509 198.694 792.997 197.503 794.486 197.503C801.334 196.61 808.479 195.717 813.838 191.549C816.22 189.167 818.304 187.083 819.793 184.403C822.174 181.426 822.77 178.449 822.77 174.876C822.77 174.578 823.068 174.578 823.068 174.876C824.259 181.724 822.77 189.763 817.709 194.824C812.69 199.406 806.314 202.228 799.547 202.863C802.227 210.901 806.693 217.749 813.243 223.406C820.388 229.36 829.618 232.635 838.847 234.124C848.97 235.315 859.39 234.719 869.215 232.635C883.763 229.55 896.863 221.69 906.431 210.306C908.813 207.328 910.897 203.756 912.981 200.183C904.943 202.565 895.118 199.588 887.972 195.122C880.853 190.572 875.336 183.909 872.193 176.067C871.868 175.415 871.667 174.708 871.597 173.983L871.895 172.197C872.49 171.601 872.788 171.601 872.193 171.601C872.788 170.41 874.575 170.112 875.765 171.006L877.552 172.197L878.147 173.983C879.119 176.859 880.524 179.57 882.315 182.022C887.237 188.631 894.11 193.526 901.965 196.015C906.134 197.206 910.302 197.503 914.47 198.099C914.768 197.801 915.066 197.801 915.066 198.099C915.661 198.397 915.661 199.29 915.066 199.588C914.596 203.591 913.277 207.449 911.195 210.901L908.515 215.069C908.811 215.024 909.113 215.024 909.409 215.069C917.15 214.772 925.188 215.069 932.929 215.367L944.243 215.963L950.197 216.26L953.175 216.558C942.868 206.289 930.188 198.721 916.256 194.526C937.395 196.61 954.961 210.008 967.465 226.681C977.848 240.761 985.613 256.594 990.391 273.424C991.284 276.401 991.581 279.378 990.391 282.058C989.2 284.142 987.413 285.631 985.627 286.822L985.032 287.119C987.116 293.967 988.306 301.113 989.795 307.96C995.136 337.238 997.926 366.923 998.132 396.683C998.132 399.065 998.132 401.745 996.941 404.126C995.452 407.104 992.177 405.913 990.986 404.126C990.764 403.845 990.565 403.546 990.391 403.233C990.35 402.937 990.35 402.636 990.391 402.34C989.795 400.851 990.093 399.363 990.093 398.172V392.217C990.06 380.591 989.563 368.97 988.604 357.383L984.138 311.831L982.352 288.608L976.993 291.585C973.718 293.074 970.145 294.563 966.87 296.647L957.045 301.41C954.068 303.197 950.495 305.281 946.922 305.579C944.838 305.876 943.945 303.197 945.434 302.006C946.922 300.517 948.709 299.326 950.793 298.433H942.754V308.854L944.541 333.863C945.732 351.131 946.922 368.399 947.518 385.667L948.411 398.47V404.424C948.709 406.806 948.411 409.783 946.625 411.272C945.136 412.165 943.647 411.867 942.159 410.379C940.67 408.592 940.67 405.913 940.67 403.531V402.042L933.525 402.935L924.89 403.531H907.622L872.788 403.233C840.029 402.585 807.277 401.593 774.538 400.256C771.561 400.256 767.988 400.851 765.011 399.065V402.042C765.011 404.126 763.522 405.615 761.438 405.615C759.652 405.615 757.865 404.126 757.865 402.042L761.438 350.833L765.011 303.792C764.578 304.123 764.063 304.329 763.522 304.388C761.438 304.388 759.354 303.197 757.568 302.304C754.362 301.246 751.076 300.449 747.743 299.922V307.365L748.338 318.381L748.636 340.71C749.11 361.87 750.103 383.015 751.613 404.126C751.613 406.21 751.911 408.295 751.018 410.379C750.422 412.165 748.04 413.058 746.849 410.974C745.063 407.997 745.361 403.531 745.361 399.958C744.072 373.778 743.874 347.555 744.765 321.358L745.658 308.854L746.552 299.922L739.406 299.029C737.024 299.029 735.536 296.944 736.131 294.86C740.085 277.676 745.157 260.769 751.315 244.247Z" fill="#2B283A"></path><path fill-rule="evenodd" clip-rule="evenodd" d="M787.936 91.2127C787.936 82.2808 788.531 73.0513 792.997 65.0126C796.946 57.5743 801.961 50.7536 807.884 44.7672C810.563 42.3853 813.838 39.7058 813.243 35.8353C813.243 31.9649 810.563 23.3308 810.266 19.1626C809.67 11.124 815.327 9.03986 822.175 5.1694C829.916 0.703487 839.443 1.29894 848.375 3.38303C864.452 7.25349 883.804 13.5058 890.057 30.774C891.545 34.9422 890.95 39.7058 891.247 43.874C891.545 48.0422 893.332 51.9126 894.82 55.7831C902.028 74.6473 904.383 95.0198 901.668 115.031C906.134 115.924 910.6 119.497 911.493 123.963C912.982 132.299 904.645 135.872 899.584 140.338C893.629 145.697 888.866 152.545 883.209 158.499C847.481 198.395 767.691 179.936 784.066 118.008C786.447 109.076 788.234 100.145 787.936 91.2127Z" fill="white"></path><path fill-rule="evenodd" clip-rule="evenodd" d="M859.39 3.98009C850.459 0.70509 840.634 -0.78355 831.106 0.40736C823.436 1.39359 816.098 4.14521 809.67 8.44601C807.884 9.63692 806.395 11.4233 806.693 13.2096C806.592 13.6002 806.592 14.01 806.693 14.4006L811.456 35.8369L812.35 40.6006C800.397 48.8173 791.335 60.588 786.447 74.2438C782.577 87.9393 784.363 101.932 782.874 115.926C782.874 118.903 781.981 122.476 781.088 125.453C780.195 129.026 778.706 132.301 778.111 135.576C776.325 142.721 778.706 149.271 782.279 155.226C789.127 166.242 799.249 175.471 811.159 180.235C817.314 182.712 823.876 184.024 830.511 184.105C837.341 184.206 844.057 182.346 849.863 178.746C853.436 176.364 850.459 171.303 846.291 172.792L845.397 173.387C842.42 174.578 840.038 175.769 837.061 176.364C833.786 176.96 830.511 176.96 826.938 176.96C820.686 176.364 814.434 174.28 809.075 171.005C804.013 168.028 799.25 164.455 795.379 160.287L795.081 159.692C791.018 155.747 787.691 151.109 785.256 145.996C784.066 143.317 783.47 140.637 784.065 137.66C784.661 134.385 785.852 131.408 787.043 128.132C788.531 122.178 789.127 115.628 789.127 109.376V109.078C789.425 95.9779 788.531 83.1756 792.997 70.6711C797.165 59.6551 805.799 51.021 812.647 41.7915L813.838 46.2574L815.029 51.9142V53.1051H815.327C815.625 53.9983 816.22 54.8915 817.411 55.1892C818.602 55.1892 819.197 54.8915 819.793 53.9983H825.152C828.725 53.9983 832.595 54.5938 835.87 53.9983C836.466 53.9983 836.466 53.1051 835.87 52.8074C832.893 51.9142 829.022 51.9142 825.45 51.6165L820.388 51.021C820.091 51.0269 819.793 51.0269 819.495 51.021L817.411 42.6847L815.327 33.1574L811.456 15.2937C815.548 14.3096 819.758 13.9087 823.961 14.1028H824.556C826.224 14.047 827.875 14.4595 829.32 15.2937C831.106 16.4846 831.106 19.1642 831.702 20.9506L834.084 36.7301L834.977 44.1733V47.7461L835.87 50.7233C835.87 52.5097 837.954 54.2961 839.145 52.8074C840.634 51.021 842.122 48.937 843.909 47.4483C845.695 45.6619 847.481 44.471 849.863 42.9824C854.046 40.4867 858.555 38.5829 863.261 37.3256C868.025 38.8142 872.491 40.3029 876.956 42.9824C886.781 48.3415 894.82 57.5711 897.5 68.587C900.024 78.6047 900.631 89.0098 899.286 99.2529C898.691 102.826 897.202 106.101 896.309 109.673C896.011 110.567 896.309 111.162 896.309 112.055C893.927 112.055 889.759 113.246 889.461 115.628C889.461 116.223 889.461 116.819 890.354 116.819C891.545 116.819 892.141 115.926 893.332 115.33H893.629C899.584 112.055 906.431 116.819 907.622 122.476C908.813 127.835 907.027 134.087 901.668 136.469C899.286 137.66 896.309 138.255 893.927 140.042C891.843 141.233 890.354 143.019 888.568 144.805L880.231 157.012C879.054 158.863 877.655 160.563 876.063 162.073C874.277 163.562 871.597 164.158 871.002 166.837C870.704 167.73 871.002 168.921 871.895 169.219C875.17 171.005 878.743 168.028 880.827 165.944C883.209 163.562 885.293 161.18 886.781 158.501C889.759 154.035 892.141 148.973 896.309 145.698C898.988 143.614 902.263 142.721 904.943 141.232C907.92 139.744 910.6 137.064 911.791 133.789C914.47 127.537 913.875 119.796 908.813 114.735C907.325 113.246 905.538 112.055 903.454 111.757C906.491 103.687 907.711 95.0463 907.027 86.4506V85.2597C906.729 77.5188 905.836 69.7779 903.156 62.6324C900.775 56.6779 897.202 51.3188 892.736 46.8529C892.25 46.3462 891.754 45.8499 891.247 45.3642H891.545C892.736 43.8756 892.438 41.7915 892.438 40.0051L891.545 34.0506C889.84 27.4652 886.526 21.4063 881.901 16.4177C877.276 11.4291 871.485 7.66691 865.047 5.46873C863.194 4.77526 861.306 4.179 859.39 3.68236V3.98009ZM903.156 122.178C901.072 120.987 898.095 121.285 895.713 122.178C893.331 123.369 890.652 125.155 889.759 128.132C888.568 130.217 892.141 131.11 893.332 129.621L895.416 126.644C895.515 126.639 895.614 126.639 895.713 126.644C896.309 127.239 896.904 127.835 897.5 127.835C898.095 127.835 898.988 127.239 898.988 126.644C899.286 125.751 898.988 124.857 898.393 124.56C899.882 123.369 901.37 123.369 903.156 122.476V122.178ZM845.1 7.25509C856.116 7.25509 868.025 10.2324 876.063 17.9733C881.41 23.3148 885.216 30.0008 887.079 37.3256L887.675 41.4938V42.6847C883.728 39.5708 879.169 37.3248 874.295 36.0935C869.421 34.8623 864.342 34.6734 859.39 35.5392V36.4324H860.879C856.413 36.7301 851.947 38.2188 848.375 40.3029C844.504 42.0892 840.634 45.0665 837.656 48.6392L837.954 47.1506V42.9824L837.359 34.0506V32.5619L834.679 16.7824C834.084 13.8051 832.297 12.0187 830.213 10.8278C834.583 8.40872 839.51 7.1769 844.504 7.25509H845.1ZM824.854 5.76645C829.758 4.20196 834.895 3.49688 840.038 3.68236C838.252 3.98009 836.465 4.87327 834.679 5.76645C832.595 6.95737 830.809 8.74373 829.618 10.5301C828.427 9.93464 826.641 9.63692 825.45 9.63692C821.877 9.63692 818.304 9.63691 814.731 10.2324C817.899 8.31276 821.301 6.81162 824.854 5.76645Z" fill="#2B283A"></path><path fill-rule="evenodd" clip-rule="evenodd" d="M796.868 170.112L800.44 168.921C806.395 165.944 813.243 165.349 819.495 168.028C822.472 169.219 825.45 171.303 828.427 172.792L830.511 173.387C834.017 172.096 837.404 170.502 840.634 168.624L841.527 167.433L835.572 165.944C829.618 164.455 824.259 161.776 818.602 159.989C813.277 158.281 807.551 158.281 802.227 159.989C799.547 160.585 797.463 162.371 794.783 163.264C793.593 163.86 791.806 164.455 790.615 164.455C791.525 166.752 792.835 168.869 794.486 170.708L796.57 170.112H796.868ZM784.661 152.248C784.959 152.248 787.043 153.737 787.638 154.63H788.531C788.531 154.035 789.127 154.035 789.722 154.035C792.7 152.546 795.677 150.462 798.059 147.783C799.845 145.996 801.631 143.912 804.013 143.019C806.99 141.53 809.67 142.126 812.647 142.423C815.624 142.423 818.602 141.828 821.877 142.423C824.259 142.423 826.343 143.614 828.129 144.805C831.999 147.783 834.679 151.653 837.954 154.928C841.437 158.562 845.875 161.142 850.756 162.371H851.054C854.716 159.064 858.011 155.371 860.879 151.355C863.856 147.485 871.3 129.919 873.086 128.43L875.468 127.537C876.956 127.537 878.445 128.43 879.041 130.217C879.934 132.598 879.338 136.171 879.338 139.148C879.265 142.529 879.066 145.905 878.743 149.271C878.363 152.662 877.866 156.038 877.254 159.394C876.989 161.087 876.691 162.774 876.361 164.455C876.192 164.867 875.993 165.265 875.765 165.646L875.17 168.326C874.217 173.767 871.739 178.826 868.025 182.914C863.615 186.804 858.583 189.924 853.138 192.144C848.053 194.564 842.775 196.556 837.359 198.099C832.893 200.183 827.831 201.969 822.77 202.862C817.411 203.755 811.456 203.755 806.097 201.969C803.547 201.018 801.141 199.716 798.952 198.099C795.974 196.312 792.997 194.228 790.615 191.251C786.447 185.892 784.661 179.342 783.47 172.494L782.279 163.264L781.684 153.142C781.684 151.653 783.47 151.355 784.661 151.951V152.248Z" fill="#2B283A"></path><path fill-rule="evenodd" clip-rule="evenodd" d="M819.197 160.883C821.877 159.692 823.961 157.906 825.747 155.822C826.343 154.929 826.64 154.035 826.343 153.44C826.305 153.009 826.183 152.59 825.983 152.207C825.783 151.824 825.509 151.484 825.176 151.207C824.844 150.93 824.461 150.722 824.048 150.594C823.635 150.466 823.2 150.422 822.77 150.463C822.334 150.54 821.92 150.714 821.56 150.971C821.199 151.229 820.901 151.564 820.686 151.951C819.495 153.44 818.304 154.631 816.815 155.226C815.327 155.822 813.838 156.417 812.349 156.12C809.074 155.822 806.99 154.035 804.609 151.654C804.307 151.359 804.01 151.062 803.715 150.76C803.542 150.617 803.338 150.516 803.12 150.463H802.227C801.631 150.463 801.631 150.463 801.334 151.058C801.242 151.349 801.242 151.661 801.334 151.951C801.334 154.333 802.524 156.417 804.311 157.906C806.262 159.75 808.693 161.008 811.326 161.535C813.959 162.061 816.687 161.835 819.197 160.883ZM810.265 123.965C807.288 125.751 802.822 129.919 805.799 134.088C809.372 137.958 814.731 133.492 817.411 131.706C819.793 130.217 822.472 134.088 820.388 135.874C801.631 149.569 793.89 124.56 808.479 121.881C810.265 121.881 810.861 123.369 809.968 123.965H810.265ZM843.611 107.888C843.015 104.017 837.061 103.124 836.465 106.994C835.87 110.567 836.465 113.842 838.252 116.819C839.74 119.797 843.611 118.606 843.909 115.629L843.611 107.888ZM797.761 106.399C796.868 105.208 795.677 104.315 794.188 104.91C789.722 106.101 791.211 112.651 792.7 115.629C793.593 117.415 796.272 117.713 797.463 116.224C799.547 113.842 800.44 109.079 798.059 106.697C798.064 106.598 798.064 106.498 798.059 106.399H797.761ZM838.252 90.9172H837.656C835.274 90.3217 832.595 90.024 831.106 91.8103C830.213 92.7035 829.915 94.4899 831.106 95.3831C832.893 96.8717 835.274 96.2763 837.656 96.2763C839.443 96.2763 841.229 96.8717 843.313 97.4672C847.161 98.7782 850.778 100.687 854.031 103.124C854.627 103.124 854.924 102.826 854.924 102.231C852.84 98.3603 848.97 95.0853 845.1 93.299C843.015 92.1081 840.634 91.2149 838.252 90.9172ZM801.929 89.1308H801.334C795.379 90.3217 787.638 93.0012 784.958 98.6581V99.849L785.554 100.147C786.785 99.8835 787.984 99.4841 789.127 98.9558L790.318 98.3604L793.89 96.574L802.822 94.7876L804.609 94.1922C805.063 93.8088 805.377 93.2851 805.502 92.7035L805.204 90.3217C804.852 89.7723 804.329 89.3539 803.715 89.1308C803.134 88.9479 802.51 88.9479 801.929 89.1308Z" fill="#2B283A"></path><path fill-rule="evenodd" clip-rule="evenodd" d="M772.156 114.139C775.133 135.575 797.165 137.957 801.036 116.521C800.44 116.521 799.845 115.925 800.143 114.734C800.143 110.269 798.654 105.207 794.486 102.825C790.318 99.8481 785.256 99.8481 780.195 99.8481C770.965 99.8481 771.263 107.589 772.156 114.139ZM804.311 104.909C807.288 104.909 811.158 104.909 813.838 106.696C814.433 104.612 816.518 102.528 818.304 101.337C811.158 101.634 804.013 101.039 796.868 100.444C798.356 101.634 799.845 103.421 801.036 105.505C801.929 104.909 803.418 104.909 804.311 104.909ZM817.411 116.521C825.747 144.805 845.993 132.598 848.374 128.728C852.245 122.773 853.138 107.887 849.565 104.016C844.504 100.741 837.656 101.634 831.702 101.337C820.686 101.337 812.945 104.909 817.411 116.223V116.521ZM762.629 103.123C764.825 102.703 767.095 102.909 769.179 103.719C769.484 102.436 770.07 101.237 770.893 100.207C771.717 99.1778 772.758 98.3434 773.942 97.764C774.24 97.1685 774.24 97.1685 775.133 97.1685C781.088 95.3822 787.34 96.2754 792.997 98.0617L819.793 100.444C827.831 96.5731 852.543 96.2754 854.031 105.207C856.115 105.207 859.39 103.421 860.879 105.505C872.788 103.421 885.293 106.398 897.202 107.589C900.179 108.184 901.965 114.437 898.393 114.139C896.606 113.544 898.393 110.566 896.011 110.269C884.102 108.78 873.086 107.291 861.177 106.994C861.772 108.78 853.436 109.078 853.436 107.887C855.52 115.33 853.436 126.346 849.863 131.109C844.802 137.064 831.999 139.148 826.343 134.98C818.899 131.407 811.456 112.948 813.54 106.994C809.653 105.936 805.567 105.834 801.631 106.696C802.822 109.375 804.311 115.628 801.929 116.521C802.524 129.323 790.913 137.362 780.195 132.003C770.965 127.537 767.69 113.841 768.881 105.207C767.69 107.589 757.865 105.207 762.629 103.123Z" fill="#2B283A"></path><path fill-rule="evenodd" clip-rule="evenodd" d="M258.893 1008.73L255.563 994.855L249.181 965.72L236.14 909.67L228.925 881.09C226.983 872.766 225.318 864.441 221.711 856.394C218.322 848.328 211.965 841.872 203.952 838.358C197.015 835.584 189.246 833.919 181.754 833.364C182.586 832.254 182.864 830.589 181.754 829.202C179.812 827.537 179.534 824.762 178.979 822.542C178.424 819.767 177.592 816.715 175.927 814.218C175.599 813.736 175.128 813.369 174.58 813.17C174.032 812.97 173.436 812.949 172.875 813.108L170.655 813.663L170.1 812.83C169.545 811.998 169.268 811.166 168.435 810.611C168.158 810.056 167.603 810.056 167.048 810.333C165.66 811.166 165.383 813.108 165.938 814.495V815.328L159.556 816.16C157.525 816.318 155.489 816.411 153.451 816.438C144.882 816.816 136.299 816.069 127.923 814.218C125.149 813.663 122.374 813.385 119.877 811.721V809.501C119.877 808.113 119.877 807.003 119.044 805.894L117.102 808.113H114.327C113.279 808.564 112.334 809.225 111.552 810.056C110.442 811.443 110.165 812.83 109.61 814.495C109.61 815.883 109.332 816.715 108.778 817.27L108.5 818.103H108.223L107.668 818.657L107.39 818.935C105.448 820.322 103.783 820.877 101.841 821.71C97.1235 822.82 92.1289 823.652 87.4118 825.317C61.6935 832.398 39.3536 848.439 24.4246 870.546C11.9393 891.443 4.70343 915.055 3.33628 939.36C0.561513 965.72 0.561538 992.081 0.284061 1018.72L0.0065675 1028.43C0.0065675 1031.76 -0.270909 1035.09 2.78134 1037.31C5.00115 1039.25 8.33088 1038.7 11.1056 1037.86C19.8285 1035.28 28.9548 1034.34 38.0209 1035.09C41.3506 1035.37 45.2353 1036.48 47.7326 1033.98C48.8425 1033.15 49.3975 1032.04 49.675 1030.93L51.6173 1026.49L53.2821 1022.88L55.7795 1033.98C56.0569 1035.64 57.7218 1035.64 58.5542 1035.09C59.9416 1035.92 62.1614 1035.92 63.8263 1035.92L72.1506 1036.48L88.5218 1036.75H121.819C144.017 1036.75 165.938 1036.48 187.858 1035.92L206.449 1035.37L215.606 1035.09L218.381 1034.81L219.768 1035.64C221.988 1036.2 223.931 1034.81 224.485 1032.87L225.04 1030.09L225.318 1028.15C228.648 1030.37 232.81 1030.93 236.972 1030.93L250.846 1028.99C255.008 1028.43 261.945 1028.43 261.945 1022.6C262.222 1020.38 261.39 1018.16 260.835 1015.94L259.17 1008.45L258.893 1008.73Z" fill="#2B283A"></path><path fill-rule="evenodd" clip-rule="evenodd" d="M151.231 671.593C166.215 671.593 183.974 678.808 185.361 679.085C186.194 679.085 189.523 681.305 194.795 686.022L188.968 697.676L189.523 697.954L195.073 703.781C207.837 716.545 210.057 767.045 207.004 784.526C204.23 802.285 198.68 819.211 173.152 819.211C147.624 819.211 119.322 803.95 114.882 799.233C113.719 797.77 112.243 796.587 110.562 795.77C108.882 794.954 107.039 794.525 105.17 794.516L104.615 793.961H104.06C99.0658 793.406 95.7361 792.296 93.2388 791.186C89.0766 788.411 84.3595 775.925 84.3595 773.15C84.3595 770.375 77.4226 750.397 77.4226 748.177C77.4226 746.512 68.2658 738.188 68.2658 735.69C68.2658 732.916 66.3235 733.193 68.2658 724.036L68.8208 721.262C70.7631 711.827 74.3703 695.734 89.0766 688.519C108.759 679.648 129.75 674.025 151.231 671.871V671.593Z" fill="white"></path><path fill-rule="evenodd" clip-rule="evenodd" d="M86.5793 688.242C94.9036 679.918 140.132 666.599 162.885 669.374H163.718L169.267 670.484C175.078 671.852 180.614 674.198 185.639 677.42C189.523 680.195 202.01 684.635 198.403 692.127C199.79 694.624 200.067 697.676 199.235 700.451L198.403 702.948C201.285 707.309 203.703 711.959 205.617 716.822C208.947 728.476 211.166 740.685 211.166 752.617C212.276 775.37 209.779 802.563 190.078 816.991C178.147 826.148 159.556 826.703 145.959 815.049C145.404 814.217 141.797 811.719 143.185 811.442L144.017 812.552L143.74 811.997C142.907 811.442 142.075 810.609 143.185 810.609L143.74 811.164C143.185 810.609 142.907 810.054 143.74 810.332L144.849 811.442V811.164C144.294 810.609 144.295 810.609 144.572 810.332C143.74 809.499 145.127 810.054 145.127 810.332C146.237 810.332 146.792 811.719 147.347 811.997C172.042 830.865 207.559 814.217 207.004 761.496V760.386C207.004 743.737 205.339 726.256 198.68 710.995C197.925 709.563 197.091 708.174 196.183 706.833C195.664 705.887 195.109 704.961 194.518 704.058C192.625 703.79 190.765 703.325 188.968 702.671C188.318 702.603 187.67 702.511 187.026 702.393L160.388 703.781H157.613C150.122 704.336 142.352 705.168 136.248 709.885C130.143 714.047 130.143 722.649 125.149 727.366C117.657 732.361 117.657 736.801 116.269 744.015C116.269 749.564 120.154 757.889 113.217 759.831C114.327 761.773 112.662 760.941 112.662 760.109C113.495 762.328 112.107 760.941 111.83 760.109C112.662 761.773 110.997 760.664 110.997 760.386C109.055 757.334 104.893 756.779 101.841 757.611H101.563C88.7991 760.386 92.1289 786.746 105.17 784.249H105.725C105.725 783.417 106.28 783.972 106.28 784.249C106.28 782.307 107.668 784.804 107.668 784.804V783.694L107.39 783.139C107.945 782.584 108.223 784.249 108.5 784.527C108.223 783.972 108.5 783.417 108.777 783.694C111.949 790.466 116.483 796.512 122.096 801.453C124.039 803.118 127.368 804.227 129.311 805.892V806.17L129.866 806.447L130.421 807.002L130.976 807.835C130.976 807.835 130.976 808.112 130.698 807.835H130.143C130.143 807.835 130.698 808.667 130.143 808.39H129.866L130.143 808.945L130.698 809.499H130.421C130.236 809.503 130.051 809.503 129.866 809.499C129.866 809.777 130.143 810.332 129.866 810.054C129.588 810.065 129.311 810.065 129.033 810.054C128.068 809.678 127.139 809.214 126.258 808.667L124.039 807.28C123.359 806.864 122.71 806.401 122.096 805.892C117.934 803.118 114.327 799.51 111.275 795.903C106.558 800.065 96.8459 795.903 90.7414 792.573C85.1919 789.799 83.2496 784.249 82.6946 778.422C81.5847 770.375 75.2027 767.6 75.4802 750.397C75.287 750.322 75.1012 750.229 74.9253 750.119C74.719 749.957 74.5328 749.771 74.3703 749.564H74.0928L73.8154 749.01L73.2604 748.455L70.2082 744.292C67.9122 741.251 66.3029 737.749 65.4911 734.026C64.9361 731.251 65.2136 728.476 65.4911 725.979C68.2658 717.1 76.0352 696.844 86.5793 688.242ZM144.295 811.442C144.279 811.534 144.279 811.627 144.295 811.719V811.442ZM162.885 673.813C147.347 672.703 132.086 676.033 117.102 680.195L115.992 680.473C107.668 682.97 98.7883 685.19 91.5739 690.184C82.4516 698.632 75.7469 709.36 72.1505 721.262C67.9883 729.586 70.2082 739.02 76.0352 744.847C76.5901 739.02 77.7 733.471 79.3649 727.921C79.6424 727.089 79.3649 726.811 80.1973 726.534C81.3073 741.518 75.7577 752.617 86.5793 770.375C91.2964 778.7 85.7469 785.082 99.0657 789.521H99.6207C102.396 790.631 105.17 791.463 107.945 790.909V790.354C107.39 790.076 107.39 789.799 107.945 789.799C107.559 789.16 107.189 788.513 106.835 787.856L106.558 788.411C105.844 788.653 105.089 788.748 104.338 788.689H104.06L102.118 788.411C101.933 788.416 101.748 788.416 101.563 788.411C100.033 787.978 98.6132 787.221 97.4009 786.191C85.1919 779.255 86.3018 755.391 101.563 752.894C102.619 733.309 109.263 714.436 120.709 698.509C131.531 685.467 160.666 679.64 180.921 681.86H181.754L190.911 684.357C188.691 682.693 186.194 681.583 183.419 680.473C178.424 677.42 172.32 675.756 166.493 674.368C165.314 674.052 164.105 673.865 162.885 673.813ZM100.731 765.103C101.563 764.548 101.563 765.103 101.563 765.103C107.668 764.548 113.772 769.543 117.102 773.982L115.992 773.15V773.427C117.379 775.37 114.882 773.15 114.604 772.595L115.437 773.705C117.102 775.37 117.102 776.48 115.437 774.26V774.537C116.269 775.37 116.824 777.035 115.159 775.092C115.159 776.48 113.217 773.982 113.217 773.982C109.61 771.208 104.338 768.433 99.8982 768.433C99.0658 768.155 98.7883 767.878 99.0657 767.323C97.9558 767.323 98.2333 766.491 98.7883 766.491C97.9559 766.213 98.7883 765.658 98.7883 765.936C98.7883 765.103 99.8982 765.658 99.8982 765.381C100.453 764.548 100.731 765.381 100.731 765.103ZM88.5217 716.822C91.2964 715.712 99.6207 718.765 99.0657 722.927C98.5108 724.037 97.4009 724.592 96.291 724.037L95.1811 723.204L89.0766 719.319C87.6892 718.765 87.1343 717.377 88.5217 716.822ZM104.615 710.718L103.505 710.163C97.6784 706.278 89.3541 700.451 104.06 706.278C105.725 707.11 107.945 707.665 108.777 709.053C110.165 712.105 106.558 712.383 104.615 710.718ZM105.17 693.514C104.615 691.849 110.72 693.792 112.385 694.347C114.05 695.179 115.992 695.734 117.102 697.121C118.212 699.064 115.992 699.619 114.327 698.509C111.552 696.566 108.223 695.179 105.17 693.514ZM120.154 685.19C116.824 681.583 125.704 685.19 126.813 686.022C127.923 686.577 127.646 688.242 126.813 688.797C124.039 688.797 122.374 686.577 120.154 685.19ZM135.138 681.305C129.588 677.42 136.803 679.363 139.022 680.75C140.687 682.138 139.022 684.635 135.138 681.305Z" fill="#2B283A"></path><path fill-rule="evenodd" clip-rule="evenodd" d="M152.619 778.421C158.446 777.589 164.55 779.531 170.377 780.363C174.14 780.992 177.941 781.363 181.754 781.473C181.754 780.918 182.031 780.363 182.864 780.086C184.073 779.499 185.405 779.213 186.749 779.254C188.413 779.254 189.523 779.254 191.188 779.808C193.685 780.086 196.183 781.196 197.848 783.138C202.287 787.3 201.455 793.96 198.403 798.399C191.466 808.111 178.979 808.389 168.435 808.389H167.603C157.891 808.389 144.017 809.499 139.855 798.677C137.913 794.515 138.19 789.798 140.132 785.913C141.478 783.771 143.31 781.976 145.48 780.674C147.649 779.372 150.095 778.6 152.619 778.421ZM182.586 794.237H169.267C169.507 796.369 169.784 798.497 170.1 800.619V802.007C170.437 802.082 170.734 802.279 170.932 802.562V802.839C174.54 802.839 178.147 802.839 181.754 802.284C181.754 801.729 181.754 801.452 182.309 801.174V796.457L182.586 793.682V794.237ZM165.938 794.515H154.839L155.671 799.509C155.949 801.174 154.284 802.284 152.896 802.284H153.451C157.613 802.839 161.776 802.839 166.215 802.839V798.954L165.938 794.515ZM143.74 794.237L144.572 796.735C145.959 800.064 149.289 801.452 152.619 802.284C151.786 802.007 151.509 801.452 151.231 800.619L150.954 794.515L144.017 794.237H143.74ZM194.795 793.405C193.131 793.96 191.188 793.682 189.523 793.682L185.084 793.96V797.012L185.639 801.174C188.413 800.064 191.188 798.399 193.408 795.625L194.795 793.405ZM151.786 783.693C149.012 784.526 146.237 785.913 145.127 788.41C144.295 789.798 143.74 791.463 144.017 793.405C146.321 793.129 148.635 792.944 150.954 792.85V790.63C150.954 788.41 150.954 785.913 151.786 783.693ZM165.938 783.971H164.828C161.498 783.416 158.168 783.138 154.839 783.416C154.284 783.392 153.729 783.392 153.174 783.416C153.729 785.635 153.729 788.133 154.006 790.353L154.284 792.85H155.116L165.66 792.295V789.52L165.938 783.971ZM182.864 783.971C177.986 784.597 173.055 784.69 168.158 784.248V786.468L168.713 790.908V792.017L182.309 791.462H182.864V788.965L183.419 783.971C183.235 783.994 183.048 783.994 182.864 783.971ZM184.529 784.248L184.806 791.185H189.246C191.188 791.185 193.685 790.353 195.35 791.185C195.35 789.243 195.35 787.578 193.685 786.468C190.911 784.526 187.304 785.081 184.529 784.248ZM174.54 763.715C178.702 761.218 189.801 758.72 190.356 766.49C190.633 770.097 188.136 773.149 184.806 774.536C182.031 775.646 176.482 777.034 173.985 774.536C172.042 772.317 174.817 768.432 177.314 770.097C178.702 770.929 181.477 770.374 182.864 770.097H183.141C184.806 769.542 187.026 767.877 186.194 765.935C185.639 764.27 183.419 763.715 181.754 763.715L174.54 764.27C174.262 764.27 173.985 763.992 174.54 763.715ZM192.576 751.228C198.125 750.951 202.01 757.333 200.9 762.327C200.345 763.437 199.512 764.27 198.403 764.27H197.848C197.015 763.992 195.905 762.882 196.183 762.05V761.772C196.183 758.998 196.183 756.223 193.131 755.668C190.356 755.113 189.246 757.61 188.968 759.83L188.413 760.385C186.471 759.275 186.194 757.055 186.749 754.836C187.858 752.616 189.801 751.228 192.298 751.228H192.576ZM148.734 752.616C152.896 751.228 157.613 753.448 159.833 757.055C160.388 757.333 161.221 757.888 160.943 758.72C160.943 760.108 160.666 760.94 159.833 761.772C158.446 763.16 155.949 762.605 155.394 760.663C154.561 758.165 152.064 756.778 149.844 757.61C147.069 758.443 147.069 761.495 145.127 763.16H144.295C142.352 762.05 142.63 759.275 143.462 757.61C144.295 755.39 146.237 753.171 148.734 752.616ZM142.63 739.574C146.237 735.967 155.394 732.637 157.613 739.019C158.168 740.407 157.336 741.794 155.949 742.349C153.729 742.627 151.786 741.794 149.844 741.794C148.179 741.794 146.237 742.627 144.85 743.736C140.965 746.511 140.132 751.506 137.635 755.39H137.08C136.525 749.841 139.023 743.459 142.63 739.574ZM188.136 735.967C190.633 735.135 193.131 735.135 195.35 735.967C197.108 736.473 198.749 737.322 200.178 738.465C201.606 739.608 202.795 741.022 203.675 742.627L204.507 744.846C206.449 745.956 207.282 748.176 205.617 749.841L205.34 750.118C204.23 750.951 203.12 751.506 201.732 751.228C198.958 750.396 198.958 748.454 197.848 745.956C197.293 744.569 196.183 743.181 195.073 742.349C193.393 741.187 191.477 740.411 189.463 740.075C187.448 739.74 185.385 739.853 183.419 740.407C183.419 740.407 182.864 740.407 183.141 739.852L185.084 737.632L188.136 735.967Z" fill="#2B283A"></path><path fill-rule="evenodd" clip-rule="evenodd" d="M215.329 756.777C212.554 776.755 192.021 778.975 188.414 759.274C188.968 758.997 189.523 758.442 189.246 757.61C189.246 753.17 190.633 748.73 194.518 746.233C198.403 743.736 202.842 743.458 207.559 743.458C216.439 743.458 216.161 750.673 215.329 756.777ZM185.084 748.453C182.232 748.04 179.323 748.525 176.759 749.84C175.927 748.175 173.985 745.956 172.32 745.123C178.979 745.123 185.639 744.568 192.298 744.013C190.911 745.123 189.523 746.788 188.414 748.73C187.304 748.175 186.194 748.175 185.084 748.175V748.453ZM173.152 758.997C165.383 785.635 146.237 773.981 144.295 770.651C140.41 765.101 139.855 751.228 143.185 747.62C147.624 744.291 154.284 745.123 159.833 744.846C170.1 745.123 177.314 748.175 173.152 758.997ZM224.208 746.788C222.161 746.396 220.046 746.589 218.104 747.343C217.789 746.121 217.201 744.986 216.384 744.025C215.567 743.063 214.542 742.3 213.386 741.793C213.386 741.516 213.386 741.238 212.277 741.238C206.86 739.861 201.154 740.151 195.905 742.071L170.932 744.291C163.441 740.961 140.41 740.406 138.745 749.008C137.08 748.73 134.028 747.343 132.363 749.008C121.264 747.343 109.888 749.84 98.511 751.228C95.7362 751.783 94.3488 757.332 97.4011 757.332C99.3434 756.777 97.401 753.725 99.8983 753.447C110.72 752.338 121.264 750.673 132.086 750.395C131.808 752.338 139.3 752.338 139.578 751.228C137.635 758.442 139.578 768.709 142.907 772.871C147.624 778.698 159.556 780.363 164.828 776.755C171.487 773.148 178.702 756.222 176.759 750.395C180.367 749.285 183.974 749.563 187.859 750.395C186.749 752.615 185.084 758.719 187.304 759.274C187.304 771.206 197.848 778.698 207.837 773.703C216.439 769.819 219.491 756.777 218.381 748.73C219.491 750.95 228.37 748.73 224.208 746.788Z" fill="#2B283A"></path></svg>