<svg xmlns="http://www.w3.org/2000/svg" width="207" height="250" viewBox="0 0 207 250" fill="none"><g clip-path="url(#clip0_21_52)"><path fill-rule="evenodd" clip-rule="evenodd" d="M112.338 0.000274818C156.981 -1.05492 188.636 39.2048 201.623 81.8185C213.636 121.591 201.38 162.825 169.886 189.854C126.055 227.435 66.0714 272.484 20.4545 237.176C-23.9448 202.922 14.8539 138.068 35.1461 85.7957C50.5682 46.1042 69.8052 1.05547 112.338 0.000274818Z" fill="#E4DDFF"></path><path d="M121.792 142.82V151H85.5806V144.019L102.705 125.659C104.426 123.745 105.783 122.06 106.777 120.606C107.77 119.127 108.485 117.806 108.922 116.643C109.382 115.455 109.612 114.328 109.612 113.262C109.612 111.662 109.346 110.292 108.813 109.153C108.279 107.99 107.492 107.093 106.449 106.463C105.431 105.833 104.171 105.518 102.668 105.518C101.069 105.518 99.687 105.905 98.5236 106.681C97.3844 107.457 96.5119 108.535 95.9059 109.917C95.3242 111.298 95.0334 112.862 95.0334 114.607H84.5262C84.5262 111.456 85.2776 108.572 86.7804 105.954C88.2831 103.312 90.4039 101.215 93.1428 99.6642C95.8817 98.0887 99.1296 97.301 102.886 97.301C106.595 97.301 109.722 97.9069 112.267 99.1188C114.836 100.306 116.775 102.027 118.084 104.281C119.417 106.511 120.083 109.178 120.083 112.28C120.083 114.025 119.804 115.734 119.247 117.406C118.69 119.054 117.89 120.703 116.847 122.351C115.829 123.975 114.593 125.623 113.139 127.295C111.685 128.968 110.073 130.701 108.304 132.494L99.1053 142.82H121.792Z" fill="#ED5564"></path></g><defs><clipPath id="clip0_21_52"><rect width="206.169" height="250" fill="white"></rect></clipPath></defs></svg>