<svg xmlns="http://www.w3.org/2000/svg" width="180" height="201" viewBox="0 0 180 201" fill="none"><g clip-path="url(#clip0_23_56)"><path fill-rule="evenodd" clip-rule="evenodd" d="M92.2523 -0.000268266C133.674 0.855051 158.356 40.994 170.942 80.6441C183.161 119.133 184.627 164.771 152.002 188.598C119.195 212.608 75.207 198.678 42.6438 174.363C11.669 151.147 -7.69784 114.429 2.87146 77.2228C14.7848 35.3122 48.7532 -0.855587 92.1912 -0.000268266H92.2523Z" fill="#ED7483"></path><path d="M83.3059 95.9876H88.9048C90.6984 95.9876 92.1769 95.6847 93.3403 95.0787C94.5038 94.4485 95.3642 93.576 95.9217 92.461C96.5034 91.3218 96.7942 90.0009 96.7942 88.4981C96.7942 87.1408 96.5276 85.941 95.9944 84.8988C95.4854 83.8323 94.6977 83.0083 93.6312 82.4265C92.5647 81.8206 91.2195 81.5176 89.5956 81.5176C88.311 81.5176 87.1233 81.7721 86.0326 82.2811C84.9419 82.7901 84.0694 83.5051 83.4149 84.4262C82.7605 85.3472 82.4333 86.4621 82.4333 87.771H71.9262C71.9262 84.8624 72.7018 82.3296 74.253 80.1724C75.8285 78.0152 77.9372 76.3307 80.5791 75.1188C83.221 73.9069 86.1296 73.301 89.3047 73.301C92.8919 73.301 96.0307 73.8827 98.7211 75.0461C101.412 76.1853 103.508 77.8698 105.011 80.0997C106.514 82.3296 107.265 85.0927 107.265 88.3891C107.265 90.0615 106.877 91.6854 106.102 93.2609C105.326 94.8121 104.211 96.2179 102.757 97.4783C101.327 98.7144 99.5816 99.7081 97.5214 100.46C95.4612 101.187 93.1464 101.55 90.5772 101.55H83.3059V95.9876ZM83.3059 103.95V98.5326H90.5772C93.4615 98.5326 95.9944 98.8598 98.1758 99.5142C100.357 100.169 102.187 101.114 103.666 102.35C105.144 103.562 106.259 105.004 107.011 106.677C107.762 108.325 108.138 110.155 108.138 112.166C108.138 114.639 107.665 116.844 106.72 118.783C105.774 120.698 104.441 122.322 102.72 123.655C101.024 124.988 99.0362 126.006 96.7579 126.709C94.4795 127.388 91.9951 127.727 89.3047 127.727C87.0748 127.727 84.8813 127.424 82.7241 126.818C80.5912 126.188 78.6522 125.255 76.9071 124.019C75.1862 122.758 73.8046 121.183 72.7624 119.292C71.7444 117.378 71.2354 115.111 71.2354 112.494H81.7425C81.7425 113.851 82.0818 115.063 82.7605 116.129C83.4392 117.196 84.3723 118.032 85.56 118.638C86.7719 119.244 88.1171 119.547 89.5956 119.547C91.268 119.547 92.698 119.244 93.8857 118.638C95.0976 118.008 96.0186 117.135 96.6488 116.02C97.3032 114.881 97.6304 113.56 97.6304 112.057C97.6304 110.118 97.279 108.567 96.5761 107.404C95.8732 106.216 94.8673 105.343 93.5585 104.786C92.2496 104.229 90.6984 103.95 88.9048 103.95H83.3059Z" fill="#FBF5E5"></path></g><defs><clipPath id="clip0_23_56"><rect width="179.006" height="201" fill="white"></rect></clipPath></defs></svg>