<svg xmlns="http://www.w3.org/2000/svg" width="185" height="179" viewBox="0 0 185 179" fill="none"><g clip-path="url(#clip0_23_58)"><path fill-rule="evenodd" clip-rule="evenodd" d="M82.5291 5.19846C104.86 6.85259 127.663 6.26183 145.504 19.9084C165.826 35.3862 181.895 57.3034 183.962 82.7061C186.266 110.058 176.873 138.237 156.906 157.024C137.411 175.455 109.29 180.418 82.47 178.586C57.6581 176.814 33.437 166.771 17.7819 147.335C3.54457 129.612 6.79375 105.509 5.435 82.7061C3.9581 57.4806 -8.21153 27.8836 9.57031 9.92453C27.4703 -7.97547 57.3036 3.36711 82.5881 5.31661L82.5291 5.19846Z" fill="#E1F0E4"></path><path d="M105.629 95.0765H111.628V103.548H105.629V115H95.1222V103.548H73.4172L72.9445 96.9307L95.0131 62.0645H105.629V95.0765ZM83.4153 95.0765H95.1222V76.3891L94.4314 77.5888L83.4153 95.0765Z" fill="#ED5564"></path></g><defs><clipPath id="clip0_23_58"><rect width="184.317" height="179" fill="white"></rect></clipPath></defs></svg>