<svg xmlns="http://www.w3.org/2000/svg" width="789" height="728" viewBox="0 0 789 728" fill="none"><mask id="mask0_267_946" style="mask-type:alpha" maskUnits="userSpaceOnUse" x="50" y="39" width="674" height="633"><path opacity="0.7" fill-rule="evenodd" clip-rule="evenodd" d="M53.6234 416.794C30.8514 276.261 150.972 168.212 276.673 101.408C399.002 36.3954 552.041 3.15112 652.571 98.4828C753.7 194.384 733.832 351.343 671.893 476.194C612.946 595.017 500.889 683.046 368.865 670.362C220.466 656.105 77.4725 563.976 53.6234 416.794Z" fill="#69D27D"></path></mask><g mask="url(#mask0_267_946)"><rect x="17" y="69" width="728" height="570" fill="#69D27D"></rect></g><path fill-rule="evenodd" clip-rule="evenodd" d="M258.209 511.858C258.209 508.491 262.852 502.511 262.857 499.463C258.958 498.759 255.692 493.452 256.558 490.126C258.077 488.961 262.077 486.657 263.723 485.584C273.789 485.887 269.961 471.831 271.1 464.692C272.25 457.704 273.101 450.392 274.777 443.364C277.759 437.744 279.156 431.435 282.007 425.839C283.273 423.986 285.334 422.285 285.952 420.128C292.18 413.292 300.762 409.201 307.821 403.413C305.082 402.532 305.264 398.821 305.441 396.441C304.803 393.332 305.482 389.433 308.307 387.681C309.264 384.557 313.431 383.468 315.872 385.458C317.472 378.248 323.741 373.873 330.308 371.199C330.303 371.177 330.298 371.155 330.293 371.133C336.916 368.5 344.85 367.184 351.458 368.662C347.969 329.648 377.738 328.215 392.842 331.496C400.569 333.172 412.159 338.393 414.792 345.654C416.281 349.75 420.544 362.971 421.157 367.184C432.692 360.571 446.064 351.857 456.07 365.164C458.07 367.483 460.288 369.204 463.285 369.999C472.648 372.44 485.068 372.521 490.39 382.101C493.57 388.035 490.709 391.944 491.565 397.884C533.693 427.591 568.91 537.029 561.001 587.937C559.102 606.155 549.81 638.405 526.898 634.384C515.201 647.22 319.001 647.22 298.767 634.384C282.114 638.759 265.196 631.989 258.209 615.974C249.338 594.018 258.735 570.301 260.401 547.778C261.414 542.087 262.918 537.576 263.723 531.753C264.062 529.322 262.903 525.291 263.723 523.053C263.338 521.6 258.204 515.225 258.204 511.858H258.209Z" fill="white"></path><path fill-rule="evenodd" clip-rule="evenodd" d="M350.952 356.054C350.491 358.044 350.911 360.292 350.835 362.333C350.764 364.293 350.531 366.232 350.192 368.156C346.638 366.282 342.435 366.039 338.379 366.642C333.133 367.427 327.067 369.159 322.956 372.673C321.943 373.544 321.102 374.571 320.394 375.711C319.553 377.068 319.011 378.607 317.674 379.579C315.598 381.088 313.031 381.67 311.041 383.346C309.011 385.048 307.75 387.6 307.482 390.228C307.34 391.625 307.573 392.937 307.836 394.299C308.074 395.529 307.958 396.031 307.634 397.215C307.53 397.684 307.571 398.174 307.752 398.619C307.933 399.063 308.245 399.443 308.646 399.707C306.965 400.871 305.304 402.066 303.664 403.317C294.139 410.573 286.083 419.621 280.498 430.265L280.367 430.533L280.21 430.847C278.848 433.652 275.288 441.86 274.842 443.708C273.691 447.225 272.747 450.806 272.017 454.433L271.88 455.147C271.45 457.36 270.716 459.977 270.832 462.337C269.591 468.77 268.5 475.231 267.561 481.715C267.502 482.084 267.54 482.461 267.669 482.812C267.799 483.162 268.016 483.473 268.3 483.715C267.05 483.918 265.809 484.166 264.579 484.414L263.865 484.566L263.51 484.647C260.948 485.224 258.421 486.064 256.745 488.227C255.862 489.311 255.378 490.666 255.372 492.064C255.367 493.463 255.841 494.821 256.715 495.913C258.259 497.913 260.513 498.86 262.857 499.457C263.323 499.574 263.789 499.685 264.26 499.781C264.574 499.847 264.781 499.412 264.482 499.245L263.986 498.971L263.303 498.597C261.53 497.614 259.692 496.51 258.715 494.738C257.383 492.338 258.437 490.115 260.72 488.895C262.634 487.877 264.999 487.614 267.121 487.264L267.997 487.118C270.219 486.763 272.483 486.53 274.721 486.789C276.68 487.011 278.67 487.68 280.25 488.885L280.402 489.001L280.554 489.128C281.941 490.338 283.936 493.052 281.313 493.837C279.313 494.429 276.873 494.277 274.771 494.394L274.498 494.414C272.736 494.531 270.898 494.531 269.116 494.743C268.478 494.819 267.85 494.92 267.227 495.067C265.455 495.488 266.062 497.852 267.627 498.019C268.007 498.06 268.397 498.08 268.786 498.09C269.804 498.86 271.217 499.209 272.422 499.69C273.571 500.146 274.731 500.602 275.896 501.047C274.893 501.093 273.89 501.174 272.888 501.301C272.569 501.336 272.564 501.771 272.888 501.807C275.293 502.055 277.698 502.318 280.093 502.658C283.805 503.174 287.486 503.863 291.091 504.916C293.724 505.691 296.327 506.607 298.848 507.681L299.608 508.01L299.927 508.151C302.216 509.144 305.178 510.314 306.494 512.506C307.183 513.65 307.482 515.418 306.514 516.516C305.476 517.696 303.304 517.559 301.851 517.615L301.735 517.62C298.656 517.772 295.577 517.792 292.499 517.686C286.034 517.468 279.597 516.738 273.247 515.504C272.078 515.276 271.576 517.033 272.751 517.311C280.225 519.053 287.785 520.01 295.456 520.056H296.296C299.284 520.628 302.216 521.484 305.117 522.451L305.699 522.643C307.421 523.225 310.348 523.808 311.36 525.514C312.029 526.653 311.796 527.433 311.132 527.96C309.963 528.886 307.477 529.064 306.266 529.109C298.99 529.382 291.705 529.331 284.433 528.957C282.058 528.831 279.526 528.476 277.161 528.704C276.149 528.805 275.809 530.304 276.908 530.578C279.825 531.322 283.091 531.256 286.104 531.352L286.448 531.362C292.455 531.574 298.467 531.571 304.474 531.352L306.925 531.251L307.36 531.236C308.666 531.165 310.003 531.013 311.158 530.476C312.231 532.269 311.431 534.679 310.049 536.102C308.732 537.459 306.839 538.127 305.026 538.543C304.856 538.581 304.685 538.618 304.514 538.654C300.524 539.464 296.463 539.398 292.732 541.236C289.592 542.786 286.721 545.363 283.212 545.976C280.068 546.528 277.779 545.135 276.108 542.563C276.017 542.422 275.928 542.28 275.84 542.138C274.523 540.011 273.571 537.661 272.179 535.57C271.491 534.486 270.656 533.503 269.698 532.649C269.257 532.269 266.179 530.633 265.698 530.142C263.627 528.01 265.46 523.529 264.923 520.856C264.295 517.747 261.571 516.653 259.935 514.243C256.832 509.655 265.348 505.361 262.801 500.343C262.772 500.286 262.726 500.238 262.67 500.207C262.447 500.09 262.092 500.237 262.113 500.536C262.396 504.273 258.847 506.845 257.566 510.081C256.107 513.762 258.437 515.995 260.816 518.456C263.865 521.615 261.718 525.15 262.396 528.952C262.487 529.454 262.629 529.894 262.817 530.284C262.534 530.457 262.296 530.692 262.121 530.973C261.945 531.253 261.836 531.57 261.804 531.899C260.756 540.806 259.632 549.682 257.794 558.467L257.404 560.331L256.877 562.822C255.566 569.05 254.345 575.298 254.112 581.663C253.383 587.036 253.1 592.453 253.525 597.861C254.842 614.323 264.006 631.544 280.655 636.592C284.505 637.801 288.595 638.027 292.554 637.25C293.906 636.967 295.805 636.354 297.512 635.422C297.41 636.516 297.329 637.615 297.294 638.708C297.003 639.024 296.802 639.412 296.715 639.832C296.628 640.252 296.656 640.688 296.798 641.093C298.155 640.648 299.39 639.939 300.504 638.967L300.686 638.8C301.345 636.344 301.537 633.655 301.633 631.063L301.659 630.328L301.724 628.222C301.866 623.948 301.765 619.665 301.547 615.396L301.385 612.252C301.016 604.92 300.712 597.603 300.914 590.251C301.147 581.795 301.871 573.369 302.773 564.954C303.243 560.614 303.775 556.28 304.317 551.946C304.752 548.462 305.482 544.705 305.492 541.11C308.282 540.512 311.021 539.363 312.738 537.008C314.56 534.517 314.829 531.332 313.213 528.775C314.773 526.628 313.492 524.603 311.563 523.241C314.53 521.57 316.186 517.018 316.626 513.853C316.92 511.676 317.016 508.43 316.095 505.984C318.99 506.085 321.855 506.614 324.596 507.554L325.346 507.807C325.725 507.934 326.156 508.081 326.576 508.258C323.892 512.714 327.336 516.749 331.756 517.899C332.597 518.121 333.457 518.273 334.323 518.4C336.278 518.668 338.273 518.754 340.207 518.932C343.913 519.271 347.64 519.762 351.357 519.919C352.172 519.954 352.699 519.575 352.947 519.043L352.962 519.023C353.048 518.884 353.103 518.729 353.124 518.567L353.083 518.602C353.137 518.333 353.134 518.055 353.075 517.786C353.015 517.517 352.901 517.264 352.739 517.041C352.576 516.819 352.37 516.633 352.132 516.495C351.894 516.356 351.63 516.269 351.357 516.238C345.989 515.63 340.546 515.605 335.159 515.159L334.814 515.129C333.123 514.982 331.133 514.714 329.796 513.64C328.551 512.638 328.439 511.341 328.936 510.167C328.946 510.196 328.955 510.227 328.961 510.258C328.996 510.491 329.315 510.486 329.417 510.324C329.731 509.848 329.812 509.382 329.731 508.931C330.105 508.501 330.556 508.116 331.047 507.817C333.214 506.501 336.06 506.136 338.531 505.741C341.229 505.342 343.947 505.092 346.673 504.992C352.03 504.739 357.408 505.174 362.684 506.141C362.902 506.177 362.988 505.868 362.775 505.797C360.715 505.111 358.619 504.54 356.496 504.085L356.643 504.06C356.83 504.009 356.962 503.782 356.896 503.604C356.889 503.575 356.879 503.546 356.866 503.518C357.767 503.103 358.147 501.701 357.053 501.138C353.64 499.366 349.635 498.571 345.893 497.842C342.294 497.171 338.671 496.63 335.032 496.222C328.885 495.503 322.181 495.518 316.267 493.569L316.024 493.488C313.614 492.652 310.737 490.966 310.57 488.11C310.322 483.796 316.712 484.92 319.371 485.021C326.657 485.3 333.928 485.811 341.179 486.591C344.929 486.992 348.677 487.423 352.42 487.882C353.686 488.039 354.977 488.247 356.278 488.449C356.684 488.551 357.089 488.616 357.484 488.652C357.514 488.662 357.534 488.652 357.56 488.642C359.453 488.905 361.357 489.108 363.205 489.047C363.413 489.047 363.55 488.713 363.322 488.616C360.937 487.599 358.279 486.996 355.615 486.53C353.964 485.295 351.969 484.302 350.334 483.345C348.086 482.029 345.514 480.095 342.962 479.31C341.848 478.438 340.622 477.721 339.316 477.178C339.65 476.601 339.792 475.932 339.721 475.269C339.493 473.016 337.695 471.76 335.624 471.32C334.907 471.172 334.179 471.081 333.447 471.046C333.439 470.822 333.378 470.602 333.271 470.404C333.164 470.207 333.013 470.037 332.829 469.907L332.708 469.816L332.622 469.745C331.229 468.611 328.47 465.416 331.797 465.188C333.559 465.056 335.052 466.352 336.455 467.233C339.377 469.061 342.202 469.157 345.534 468.702L347.033 468.484L347.281 468.449C349.691 468.135 352.131 468.089 353.478 470.555C354.921 473.193 355.428 475.598 358.339 477.051C361.119 478.439 364.208 478.712 366.76 480.621C369.494 482.657 371.555 485.523 373.793 488.065C378.725 493.655 384.376 498.597 390.199 503.24L391.232 504.06C396.594 508.313 402.123 512.501 408.129 515.777C408.165 515.796 408.205 515.806 408.245 515.807C408.407 515.792 408.529 515.585 408.382 515.443C401.374 508.607 393.176 503.058 385.976 496.404C382.79 493.447 379.736 490.352 376.821 487.128C374.269 484.302 372.006 481.128 369.023 478.722C367.603 477.562 365.995 476.652 364.269 476.034C362.638 475.446 360.805 475.153 359.301 474.256C356.349 472.499 356.638 468.337 353.691 466.448C351.159 464.828 348.086 465.421 345.286 465.805L344.946 465.851C343.134 466.089 341.25 466.297 339.523 465.573C337.802 464.864 336.425 463.532 334.698 462.823C332.288 461.831 328.875 462.064 327.634 464.727C326.455 467.264 328.07 469.563 329.948 471.249C327.386 471.715 325.133 472.955 324.941 475.497L319.3 475.299C312.748 475.072 306.16 474.631 299.603 474.742C299.755 474.074 299.821 473.385 299.826 472.682C299.826 472.292 299.815 471.902 299.785 471.502C299.734 470.818 299.289 470.408 298.621 470.337L297.142 470.175L296.646 470.125C293.871 469.866 290.772 469.811 288.656 471.649C287.521 472.646 286.605 474.935 287.157 476.459C285.866 476.905 284.635 477.477 283.511 478.196C281.294 477.467 278.896 477.508 276.706 478.312L276.442 478.414C274.852 478.996 272.594 480.105 271.733 481.69C273.83 467.411 276.66 453.248 280.215 439.258C282.472 433.662 285.362 428.343 288.828 423.404C297.588 410.983 310.206 402.441 321.538 392.628C322.54 393.732 323.614 394.785 324.627 395.798L325.052 396.228C327.103 398.314 329.245 400.309 331.432 402.254C336.004 406.304 340.815 410.051 345.595 413.859C355.225 421.53 363.934 429.677 371.175 439.693C371.307 439.87 371.666 439.764 371.565 439.526C366.598 427.667 356.294 418.649 346.936 410.284C342.015 405.884 336.982 401.59 332.252 396.982C330.036 394.841 327.913 392.606 325.887 390.283L325.386 389.701C324.07 388.152 320.981 383.422 318.94 386.835C318.735 387.191 318.628 387.594 318.628 388.005C318.628 388.415 318.735 388.819 318.94 389.175C319.523 390.187 320.257 391.159 321.067 392.091C318.201 393.651 315.401 395.301 312.662 397.048C312.819 396.208 312.778 395.276 312.631 394.344L312.581 394.051L312.388 392.896C312.1 391.195 311.953 389.615 313.026 387.954C314.368 385.878 316.905 385.235 318.925 384.035C321.249 382.653 322.464 380.805 323.71 378.455C326.09 373.964 331.483 372.166 336.116 370.718L336.693 370.536C340.972 369.209 345.605 368.495 349.878 369.776C349.48 371.65 348.952 373.494 348.298 375.296C347.6 377.22 346.005 379.346 346.167 381.417C346.278 382.85 347.99 384.379 349.407 383.291C351.423 381.736 351.828 379.215 352.364 376.809C352.886 374.48 353.22 372.1 353.362 369.721C353.487 367.431 353.402 365.134 353.109 362.86L352.896 361.189L352.845 360.799C352.607 359.108 352.258 357.335 351.311 356.009C351.22 355.882 350.987 355.877 350.952 356.054ZM409.334 346.545C409.303 346.682 409.283 346.818 409.263 346.95C409.08 347.69 409.035 348.457 409.131 349.213C409.202 349.862 409.359 350.53 409.572 351.254C410.017 352.798 410.534 354.328 411.101 355.831C412.235 358.809 413.572 361.654 415.223 364.374C418.205 369.29 421.998 373.371 426.469 376.901C425.618 377.61 424.793 378.339 423.957 379.053C419.938 382.534 416.032 386.145 412.245 389.878C405.52 396.487 398.937 403.24 392.503 410.132C389.328 413.53 386.214 416.978 383.12 420.447L383.019 420.563L382.907 420.695C381.809 422.032 379.606 425.216 377.965 424.705C377.14 424.447 376.269 423.206 375.702 422.614L374.664 421.525C374.318 421.161 373.975 420.793 373.636 420.421C367.583 413.776 361.859 406.837 356.486 399.631C352.512 394.292 348.742 388.804 345.184 383.179C344.02 381.331 343.073 379.346 341.351 377.964C340.085 376.951 338.339 377.883 338.658 379.544C339.159 382.157 340.956 384.364 342.379 386.572C346.542 393.066 350.992 399.371 355.716 405.469C358.394 408.922 361.168 412.299 364.036 415.596L364.816 416.497C367.894 420.016 370.917 423.758 374.315 426.973C377.363 429.855 380.69 429.014 383.464 426.214C386.973 422.68 390.229 418.852 393.607 415.186C400.353 407.854 407.17 400.587 414.058 393.387L416.321 391.023C418.97 388.263 421.582 385.468 424.155 382.638L424.484 382.268C427.4 378.967 430.373 374.835 434.525 373.159C434.828 373.037 434.712 372.612 434.388 372.673C431.735 373.164 429.512 374.511 427.451 376.116C425.588 373.01 423.932 369.784 422.494 366.46L423.42 366.055C430.049 363.179 437.512 360.282 444.626 360.748C447.497 360.935 450.551 362.024 452.535 364.191C454.323 366.146 455.219 368.784 456.865 370.87C458.748 373.255 461.209 374.328 464.222 374.43L465.69 374.47C467.377 374.526 468.992 374.617 470.703 374.987C475.336 375.999 480.223 377.635 484.111 380.43C485.524 381.443 486.977 382.835 487.661 384.374C488.339 385.893 488.532 387.676 488.598 389.321C488.628 390.121 488.395 391.175 488.588 391.944C488.567 391.853 488.557 391.904 488.552 391.995C488.235 392.256 487.975 392.58 487.788 392.946C487.6 393.311 487.49 393.712 487.463 394.122C483.59 392.091 479.58 390.314 475.488 388.714C470.931 386.926 466.237 385.498 461.543 384.146C456.951 382.82 452.141 382.273 447.457 381.331C446.859 381.21 446.647 382.02 447.204 382.232C452.13 384.131 456.895 386.385 461.857 388.167C466.82 389.954 471.746 391.889 476.567 394.041C485.884 398.193 494.876 403.474 502.213 410.649C509.378 417.652 514.908 426.158 520.047 434.716C525.213 443.336 529.861 452.257 533.967 461.431C542.106 479.613 548.235 498.629 552.246 518.142C556.16 537.104 558.347 556.746 557.613 576.129C557.269 585.334 556.15 594.545 553.547 603.401C552.323 607.636 550.726 611.755 548.777 615.71C546.701 619.867 543.901 623.574 542.007 627.807C541.865 628.118 541.795 628.457 541.805 628.799C533.718 635.827 521.065 631.093 512.32 626.895C492.188 617.229 472.43 606.657 453.655 594.519C435.122 582.539 417.552 569.172 400.407 555.298C401.733 553.925 402.903 552.386 403.931 550.994C406.039 548.09 407.665 544.865 408.746 541.444C410.033 537.454 410.433 533.19 410.063 529.023L409.962 527.848C409.612 523.914 409.207 519.919 408.351 516.076C408.341 516.025 408.301 516.005 408.26 516.005C408.238 516.005 408.216 516.011 408.198 516.024C408.18 516.037 408.166 516.055 408.159 516.076C405.845 523.519 405.658 531.524 403.055 538.877C401.974 541.863 400.413 544.653 398.432 547.135C397.592 548.199 396.609 549.12 395.597 550.021C395.534 549.561 395.436 549.105 395.303 548.659L395.197 548.305C395.061 547.848 394.881 547.405 394.66 546.983C394.989 546.887 395.308 546.781 395.622 546.664C395.875 546.573 395.926 546.173 395.622 546.107C394.786 545.921 393.935 545.811 393.08 545.778C392.948 545.757 392.814 545.75 392.68 545.758C391.06 545.707 389.409 545.824 387.849 545.849C385.14 545.895 382.442 545.94 379.738 546.062C374.568 546.29 368.725 547.282 363.636 546.077C359.008 544.978 354.451 541.879 350.739 538.968C347.498 536.421 344.997 533.398 342.308 530.375L342.88 530.466L344.617 530.704C346.81 530.993 349.407 531.226 351.149 530.167C351.807 529.762 351.62 528.851 350.942 528.598C349.169 527.95 346.967 528.486 345.078 528.395C343.583 528.335 342.094 528.155 340.627 527.859C340.147 527.759 339.671 527.641 339.199 527.504C335.731 526.502 331.66 522.972 334.414 519.119C334.516 518.972 334.404 518.84 334.262 518.815C334.23 518.809 334.197 518.81 334.165 518.819C334.134 518.828 334.105 518.844 334.08 518.866C330.941 521.468 332.576 526.137 335.538 528.137C336.556 528.831 337.711 529.312 338.906 529.666C338.782 529.884 338.717 530.13 338.717 530.38C338.717 530.63 338.782 530.876 338.906 531.094C341.23 535.246 345.159 538.892 348.84 541.829C352.623 544.841 356.982 547.687 361.671 549.019C367.084 550.548 373.034 549.399 378.522 548.907C381.499 548.643 384.471 548.338 387.439 547.991C388.239 547.9 389.06 547.829 389.9 547.748C389.11 548.791 388.482 549.986 388.077 550.71C386.74 553.044 387.976 556.128 390.558 556.842C390.826 556.917 391.101 556.96 391.379 556.969C392.077 558.371 393.733 559.399 395.267 558.872C395.936 558.645 396.579 558.331 397.191 557.961C406.865 566.455 416.961 574.455 427.441 581.932C446.815 595.845 467.105 608.436 488.172 619.619C492.912 622.126 497.692 624.571 502.512 626.916L506.659 628.926C511.252 631.144 515.951 633.351 520.822 634.724C521.774 634.992 522.771 635.21 523.789 635.377C523.802 635.464 523.805 635.552 523.799 635.64C524.716 635.762 525.521 635.782 526.199 635.696L526.351 635.675C532.331 636.096 538.726 634.627 542.569 630.247C543.212 630.698 544.144 630.749 544.97 630.101C549.117 626.835 551.588 621.857 553.755 617.113C555.947 612.292 557.684 607.278 558.945 602.135C561.477 591.861 562.479 581.268 562.535 570.701C562.722 529.99 552.57 488.925 534.929 452.377C530.475 443.082 525.509 434.041 520.052 425.297C514.594 416.609 508.254 408.532 500.132 402.193C497.803 400.37 495.373 398.709 492.866 397.17C494.547 396.334 495.216 394.208 495.332 392.319C495.595 388.116 495.094 383.281 492.648 379.741C489.215 374.774 483.063 371.705 477.367 370.222C474.381 369.449 471.323 368.984 468.242 368.834C466.658 368.753 465.012 369.017 463.447 368.845C462.07 368.693 461.219 367.867 460.424 366.779C458.394 363.994 457.067 361.072 454.151 359.032C451.163 356.935 447.285 356.135 443.684 356.348C439.482 356.606 435.654 358.267 431.957 360.176C428.616 361.898 425.38 363.806 422.225 365.842C421.643 364.475 421.101 363.108 420.595 361.73C419.607 359.05 418.762 356.318 418.063 353.548C417.354 350.753 417.456 347.061 415.334 344.955C413.486 343.127 409.931 343.841 409.329 346.545H409.334ZM266.118 533.19L266.133 533.195C270.437 535.753 272.488 542.143 274.513 544.938C274.346 545.874 274.23 546.826 274.002 547.712C273.48 549.748 272.797 551.763 272.002 553.708C270.609 557.131 268.862 560.391 267.252 563.713C265.911 566.378 264.722 569.116 263.693 571.916C263.804 572.022 263.9 572.149 263.986 572.311C265.06 574.326 265.9 573.931 267.875 573.491C269.009 570.012 270.645 566.741 272.113 563.399L272.468 562.589L272.822 561.769C274.047 558.913 275.166 556.032 275.815 552.968C276.23 551.019 276.402 549.009 276.422 547.019C277.501 547.905 278.792 548.538 280.412 548.786C283.891 549.313 287.04 547.125 289.871 545.373L290.509 544.983C292.281 543.895 294.043 542.897 296.089 542.386C298.408 541.803 300.808 541.803 303.168 541.505C303.451 541.469 303.735 541.434 304.023 541.388C303.102 544.447 302.676 547.768 302.124 550.832C301.365 555.125 300.742 559.455 300.15 563.779C298.982 572.158 298.188 580.586 297.77 589.036C297.365 597.213 297.567 605.355 297.861 613.528L298.013 617.518C298.129 620.763 298.226 624.009 298.165 627.255C298.006 627.27 297.849 627.296 297.694 627.331C296.063 627.716 294.949 629.387 293.456 630.131C290.306 631.706 286.499 631.685 283.146 630.89C275.521 629.073 269.171 623.731 264.999 617.204C259.986 609.371 258.143 600.15 258.199 590.929C258.27 580.549 259.946 570.625 262.275 560.604L262.427 559.966C264.386 551.616 265.617 533.271 266.123 533.195L266.118 533.19ZM479.701 512.253C479.661 515.043 480.79 518.025 481.413 520.739L483.423 529.509L484.03 532.127C484.537 534.304 485.043 536.492 485.489 538.684C485.853 540.487 486.01 542.867 486.613 544.857C479.438 541.94 472.253 539.059 465.078 536.153C456.242 532.578 447.361 529.099 438.505 525.575C429.679 522.071 420.904 518.081 411.896 515.088C409.754 514.374 408.301 517.807 410.357 518.759C419.501 523.013 429.178 526.35 438.545 530.076L452.095 535.479C464.521 540.431 476.952 545.353 489.443 550.113C497.95 553.348 506.431 556.68 514.994 559.753C519.08 561.222 523.197 562.609 527.262 564.128C530.665 565.399 534.346 567.288 535.607 570.964C535.673 571.151 535.936 571.07 535.906 570.878C535.4 567.323 532.767 565.1 529.804 563.419C525.87 561.181 521.551 559.556 517.399 557.758L516.832 557.515C508.345 553.816 499.812 550.223 491.236 546.735C491.322 546.526 491.368 546.303 491.372 546.077H491.398C491.55 544.487 490.826 543.069 490.304 541.591L488.805 537.342C487.808 534.517 486.912 531.651 485.985 528.8C485.023 525.813 484.046 522.836 483.073 519.858C482.248 517.332 481.696 514.324 480.288 512.071C480.116 511.797 479.645 511.949 479.701 512.253ZM314.601 505.974L314.702 506.516C314.829 507.149 314.95 507.787 314.976 508.43C315.062 510.106 314.874 511.782 314.424 513.402C314.007 515.009 313.364 516.548 312.515 517.975C311.694 519.306 310.505 520.354 309.745 521.722C309.669 521.857 309.618 522.004 309.593 522.157C309.314 522.04 309.03 521.935 308.742 521.843C306.422 521.1 304.06 520.495 301.669 520.03L302.054 520L302.297 519.985C306.297 519.64 310.079 518.329 309.259 513.635C308.803 510.982 306.727 509.205 304.499 507.944L304.226 507.792C304.106 507.724 303.985 507.66 303.861 507.6C305.871 507.255 307.33 506.84 309.796 506.42C311.384 506.15 312.99 506.001 314.601 505.974ZM497.484 448.174C493.55 456.159 490.588 464.651 488.355 473.264C487.272 477.423 486.36 481.624 485.62 485.857L485.382 487.275L485.246 488.034C484.557 491.812 483.686 495.903 484.694 499.584C485.023 500.789 487.013 501.265 487.57 499.964C489.251 496.034 489.013 491.518 489.504 487.31C490.016 482.899 490.709 478.51 491.58 474.155C493.251 465.79 495.6 457.618 498.213 449.506L498.507 448.61C498.73 448.002 497.763 447.612 497.484 448.174ZM346.187 483.897C347.352 484.449 348.531 484.961 349.564 485.467L349.812 485.583C348.638 485.381 347.458 485.199 346.283 485.026C346.293 484.647 346.264 484.269 346.187 483.897ZM300.281 479.897C300.459 479.953 300.616 480.049 300.747 480.176L300.813 480.241C300.975 480.393 301.091 480.571 301.157 480.778C301.259 480.976 301.309 481.188 301.299 481.416L301.243 481.862C301.166 482.14 301.017 482.392 300.813 482.596L300.479 482.854C300.258 482.984 300.01 483.06 299.755 483.077L299.643 483.082H299.304C299.115 483.077 298.93 483.028 298.762 482.94C298.588 482.883 298.429 482.788 298.296 482.662L298.231 482.596C298.071 482.45 297.953 482.265 297.886 482.059C297.798 481.89 297.75 481.703 297.745 481.512V481.416L297.805 480.976C297.872 480.732 297.993 480.507 298.16 480.317L298.231 480.241L298.565 479.978C298.787 479.848 299.037 479.772 299.294 479.755H299.643C299.865 479.745 300.085 479.794 300.281 479.897ZM311.067 479.335C311.948 479.497 312.449 480.566 312.226 481.381C311.978 482.282 311.127 482.682 310.272 482.555L310.186 482.545C309.203 482.354 308.187 482.437 307.249 482.783C306.408 483.092 305.426 482.434 305.208 481.619C304.955 480.692 305.522 479.887 306.363 479.573C307.882 479.016 309.502 479.041 311.067 479.335ZM485.711 420.214C483.706 423.166 482.456 427.085 481.22 430.457L481.094 430.796C479.782 434.341 478.511 437.911 477.336 441.501C474.977 448.671 471.903 456.175 471.336 463.745C471.23 465.142 473.362 465.704 473.979 464.464C475.752 460.904 476.704 457.192 477.757 453.375C478.759 449.729 479.802 446.103 480.845 442.473C481.889 438.847 482.896 435.212 483.924 431.576C484.927 428.047 486.314 424.118 486.547 420.437C486.572 419.961 485.939 419.874 485.711 420.214ZM440.444 396.456C437.76 398.319 435.573 401.048 433.304 403.383C431.006 405.752 428.737 408.142 426.494 410.558C422.737 414.603 419.051 418.71 415.243 422.7C407.658 430.655 399.075 437.976 388.604 441.713C386.067 442.62 387.176 446.701 389.718 445.779C400.427 441.88 409.298 434.67 417.126 426.518C421.177 422.295 424.899 417.778 428.529 413.186C430.226 411.039 431.907 408.882 433.568 406.704L434.565 405.393C436.651 402.628 439.203 399.874 440.732 396.75C440.819 396.572 440.631 396.324 440.444 396.456Z" fill="#2B283A"></path><path fill-rule="evenodd" clip-rule="evenodd" d="M312.358 272.34C315.203 237.513 323.867 206.671 364.578 205.355C382.948 205.522 401.703 209.441 418.595 216.687C459.66 237.361 472.683 312.888 436.51 343.29C436.564 343.324 436.61 343.371 436.642 343.427C436.674 343.483 436.691 343.546 436.692 343.611C436.693 343.675 436.678 343.739 436.648 343.796C436.618 343.853 436.574 343.902 436.52 343.938C429.046 348.991 420.742 353.143 412.417 356.632C390.255 366.04 364.162 370.126 341.564 359.923C307.066 345.188 306.55 304.179 312.358 272.34Z" fill="white"></path><path fill-rule="evenodd" clip-rule="evenodd" d="M244.461 256.106C243.025 254.804 241.983 253.125 241.454 251.26C240.949 249.524 240.949 247.68 241.454 245.944C242.006 244.106 243.201 242.642 242.932 240.728C242.905 240.533 242.864 240.34 242.811 240.151C241.773 236.546 239.221 233.943 240.137 229.948C240.39 228.819 240.876 227.806 241.555 227.011C241.478 226.139 241.412 225.267 241.357 224.393C240.616 222.622 240.247 220.718 240.273 218.798C240.299 216.878 240.72 214.984 241.509 213.233C241.707 211.461 242 209.704 242.416 207.978C242.255 206.441 242.447 204.887 242.978 203.436C243.839 201.086 244.902 198.767 246.051 196.489C245.901 195.854 245.997 195.186 246.32 194.62C246.942 193.557 247.768 192.625 248.608 191.709C249.201 190.645 249.798 189.582 250.396 188.539C250.669 188.058 250.973 187.526 251.307 186.964C250.396 185.263 249.91 183.607 250.872 181.607C251.089 181.22 251.406 180.9 251.79 180.679C252.174 180.458 252.611 180.345 253.054 180.351C253.95 180.402 254.857 180.442 255.768 180.478C257.469 178.417 259.399 176.564 261.465 175.495C263.561 173.718 265.682 171.966 267.743 170.179L269.505 168.66L269.515 168.619C269.946 167.039 270.432 165.48 270.918 163.92C271.222 162.948 271.313 161.935 272.255 161.404C274.219 160.305 277.237 160.128 279.496 159.94L280.164 159.343C279.141 156.608 279.323 153.697 280.615 150.953C281.055 150.021 282.579 149.601 283.415 150.218C285.349 151.641 287.643 152.142 289.906 151.94C293.243 149.368 306.682 137.732 308.763 136.506L308.834 136.375C309.998 134.501 311.416 132.997 313.016 131.792L313.7 131.078C313.487 129.485 312.838 127.982 311.826 126.734C310.337 124.962 312.15 122.683 314.226 123.61L314.672 123.812C316.267 124.521 318.029 125.301 319.862 125.954C320.535 125.701 321.219 125.473 321.847 125.22L328.531 122.521C329.634 122.075 330.799 121.701 331.862 121.179C332.237 118.698 334.713 117.073 337.28 117.154C337.08 116.51 336.747 115.915 336.303 115.407C334.986 113.862 336.749 111.002 338.637 112.369L339.042 112.657C339.569 113.027 340.106 113.376 340.647 113.711C341.097 113.505 341.584 113.393 342.079 113.382C342.573 113.371 343.065 113.46 343.523 113.645C345.797 114.541 347.888 115.447 349.888 116.845C349.969 116.906 350.05 116.951 350.136 117.007C351.129 115.802 352.704 114.997 354.121 115.007H354.197C355.261 113.381 357.205 112.44 359.084 112.667C358.957 110.338 361.276 108.262 363.388 108.009C364.571 107.854 365.77 108.128 366.768 108.782C367.766 109.436 368.496 110.427 368.826 111.574L369.449 113.594C371.352 112.603 373.39 111.898 375.499 111.503C380.315 110.657 385.019 111.559 389.662 112.9L391.049 113.311C391.708 112.541 392.336 111.756 392.923 111.017C393.951 109.751 396.407 110.764 396.245 112.394C396.182 112.87 396.248 113.355 396.437 113.797C396.626 114.239 396.93 114.622 397.318 114.906C398.123 115.027 398.898 115.057 400.073 115.037C401.627 115.007 402.331 114.956 403.956 114.323C404.711 114.024 405.653 113.25 406.093 112.551C407.779 109.877 412.068 109.158 414.114 111.705C416.266 110.764 418.98 112.065 420.175 113.903C420.797 114.865 422.099 115.402 423.744 115.863C424.975 116.212 426.236 116.47 427.502 116.703C428.064 115.933 429.253 115.417 430.119 116.06C430.712 116.501 431.284 116.951 431.851 117.407C436.206 118.015 440.54 118.035 444.692 116.328C448.211 114.885 451.442 118.83 450.859 122.141C451.877 122.673 452.986 123.027 453.989 123.584C456.186 124.8 457.989 126.724 459.088 128.987C459.28 129.392 459.462 129.802 459.629 130.218C460.45 130.886 461.26 131.575 462.055 132.304L466.004 130.268C466.992 129.762 468.653 130.116 468.845 131.428C469.169 133.59 469.944 135.387 471.048 136.886C474.643 138.785 478.106 140.917 481.418 143.286C485.23 144.481 489.281 145.18 492.608 145.97C493.747 146.238 494.37 147.732 493.727 148.73L491.691 151.889C493.585 153.743 495.362 155.687 497.044 157.687C501.717 163.267 505.626 169.384 509.125 175.855L513.277 177.536C514.614 178.078 515.211 179.632 514.133 180.776C513.627 181.309 513.169 181.885 512.766 182.498C514.725 185.759 517.034 188.731 520.26 190.681C521.242 191.268 521.981 192.2 522.376 193.253C522.71 193.476 523.045 193.719 523.369 193.962C524.28 194.656 524.837 196.159 523.764 197.051C522.992 197.702 522.304 198.445 521.713 199.263L521.318 200.681C524.315 203.431 526.809 206.681 528.69 210.287C528.907 210.24 529.131 210.239 529.349 210.281C529.566 210.324 529.773 210.41 529.956 210.535C533.308 213.016 533.404 216.975 532.058 220.515C532.868 225.847 532.351 231.31 530.782 236.475C532.842 238.541 534.083 241.518 534.589 244.389C535.48 249.437 535.541 257.19 535.774 262.339C538.022 264.517 539.622 267.337 540.514 270.365L542.762 271.489C543.43 271.823 543.916 272.699 543.876 273.438C543.688 277.023 542.215 279.854 540.26 282.416C539.546 284.418 538.513 286.292 537.202 287.966C536.275 289.161 535.364 290.31 534.569 291.606C534.483 291.738 534.432 291.859 534.397 291.94C534.711 292.28 534.974 292.847 535.202 293.252C537.116 296.639 537.146 300.609 534.427 303.556C535.45 304.402 535.48 306.098 534.579 307.136C528.695 313.886 523.794 322.088 515.632 325.668C515.594 325.729 515.561 325.791 515.53 325.856C517.186 329.856 517.409 331.932 516.057 336.059L516.027 336.165C515.302 338.332 513.976 341.796 511.586 342.469C510.826 342.682 510.087 342.778 509.358 342.773C507.454 344.611 505.56 346.449 503.667 348.292C503.505 349.203 503.398 350.12 503.363 351.047C503.312 352.601 501.859 353.857 500.289 353.401C499.737 353.239 496.689 350.262 496.127 350.277C495.843 350.56 495.57 350.844 495.297 351.133C494.289 352.196 492.897 353.867 492.78 354.981C492.552 357.072 491.185 359.467 488.977 359.892C488.147 360.738 486.82 360.991 485.808 359.892C485.743 359.82 485.676 359.751 485.605 359.685L485.281 359.644L483.813 364.039C482.851 366.915 479.154 368.769 476.536 367.088C476.116 367.341 475.701 367.614 475.286 367.883C474.653 368.288 474.02 368.698 473.362 369.088C473.325 369.194 473.289 369.3 473.255 369.407C472.83 370.698 471.078 371.397 469.989 370.652C467.882 371.317 465.617 371.287 463.528 370.566C462.262 370.136 461.057 369.305 459.7 369.194H459.442C458.328 371.473 455.796 373.437 453.796 374.106C451.183 374.982 448.505 374.668 446.12 373.599C445.466 374.907 444.655 376.13 443.705 377.24C443.173 377.863 442.206 377.731 441.654 377.24C440.609 376.309 439.568 375.374 438.53 374.435C437.775 374.141 437.016 373.792 436.226 373.473C433.745 372.455 431.036 372.03 428.742 370.566C427.628 369.853 426.631 368.97 425.79 367.948C424.198 367.016 422.734 365.881 421.435 364.571C420.738 364.572 420.05 364.406 419.43 364.085C416.661 362.667 415.197 359.786 415.071 356.844C412.821 351.52 411.489 345.853 411.131 340.084C411.004 338.179 411.008 336.267 411.141 334.362C411.243 333.02 411.577 332.124 412.083 330.914C412.25 330.519 412.407 330.155 412.524 329.76L412.463 325.911C412.104 324.805 411.482 323.803 410.65 322.99C409.334 321.683 408.726 318.969 409.926 317.354L412.271 314.22C412.053 309.739 410.984 302.604 413.354 301.855C413.258 301.191 413.055 300.533 412.939 299.87C412.382 296.69 412.716 293.849 414.397 291.069C414.752 290.492 415.05 289.981 415.293 289.48L415.754 286.735C415.992 285.317 416.225 283.9 416.423 282.467L416.726 276.998C416.818 275.312 416.929 273.631 417.04 271.945C416.996 271.19 416.926 270.437 416.833 269.686C416.266 265.195 414.438 263.534 411.268 260.415C410.775 260.337 410.284 260.247 409.794 260.147C407.536 259.676 405.172 258.947 402.847 259.21C400.321 259.494 398.062 260.587 395.607 259.19C394.888 258.775 393.298 257.625 393.161 256.714C393.156 256.663 393.144 256.614 393.125 256.567C392.951 256.541 392.775 256.524 392.599 256.516C390.649 256.45 388.791 257.225 386.826 257.007C384.497 256.759 382.421 255.721 381.054 254.187C379.297 254.622 377.51 254.815 375.687 254.577C374.192 254.37 372.75 253.88 371.439 253.134C370.456 252.602 370.77 252.45 369.702 252.881C367.271 253.873 365.064 255.179 362.324 254.501C360.921 254.136 359.647 253.39 358.643 252.344C358.4 252.101 357.985 251.736 357.706 251.397C356.405 252.06 353.129 253.554 352.592 253.691C351.068 254.06 349.453 254.005 347.964 253.503C346.876 253.139 345.544 252.136 344.582 251.934C343.346 251.67 340.592 253.402 339.113 253.995C336.516 255.043 333.766 255.301 331.138 254.222C330.237 253.853 328.48 252.374 327.806 252.384C326.708 253.746 323.639 261.195 322.718 263.909C318.991 274.897 318.024 309.202 319.745 317.952L319.948 318.726C322.064 326.337 324.267 334.079 327.806 341.168C331.143 347.851 335.756 353.872 342.374 357.523C349.24 361.31 357.296 362.303 365.018 361.791C369.985 361.467 374.872 360.465 379.682 359.209C382.193 358.551 384.685 357.827 387.166 357.067C388.244 356.738 389.343 356.429 390.406 356.049C392.28 355.371 393.262 355.315 395.055 356.186C396.69 356.976 397.11 359.31 396.26 360.779C394.872 363.179 392.336 363.341 389.89 364.045C387.395 364.763 384.887 365.431 382.366 366.05C377.54 367.214 372.634 368.111 367.681 368.521C358.82 369.265 349.686 368.116 341.62 364.232C340.72 363.798 339.84 363.325 338.982 362.814C339.295 363.255 339.614 363.695 339.939 364.131C340.83 365.346 340.166 367.407 338.911 368.065C338.516 368.273 338.116 368.47 337.716 368.673C337.665 368.799 337.604 368.926 337.538 369.057C336.389 371.371 333.984 372.739 331.533 373.326C328.627 374.025 325.366 373.528 322.409 373.442L314.181 373.189C313.532 373.174 312.884 373.157 312.236 373.139L302.474 372.84C299.572 372.754 299.709 372.977 296.985 371.812C295.806 371.311 294.761 370.539 293.937 369.559C293.414 369.328 292.908 369.06 292.423 368.759C290.847 367.725 289.426 366.472 288.205 365.037C286.038 365.726 282.995 365.088 282.574 362.353C281.896 357.978 276.235 356.11 273.587 352.945C271.455 350.393 269.926 347.051 270.007 343.846C264.624 341.228 261.703 334.342 261.014 328.504C260.695 325.79 260.746 322.888 260.285 320.134C260.084 319.917 259.904 319.681 259.748 319.43C258.396 317.238 257.216 314.974 256.183 312.665C254.756 311.629 253.063 311.021 251.302 310.913C246.942 310.66 246.122 304.751 250.279 303.328L250.335 303.308C249.771 301.889 249.509 300.368 249.568 298.842C249.626 297.315 250.003 295.819 250.674 294.447C250.617 294.159 250.561 293.87 250.507 293.581C248.142 291.022 246.876 287.636 246.983 284.153C245.902 283.386 244.696 282.812 243.418 282.456C241.398 281.899 241.388 279.423 242.876 278.32C243.484 277.874 243.975 277.352 244.396 276.78C243.363 273.666 243.768 270.066 245.874 267.514L241.859 262.339C240.973 261.2 240.502 259.266 241.859 258.187L244.461 256.106Z" fill="#2B283A"></path><path fill-rule="evenodd" clip-rule="evenodd" d="M351.453 295.708C346.369 292.781 333.604 289.794 332.794 298.984C332.424 303.212 335.554 306.716 339.214 308.28L339.351 308.341C342.779 309.759 348.86 311.354 351.828 308.285C354.299 305.728 351.023 301.146 347.954 303.242C346.374 304.316 343.053 303.526 341.296 303.014L341.184 302.979C339.285 302.422 336.749 300.624 337.538 298.275C338.232 296.199 341.189 295.819 343.042 295.753C345.807 295.652 348.501 296.295 351.24 296.508C351.671 296.538 351.807 295.91 351.453 295.708ZM330.384 280.927C323.477 280.603 319.183 288.168 320.773 294.371C321.047 295.444 322.242 296.498 323.386 296.371L323.68 296.346C323.825 296.334 323.969 296.311 324.11 296.275C325.204 295.971 326.186 294.832 326.1 293.647L326.08 293.303C325.918 290.376 326.232 286.999 329.705 286.29C332.642 285.687 334.288 288.528 334.323 291.146C334.328 291.611 334.85 291.935 335.255 291.682C337.381 290.386 337.751 287.804 336.941 285.576C335.908 282.755 333.336 281.069 330.384 280.927ZM381.621 282.548C376.593 280.867 371.175 283.56 368.74 288.016C367.889 288.264 367.033 288.928 367.155 289.94C367.327 291.394 367.58 292.31 368.588 293.414C370.157 295.136 373.104 294.254 373.753 292.133L373.783 292.032C374.527 289.287 377.535 287.474 380.279 288.437C383.485 289.561 383.393 292.958 385.637 294.938C385.755 295.05 385.907 295.121 386.068 295.142C386.23 295.163 386.395 295.133 386.538 295.055C388.923 293.895 388.492 290.411 387.642 288.416C386.528 285.798 384.355 283.469 381.616 282.553L381.621 282.548ZM388.462 267.231C384.391 263.063 373.778 259.028 370.993 266.724C370.456 268.193 371.585 270.173 373.109 270.476C375.601 270.973 377.808 269.889 380.284 270.081C382.29 270.243 384.376 270.912 385.981 272.157C390.416 275.611 391.394 281.449 394.488 285.839C394.634 286.057 394.923 285.966 394.953 285.712C395.657 279.317 392.923 271.798 388.462 267.231ZM335.361 263.129C332.662 262.167 329.599 262.253 326.885 263.099C324.128 263.977 321.652 265.566 319.705 267.707C318.824 268.669 318.014 269.737 317.36 270.871C317.016 271.469 316.652 272.714 316.257 273.454C314.13 274.684 313.219 277.494 315.122 279.494L315.208 279.586L315.462 279.839C315.971 280.349 316.607 280.715 317.305 280.9C318.002 281.085 318.736 281.082 319.431 280.892C322.561 279.981 322.94 277.504 324.024 274.882C324.738 273.145 325.968 271.611 327.452 270.481C330.966 267.818 336.723 266.972 340.951 268.228C341.179 268.294 341.442 268.005 341.28 267.798C340.48 266.755 340.015 265.899 338.946 265.063C337.866 264.225 336.655 263.574 335.361 263.129Z" fill="#2B283A"></path><path fill-rule="evenodd" clip-rule="evenodd" d="M308.732 297.368C312.535 302.138 327.432 307.439 335.361 301.687C343.291 295.935 346.425 291.924 347.483 284.739C347.595 283.975 348.977 283.463 349.559 284.005C352.825 287.053 354.942 290.932 357.038 294.826C359.398 299.211 361.727 303.626 366.021 306.593C373.626 310.69 387.389 311.272 391.449 309.464C399.237 306.006 405.399 298.608 406.802 288.431C406.802 288.431 408.225 283.914 409.476 282.962C410.655 282.066 417.187 281.261 417.901 281.129C430.793 278.729 447.097 277.195 458.581 285.646C460.131 286.588 465.452 290.132 465.533 289.261C465.584 285.848 461.736 278.121 452.976 274.45C442.14 269.903 426.038 269.64 416.711 270.643C416.245 270.693 414.645 270.298 414.534 270.248C400.397 264.106 384.138 265.741 369.013 268.324C366.846 268.744 347.448 273.564 339.731 270.643C326.971 265.412 313.375 261.63 299.598 263.118C299.481 263.128 297.744 273.726 299.096 274.45C300.175 275.023 302.008 276.501 302.661 277.306C303.313 278.112 303.64 279.132 303.578 280.167C303.319 287.357 305.36 293.135 308.732 297.368ZM361.185 290.952C359.565 288.603 359.058 283.327 359.732 279.473C360.076 277.524 360.744 275.974 361.58 275.2C361.826 274.957 362.121 274.767 362.444 274.644C362.767 274.52 363.113 274.464 363.458 274.481C363.889 274.508 364.308 274.633 364.684 274.845C370.568 271.655 377.697 270.501 384.452 270.83C389.829 270.83 393.667 272.106 396.27 274.091C399.399 276.476 400.812 279.909 400.893 283.63C400.989 288.046 399.181 292.876 396.219 296.699C393.384 300.36 389.5 303.074 385.287 303.697C380.507 304.649 375.636 303.727 371.403 301.474C366.984 299.117 363.412 295.439 361.185 290.952ZM314.019 293.444C311.294 290.208 309.482 286 309.208 281.833C308.955 278.035 309.968 274.278 312.763 271.174C315.3 268.987 319.781 268.951 324.5 270.172C330.596 271.741 336.906 275.261 339.007 277.534C339.498 277.792 339.959 278.248 340.359 279.22V279.57C340.955 282.49 340.663 285.522 339.518 288.274C338.273 291.307 336.297 293.986 333.766 296.071C330.445 298.821 326.971 299.667 323.725 299.221C320.044 298.715 316.621 296.522 314.019 293.444Z" fill="white"></path><path fill-rule="evenodd" clip-rule="evenodd" d="M340.172 269.473C327.255 264.177 313.446 260.359 299.461 261.878C298.307 261.433 296.874 261.807 296.357 263.448C291.38 278.674 302.484 274.441 302.332 280.132C301.167 312.057 343.903 317.506 348.714 284.922L348.8 284.973C355.716 291.454 357.17 301.986 365.317 307.622C381.743 319.688 405.035 310.128 408.022 288.654L408.088 288.365C409.096 283.98 410.296 282.897 415.248 282.917L416.028 282.76C428.894 280.213 446.029 277.929 457.883 286.679C460.455 288.183 460.576 292.051 462.754 293.733C465.144 294.198 466.612 291.317 466.774 289.327C467.154 269.448 431.725 268.015 415.856 269.721C415.552 269.408 414.904 269.448 414.691 269.838C400.336 263.6 384.168 264.466 368.806 267.088C359.286 268.937 349.888 273.149 340.172 269.473ZM300.752 265.544C308.499 265.154 315.674 265.58 323.285 267.453C327.29 268.425 330.374 269.651 334.207 271.129C358.152 281.778 360.912 262.845 414.58 270.268C413.886 273.256 413.759 276.208 413.719 279.013C402.761 278.572 405.344 289.074 401.237 296.457L401.111 296.679C395.126 307.444 381.009 312.462 369.616 305.323C360.117 299.763 359.19 285.661 349.731 280.066C341.529 279.742 344.805 290.851 340.344 295.419C334.065 303.834 320.707 305.014 312.834 297.095C309.207 293.392 307.141 288.438 307.061 283.256C306.859 279.94 307.426 276.562 304.925 274.228C303.173 272.441 300.064 273.038 299.699 270.339C299.476 268.739 300.14 267.007 300.752 265.544ZM384.999 269.899C377.302 269.514 369.15 270.861 362.537 274.648C357.646 270.739 356.446 286.279 359.691 290.775C364.375 300.386 375.272 306.71 385.763 304.609C402.128 302.229 413.537 269.873 384.999 269.899ZM363.008 275.691L363.428 275.631C370.517 274.542 389.834 269.504 397.283 277.453C404.513 290.634 386.173 312.771 367.084 295.14C361.772 289.707 359.717 283.125 363.008 275.691ZM340.526 277.377C336.855 273.008 318.135 264.162 311.608 269.838C299.694 283.241 318.586 310.346 334.404 297.14C339.675 292.725 343.144 285.697 341.625 278.881V278.598C341.62 278.496 341.599 278.517 341.488 278.39C341.408 278.163 341.281 277.955 341.115 277.781C340.95 277.606 340.749 277.469 340.526 277.377ZM311.775 285.499C307.755 263.625 324.546 271.939 338.334 277.777C337.589 278.456 337.594 279.383 337.807 280.147C339.26 296.376 319.619 305.571 311.775 285.499ZM416.134 270.785C421.886 272.739 459.923 269.245 463.437 287.145C459.726 281.114 452.044 278.719 445.138 277.423C435.745 275.651 426.403 276.674 417.137 278.537L416.949 276.613C416.747 274.567 416.529 272.663 416.134 270.79V270.785Z" fill="#2B283A"></path><path fill-rule="evenodd" clip-rule="evenodd" d="M360.559 336.365C365.275 334.269 369.467 331.125 372.087 327.457C373.135 325.885 373.659 324.314 373.135 323.266C373.069 322.508 372.854 321.77 372.501 321.096C372.149 320.421 371.667 319.823 371.082 319.336C370.498 318.849 369.823 318.482 369.096 318.257C368.369 318.033 367.604 317.954 366.847 318.026C366.079 318.162 365.352 318.468 364.717 318.921C364.082 319.374 363.557 319.964 363.179 320.646C361.083 323.266 358.987 325.362 356.367 326.409C353.748 327.457 351.128 328.505 348.508 327.981C342.744 327.457 339.076 324.314 334.885 320.122C334.356 319.603 333.832 319.079 333.313 318.55C333.02 318.279 332.657 318.097 332.265 318.026H330.693C330.057 318.168 329.496 318.541 329.121 319.074C328.96 319.585 328.96 320.134 329.121 320.646C329.121 324.838 331.217 328.505 334.36 331.125C337.794 334.372 342.073 336.585 346.707 337.512C351.34 338.438 356.141 338.041 360.559 336.365Z" fill="#2B283A"></path></svg>