<svg xmlns="http://www.w3.org/2000/svg" width="322" height="452" viewBox="0 0 322 452" fill="none"><path fill-rule="evenodd" clip-rule="evenodd" d="M9.62699 444.056C1.7697 443.714 4.84425 430.391 5.52749 425.608C11.3351 407.502 9.96857 388.03 12.3599 369.241L17.4842 316.973C20.9005 281.102 43.1059 209.02 68.7275 197.405C72.1437 183.057 85.8087 170.075 102.548 170.075C114.163 156.41 128.17 146.162 145.934 148.553C153.45 148.553 160.624 156.752 167.456 158.119C171.556 158.802 206.743 157.094 213.575 161.535C218.699 163.926 223.141 168.367 221.432 174.516C219.383 181.349 226.557 173.833 241.246 181.349C271.992 199.796 253.545 224.393 252.862 225.076C271.651 251.381 288.39 272.903 295.906 305.016C301.03 328.929 300.347 353.526 304.788 377.781C306.345 386.096 308.398 394.309 310.937 402.378C313.329 412.627 314.695 439.273 316.062 439.615C318.795 440.298 314.695 445.764 311.962 445.764C233.731 458.404 154.474 446.106 75.9015 444.056C53.6961 443.373 31.4908 443.031 9.62699 444.056Z" fill="white"></path><path fill-rule="evenodd" clip-rule="evenodd" d="M127.828 227.469H127.145L126.803 232.594L125.095 252.066C124.439 260.253 123.983 268.454 123.729 276.663C123.045 305.017 123.046 333.372 123.046 362.068C116.557 361.479 110.066 360.91 103.573 360.36H96.7407L94.0078 360.018C92.2997 360.018 90.2499 359.335 88.8835 361.043C88.5418 361.727 88.2002 362.41 88.8835 363.435C89.9083 365.143 91.6164 365.143 93.3245 365.143H98.7904C106.758 365.57 114.729 365.911 122.704 366.168C122.704 378.124 123.387 390.081 124.07 402.038V407.504L126.803 451.231C126.803 452.256 128.511 452.256 128.511 451.231C130.236 422.789 131.375 394.315 131.928 365.826H180.096C180.066 365.878 180.051 365.937 180.051 365.997C180.051 366.057 180.066 366.116 180.096 366.168C178.73 368.901 178.73 372.317 178.73 375.05C178.73 378.466 179.071 381.541 180.096 384.615C182.488 395.889 189.662 406.137 197.177 414.336H197.519C199.569 416.728 201.619 418.436 202.643 421.169C204.01 423.56 204.352 426.635 205.035 429.368L207.084 439.958C208.109 443.374 208.109 448.157 210.501 450.207C213.234 452.598 216.308 451.573 217.333 448.499C218.358 446.449 217.333 444.057 217.333 441.666L212.892 424.585C212.295 421.602 211.259 418.723 209.817 416.044C208.451 413.653 206.401 411.603 204.01 409.554C195.506 402.06 188.843 392.708 184.538 382.224C183.513 379.833 182.488 377.1 182.146 374.367L180.78 366.509V365.826H180.438L167.798 364.801C156.521 364.182 145.247 363.499 133.977 362.751H132.269L131.928 314.924C131.928 300.235 131.928 285.545 131.244 271.197C131.244 263.681 130.561 256.507 129.878 249.333L127.828 227.469ZM246.371 311.85C246.371 311.167 245.346 310.483 245.004 311.167C239.853 319.438 236.695 328.795 235.781 338.496C235.042 347.363 235.042 356.276 235.781 365.143L237.489 393.156L238.172 407.504L240.563 443.374C240.563 445.766 241.247 448.157 243.638 449.523L244.663 450.207C245.688 450.89 247.396 450.207 248.079 449.182H247.738L248.421 448.84L249.104 447.815C249.787 447.132 250.129 446.449 250.129 445.424V441.324L248.421 417.753L245.004 363.093C244.021 346.004 244.479 328.862 246.371 311.85ZM199.91 154.362H199.569C188.776 152.01 177.513 153.208 167.456 157.778H170.873C180.78 157.778 190.687 157.437 200.252 159.828H201.277C204.693 160.853 208.451 161.878 211.525 164.269C213.917 166.319 215.283 169.735 216.65 172.81V173.493C217.872 176.666 220.013 179.402 222.799 181.35C226.215 183.742 230.998 183.742 235.097 184.083C242.613 184.425 248.762 189.891 252.179 196.723C253.887 200.823 254.57 205.264 254.57 209.705V216.537L253.203 219.954C252.179 219.612 251.154 219.954 250.812 220.978C237.167 208.186 221.46 197.791 204.352 190.233C204.801 190.13 205.268 190.13 205.718 190.233H206.06C204.01 187.841 201.619 187.5 199.227 188.183C198.775 187.949 198.319 187.722 197.861 187.5C197.861 187.5 197.519 187.841 197.861 188.183H198.202C195.811 189.208 193.078 190.916 191.37 192.282C185.562 196.04 180.438 200.823 175.314 205.264L174.289 206.289C167.449 212.34 159.874 217.505 151.742 221.662C149.35 222.687 144.909 223.37 143.884 226.103C142.86 227.469 143.201 228.836 144.568 229.519C146.617 232.252 150.717 230.544 153.108 229.519C156.525 228.494 159.257 227.128 161.99 225.42C167.115 222.345 172.239 218.587 176.68 214.488L190.687 200.823L196.836 195.015L197.861 193.99L201.96 190.574L210.842 196.04C222.958 203.539 234.288 212.237 244.663 222.003C256.961 233.96 267.21 247.625 276.434 261.973L277.117 262.998C288.657 279.951 295.602 299.608 297.273 320.049L299.664 351.82C300.689 362.41 303.08 373 305.471 383.59L306.155 385.982C309.988 400.504 312.278 415.39 312.987 430.393C312.987 435.517 311.962 440.641 311.621 445.766C311.279 447.815 313.329 449.523 315.037 449.865C317.087 449.865 318.453 448.84 319.136 446.79C322.06 434.794 322.177 422.286 319.478 410.237C317.428 397.939 314.012 386.323 311.279 374.367C308.546 364.118 306.838 353.528 306.155 342.937C305.13 331.664 304.447 320.732 302.739 309.458C301.118 298.677 297.894 288.198 293.173 278.371C283.183 258.486 270.159 240.276 254.57 224.395L256.961 223.711C259.011 222.345 260.377 219.612 260.377 216.879C261.177 211.191 260.946 205.404 259.694 199.798C257.303 190.574 251.154 182.717 241.93 179.301C239.714 178.63 237.413 178.285 235.097 178.276C232.365 178.276 229.973 178.276 227.582 177.593C224.166 176.568 222.799 172.468 221.433 169.052C220.036 164.947 217.412 161.37 213.917 158.803C209.728 156.371 205.07 154.857 200.252 154.362H199.91ZM98.4488 170.418C95.0326 169.052 91.2748 170.418 88.2002 171.102C81.0604 173.543 75.1694 178.697 71.8024 185.45L71.4606 185.791C69.7525 189.208 68.0445 193.649 68.7277 197.065C62.5785 200.481 56.7709 204.239 51.6466 209.363C45.6987 215.159 40.5309 221.705 36.2736 228.836C21.5633 258.069 14.0663 290.399 14.4098 323.123L13.7267 331.322C12.7018 348.745 11.6768 366.509 8.26063 383.932V385.298C4.50279 403.404 -0.62141 421.51 0.0618336 440.3C0.0618336 446.107 8.26075 445.766 8.60237 440.3C9.62724 419.461 14.4098 399.305 17.826 378.808C23.6336 342.596 20.559 305.017 28.7579 269.489C33.6201 248.338 43.0664 228.513 56.4294 211.413C60.5289 206.972 64.9698 202.531 69.7525 198.431C71.119 200.14 74.1936 199.115 74.8768 197.065L75.9017 192.282C75.9017 190.574 76.585 188.866 77.2682 187.841C79.5742 181.86 83.9337 176.895 89.5665 173.835C92.2995 172.127 95.3742 171.785 98.4488 170.418ZM86.1503 363.776H85.8088C84.4423 364.801 83.7591 366.168 83.0759 367.193C80.2281 371.743 76.9072 375.98 73.1687 379.833C71.0058 382.222 68.7255 384.502 66.3363 386.665L58.4791 393.497C53.3547 399.305 52.6715 406.821 51.6466 413.995V414.336L49.597 426.976L48.9137 433.126V433.809C48.9137 435.858 48.9136 437.567 49.9385 439.616C50.9634 441.324 53.6963 442.008 55.4044 440.3C58.1373 436.883 57.7959 431.759 58.1375 427.66C58.1375 424.243 58.8207 421.169 59.1623 418.094V416.386L61.212 405.113C61.8952 401.696 63.2617 399.647 65.653 397.255L72.4855 390.423C76.702 385.249 80.1534 379.497 82.7341 373.342H83.0759C84.1007 370.267 86.1503 366.851 86.1503 363.776ZM45.1557 247.625C44.8141 246.942 44.1309 246.942 44.1309 247.625V257.19C43.4477 283.495 44.131 309.459 41.0564 335.763C39.7122 348.056 37.6589 360.261 34.9071 372.317L30.8078 390.764C29.4413 396.914 28.0748 403.063 27.3916 408.87C26.0251 415.02 25.3417 421.169 24.6584 426.976V428.001C24.6584 430.734 23.6336 434.834 25.3417 437.567C27.0498 440.641 30.466 440.641 32.1741 437.567C34.2239 435.517 33.5406 430.734 33.8822 428.001C34.8643 418.856 36.1176 409.742 37.6402 400.671C39.6899 388.373 42.7644 376.075 45.1557 363.776C47.719 351.179 49.0916 338.369 49.2552 325.515C49.2552 312.533 47.8888 299.893 47.2056 286.911L44.8142 247.283L45.1557 247.625ZM168.823 165.636C168.14 163.586 165.407 162.22 163.357 162.561C160.966 163.244 159.257 165.977 159.941 168.369C160.966 170.76 162.674 172.81 164.04 175.201C165.407 177.251 167.456 178.959 168.481 181.009L167.115 182.717L164.723 184.767L162.332 187.5C153.235 196.807 143.411 205.375 132.953 213.121L132.269 213.463C131.244 214.146 129.878 214.829 128.853 214.829C125.437 214.829 122.704 211.413 120.312 209.022C114.847 203.897 110.064 198.09 105.623 191.941C104.57 190.596 103.545 189.229 102.548 187.841C104.94 185.45 104.256 180.667 104.256 177.593V170.76C104.256 169.394 104.598 168.369 103.573 167.344C102.207 167.686 101.865 168.71 101.523 170.077L99.4736 174.518L97.7655 178.959C97.2882 180.089 96.8325 181.228 96.399 182.375L95.7159 183.058C95.0327 183.4 94.6909 184.083 94.3493 185.108C93.6661 186.816 95.0326 188.524 96.0574 190.233C102.255 199.747 109.726 208.367 118.263 215.854L118.604 216.537C121.337 218.587 124.07 220.637 127.487 221.32C131.586 221.662 134.661 219.954 137.735 217.562C146.783 210.774 155.136 203.107 162.674 194.674C167.115 189.208 171.897 183.058 174.63 176.226C174.63 175.884 174.63 175.543 173.947 175.884L169.848 179.984V173.493C169.848 171.102 169.848 168.369 169.165 165.977L168.823 165.636Z" fill="#2B283A"></path><path fill-rule="evenodd" clip-rule="evenodd" d="M58.8206 110.29C61.5536 91.842 67.3612 73.736 68.0444 54.9468L69.7525 31.0333C69.7525 25.909 76.5851 24.2009 78.6348 28.642C84.4424 22.4928 94.691 23.5177 102.548 23.5177C147.642 25.2258 191.028 55.9717 206.743 98.6744L206.401 102.091C213.575 126.004 187.954 141.719 170.531 152.651C154.748 168.811 133.324 178.237 110.747 178.956C108.014 178.956 106.306 176.906 105.965 174.856C102.548 173.831 95.7158 174.856 93.6661 171.098C82.1641 165.962 72.5913 157.305 66.3284 146.376C60.0655 135.446 57.4364 122.81 58.8206 110.29Z" fill="white"></path><path fill-rule="evenodd" clip-rule="evenodd" d="M69.7525 44.6986C69.7525 44.0153 68.7276 44.0153 68.7276 44.6986C67.3611 48.4564 65.653 52.5559 64.6281 56.6553C62.0814 67.2583 60.0295 77.974 58.479 88.7678C56.0876 87.0596 53.6962 87.0596 50.9633 88.4261C49.9384 88.7678 49.2553 90.4759 49.5969 91.8424L50.6217 94.5753L48.5719 96.9667C47.547 99.0164 47.8888 101.749 48.9136 103.799C48.906 104.027 48.906 104.255 48.9136 104.482C47.2055 107.215 48.2304 109.948 48.9136 112.681C49.9385 115.073 49.5969 117.464 51.305 118.83C52.089 121.41 53.4969 123.757 55.4043 125.663C55.4043 129.079 56.0876 132.154 56.7709 135.228C59.1622 147.527 67.0196 158.117 76.2434 165.974C83.1643 171.415 91.1457 175.35 99.6758 177.526C108.206 179.703 117.097 180.074 125.778 178.614H126.462C131.586 177.589 138.077 175.881 141.493 171.782C143.543 169.732 142.518 164.949 139.102 165.633C137.394 165.633 135.685 166.316 133.977 166.999C130.111 168.443 126.104 169.474 122.021 170.074C114.052 170.93 105.993 170.127 98.3499 167.717C90.7068 165.306 83.6452 161.34 77.6097 156.067C73.2681 152.226 69.7336 147.56 67.2118 142.34C64.6899 137.121 63.231 131.452 62.92 125.663C61.8952 112.34 63.6034 98.6748 64.9699 85.3515C65.3115 78.5191 66.3362 71.6867 67.3611 64.8542L69.7525 44.6986ZM148.325 1.65424H147.642C130.453 -1.64571 112.68 0.013108 96.3989 6.43694C93.6659 7.4618 90.5913 9.16991 87.8584 11.2196L81.7092 10.878C78.9762 10.878 76.585 11.9029 76.2434 14.2942C73.852 14.9775 71.8022 15.6607 70.4357 17.7105C69.9531 18.3136 69.6039 19.0122 69.4109 19.7602L64.9699 21.4683C63.2618 22.1515 62.5784 24.5429 62.92 26.251L63.6033 27.2759V27.6175C62.2368 30.0088 63.2617 32.7418 65.3114 34.1083C66.6779 34.7915 68.3861 35.8164 70.0942 36.158L69.7525 38.2078C69.7525 38.2078 69.7526 38.5494 70.0942 38.2078L68.7276 42.3072C68.386 43.3321 69.4108 44.0153 69.7525 42.9904L73.1687 36.158C73.8519 36.158 74.8767 36.158 75.9016 35.4748C76.5848 35.4748 76.9266 34.7915 77.2682 34.1083C80.6844 38.5494 86.8336 39.9159 91.6163 40.9407C97.0823 42.6488 102.207 43.3321 107.673 44.3569L136.027 45.7234H137.735C140.782 48.3798 144.407 50.2881 148.321 51.2963C152.236 52.3046 156.331 52.3849 160.282 51.531C161.307 52.5559 162.332 53.5807 163.698 53.9223C164.04 59.0467 167.115 64.171 171.556 67.2456C170.531 72.0283 170.531 77.1526 174.63 80.2272C174.972 80.5688 175.655 81.2521 176.338 81.2521V81.5937C173.947 86.718 173.264 91.8423 177.363 95.9418C177.732 96.3316 178.187 96.629 178.692 96.8102C179.197 96.9914 179.737 97.0511 180.269 96.9846C180.802 96.918 181.311 96.7271 181.755 96.4273C182.2 96.1274 182.568 95.727 182.829 95.2586V94.9169L183.512 95.2586C185.221 95.9418 185.562 95.2586 186.929 94.9169C189.18 93.8146 191.609 93.1206 194.103 92.8672C200.935 95.6002 205.718 103.799 204.351 111.315C204.351 115.414 201.618 119.855 197.519 121.563C196.153 122.247 194.103 122.588 192.053 122.247C189.662 122.247 187.612 120.197 184.879 121.222C183.854 121.563 183.171 122.588 183.171 123.613C183.171 125.321 183.513 126.688 184.879 127.713C182.829 129.079 181.463 131.129 179.755 133.179C175.725 137.266 171.385 141.035 166.773 144.452C163.699 146.502 159.941 148.21 159.941 152.309C159.941 153.334 160.624 154.359 161.649 155.042C165.065 157.434 169.164 154.359 171.897 152.309L175.314 149.576L177.705 149.235L179.413 148.21C181.121 148.552 182.829 148.21 183.854 147.527C185.562 147.868 187.612 147.868 189.32 147.527C190.687 147.527 192.053 146.502 193.42 145.477C194.517 145.976 195.728 146.176 196.928 146.056C198.128 145.936 199.275 145.5 200.252 144.794C201.769 144.109 202.983 142.894 203.668 141.377L204.01 139.669C205.042 139.71 206.071 139.516 207.018 139.102C207.964 138.688 208.805 138.064 209.476 137.278C211.184 135.912 211.867 133.862 211.867 132.154C213.885 131.567 215.674 130.375 216.992 128.737C219.383 125.321 219.724 121.905 218.358 118.489C218.476 118.379 218.59 118.265 218.7 118.147C220.535 115.532 221.6 112.455 221.774 109.265V107.557C222.573 107.129 223.26 106.52 223.782 105.779C224.303 105.038 224.644 104.185 224.777 103.289C224.91 102.392 224.831 101.477 224.547 100.617C224.263 99.7563 223.781 98.9742 223.141 98.3332C223.697 97.0716 223.925 95.6903 223.806 94.317C223.686 92.9436 223.223 91.6225 222.457 90.4759C222.488 90.1349 222.488 89.792 222.457 89.451V88.0845C222.799 83.6434 219.724 79.8856 216.308 77.8359C215.213 77.2789 214.069 76.8215 212.892 76.4694C212.209 76.4694 211.184 76.4694 210.501 75.7861V75.1029L210.159 74.4196V71.3451C210.159 66.904 210.159 62.1213 209.476 57.6802C208.946 49.7835 206.719 42.0941 202.945 35.1371C199.172 28.1801 193.942 22.1194 187.612 17.3688C176.338 8.48667 162.332 3.70397 147.984 1.65424H148.325ZM200.935 107.557C202.302 104.141 195.469 104.141 193.42 104.141C189.32 104.824 182.829 106.532 181.121 110.973C180.438 112.681 182.488 114.389 184.196 114.048C185.904 113.365 186.587 111.998 187.954 110.973L188.979 110.29L188.295 111.998C185.904 113.706 189.662 116.781 191.028 114.389C191.711 113.023 192.053 111.656 191.711 110.29C191.777 109.837 191.777 109.377 191.711 108.923H192.053C193.761 107.899 200.594 105.166 200.252 107.557C200.252 107.899 200.935 107.899 200.935 107.557Z" fill="#2B283A"></path><path fill-rule="evenodd" clip-rule="evenodd" d="M94.3495 172.125C94.3495 172.125 111.089 174.858 118.263 171.1C126.12 167.684 133.294 164.268 140.127 159.827C146.959 155.044 153.109 149.578 157.208 142.062C161.307 135.23 164.724 128.397 167.798 121.565L170.873 115.416C171.898 113.366 174.631 114.049 174.631 117.124C174.631 120.54 174.631 145.479 169.165 155.386C163.306 163.969 155.452 171.003 146.276 175.883C135.896 182.779 124.305 187.647 112.114 190.231C106.684 190.866 101.181 190.308 95.9884 188.597C90.7961 186.886 86.0399 184.063 82.0512 180.324C73.8523 172.808 71.8025 162.56 67.7031 152.994C66.6782 150.603 70.0944 149.578 71.1193 151.286C78.128 158.885 85.7866 165.858 94.008 172.125H94.3495Z" fill="#2B283A"></path><path fill-rule="evenodd" clip-rule="evenodd" d="M104.939 151.628C108.014 150.262 110.747 148.212 112.455 145.821C113.138 144.796 113.48 143.771 113.138 143.088C113.096 142.594 112.955 142.113 112.726 141.673C112.496 141.233 112.182 140.843 111.8 140.526C111.419 140.208 110.979 139.969 110.505 139.822C110.031 139.676 109.533 139.625 109.039 139.672C108.538 139.76 108.064 139.96 107.65 140.255C107.237 140.551 106.894 140.935 106.648 141.38C105.281 143.088 103.915 144.454 102.207 145.138C100.498 145.821 98.7903 146.504 97.0822 146.162C93.3244 145.821 90.9331 143.771 88.2001 141.038C87.8554 140.7 87.5138 140.358 87.1753 140.013C86.9847 139.837 86.7476 139.718 86.492 139.672H85.4672C85.0525 139.764 84.6869 140.008 84.4422 140.355C84.3373 140.688 84.3373 141.046 84.4422 141.38C84.4422 144.113 85.8087 146.504 87.8584 148.212C90.0971 150.329 92.8869 151.772 95.9079 152.376C98.9289 152.98 102.059 152.721 104.939 151.628ZM94.6908 109.267C91.2746 111.317 86.1503 116.1 89.5665 120.882C94.0076 125.323 99.8152 120.199 102.89 118.149C105.623 116.441 108.697 120.882 106.306 122.932C84.7839 138.647 75.9017 109.95 92.6412 106.876C94.6909 106.876 95.3741 108.584 94.3493 109.267H94.6908ZM132.952 90.8197C132.269 86.3786 125.437 85.3537 124.754 89.7948C124.412 93.8942 124.754 97.6521 126.803 101.068C128.511 104.485 132.953 103.118 133.294 99.7018L132.952 90.8197ZM80.3429 89.1115C79.318 87.7451 77.9515 86.7202 76.2434 87.4034C71.119 88.7699 72.8272 96.2856 74.5353 99.7018C75.5601 101.752 78.6348 102.093 80.3429 100.385C82.3926 97.6521 83.7591 92.1861 80.3429 89.4532C80.3486 89.3394 80.3486 89.2253 80.3429 89.1115ZM126.803 71.3472H126.12C123.387 70.664 120.312 70.3224 118.604 72.3721C117.579 73.397 117.238 75.4467 118.604 76.4716C120.654 78.1797 123.387 77.4964 126.12 77.4964C128.17 77.4964 130.22 78.1797 132.611 78.8629C137.026 80.3673 141.176 82.5577 144.909 85.3537C145.592 85.3537 145.934 85.0121 145.934 84.3288C143.543 79.8878 139.102 76.1299 134.661 74.0802C132.269 72.7137 129.536 71.6888 126.803 71.3472ZM85.1255 69.2975H84.4422C77.6097 70.664 68.7276 73.7386 65.653 80.2294V81.5959L66.3363 81.9375L70.4358 80.571L71.8023 79.8878L75.9016 77.838L86.1503 75.7883L88.2001 75.1051C88.7218 74.6652 89.0824 74.0643 89.225 73.397L88.8834 70.664C88.4792 70.0336 87.8791 69.5535 87.1753 69.2975C86.5082 69.0877 85.7926 69.0877 85.1255 69.2975Z" fill="#2B283A"></path><path fill-rule="evenodd" clip-rule="evenodd" d="M57.4543 110.292C59.83 112.533 62.7981 114.046 66.0071 114.651C69.2161 115.257 72.5314 114.93 75.5602 113.709C91.2748 107.218 83.4175 86.379 71.4607 81.2546L65.9948 79.5465H65.3116C51.6467 81.2546 48.9138 101.752 57.4543 110.292ZM107.673 111.317C112.797 118.15 122.362 120.541 130.22 117.125C145.593 110.976 140.127 93.2114 129.536 85.6957C107.331 77.1552 98.1073 98.6773 107.673 111.317ZM46.8639 88.7703C47.8888 88.7703 49.9385 88.7703 50.9634 89.7952C53.3548 81.2546 62.9202 73.0557 71.1192 78.8633C77.61 80.913 82.3927 85.6957 84.784 91.8449C89.9084 89.1119 97.7657 90.1368 101.865 94.2363C104.94 84.6709 111.772 81.5963 119.971 80.913C128.853 79.5465 137.735 88.4287 140.468 95.2611C142.86 95.2611 146.276 94.2363 148.326 95.9444C161.884 92.2229 175.998 90.9504 190.003 92.1865C192.053 92.8698 193.42 97.6525 190.345 97.9941C187.954 97.9941 190.687 94.5779 188.295 94.2363C174.63 93.2114 161.991 95.9444 148.667 97.3109C147.301 98.6774 143.543 99.3606 141.835 98.6774C144.909 110.634 137.735 118.833 127.487 121.224C111.431 124.641 97.4239 110.292 101.523 95.2611C96.7407 92.8698 91.2748 92.8698 85.8088 94.2363C94.691 127.032 42.4229 125.665 50.6219 90.82C45.1559 93.8946 43.7893 89.4536 46.8639 88.7703Z" fill="#2B283A"></path></svg>