<svg xmlns="http://www.w3.org/2000/svg" width="195" height="203" viewBox="0 0 195 203" fill="none"><path opacity="0.7" fill-rule="evenodd" clip-rule="evenodd" d="M128.857 173.999C99.1252 187.228 68.2397 166.981 46.1446 143.096C24.6418 119.851 8.36922 87.967 23.5757 60.1892C38.873 32.2454 74.7213 27.4827 105.927 33.8905C135.626 39.9887 161.617 59.6207 166.513 89.5391C172.017 123.168 159.994 160.145 128.857 173.999Z" fill="#E1F0E4"></path><path d="M102.232 83.1185C112.526 85.6215 118.863 96.034 116.359 106.327C113.856 116.62 103.444 122.957 93.1505 120.453C82.858 117.95 76.5214 107.539 79.0244 97.2446C81.5274 86.9521 91.9399 80.6155 102.232 83.1185ZM103.141 79.3851C90.7687 76.3762 78.2999 83.9669 75.291 96.337C72.2808 108.707 79.8715 121.177 92.2416 124.186C104.612 127.196 117.082 119.606 120.091 107.236C123.101 94.8642 115.51 82.394 103.14 79.3864L103.141 79.3851ZM104.212 107.491C105.187 103.486 101.292 101.359 98.4622 99.0811C96.768 97.6017 97.598 95.2541 100.417 95.7679C101.982 96.0498 103.455 96.8929 104.767 97.7452L106.19 94.8352C104.622 93.9078 103.164 93.3044 101.821 92.9395L102.283 91.0398L100.416 90.5854L99.9324 92.5772C96.1792 92.1925 93.6867 93.9987 93.0676 96.5425C91.961 101.094 97.1066 103.081 98.6479 104.312C100.761 105.948 99.7848 108.048 97.5216 108.014C95.5587 107.984 93.3626 106.67 91.7462 105.541L90.1509 108.404C91.6092 109.673 93.497 110.617 95.4204 111.123L94.9672 112.986L96.8339 113.44L97.3121 111.475C100.511 111.794 103.438 110.698 104.212 107.491Z" fill="#4A4E74"></path></svg>