<svg xmlns="http://www.w3.org/2000/svg" width="789" height="748" viewBox="0 0 789 748" fill="none"><mask id="mask0_373_5" style="mask-type:alpha" maskUnits="userSpaceOnUse" x="50" y="39" width="674" height="633"><path opacity="0.7" fill-rule="evenodd" clip-rule="evenodd" d="M53.6235 416.794C30.8515 276.261 150.973 168.212 276.673 101.408C399.002 36.3954 552.041 3.1511 652.571 98.4828C753.701 194.384 733.832 351.343 671.893 476.194C612.946 595.017 500.889 683.046 368.866 670.362C220.466 656.105 77.4727 563.976 53.6235 416.794Z" fill="#69D27D"></path></mask><g mask="url(#mask0_373_5)"><rect x="17" width="728" height="674" fill="#69D27D"></rect></g><path fill-rule="evenodd" clip-rule="evenodd" d="M258.209 538.858C258.209 535.491 262.852 529.511 262.857 526.463C258.958 525.759 255.692 520.452 256.558 517.126C258.077 515.961 262.077 513.657 263.723 512.584C273.789 512.887 269.961 498.831 271.1 491.692C272.25 484.704 273.1 477.392 274.776 470.364C277.759 464.744 279.156 458.435 282.007 452.839C283.273 450.986 285.334 449.285 285.952 447.128C292.18 440.292 300.762 436.201 307.821 430.413C305.081 429.532 305.264 425.821 305.441 423.441C304.803 420.332 305.481 416.433 308.307 414.681C309.264 411.557 313.431 410.468 315.872 412.458C317.472 405.248 323.74 400.873 330.308 398.199C330.303 398.177 330.298 398.155 330.293 398.133C336.916 395.5 344.85 394.184 351.458 395.662C347.969 356.648 377.737 355.215 392.842 358.496C400.569 360.172 412.159 365.393 414.792 372.654C416.281 376.75 420.544 389.971 421.157 394.184C432.692 387.571 446.064 378.857 456.07 392.164C458.07 394.483 460.288 396.204 463.285 396.999C472.648 399.44 485.068 399.521 490.39 409.101C493.57 415.035 490.709 418.944 491.565 424.884C533.693 454.591 568.91 564.029 561 614.937C559.102 633.155 549.81 665.405 526.898 661.384C515.201 674.22 319.001 674.22 298.767 661.384C282.113 665.759 265.196 658.989 258.209 642.974C249.337 621.018 258.735 597.301 260.401 574.778C261.414 569.087 262.918 564.576 263.723 558.753C264.062 556.322 262.903 552.291 263.723 550.053C263.338 548.6 258.204 542.225 258.204 538.858H258.209Z" fill="white"></path><path fill-rule="evenodd" clip-rule="evenodd" d="M350.952 383.054C350.491 385.044 350.911 387.292 350.835 389.333C350.764 391.293 350.531 393.232 350.192 395.156C346.638 393.282 342.435 393.039 338.379 393.642C333.133 394.427 327.067 396.159 322.956 399.673C321.943 400.544 321.102 401.571 320.394 402.711C319.553 404.068 319.011 405.607 317.674 406.579C315.598 408.088 313.031 408.67 311.041 410.346C309.011 412.048 307.75 414.6 307.482 417.228C307.34 418.625 307.573 419.937 307.836 421.299C308.074 422.529 307.958 423.031 307.634 424.215C307.53 424.684 307.571 425.174 307.752 425.619C307.933 426.063 308.245 426.443 308.646 426.707C306.965 427.871 305.304 429.066 303.664 430.317C294.139 437.573 286.083 446.621 280.498 457.265L280.367 457.533L280.21 457.847C278.848 460.652 275.288 468.86 274.842 470.708C273.691 474.225 272.747 477.806 272.017 481.433L271.88 482.147C271.45 484.36 270.716 486.977 270.832 489.337C269.591 495.77 268.5 502.231 267.561 508.715C267.502 509.084 267.54 509.461 267.669 509.812C267.799 510.162 268.016 510.473 268.3 510.715C267.05 510.918 265.809 511.166 264.579 511.414L263.865 511.566L263.51 511.647C260.948 512.224 258.422 513.064 256.745 515.227C255.862 516.311 255.378 517.666 255.372 519.064C255.367 520.463 255.841 521.821 256.715 522.913C258.259 524.913 260.513 525.86 262.857 526.457C263.323 526.574 263.789 526.685 264.26 526.781C264.574 526.847 264.781 526.412 264.483 526.245L263.986 525.971L263.303 525.597C261.53 524.614 259.692 523.51 258.715 521.738C257.383 519.338 258.437 517.115 260.72 515.895C262.634 514.877 264.999 514.614 267.121 514.264L267.997 514.118C270.219 513.763 272.483 513.53 274.721 513.789C276.68 514.011 278.67 514.68 280.25 515.885L280.402 516.001L280.554 516.128C281.941 517.338 283.936 520.052 281.314 520.837C279.313 521.429 276.873 521.277 274.772 521.394L274.498 521.414C272.736 521.531 270.898 521.531 269.116 521.743C268.478 521.819 267.85 521.92 267.227 522.067C265.455 522.488 266.062 524.852 267.627 525.019C268.007 525.06 268.397 525.08 268.786 525.09C269.804 525.86 271.217 526.209 272.422 526.69C273.571 527.146 274.731 527.602 275.896 528.047C274.893 528.093 273.89 528.174 272.888 528.301C272.569 528.336 272.564 528.771 272.888 528.807C275.293 529.055 277.698 529.318 280.093 529.658C283.805 530.174 287.486 530.863 291.091 531.916C293.724 532.691 296.327 533.607 298.848 534.681L299.608 535.01L299.927 535.151C302.216 536.144 305.178 537.314 306.494 539.506C307.183 540.65 307.482 542.418 306.515 543.516C305.477 544.696 303.304 544.559 301.851 544.615L301.735 544.62C298.656 544.772 295.577 544.792 292.499 544.686C286.034 544.468 279.597 543.738 273.247 542.504C272.078 542.276 271.576 544.033 272.751 544.311C280.225 546.053 287.785 547.01 295.456 547.056H296.296C299.284 547.628 302.216 548.484 305.117 549.451L305.699 549.643C307.421 550.225 310.348 550.808 311.36 552.514C312.029 553.653 311.796 554.433 311.132 554.96C309.963 555.886 307.477 556.064 306.266 556.109C298.99 556.382 291.705 556.331 284.433 555.957C282.058 555.831 279.526 555.476 277.161 555.704C276.149 555.805 275.81 557.304 276.908 557.578C279.825 558.322 283.091 558.256 286.104 558.352L286.448 558.362C292.455 558.574 298.467 558.571 304.474 558.352L306.925 558.251L307.36 558.236C308.667 558.165 310.003 558.013 311.158 557.476C312.231 559.269 311.431 561.679 310.049 563.102C308.732 564.459 306.839 565.127 305.026 565.543C304.856 565.581 304.685 565.618 304.514 565.654C300.524 566.464 296.464 566.398 292.732 568.236C289.592 569.786 286.721 572.363 283.212 572.976C280.068 573.528 277.779 572.135 276.108 569.563C276.017 569.422 275.928 569.28 275.84 569.138C274.523 567.011 273.571 564.661 272.179 562.57C271.492 561.486 270.657 560.503 269.698 559.649C269.257 559.269 266.179 557.633 265.698 557.142C263.627 555.01 265.46 550.529 264.923 547.856C264.295 544.747 261.571 543.653 259.935 541.243C256.832 536.655 265.348 532.361 262.801 527.343C262.772 527.286 262.726 527.238 262.67 527.207C262.447 527.09 262.093 527.237 262.113 527.536C262.396 531.273 258.847 533.845 257.566 537.081C256.107 540.762 258.437 542.995 260.817 545.456C263.865 548.615 261.718 552.15 262.396 555.952C262.487 556.454 262.629 556.894 262.817 557.284C262.535 557.457 262.296 557.692 262.121 557.973C261.945 558.253 261.837 558.57 261.804 558.899C260.756 567.806 259.632 576.682 257.794 585.467L257.404 587.331L256.877 589.822C255.566 596.05 254.345 602.298 254.112 608.663C253.383 614.036 253.1 619.453 253.525 624.861C254.842 641.323 264.007 658.544 280.655 663.592C284.505 664.801 288.595 665.027 292.555 664.25C293.906 663.967 295.805 663.354 297.512 662.422C297.41 663.516 297.329 664.615 297.294 665.709C297.003 666.024 296.803 666.412 296.715 666.832C296.628 667.252 296.656 667.688 296.798 668.093C298.155 667.648 299.39 666.939 300.504 665.967L300.686 665.8C301.345 663.344 301.537 660.655 301.633 658.063L301.659 657.328L301.724 655.222C301.866 650.948 301.765 646.665 301.547 642.396L301.385 639.252C301.016 631.92 300.712 624.603 300.914 617.251C301.147 608.795 301.871 600.369 302.773 591.954C303.244 587.614 303.775 583.28 304.317 578.946C304.752 575.462 305.482 571.705 305.492 568.11C308.282 567.512 311.021 566.363 312.738 564.008C314.56 561.517 314.829 558.332 313.214 555.775C314.773 553.628 313.492 551.603 311.563 550.241C314.53 548.57 316.186 544.018 316.626 540.853C316.92 538.676 317.016 535.43 316.095 532.984C318.99 533.085 321.855 533.614 324.596 534.554L325.346 534.807C325.725 534.934 326.156 535.081 326.576 535.258C323.892 539.714 327.336 543.749 331.756 544.899C332.597 545.121 333.457 545.273 334.323 545.4C336.278 545.668 338.273 545.754 340.207 545.932C343.914 546.271 347.64 546.762 351.357 546.919C352.172 546.954 352.699 546.575 352.947 546.043L352.962 546.023C353.048 545.884 353.103 545.729 353.124 545.567L353.083 545.602C353.137 545.333 353.134 545.055 353.075 544.786C353.015 544.517 352.901 544.264 352.739 544.041C352.576 543.819 352.37 543.633 352.132 543.495C351.894 543.356 351.63 543.269 351.357 543.238C345.99 542.63 340.546 542.605 335.159 542.159L334.814 542.129C333.123 541.982 331.133 541.714 329.796 540.64C328.551 539.638 328.439 538.341 328.936 537.167C328.946 537.196 328.955 537.227 328.961 537.258C328.996 537.491 329.315 537.486 329.417 537.324C329.731 536.848 329.812 536.382 329.731 535.931C330.105 535.501 330.556 535.116 331.047 534.817C333.214 533.501 336.06 533.136 338.531 532.741C341.229 532.342 343.947 532.092 346.673 531.992C352.03 531.739 357.408 532.174 362.684 533.141C362.902 533.177 362.988 532.868 362.775 532.797C360.715 532.111 358.619 531.54 356.496 531.085L356.643 531.06C356.83 531.009 356.962 530.782 356.896 530.604C356.889 530.575 356.879 530.546 356.866 530.518C357.767 530.103 358.147 528.701 357.053 528.138C353.64 526.366 349.635 525.571 345.893 524.842C342.294 524.171 338.671 523.63 335.032 523.222C328.885 522.503 322.181 522.518 316.267 520.569L316.024 520.488C313.614 519.652 310.738 517.966 310.57 515.11C310.322 510.796 316.712 511.92 319.371 512.021C326.657 512.3 333.928 512.811 341.179 513.591C344.929 513.992 348.677 514.423 352.42 514.882C353.686 515.039 354.977 515.247 356.279 515.449C356.684 515.551 357.089 515.616 357.484 515.652C357.514 515.662 357.534 515.652 357.56 515.642C359.453 515.905 361.357 516.108 363.205 516.047C363.413 516.047 363.55 515.713 363.322 515.616C360.937 514.599 358.279 513.996 355.615 513.53C353.965 512.295 351.97 511.302 350.334 510.345C348.086 509.029 345.514 507.095 342.962 506.31C341.848 505.438 340.622 504.721 339.316 504.178C339.65 503.601 339.792 502.932 339.721 502.269C339.493 500.016 337.696 498.76 335.625 498.32C334.907 498.172 334.179 498.081 333.447 498.046C333.439 497.822 333.379 497.602 333.271 497.404C333.164 497.207 333.013 497.037 332.83 496.907L332.708 496.816L332.622 496.745C331.229 495.611 328.47 492.416 331.797 492.188C333.559 492.056 335.052 493.352 336.455 494.233C339.377 496.061 342.202 496.157 345.534 495.702L347.033 495.484L347.281 495.449C349.691 495.135 352.132 495.089 353.478 497.555C354.922 500.193 355.428 502.598 358.339 504.051C361.119 505.439 364.208 505.712 366.76 507.621C369.494 509.657 371.555 512.523 373.793 515.065C378.725 520.655 384.376 525.597 390.199 530.24L391.232 531.06C396.594 535.313 402.123 539.501 408.129 542.777C408.165 542.796 408.205 542.806 408.245 542.807C408.407 542.792 408.529 542.585 408.382 542.443C401.374 535.607 393.176 530.058 385.976 523.404C382.79 520.447 379.736 517.352 376.821 514.128C374.269 511.302 372.006 508.128 369.023 505.722C367.603 504.562 365.995 503.652 364.269 503.034C362.638 502.446 360.805 502.153 359.301 501.256C356.349 499.499 356.638 495.337 353.691 493.448C351.159 491.828 348.086 492.421 345.286 492.805L344.946 492.851C343.134 493.089 341.25 493.297 339.523 492.573C337.802 491.864 336.425 490.532 334.698 489.823C332.288 488.831 328.875 489.064 327.634 491.727C326.455 494.264 328.07 496.563 329.948 498.249C327.386 498.715 325.133 499.955 324.941 502.497L319.3 502.299C312.748 502.072 306.16 501.631 299.603 501.742C299.755 501.074 299.821 500.385 299.826 499.682C299.826 499.292 299.816 498.902 299.785 498.502C299.735 497.818 299.289 497.408 298.621 497.337L297.142 497.175L296.646 497.125C293.871 496.866 290.772 496.811 288.656 498.649C287.521 499.646 286.605 501.935 287.157 503.459C285.866 503.905 284.635 504.477 283.511 505.196C281.294 504.467 278.896 504.508 276.706 505.312L276.442 505.414C274.853 505.996 272.594 507.105 271.733 508.69C273.83 494.411 276.66 480.248 280.215 466.258C282.472 460.662 285.362 455.343 288.828 450.404C297.588 437.983 310.206 429.441 321.538 419.628C322.541 420.732 323.614 421.785 324.627 422.798L325.052 423.228C327.103 425.314 329.245 427.309 331.432 429.254C336.004 433.304 340.815 437.051 345.595 440.859C355.225 448.53 363.935 456.677 371.175 466.693C371.307 466.87 371.666 466.764 371.565 466.526C366.598 454.667 356.294 445.649 346.936 437.284C342.015 432.884 336.982 428.59 332.252 423.982C330.036 421.841 327.913 419.606 325.887 417.283L325.386 416.701C324.07 415.152 320.981 410.422 318.94 413.835C318.736 414.191 318.628 414.594 318.628 415.005C318.628 415.415 318.736 415.819 318.94 416.175C319.523 417.187 320.257 418.159 321.067 419.091C318.201 420.651 315.401 422.301 312.662 424.048C312.819 423.208 312.778 422.276 312.631 421.344L312.581 421.051L312.388 419.896C312.1 418.195 311.953 416.615 313.026 414.954C314.368 412.878 316.905 412.235 318.925 411.035C321.249 409.653 322.465 407.805 323.71 405.455C326.09 400.964 331.483 399.166 336.116 397.718L336.693 397.536C340.972 396.209 345.605 395.495 349.878 396.776C349.48 398.65 348.952 400.494 348.298 402.296C347.6 404.22 346.005 406.346 346.167 408.417C346.278 409.85 347.99 411.379 349.407 410.291C351.423 408.736 351.828 406.215 352.364 403.809C352.886 401.48 353.22 399.1 353.362 396.721C353.487 394.431 353.402 392.134 353.109 389.86L352.896 388.189L352.846 387.799C352.608 386.108 352.258 384.335 351.311 383.009C351.22 382.882 350.987 382.877 350.952 383.054ZM409.334 373.545C409.303 373.682 409.283 373.818 409.263 373.95C409.08 374.69 409.036 375.457 409.131 376.213C409.202 376.862 409.359 377.53 409.572 378.254C410.017 379.798 410.534 381.328 411.101 382.831C412.235 385.809 413.572 388.654 415.223 391.374C418.205 396.29 421.998 400.371 426.469 403.901C425.618 404.61 424.793 405.339 423.957 406.053C419.938 409.534 416.032 413.145 412.245 416.878C405.52 423.487 398.937 430.24 392.503 437.132C389.328 440.53 386.214 443.978 383.12 447.447L383.019 447.563L382.907 447.695C381.809 449.032 379.606 452.216 377.965 451.705C377.14 451.447 376.269 450.206 375.702 449.614L374.664 448.525C374.318 448.161 373.975 447.793 373.636 447.421C367.583 440.776 361.859 433.837 356.486 426.631C352.512 421.292 348.742 415.804 345.184 410.179C344.02 408.331 343.073 406.346 341.351 404.964C340.085 403.951 338.339 404.883 338.658 406.544C339.159 409.157 340.956 411.364 342.379 413.572C346.542 420.066 350.992 426.371 355.717 432.469C358.394 435.922 361.168 439.299 364.036 442.596L364.816 443.497C367.894 447.016 370.917 450.758 374.315 453.973C377.363 456.855 380.69 456.014 383.464 453.214C386.973 449.68 390.229 445.852 393.607 442.186C400.353 434.854 407.171 427.587 414.058 420.387L416.321 418.023C418.971 415.263 421.582 412.468 424.155 409.638L424.484 409.268C427.4 405.967 430.373 401.835 434.525 400.159C434.829 400.037 434.712 399.612 434.388 399.673C431.735 400.164 429.512 401.511 427.451 403.116C425.588 400.01 423.932 396.784 422.494 393.46L423.42 393.055C430.049 390.179 437.512 387.282 444.626 387.748C447.497 387.935 450.551 389.024 452.536 391.191C454.323 393.146 455.219 395.784 456.865 397.87C458.748 400.255 461.209 401.328 464.222 401.43L465.69 401.47C467.377 401.526 468.992 401.617 470.703 401.987C475.336 402.999 480.223 404.635 484.111 407.43C485.524 408.443 486.977 409.835 487.661 411.374C488.339 412.893 488.532 414.676 488.598 416.321C488.628 417.121 488.395 418.175 488.588 418.944C488.567 418.853 488.557 418.904 488.552 418.995C488.235 419.256 487.975 419.58 487.788 419.946C487.6 420.311 487.49 420.712 487.464 421.122C483.59 419.091 479.58 417.314 475.488 415.714C470.931 413.926 466.237 412.498 461.543 411.146C456.951 409.82 452.141 409.273 447.457 408.331C446.859 408.21 446.647 409.02 447.204 409.232C452.13 411.131 456.895 413.385 461.857 415.167C466.82 416.954 471.746 418.889 476.567 421.041C485.884 425.193 494.876 430.474 502.213 437.649C509.378 444.652 514.908 453.158 520.047 461.716C525.213 470.336 529.861 479.257 533.967 488.431C542.106 506.613 548.235 525.629 552.246 545.142C556.16 564.104 558.347 583.746 557.613 603.129C557.269 612.334 556.15 621.545 553.547 630.401C552.323 634.636 550.726 638.755 548.777 642.71C546.701 646.867 543.901 650.574 542.007 654.807C541.865 655.118 541.795 655.457 541.805 655.799C533.719 662.827 521.065 658.093 512.32 653.895C492.188 644.229 472.43 633.657 453.655 621.519C435.122 609.539 417.552 596.172 400.407 582.298C401.734 580.925 402.903 579.386 403.931 577.994C406.039 575.09 407.665 571.865 408.746 568.444C410.033 564.454 410.433 560.19 410.063 556.023L409.962 554.848C409.612 550.914 409.207 546.919 408.352 543.076C408.341 543.025 408.301 543.005 408.26 543.005C408.238 543.005 408.217 543.011 408.198 543.024C408.18 543.037 408.166 543.055 408.159 543.076C405.845 550.519 405.658 558.524 403.055 565.877C401.974 568.863 400.413 571.653 398.432 574.135C397.592 575.199 396.609 576.12 395.597 577.021C395.534 576.56 395.436 576.105 395.303 575.659L395.197 575.305C395.061 574.848 394.881 574.405 394.66 573.983C394.989 573.887 395.308 573.781 395.622 573.664C395.875 573.573 395.926 573.173 395.622 573.107C394.786 572.921 393.935 572.811 393.08 572.778C392.948 572.757 392.814 572.75 392.68 572.758C391.06 572.707 389.409 572.824 387.849 572.849C385.14 572.895 382.442 572.94 379.738 573.062C374.568 573.29 368.725 574.282 363.636 573.077C359.008 571.978 354.451 568.879 350.739 565.968C347.498 563.421 344.997 560.398 342.308 557.375L342.881 557.466L344.617 557.704C346.81 557.993 349.407 558.226 351.149 557.167C351.807 556.762 351.62 555.851 350.942 555.598C349.169 554.95 346.967 555.486 345.078 555.395C343.583 555.335 342.094 555.155 340.627 554.859C340.147 554.759 339.671 554.641 339.199 554.504C335.731 553.502 331.66 549.972 334.414 546.119C334.516 545.972 334.404 545.84 334.262 545.815C334.23 545.809 334.197 545.81 334.165 545.819C334.134 545.828 334.105 545.844 334.08 545.866C330.941 548.468 332.576 553.137 335.538 555.137C336.556 555.831 337.711 556.312 338.906 556.666C338.782 556.884 338.717 557.13 338.717 557.38C338.717 557.63 338.782 557.876 338.906 558.094C341.23 562.246 345.159 565.892 348.84 568.829C352.623 571.841 356.982 574.687 361.671 576.019C367.084 577.548 373.034 576.399 378.522 575.907C381.499 575.643 384.471 575.338 387.439 574.991C388.239 574.9 389.06 574.829 389.9 574.748C389.11 575.791 388.482 576.986 388.077 577.71C386.741 580.044 387.976 583.128 390.558 583.842C390.826 583.917 391.101 583.96 391.379 583.969C392.077 585.371 393.733 586.399 395.267 585.872C395.936 585.645 396.579 585.331 397.192 584.961C406.865 593.455 416.961 601.455 427.441 608.932C446.815 622.845 467.105 635.436 488.172 646.619C492.912 649.126 497.692 651.571 502.512 653.916L506.659 655.926C511.252 658.144 515.951 660.351 520.822 661.724C521.774 661.992 522.771 662.21 523.789 662.377C523.802 662.464 523.805 662.552 523.799 662.64C524.716 662.762 525.521 662.782 526.199 662.696L526.351 662.675C532.331 663.096 538.726 661.627 542.57 657.247C543.213 657.698 544.144 657.749 544.97 657.101C549.117 653.835 551.588 648.857 553.755 644.113C555.947 639.292 557.684 634.278 558.945 629.135C561.477 618.861 562.479 608.268 562.535 597.701C562.722 556.99 552.57 515.925 534.929 479.377C530.475 470.082 525.509 461.041 520.052 452.297C514.594 443.609 508.254 435.532 500.132 429.193C497.803 427.37 495.373 425.709 492.866 424.17C494.547 423.334 495.216 421.208 495.332 419.319C495.595 415.116 495.094 410.281 492.649 406.741C489.215 401.774 483.063 398.705 477.367 397.222C474.381 396.449 471.323 395.984 468.242 395.834C466.658 395.753 465.012 396.017 463.447 395.845C462.07 395.693 461.219 394.867 460.424 393.779C458.394 390.994 457.067 388.072 454.151 386.032C451.163 383.935 447.285 383.135 443.685 383.348C439.482 383.606 435.654 385.267 431.958 387.176C428.616 388.898 425.38 390.806 422.225 392.842C421.643 391.475 421.101 390.108 420.595 388.73C419.607 386.05 418.762 383.318 418.063 380.548C417.354 377.753 417.456 374.061 415.334 371.955C413.486 370.127 409.931 370.841 409.329 373.545H409.334ZM266.118 560.19L266.133 560.195C270.437 562.753 272.488 569.143 274.513 571.938C274.346 572.874 274.23 573.826 274.002 574.712C273.48 576.748 272.797 578.763 272.002 580.708C270.609 584.131 268.862 587.391 267.252 590.713C265.911 593.378 264.722 596.116 263.693 598.916C263.804 599.022 263.9 599.149 263.986 599.311C265.06 601.326 265.9 600.931 267.875 600.491C269.009 597.012 270.645 593.741 272.113 590.399L272.468 589.589L272.822 588.769C274.047 585.913 275.166 583.032 275.815 579.968C276.23 578.019 276.402 576.009 276.422 574.019C277.501 574.905 278.792 575.538 280.412 575.786C283.891 576.313 287.04 574.125 289.871 572.373L290.509 571.983C292.281 570.895 294.043 569.897 296.089 569.386C298.408 568.803 300.808 568.803 303.168 568.505C303.451 568.469 303.735 568.434 304.023 568.388C303.102 571.447 302.676 574.768 302.125 577.832C301.365 582.125 300.742 586.455 300.15 590.779C298.982 599.158 298.188 607.586 297.77 616.036C297.365 624.213 297.567 632.355 297.861 640.528L298.013 644.518C298.129 647.763 298.226 651.009 298.165 654.255C298.006 654.27 297.849 654.296 297.694 654.331C296.064 654.716 294.95 656.387 293.456 657.131C290.306 658.706 286.499 658.685 283.147 657.89C275.521 656.073 269.171 650.731 264.999 644.204C259.986 636.371 258.143 627.15 258.199 617.929C258.27 607.549 259.946 597.625 262.275 587.604L262.427 586.966C264.386 578.616 265.617 560.271 266.123 560.195L266.118 560.19ZM479.701 539.253C479.661 542.043 480.79 545.025 481.413 547.739L483.423 556.509L484.03 559.127C484.537 561.304 485.043 563.492 485.489 565.684C485.853 567.487 486.01 569.867 486.613 571.857C479.438 568.94 472.253 566.059 465.078 563.153C456.242 559.578 447.361 556.099 438.505 552.575C429.679 549.071 420.904 545.081 411.896 542.088C409.754 541.374 408.301 544.807 410.357 545.759C419.501 550.013 429.178 553.35 438.545 557.076L452.095 562.479C464.521 567.431 476.952 572.353 489.443 577.113C497.95 580.348 506.431 583.68 514.994 586.753C519.08 588.222 523.197 589.609 527.263 591.128C530.665 592.399 534.346 594.288 535.607 597.964C535.673 598.151 535.936 598.07 535.906 597.878C535.4 594.323 532.767 592.1 529.804 590.419C525.87 588.181 521.551 586.556 517.399 584.758L516.832 584.515C508.345 580.816 499.812 577.223 491.236 573.735C491.322 573.526 491.368 573.303 491.373 573.077H491.398C491.55 571.487 490.826 570.069 490.304 568.591L488.805 564.342C487.808 561.517 486.912 558.651 485.985 555.8C485.023 552.813 484.046 549.836 483.073 546.858C482.248 544.332 481.696 541.324 480.289 539.071C480.116 538.797 479.645 538.949 479.701 539.253ZM314.601 532.974L314.702 533.516C314.829 534.149 314.95 534.787 314.976 535.43C315.062 537.106 314.874 538.782 314.424 540.402C314.007 542.009 313.364 543.548 312.515 544.975C311.695 546.306 310.505 547.354 309.745 548.722C309.669 548.857 309.618 549.004 309.593 549.157C309.314 549.04 309.03 548.935 308.742 548.843C306.422 548.1 304.06 547.495 301.669 547.03L302.054 547L302.297 546.985C306.297 546.64 310.079 545.329 309.259 540.635C308.803 537.982 306.727 536.205 304.499 534.944L304.226 534.792C304.106 534.724 303.985 534.66 303.861 534.6C305.871 534.255 307.33 533.84 309.796 533.42C311.384 533.15 312.99 533.001 314.601 532.974ZM497.484 475.174C493.55 483.159 490.588 491.651 488.355 500.264C487.272 504.423 486.36 508.624 485.62 512.857L485.382 514.275L485.246 515.034C484.557 518.812 483.686 522.903 484.694 526.584C485.023 527.789 487.013 528.265 487.57 526.964C489.251 523.034 489.013 518.518 489.504 514.31C490.016 509.899 490.709 505.51 491.58 501.155C493.251 492.79 495.601 484.618 498.213 476.506L498.507 475.61C498.73 475.002 497.763 474.612 497.484 475.174ZM346.187 510.897C347.352 511.449 348.531 511.961 349.564 512.467L349.812 512.583C348.638 512.381 347.458 512.199 346.283 512.026C346.293 511.647 346.264 511.269 346.187 510.897ZM300.281 506.897C300.459 506.953 300.616 507.049 300.747 507.176L300.813 507.241C300.975 507.393 301.092 507.571 301.157 507.778C301.259 507.976 301.309 508.188 301.299 508.416L301.243 508.862C301.166 509.14 301.017 509.392 300.813 509.596L300.479 509.854C300.258 509.984 300.01 510.06 299.755 510.077L299.643 510.082H299.304C299.115 510.077 298.93 510.028 298.762 509.94C298.588 509.883 298.429 509.788 298.297 509.662L298.231 509.596C298.071 509.45 297.953 509.265 297.886 509.059C297.798 508.89 297.75 508.703 297.745 508.512V508.416L297.805 507.976C297.872 507.732 297.993 507.507 298.16 507.317L298.231 507.241L298.565 506.978C298.787 506.848 299.037 506.772 299.294 506.755H299.643C299.865 506.745 300.085 506.794 300.281 506.897ZM311.067 506.335C311.948 506.497 312.449 507.566 312.226 508.381C311.978 509.282 311.127 509.682 310.272 509.555L310.186 509.545C309.203 509.354 308.187 509.437 307.249 509.783C306.408 510.092 305.426 509.434 305.208 508.619C304.955 507.692 305.522 506.887 306.363 506.573C307.882 506.016 309.502 506.041 311.067 506.335ZM485.712 447.214C483.706 450.166 482.456 454.085 481.22 457.457L481.094 457.796C479.782 461.341 478.511 464.911 477.337 468.501C474.977 475.671 471.903 483.175 471.336 490.745C471.23 492.142 473.362 492.704 473.979 491.464C475.752 487.904 476.704 484.192 477.757 480.375C478.759 476.729 479.802 473.103 480.846 469.473C481.889 465.847 482.896 462.212 483.924 458.576C484.927 455.047 486.314 451.118 486.547 447.437C486.572 446.961 485.939 446.874 485.712 447.214ZM440.444 423.456C437.76 425.319 435.573 428.048 433.304 430.383C431.006 432.752 428.737 435.142 426.494 437.558C422.737 441.603 419.051 445.71 415.243 449.7C407.658 457.655 399.075 464.976 388.604 468.713C386.067 469.62 387.176 473.701 389.718 472.779C400.427 468.88 409.298 461.67 417.127 453.518C421.177 449.295 424.899 444.778 428.53 440.186C430.226 438.039 431.907 435.882 433.568 433.704L434.565 432.393C436.651 429.628 439.203 426.874 440.733 423.75C440.819 423.572 440.631 423.324 440.444 423.456Z" fill="#2B283A"></path><path fill-rule="evenodd" clip-rule="evenodd" d="M312.358 299.34C315.203 264.513 323.867 233.671 364.578 232.355C382.948 232.522 401.703 236.441 418.595 243.687C459.66 264.361 472.683 339.888 436.509 370.29C436.564 370.324 436.61 370.371 436.642 370.427C436.674 370.483 436.691 370.546 436.692 370.611C436.693 370.675 436.678 370.739 436.648 370.796C436.617 370.853 436.573 370.902 436.52 370.938C429.046 375.991 420.742 380.143 412.417 383.632C390.254 393.04 364.162 397.126 341.564 386.923C307.066 372.188 306.55 331.179 312.358 299.34Z" fill="white"></path><path fill-rule="evenodd" clip-rule="evenodd" d="M244.461 283.106C243.025 281.804 241.983 280.125 241.454 278.26C240.949 276.524 240.949 274.68 241.454 272.944C242.005 271.106 243.2 269.642 242.932 267.728C242.904 267.533 242.864 267.34 242.811 267.151C241.773 263.546 239.221 260.943 240.137 256.948C240.39 255.819 240.876 254.806 241.555 254.011C241.478 253.139 241.412 252.267 241.357 251.393C240.616 249.622 240.247 247.718 240.273 245.798C240.299 243.878 240.72 241.984 241.509 240.233C241.707 238.461 242 236.704 242.416 234.978C242.255 233.441 242.447 231.887 242.978 230.436C243.838 228.086 244.902 225.767 246.051 223.489C245.901 222.854 245.997 222.186 246.32 221.62C246.942 220.557 247.768 219.625 248.608 218.709C249.201 217.645 249.798 216.582 250.396 215.539C250.669 215.058 250.973 214.526 251.307 213.964C250.396 212.263 249.91 210.607 250.872 208.607C251.089 208.22 251.406 207.9 251.79 207.679C252.174 207.458 252.611 207.345 253.054 207.351C253.95 207.402 254.857 207.442 255.768 207.478C257.469 205.417 259.399 203.564 261.464 202.495C263.561 200.718 265.682 198.966 267.743 197.179L269.505 195.66L269.515 195.619C269.946 194.039 270.432 192.48 270.918 190.92C271.222 189.948 271.313 188.935 272.255 188.404C274.219 187.305 277.237 187.128 279.496 186.94L280.164 186.343C279.141 183.608 279.323 180.697 280.615 177.953C281.055 177.021 282.579 176.601 283.415 177.218C285.349 178.641 287.643 179.142 289.906 178.94C293.243 176.368 306.681 164.732 308.763 163.506L308.833 163.375C309.998 161.501 311.416 159.997 313.016 158.792L313.699 158.078C313.487 156.485 312.838 154.982 311.826 153.734C310.337 151.962 312.15 149.683 314.226 150.61L314.672 150.812C316.267 151.521 318.029 152.301 319.862 152.954C320.535 152.701 321.219 152.473 321.847 152.22L328.53 149.521C329.634 149.075 330.799 148.701 331.862 148.179C332.237 145.698 334.713 144.073 337.28 144.154C337.08 143.51 336.747 142.915 336.303 142.407C334.986 140.862 336.748 138.002 338.637 139.369L339.042 139.657C339.569 140.027 340.106 140.376 340.647 140.711C341.097 140.505 341.584 140.393 342.079 140.382C342.573 140.371 343.065 140.46 343.523 140.645C345.797 141.541 347.888 142.447 349.888 143.845C349.969 143.906 350.05 143.951 350.136 144.007C351.129 142.802 352.704 141.997 354.121 142.007H354.197C355.261 140.381 357.205 139.44 359.084 139.667C358.957 137.338 361.276 135.262 363.388 135.009C364.571 134.854 365.77 135.128 366.768 135.782C367.766 136.436 368.496 137.427 368.826 138.574L369.449 140.594C371.351 139.603 373.39 138.898 375.499 138.503C380.315 137.657 385.019 138.559 389.662 139.9L391.049 140.311C391.708 139.541 392.336 138.756 392.923 138.017C393.951 136.751 396.407 137.764 396.245 139.394C396.182 139.87 396.248 140.355 396.437 140.797C396.626 141.239 396.93 141.622 397.318 141.906C398.123 142.027 398.898 142.057 400.073 142.037C401.627 142.007 402.331 141.956 403.956 141.323C404.711 141.024 405.652 140.25 406.093 139.551C407.779 136.877 412.068 136.158 414.114 138.705C416.266 137.764 418.98 139.065 420.175 140.903C420.797 141.865 422.099 142.402 423.744 142.863C424.975 143.212 426.236 143.47 427.501 143.703C428.064 142.933 429.253 142.417 430.119 143.06C430.712 143.501 431.284 143.951 431.851 144.407C436.206 145.015 440.54 145.035 444.692 143.328C448.211 141.885 451.442 145.83 450.859 149.141C451.877 149.673 452.986 150.027 453.989 150.584C456.186 151.8 457.989 153.724 459.088 155.987C459.28 156.392 459.462 156.802 459.629 157.218C460.45 157.886 461.26 158.575 462.055 159.304L466.004 157.268C466.992 156.762 468.652 157.116 468.845 158.428C469.169 160.59 469.944 162.387 471.048 163.886C474.643 165.785 478.106 167.917 481.418 170.286C485.23 171.481 489.281 172.18 492.608 172.97C493.747 173.238 494.37 174.732 493.727 175.73L491.691 178.889C493.585 180.743 495.362 182.687 497.043 184.687C501.717 190.267 505.626 196.384 509.125 202.855L513.277 204.536C514.614 205.078 515.211 206.632 514.133 207.776C513.627 208.309 513.169 208.885 512.766 209.498C514.725 212.759 517.034 215.731 520.26 217.681C521.242 218.268 521.981 219.2 522.376 220.253C522.71 220.476 523.045 220.719 523.369 220.962C524.28 221.656 524.837 223.159 523.763 224.051C522.992 224.702 522.304 225.445 521.713 226.263L521.318 227.681C524.314 230.431 526.809 233.681 528.69 237.287C528.907 237.24 529.131 237.239 529.349 237.281C529.566 237.324 529.773 237.41 529.956 237.535C533.308 240.016 533.404 243.975 532.058 247.515C532.868 252.847 532.351 258.31 530.782 263.475C532.842 265.541 534.083 268.518 534.589 271.389C535.48 276.437 535.541 284.19 535.774 289.339C538.022 291.517 539.622 294.337 540.514 297.365L542.762 298.489C543.43 298.823 543.916 299.699 543.876 300.438C543.688 304.023 542.215 306.854 540.26 309.416C539.545 311.418 538.513 313.292 537.202 314.966C536.275 316.161 535.364 317.31 534.569 318.606C534.483 318.738 534.432 318.859 534.397 318.94C534.711 319.28 534.974 319.847 535.202 320.252C537.116 323.639 537.146 327.609 534.427 330.556C535.45 331.402 535.48 333.098 534.579 334.136C528.695 340.886 523.794 349.088 515.632 352.668C515.594 352.729 515.561 352.791 515.53 352.856C517.186 356.856 517.409 358.932 516.057 363.059L516.026 363.165C515.302 365.332 513.976 368.796 511.586 369.469C510.826 369.682 510.087 369.778 509.358 369.773C507.454 371.611 505.56 373.449 503.667 375.292C503.504 376.203 503.398 377.12 503.363 378.047C503.312 379.601 501.859 380.857 500.289 380.401C499.737 380.239 496.689 377.262 496.127 377.277C495.843 377.56 495.57 377.844 495.297 378.133C494.289 379.196 492.896 380.867 492.78 381.981C492.552 384.072 491.185 386.467 488.977 386.892C488.147 387.738 486.82 387.991 485.808 386.892C485.743 386.82 485.676 386.751 485.605 386.685L485.281 386.644L483.813 391.039C482.851 393.916 479.154 395.769 476.536 394.088C476.116 394.341 475.701 394.614 475.286 394.883C474.653 395.288 474.02 395.698 473.362 396.088C473.325 396.194 473.289 396.3 473.255 396.407C472.83 397.698 471.078 398.397 469.989 397.652C467.882 398.317 465.617 398.287 463.528 397.566C462.262 397.136 461.057 396.305 459.7 396.194H459.442C458.328 398.473 455.796 400.437 453.796 401.106C451.183 401.982 448.505 401.668 446.12 400.599C445.466 401.907 444.655 403.13 443.705 404.24C443.173 404.863 442.206 404.731 441.654 404.24C440.609 403.309 439.568 402.374 438.53 401.435C437.775 401.141 437.016 400.792 436.226 400.473C433.745 399.455 431.036 399.03 428.742 397.566C427.627 396.853 426.631 395.97 425.79 394.948C424.198 394.016 422.734 392.881 421.435 391.571C420.738 391.572 420.05 391.406 419.43 391.085C416.661 389.667 415.197 386.786 415.071 383.844C412.821 378.52 411.489 372.853 411.131 367.084C411.004 365.179 411.008 363.267 411.141 361.362C411.243 360.02 411.577 359.124 412.083 357.914C412.25 357.519 412.407 357.155 412.524 356.76L412.463 352.911C412.104 351.805 411.482 350.803 410.65 349.99C409.334 348.683 408.726 345.969 409.926 344.354L412.27 341.22C412.053 336.739 410.984 329.604 413.354 328.855C413.258 328.191 413.055 327.533 412.939 326.87C412.382 323.69 412.716 320.849 414.397 318.069C414.752 317.492 415.05 316.981 415.293 316.48L415.754 313.735C415.992 312.317 416.225 310.9 416.423 309.467L416.726 303.998C416.817 302.312 416.929 300.631 417.04 298.945C416.996 298.19 416.926 297.437 416.833 296.686C416.266 292.195 414.438 290.534 411.268 287.415C410.775 287.337 410.284 287.247 409.794 287.147C407.536 286.676 405.171 285.947 402.847 286.21C400.321 286.494 398.062 287.587 395.607 286.19C394.887 285.775 393.298 284.625 393.161 283.714C393.156 283.663 393.144 283.614 393.125 283.567C392.951 283.541 392.775 283.524 392.599 283.516C390.649 283.45 388.791 284.225 386.826 284.007C384.497 283.759 382.421 282.721 381.054 281.187C379.297 281.622 377.51 281.815 375.687 281.577C374.192 281.37 372.75 280.88 371.438 280.134C370.456 279.602 370.77 279.45 369.702 279.881C367.271 280.873 365.064 282.179 362.324 281.501C360.921 281.136 359.647 280.39 358.643 279.344C358.4 279.101 357.985 278.736 357.706 278.397C356.405 279.06 353.129 280.554 352.592 280.691C351.068 281.06 349.453 281.005 347.964 280.503C346.875 280.139 345.544 279.136 344.582 278.934C343.346 278.67 340.592 280.402 339.113 280.995C336.516 282.043 333.766 282.301 331.138 281.222C330.237 280.853 328.48 279.374 327.806 279.384C326.708 280.746 323.639 288.195 322.718 290.909C318.991 301.897 318.024 336.202 319.745 344.952L319.948 345.726C322.064 353.337 324.267 361.079 327.806 368.168C331.143 374.851 335.756 380.872 342.374 384.523C349.24 388.31 357.296 389.303 365.018 388.791C369.985 388.467 374.872 387.465 379.682 386.209C382.193 385.551 384.685 384.827 387.166 384.067C388.244 383.738 389.343 383.429 390.406 383.049C392.28 382.371 393.262 382.315 395.055 383.186C396.69 383.976 397.11 386.31 396.26 387.779C394.872 390.179 392.336 390.341 389.89 391.045C387.395 391.763 384.887 392.431 382.365 393.05C377.54 394.214 372.633 395.111 367.681 395.521C358.82 396.265 349.686 395.116 341.62 391.232C340.72 390.798 339.84 390.325 338.981 389.814C339.295 390.255 339.614 390.695 339.938 391.131C340.83 392.346 340.166 394.407 338.911 395.065C338.516 395.273 338.116 395.47 337.716 395.673C337.665 395.799 337.604 395.926 337.538 396.057C336.389 398.371 333.984 399.739 331.533 400.326C328.627 401.025 325.366 400.528 322.409 400.442L314.18 400.189C313.532 400.174 312.884 400.157 312.236 400.139L302.474 399.84C299.572 399.754 299.709 399.977 296.985 398.812C295.806 398.311 294.761 397.539 293.937 396.559C293.414 396.328 292.908 396.06 292.423 395.759C290.846 394.725 289.426 393.472 288.205 392.037C286.038 392.726 282.994 392.088 282.574 389.353C281.896 384.978 276.235 383.11 273.586 379.945C271.455 377.393 269.926 374.051 270.007 370.846C264.624 368.228 261.702 361.342 261.014 355.504C260.695 352.79 260.745 349.888 260.285 347.134C260.083 346.917 259.904 346.681 259.748 346.43C258.396 344.238 257.216 341.974 256.183 339.665C254.756 338.629 253.063 338.021 251.302 337.913C246.942 337.66 246.122 331.751 250.279 330.328L250.335 330.308C249.771 328.889 249.509 327.368 249.568 325.842C249.626 324.315 250.003 322.819 250.674 321.447C250.617 321.159 250.561 320.87 250.507 320.581C248.142 318.022 246.876 314.636 246.983 311.153C245.902 310.386 244.695 309.812 243.418 309.456C241.398 308.899 241.388 306.423 242.876 305.32C243.484 304.874 243.975 304.352 244.395 303.78C243.362 300.666 243.768 297.066 245.874 294.514L241.859 289.339C240.973 288.2 240.502 286.266 241.859 285.187L244.461 283.106Z" fill="#2B283A"></path><path fill-rule="evenodd" clip-rule="evenodd" d="M351.453 322.708C346.369 319.781 333.604 316.794 332.794 325.984C332.424 330.212 335.554 333.716 339.214 335.28L339.351 335.341C342.779 336.759 348.86 338.354 351.828 335.285C354.299 332.728 351.023 328.146 347.954 330.242C346.374 331.316 343.053 330.526 341.296 330.014L341.184 329.979C339.285 329.422 336.749 327.624 337.538 325.275C338.232 323.199 341.189 322.819 343.042 322.753C345.807 322.652 348.501 323.295 351.24 323.508C351.671 323.538 351.807 322.91 351.453 322.708ZM330.384 307.927C323.477 307.603 319.183 315.168 320.773 321.371C321.047 322.444 322.242 323.498 323.386 323.371L323.68 323.346C323.825 323.334 323.969 323.311 324.11 323.275C325.204 322.971 326.186 321.832 326.1 320.647L326.08 320.303C325.918 317.376 326.232 313.999 329.705 313.29C332.642 312.687 334.288 315.528 334.323 318.146C334.328 318.611 334.85 318.935 335.255 318.682C337.381 317.386 337.751 314.804 336.941 312.576C335.908 309.755 333.336 308.069 330.384 307.927ZM381.621 309.548C376.593 307.867 371.175 310.56 368.74 315.016C367.889 315.264 367.033 315.928 367.155 316.94C367.327 318.394 367.58 319.31 368.588 320.414C370.157 322.136 373.104 321.254 373.753 319.133L373.783 319.032C374.527 316.287 377.535 314.474 380.279 315.437C383.485 316.561 383.393 319.958 385.637 321.938C385.755 322.05 385.907 322.121 386.068 322.142C386.23 322.163 386.395 322.133 386.538 322.055C388.923 320.895 388.492 317.411 387.642 315.416C386.528 312.798 384.355 310.469 381.616 309.553L381.621 309.548ZM388.462 294.231C384.391 290.063 373.778 286.028 370.993 293.724C370.456 295.193 371.585 297.173 373.109 297.476C375.601 297.973 377.808 296.889 380.284 297.081C382.29 297.243 384.376 297.912 385.981 299.157C390.416 302.611 391.394 308.449 394.488 312.839C394.634 313.057 394.923 312.966 394.953 312.712C395.657 306.317 392.923 298.798 388.462 294.231ZM335.361 290.129C332.662 289.167 329.599 289.253 326.885 290.099C324.128 290.977 321.652 292.566 319.705 294.707C318.824 295.669 318.014 296.737 317.36 297.871C317.016 298.469 316.652 299.714 316.257 300.454C314.13 301.684 313.219 304.494 315.122 306.494L315.208 306.586L315.462 306.839C315.971 307.349 316.607 307.715 317.305 307.9C318.002 308.085 318.736 308.082 319.431 307.892C322.561 306.981 322.94 304.504 324.024 301.882C324.738 300.145 325.968 298.611 327.452 297.481C330.966 294.818 336.723 293.972 340.951 295.228C341.179 295.294 341.442 295.005 341.28 294.798C340.48 293.755 340.015 292.899 338.946 292.063C337.866 291.225 336.655 290.574 335.361 290.129Z" fill="#2B283A"></path><path fill-rule="evenodd" clip-rule="evenodd" d="M308.732 324.368C312.535 329.138 327.432 334.439 335.361 328.687C343.291 322.935 346.425 318.924 347.483 311.739C347.595 310.975 348.977 310.463 349.559 311.005C352.825 314.053 354.942 317.932 357.038 321.826C359.398 326.211 361.727 330.626 366.021 333.593C373.626 337.69 387.389 338.272 391.45 336.464C399.237 333.006 405.4 325.608 406.802 315.431C406.802 315.431 408.225 310.914 409.476 309.962C410.655 309.066 417.187 308.261 417.901 308.129C430.793 305.729 447.097 304.195 458.581 312.646C460.131 313.588 465.453 317.132 465.534 316.261C465.584 312.848 461.736 305.121 452.976 301.45C442.14 296.903 426.038 296.64 416.711 297.643C416.246 297.693 414.645 297.298 414.534 297.248C400.397 291.106 384.138 292.741 369.013 295.324C366.846 295.744 347.448 300.564 339.731 297.643C326.971 292.412 313.376 288.63 299.598 290.118C299.481 290.128 297.745 300.726 299.097 301.45C300.175 302.023 302.008 303.501 302.661 304.306C303.313 305.112 303.64 306.132 303.578 307.167C303.32 314.357 305.36 320.135 308.732 324.368ZM361.185 317.952C359.565 315.603 359.058 310.327 359.732 306.473C360.076 304.524 360.745 302.974 361.58 302.2C361.827 301.957 362.121 301.767 362.444 301.644C362.767 301.52 363.113 301.464 363.459 301.481C363.889 301.508 364.308 301.633 364.684 301.845C370.568 298.655 377.697 297.501 384.452 297.83C389.829 297.83 393.667 299.106 396.27 301.091C399.399 303.476 400.812 306.909 400.893 310.63C400.989 315.046 399.182 319.876 396.219 323.699C393.384 327.36 389.5 330.074 385.287 330.697C380.507 331.649 375.636 330.727 371.403 328.474C366.984 326.117 363.412 322.439 361.185 317.952ZM314.019 320.444C311.295 317.208 309.482 313 309.208 308.833C308.955 305.035 309.968 301.278 312.763 298.174C315.3 295.987 319.781 295.951 324.5 297.172C330.597 298.741 336.906 302.261 339.007 304.534C339.498 304.792 339.959 305.248 340.359 306.22V306.57C340.956 309.49 340.663 312.522 339.518 315.274C338.273 318.307 336.297 320.986 333.766 323.071C330.445 325.821 326.971 326.667 323.725 326.221C320.044 325.715 316.621 323.522 314.019 320.444Z" fill="white"></path><path fill-rule="evenodd" clip-rule="evenodd" d="M340.172 296.473C327.255 291.177 313.447 287.359 299.461 288.878C298.307 288.433 296.874 288.807 296.357 290.448C291.38 305.674 302.484 301.441 302.332 307.132C301.168 339.057 343.903 344.506 348.714 311.922L348.8 311.973C355.717 318.454 357.17 328.986 365.317 334.622C381.743 346.688 405.035 337.128 408.022 315.654L408.088 315.365C409.096 310.98 410.296 309.897 415.248 309.917L416.028 309.76C428.894 307.213 446.029 304.929 457.883 313.679C460.455 315.183 460.576 319.051 462.754 320.733C465.144 321.198 466.612 318.317 466.774 316.327C467.154 296.448 431.725 295.015 415.856 296.721C415.552 296.408 414.904 296.448 414.691 296.838C400.336 290.6 384.168 291.466 368.806 294.088C359.286 295.937 349.888 300.149 340.172 296.473ZM300.752 292.544C308.499 292.154 315.674 292.58 323.285 294.453C327.29 295.425 330.374 296.651 334.207 298.129C358.152 308.778 360.912 289.845 414.58 297.268C413.886 300.256 413.759 303.208 413.719 306.013C402.761 305.572 405.344 316.074 401.237 323.457L401.111 323.679C395.126 334.444 381.009 339.462 369.616 332.323C360.117 326.763 359.19 312.661 349.732 307.066C341.529 306.742 344.805 317.851 340.344 322.419C334.065 330.834 320.708 332.014 312.834 324.095C309.207 320.392 307.141 315.438 307.061 310.256C306.859 306.94 307.426 303.562 304.925 301.228C303.173 299.441 300.064 300.038 299.699 297.339C299.476 295.739 300.14 294.007 300.752 292.544ZM384.999 296.899C377.302 296.514 369.15 297.861 362.537 301.648C357.646 297.739 356.446 313.279 359.691 317.775C364.375 327.386 375.272 333.71 385.763 331.609C402.129 329.229 413.537 296.873 384.999 296.899ZM363.008 302.691L363.428 302.631C370.517 301.542 389.834 296.504 397.283 304.453C404.513 317.634 386.173 339.771 367.084 322.14C361.772 316.707 359.717 310.125 363.008 302.691ZM340.526 304.377C336.855 300.008 318.135 291.162 311.608 296.838C299.694 310.241 318.586 337.346 334.404 324.14C339.675 319.725 343.144 312.697 341.625 305.881V305.598C341.62 305.496 341.6 305.517 341.488 305.39C341.408 305.163 341.281 304.955 341.115 304.781C340.95 304.606 340.749 304.469 340.526 304.377ZM311.776 312.499C307.755 290.625 324.546 298.939 338.334 304.777C337.589 305.456 337.594 306.383 337.807 307.147C339.26 323.376 319.619 332.571 311.776 312.499ZM416.134 297.785C421.886 299.739 459.923 296.245 463.437 314.145C459.726 308.114 452.044 305.719 445.138 304.423C435.745 302.651 426.403 303.674 417.137 305.537L416.949 303.613C416.747 301.567 416.529 299.663 416.134 297.79V297.785Z" fill="#2B283A"></path><path fill-rule="evenodd" clip-rule="evenodd" d="M360.559 363.365C365.275 361.269 369.467 358.125 372.087 354.457C373.135 352.885 373.659 351.314 373.135 350.266C373.069 349.508 372.854 348.77 372.501 348.096C372.149 347.421 371.667 346.823 371.082 346.336C370.498 345.849 369.823 345.482 369.096 345.257C368.369 345.033 367.604 344.954 366.847 345.026C366.079 345.162 365.352 345.468 364.717 345.921C364.082 346.374 363.557 346.964 363.179 347.646C361.083 350.266 358.987 352.362 356.367 353.409C353.748 354.457 351.128 355.505 348.508 354.981C342.744 354.457 339.076 351.314 334.885 347.122C334.356 346.603 333.832 346.079 333.313 345.55C333.02 345.279 332.657 345.097 332.265 345.026H330.693C330.057 345.168 329.496 345.541 329.121 346.074C328.96 346.585 328.96 347.134 329.121 347.646C329.121 351.838 331.217 355.505 334.36 358.125C337.794 361.372 342.073 363.585 346.707 364.512C351.34 365.438 356.141 365.041 360.559 363.365Z" fill="#2B283A"></path></svg>