<svg xmlns="http://www.w3.org/2000/svg" width="181" height="168" viewBox="0 0 181 168" fill="none"><path opacity="0.7" fill-rule="evenodd" clip-rule="evenodd" d="M12.7056 96.1337C7.50049 64.011 34.9573 39.3136 63.6894 24.044C91.651 9.18359 126.632 1.58473 149.611 23.3753C172.726 45.296 168.185 81.173 154.027 109.711C140.553 136.871 114.94 156.992 84.7624 154.093C50.8419 150.834 18.157 129.776 12.7056 96.1337Z" fill="#ED7483"></path><path fill-rule="evenodd" clip-rule="evenodd" d="M109.648 75.2174C108.994 74.5626 109.613 73.2255 110.52 73.0374C111.887 72.7524 113.152 72.1028 114.181 71.1574C115.21 70.2119 115.963 69.0059 116.362 67.667C116.761 66.3282 116.791 64.9063 116.448 63.552C116.104 62.1978 115.401 60.9616 114.413 59.9743C111.386 56.9496 107.283 55.804 103.455 59.976C102.387 61.04 101.655 62.3936 101.348 63.8693C101.16 64.7755 99.8229 65.3962 99.168 64.7413L92.0432 57.6113C91.8844 57.4524 91.6958 57.3262 91.4882 57.2402C91.2807 57.1542 91.0582 57.1099 90.8335 57.1099C90.6088 57.1099 90.3863 57.1542 90.1787 57.2402C89.9711 57.3262 89.7826 57.4524 89.6238 57.6113L82.1894 65.0457C81.4935 65.7416 82.3125 67.5984 83.2495 67.8959C84.3609 68.2465 85.5749 68.8449 86.9308 69.6827C86.9906 69.7203 87.0505 69.7665 87.0983 69.8178C89.9093 72.7108 89.5024 77.0042 86.7649 79.7416C84.0018 82.503 79.9136 82.6364 77.0189 79.7433C76.0189 78.7486 75.3141 77.4963 74.9825 76.1254C74.7483 75.1525 72.9649 74.2719 72.257 74.9798L65.4964 81.7404C65.0156 82.2214 64.7455 82.8736 64.7455 83.5537C64.7455 84.2338 65.0156 84.886 65.4964 85.367L87.3223 107.195C88.264 108.136 89.5347 108.674 90.8659 108.695C92.197 108.717 93.4843 108.22 94.4557 107.309L104.718 97.6948L116.285 85.367C116.741 84.881 116.99 84.2365 116.979 83.5701C116.968 82.9037 116.699 82.2677 116.227 81.7969L109.648 75.2174Z" fill="#4A4E74"></path><path fill-rule="evenodd" clip-rule="evenodd" d="M109.648 75.2174C108.994 74.5626 109.613 73.2255 110.52 73.0374C111.887 72.7524 113.152 72.1028 114.181 71.1574C115.21 70.2119 115.963 69.0059 116.362 67.667C116.761 66.3282 116.791 64.9063 116.448 63.552C116.104 62.1978 115.401 60.9616 114.413 59.9743C111.386 56.9496 107.283 55.804 103.455 59.976C102.387 61.04 101.655 62.3936 101.348 63.8693C101.16 64.7755 99.8229 65.3962 99.168 64.7413L92.0432 57.6113C91.8844 57.4524 91.6958 57.3262 91.4882 57.2402C91.2807 57.1542 91.0582 57.1099 90.8335 57.1099C90.6088 57.1099 90.3863 57.1542 90.1787 57.2402C89.9711 57.3262 89.7826 57.4524 89.6238 57.6113L82.1894 65.0457C81.4935 65.7416 82.3125 67.5984 83.2495 67.8959C84.3609 68.2465 85.5749 68.8449 86.9308 69.6827C86.9906 69.7203 87.0505 69.7665 87.0983 69.8178C89.9093 72.7108 89.5024 77.0042 86.7649 79.7416C84.0018 82.503 79.9136 82.6364 77.0189 79.7433C76.0189 78.7486 75.3141 77.4963 74.9825 76.1254C74.7483 75.1525 72.9649 74.2719 72.257 74.9798L65.4964 81.7404C65.0156 82.2214 64.7455 82.8736 64.7455 83.5537C64.7455 84.2338 65.0156 84.886 65.4964 85.367L87.3223 107.195C88.264 108.136 89.5347 108.674 90.8659 108.695C92.197 108.717 93.4843 108.22 94.4557 107.309L104.718 97.6948L116.285 85.367C116.741 84.881 116.99 84.2365 116.979 83.5701C116.968 82.9037 116.699 82.2677 116.227 81.7969L109.648 75.2174Z" fill="#4A4E74"></path></svg>