<svg xmlns="http://www.w3.org/2000/svg" width="206" height="198" viewBox="0 0 206 198" fill="none"><path opacity="0.7" fill-rule="evenodd" clip-rule="evenodd" d="M34.1641 60.2565C49.9703 31.8114 86.8232 29.4234 118.839 35.2276C149.996 40.8758 182.168 56.5726 186.716 87.9122C191.29 119.439 165.506 144.796 136.717 158.435C109.318 171.416 76.7461 171.353 54.8473 150.388C30.2322 126.823 17.6103 90.0472 34.1641 60.2565Z" fill="#D8CEFF"></path><g clip-path="url(#clip0_12_155)"><path fill-rule="evenodd" clip-rule="evenodd" d="M118.508 103.307C118.032 103.316 117.558 103.231 117.115 103.055C116.672 102.879 116.268 102.617 115.928 102.283C115.587 101.95 115.317 101.552 115.132 101.112C114.947 100.673 114.852 100.201 114.851 99.7242C114.851 99.2475 114.946 98.7755 115.13 98.3359C115.315 97.8963 115.585 97.4978 115.925 97.1639C116.265 96.8299 116.668 96.5671 117.111 96.3909C117.554 96.2146 118.028 96.1285 118.504 96.1375C119.455 96.137 120.367 96.5142 121.04 97.1862C121.713 97.8582 122.091 98.7699 122.092 99.7208C122.092 100.672 121.715 101.584 121.043 102.257C120.371 102.929 119.459 103.306 118.508 103.307ZM112.63 90.2934L108.432 103.475C109.286 104.579 109.587 106.011 109.587 107.514C109.587 111.115 106.525 114.035 102.925 114.035C101.196 114.035 99.5376 113.348 98.315 112.125C97.0924 110.902 96.4055 109.244 96.4055 107.514C96.4055 104.216 98.8655 101.515 102.049 101.083L109.741 88.9031C109.854 88.7237 110.001 88.5684 110.174 88.446C110.347 88.3236 110.542 88.2366 110.749 88.1899C110.956 88.1432 111.17 88.1377 111.378 88.1738C111.587 88.2099 111.787 88.2868 111.966 88.4002C112.611 88.8079 112.868 89.5989 112.63 90.2934ZM87.3485 103.307C86.868 103.323 86.389 103.243 85.9401 103.071C85.4912 102.899 85.0815 102.638 84.7355 102.304C84.3894 101.971 84.1141 101.571 83.9258 101.128C83.7376 100.686 83.6403 100.21 83.6397 99.7291C83.6392 99.2482 83.7354 98.7722 83.9226 98.3294C84.1099 97.8865 84.3843 97.4858 84.7296 97.1512C85.0749 96.8166 85.484 96.5549 85.9325 96.3817C86.381 96.2085 86.8598 96.1273 87.3404 96.1429C88.2735 96.1677 89.1601 96.5556 89.8116 97.2241C90.4632 97.8925 90.8282 98.7888 90.8291 99.7222C90.83 100.656 90.4666 101.553 89.8164 102.222C89.1661 102.892 88.2802 103.282 87.3472 103.308L87.3485 103.307ZM102.926 80.5596C103.397 80.5592 103.863 80.6517 104.298 80.8317C104.733 81.0117 105.128 81.2757 105.461 81.6086C105.794 81.9415 106.058 82.3367 106.237 82.7717C106.417 83.2066 106.51 83.6728 106.509 84.1435C106.51 84.8528 106.3 85.5464 105.906 86.1364C105.512 86.7264 104.952 87.1864 104.297 87.4581C103.642 87.7298 102.921 87.801 102.225 87.6628C101.529 87.5245 100.89 87.183 100.389 86.6814C99.887 86.1798 99.5455 85.5407 99.4072 84.845C99.269 84.1493 99.3402 83.4282 99.6119 82.7729C99.8836 82.1177 100.344 81.5578 100.934 81.164C101.524 80.7703 102.217 80.559 102.926 80.5596Z" fill="#4A4E74"></path><path d="M102.937 76.3533C90.0232 76.3533 79.5541 86.8142 79.5541 99.7243C79.5541 112.633 90.0232 123.095 102.937 123.095C115.843 123.095 126.296 112.633 126.296 99.7243C126.296 86.8129 115.845 76.3533 102.937 76.3533Z" stroke="#4A4E74" stroke-width="4.38462"></path></g><defs><clipPath id="clip0_12_155"><rect width="53.0047" height="53.0047" fill="white" transform="translate(76.5981 72.9717)"></rect></clipPath></defs></svg>