<svg xmlns="http://www.w3.org/2000/svg" width="25" height="27" viewBox="0 0 25 27" fill="none"><path fill-rule="evenodd" clip-rule="evenodd" d="M8.44473 0.841677L21.5264 8.402C23.1959 9.3704 24.2234 11.1544 24.2234 13.0844C24.2234 15.0143 23.1959 16.7983 21.5264 17.7667L8.44473 25.327C6.76937 26.2943 4.70516 26.294 3.0301 25.3262C1.35505 24.3584 0.323805 22.5702 0.325044 20.6357V5.53305C0.323805 3.59851 1.35505 1.81035 3.0301 0.842544C4.70516 -0.125265 6.76937 -0.125595 8.44473 0.841677ZM6.8208 22.5122L19.9025 14.9699C20.5756 14.5857 20.9894 13.8684 20.9851 13.0934C20.9921 12.3129 20.5785 11.589 19.9025 11.1988L6.8208 3.6565C6.49361 3.45983 6.1199 3.35395 5.73817 3.34976C4.53237 3.34976 3.55488 4.32725 3.55488 5.53305V20.6357C3.55488 21.2147 3.7849 21.77 4.19435 22.1795C4.6038 22.5889 5.15913 22.819 5.73817 22.819C6.1199 22.8148 6.49361 22.7089 6.8208 22.5122Z" fill="white"></path></svg>