<svg xmlns="http://www.w3.org/2000/svg" width="825" height="455" viewBox="0 0 825 455" fill="none"><g clip-path="url(#clip0_2_34)"><path fill-rule="evenodd" clip-rule="evenodd" d="M145.439 202.539C150.17 201.234 155.608 201.386 160.461 201.719C165.39 202.059 170.678 202.64 175.303 204.475C179.323 206.069 182.714 208.751 184.78 212.594C186.478 215.753 187.275 219.218 187.774 222.737C187.978 224.177 188.149 225.62 188.311 227.065L188.645 230.071C188.776 231.22 188.891 232.082 189.12 233.364C189.755 236.912 190.638 239.875 192.612 242.455C197.39 248.703 205.193 250.795 212.289 253.463C216.83 255.168 220.425 258.238 221.423 263.169C222.385 267.928 258.98 307.849 262.572 311.213L262.671 311.305C265.458 313.805 265.129 318.507 265.52 321.94C265.936 325.619 266.334 329.303 266.713 332.986C267.478 340.473 268.163 347.967 268.763 355.465C271.104 384.797 272.168 414.229 271.943 443.653L271.929 445.319C271.895 449.053 271.922 452.803 271.755 456.535C271.591 460.12 270.504 463.707 267.17 465.58C264.084 467.315 260.18 467.163 256.728 467.335L256.521 467.347C252.819 467.549 249.115 467.715 245.41 467.85C230.35 468.406 215.276 468.466 200.207 468.397C170.312 468.259 140.388 467.604 110.521 469.273C102.908 469.698 78.6371 467.115 71.0478 467.85C63.794 468.556 70.0179 472.102 65.5366 471.867C50.7994 471.1 36.8206 467.82 22.7009 463.872C20.9371 463.381 19.5883 461.673 19.6104 459.828C19.8727 439.569 20.4464 419.317 21.3429 399.074C22.1416 381.044 23.194 363.026 24.4995 345.026C25.0671 337.201 25.6825 329.379 26.3455 321.563L26.6327 318.213C27.0071 313.893 27.2226 309.492 28.0747 305.234C28.9178 301.019 30.8302 297.365 33.6032 294.102C36.0912 291.172 64.2628 268.245 71.0478 263.905C77.5419 259.75 84.3614 256.243 91.0285 252.392C93.8022 250.79 96.466 251.367 98.8357 249.4C100.085 248.363 118.211 241.377 123.102 239.073L123.246 239.006C126.989 237.216 130.433 235.274 133.02 232.179C133.887 231.14 135.587 224.604 135.59 222.515C135.596 218.784 135.313 214.853 136.442 211.239C137.792 206.916 141.047 203.751 145.439 202.539ZM153.462 298.747L124.498 354.976H143.332L129.832 386.217H159.479L148.962 429.977L209.106 354.976H186.537L209.106 325.447H193.453L209.106 300.438L153.462 298.747Z" fill="white"></path><path fill-rule="evenodd" clip-rule="evenodd" d="M248.773 330.524C248.706 330.591 248.637 330.657 248.571 330.726C248.647 330.618 248.713 330.506 248.773 330.395V330.524ZM192.481 314.146C189.879 317.458 187.127 324.198 184.6 327.571C184.237 328.054 183.881 328.538 183.529 329.026C182.481 330.489 183.881 332.728 185.606 332.634C189.052 332.45 192.495 332.195 195.937 331.935C188.866 339.792 182.994 349.549 176.5 357.872C176.06 358.431 175.627 358.991 175.194 359.552C173.551 361.689 175.198 362.659 177.444 362.082C177.908 361.963 178.373 361.843 178.837 361.728C182.104 360.894 185.367 360.058 188.633 359.226C190.439 358.764 192.255 358.192 194.086 357.838C194.839 357.693 195.561 357.812 196.271 357.852C195.93 358.371 195.451 359.306 195.356 359.451C194.29 361.108 193.216 362.755 192.136 364.398C190.031 367.593 187.915 370.78 185.722 373.914C177.169 386.133 167.943 397.795 158.799 409.568C156.497 412.527 154.163 415.46 151.791 418.36C151.801 418.344 151.808 418.325 151.819 418.307C153.955 414.159 156.092 410.016 158.228 405.868C162.291 397.988 166.314 390.088 170.418 382.226C170.629 381.817 170.844 381.408 171.059 380.999C171.91 379.37 170.513 377.679 168.764 378.023C160.229 379.698 151.778 381.76 143.431 384.198C143.055 384.598 142.503 384.713 142.01 384.616C141.674 384.717 141.338 384.814 141.002 384.915C141.104 384.703 141.209 384.497 141.312 384.287C140.97 383.991 140.801 383.534 141.023 382.964C145.826 370.61 152.41 358.683 160.213 347.761C159.899 347.768 159.585 347.773 159.27 347.782C150.706 348.012 142.305 349.236 134.05 351.562C134.012 350.801 134.473 349.622 134.723 349.062C135.722 346.819 136.87 344.629 137.943 342.423C140.14 337.889 142.336 333.36 144.532 328.826C146.68 324.398 148.809 319.956 150.83 315.465C151.889 313.11 152.949 310.752 154.005 308.394C154.867 306.476 155.546 304.541 156.261 302.578C158.359 303.192 185.297 303.325 191.844 303.778C193.449 303.89 195.057 303.992 196.666 304.079C197.947 304.152 199.753 304.433 200.636 303.279L200.971 303.56C198.063 307.025 195.276 310.587 192.481 314.146ZM87.3121 249.736C87.4456 249.676 87.5757 249.617 87.7057 249.557C87.7724 249.651 87.8533 249.739 87.9376 249.826C88.1486 250.04 88.3558 250.272 88.5737 250.483C88.152 250.237 87.7303 249.987 87.3121 249.736ZM275.57 446.928C275.326 441.815 275.055 436.702 274.765 431.591C274.196 421.598 273.61 411.606 272.824 401.626C271.229 381.406 269.744 361.19 267.354 341.042C266.35 332.597 264.948 324.216 263.544 315.828C263.724 315.668 263.907 315.507 264.087 315.348C263.894 317.641 267.019 319.096 268.568 316.807C268.685 316.635 268.798 316.465 268.91 316.286C270.25 314.123 273.341 303.52 273.127 302.622C272.739 301.004 271.661 299.566 270.82 298.141C270.084 296.895 269.342 295.65 268.588 294.416C267.086 291.941 265.537 289.491 263.914 287.094C260.552 282.133 256.878 277.369 252.549 273.203C248.068 268.888 242.925 265.339 237.614 262.122C235.061 260.578 232.43 259.179 229.748 257.873C227.1 256.589 224.203 255.169 221.352 254.438C221.19 254.397 221.025 254.622 221.172 254.741C221.929 255.336 222.721 255.899 223.527 256.439C221.345 255.686 219.096 255.141 216.829 254.948C212.44 253.411 207.997 252.004 203.629 250.4C199.335 248.822 195.104 247.045 192.25 243.306C189.81 240.108 188.269 236.197 187.082 232.386C185.78 228.186 185.263 223.821 184.059 219.614C183.964 219.274 183.404 219.235 183.33 219.614C182.471 224.028 182.51 228.99 182.999 233.446C183.513 238.12 184.833 242.707 187.705 246.505C191.042 250.924 195.569 253.383 200.662 255.343C204.77 256.931 208.93 258.544 213.137 259.962C212.587 260.321 212.031 260.677 211.457 261.017C209.177 262.368 206.804 263.57 204.379 264.646C199.951 266.615 195.287 268.088 190.595 269.285C181.862 271.503 172.908 272.629 163.904 272.776C145.889 273.074 127.673 269.313 111.197 262.049C106.557 260.004 102.027 257.754 97.5432 255.394C96.1421 254.656 94.7341 253.912 93.3333 253.146C93.4495 253.142 93.569 253.13 93.6853 253.119C96.8145 252.825 99.905 252.225 102.932 251.377C109.13 249.633 115.072 246.912 120.908 244.235C125.857 241.964 130.954 239.379 133.978 234.65C135.593 232.12 136.336 229.151 136.938 226.246C137.61 223.011 138.402 219.761 138.891 216.495C139.064 215.351 138.807 213.804 137.575 213.263C137.082 213.049 136.677 212.874 136.125 212.874C134.903 212.874 133.65 213.758 133.358 214.972C132.637 218 132.2 221.113 131.633 224.172C131.144 226.818 130.697 229.579 129.264 231.906C126.762 235.978 121.855 238.062 117.709 240.046C112.453 242.557 107.195 245.007 101.735 247.045C99.3312 247.944 96.8848 248.757 94.4034 249.424C94.5018 248.817 94.4174 248.178 94.0583 247.698C93.4599 246.905 92.7806 246.379 92.0098 245.772C91.172 245.113 90.0458 244.768 89.0565 245.06H89.053C88.6518 244.972 88.2083 245.007 87.7508 245.214C86.3357 245.86 84.9243 246.512 83.5128 247.176C63.2065 256.699 43.4774 267.883 28.5355 284.921C26.3814 287.375 24.3644 289.958 22.4741 292.621C20.6368 295.209 18.363 298.014 17.8561 301.222C17.8138 301.489 18.2045 301.611 18.2714 301.337C18.3911 300.843 18.553 300.358 18.7537 299.887C18.3348 301.349 18.3594 302.9 18.9508 304.426C19.6512 306.221 20.936 307.411 22.5587 307.884C20.929 315.003 19.8343 322.219 18.9543 329.513C17.6907 340.022 16.7931 350.555 16.1173 361.117C14.7656 382.194 14.1637 403.377 14.6002 424.493C14.7234 430.461 14.9275 436.429 15.2373 442.394C15.3922 445.377 15.5611 448.355 15.7547 451.338C15.9448 454.272 15.7899 457.503 18.3559 459.05C18.3876 459.167 18.4228 459.28 18.4545 459.395C19.0775 461.559 21.8548 460.865 22.1152 458.901C22.1186 458.88 22.1223 458.855 22.1258 458.834C24.2236 457.237 23.9069 454.578 23.752 452.025C23.5866 449.272 23.4106 446.521 23.2626 443.771C22.9811 438.492 22.7416 433.216 22.527 427.935C22.1081 417.493 21.8723 407.037 21.7948 396.586C21.64 375.686 22.8508 354.816 24.287 333.973C24.8888 325.252 25.5927 316.573 25.8076 307.857C26.9304 307.273 27.2753 305.618 26.7121 304.502C40.0102 313.549 52.3511 324.363 62.2595 336.931C63.9141 339.029 65.4944 341.191 67.0081 343.39C67.5007 344.105 67.9688 344.85 68.4406 345.594C67.9829 347.667 67.6274 349.776 67.1629 351.767C66.2054 355.875 65.8007 360.138 65.2515 364.313C64.1358 372.795 63.3508 381.351 62.6856 389.878C61.3762 406.716 60.4046 423.553 60.0985 440.441C59.9294 449.991 59.7042 459.601 60.1265 469.15C59.8133 471.016 61.4993 472.84 63.2628 473.075C64.808 473.281 66.2511 472.482 66.9269 471.195C71.7424 471.79 76.6842 472.066 81.4676 472.1C87.9126 472.146 94.3577 472.139 100.803 472.001C113.696 471.721 126.586 471.392 139.476 471.009C165.255 470.25 191.035 469.49 216.818 468.729C223.967 468.518 231.115 468.306 238.264 468.097C241.488 468.003 245.51 468.927 248.051 466.447C248.488 466.02 248.826 465.516 249.065 464.981C249.825 465.169 250.756 464.983 251.257 464.397C252.19 463.299 252.877 462.283 252.84 460.76C252.808 459.335 252.415 457.834 252.211 456.423C251.825 453.774 251.45 451.124 251.096 448.472C250.395 443.228 249.74 437.98 249.138 432.727C247.907 421.988 246.788 411.222 245.914 400.447C244.182 379.138 243.692 357.716 243.752 336.342C243.759 334.428 243.77 332.516 243.782 330.604C243.862 330.706 243.95 330.8 244.044 330.882C244.122 330.949 244.2 331.016 244.278 331.085C245.179 331.875 246.677 332.282 247.757 331.535C249.086 330.678 250 329.393 251.034 328.233C252.123 327.015 253.243 325.829 254.373 324.65C256.561 322.368 258.824 320.183 261.134 318.021C261.32 317.851 261.506 317.674 261.695 317.506C261.708 324.31 261.701 331.11 261.883 337.91C262.159 348.012 262.708 358.102 263.211 368.19C264.211 388.167 265.245 408.134 266.242 428.105C266.52 433.683 266.782 439.262 267.06 444.837C267.203 447.627 267.338 450.416 267.474 453.206C267.543 454.714 267.614 456.226 267.685 457.736C267.761 459.356 267.66 461.088 268.209 462.63C269.459 466.153 274.857 466.652 275.896 462.63C276.549 460.107 276.048 457.186 275.93 454.599C275.811 452.043 275.692 449.486 275.57 446.928Z" fill="#2B283A"></path><path fill-rule="evenodd" clip-rule="evenodd" d="M176.805 66.7558C197.459 66.7558 223.327 90.2922 230.899 100.308C237.264 108.729 236.363 152.109 236.363 177.843C236.363 183.225 233.928 193.411 233.043 198.559C229.805 217.424 215.69 233.245 187.754 233.245C165.008 233.245 147.503 226.047 130.576 207.639C126.714 203.439 107.854 218.474 103.997 213.06C93.9224 213.06 85.4982 119.025 105.279 90.8203C125.059 62.6153 156.151 66.7558 176.805 66.7558Z" fill="white"></path><path fill-rule="evenodd" clip-rule="evenodd" d="M112.739 73.5386C124.673 62.692 140.573 57.4737 156.614 57.8588C164.922 58.0588 173.201 59.6395 181.047 62.3466C184.972 63.7056 188.773 65.4789 192.407 67.4848C193.717 68.206 194.924 69.0509 196.086 69.9485L196.376 70.1739H196.379C199.497 71.2931 202.28 73.3024 204.804 75.6535C209.864 75.2502 214.963 75.7045 219.856 77.2634C226.665 79.4364 232.97 83.4154 237.396 89.0659C242.552 95.6443 244.267 103.624 243.655 111.861L243.543 113.26C242.938 120.537 241.854 129.896 235.877 134.677C235.422 135.041 234.918 135.317 234.399 135.484C238.25 142.076 241.413 149.394 243.304 156.785C250.524 185.016 244.972 214.457 236.29 241.668C235.578 243.909 232.184 245.4 230.456 243.208C227.371 239.29 222.89 236.305 217.848 235.744C214.738 235.399 211.642 236.024 208.703 234.613C207.55 234.057 206.437 233.149 205.637 232.044C200.675 233.924 195.332 234.811 190.032 234.593C181.335 234.236 172.037 231.226 166.053 224.628C165.093 223.569 164.85 222.379 165.071 221.308C165.821 221.04 166.592 220.841 167.386 220.716C174.973 225.184 183.338 228.169 192.327 228.357C197.521 228.465 202.587 227.739 206.798 224.499C207.71 223.798 208.548 223.021 209.322 222.187C218.128 216.528 224.336 206.917 227.287 196.623C230.038 187.022 229.7 177.025 228.753 167.178L228.254 161.981C227.527 154.354 226.852 146.704 226.663 139.045L226.72 139.042C228.581 138.922 228.592 136.014 226.72 136.135C221.876 136.448 217.067 135.654 212.238 136C212.197 133.719 212.033 131.449 211.362 129.249C210.979 127.992 208.788 127.744 208.556 129.249C208.245 131.262 208.132 133.264 208.098 135.286C200.869 135.19 193.648 134.582 186.419 134.832C185.086 133.411 184.661 130.892 184.037 129.139C183.946 128.881 183.855 128.627 183.761 128.369C183.213 130.873 182.436 133.323 181.414 135.721L179.641 135.727C169.581 135.774 159.317 136.074 149.494 138.161C148.811 137.638 148.405 136.724 148.295 135.895C147.583 130.496 146.566 125.242 144.763 120.097L144.506 119.371C144.484 119.311 144.462 119.247 144.439 119.18C143.111 121.321 141.526 123.317 139.798 125.176C138.78 126.272 137.712 127.319 136.616 128.337C135.551 129.518 134.451 130.681 133.384 131.866C133.426 132.081 133.462 132.3 133.492 132.523C133.818 134.981 133.852 137.474 133.613 139.942C133.181 144.403 131.92 148.702 129.895 152.679L129.831 153.077C129.523 154.941 129.086 156.867 128.064 158.27C129.339 159.697 130.322 161.402 130.891 163.297C131.398 164.983 129.062 166.445 127.851 165.064C126.889 163.968 125.82 163.061 124.646 162.337C124.572 162.438 124.438 162.487 124.287 162.403C121.017 160.59 115.463 161.139 112.196 162.846C108.133 164.969 106.547 169.326 106.998 173.74C107.431 177.959 109.279 182.891 112.862 185.052C114.506 186.045 115.787 186.128 117.533 185.652C118.091 185.501 118.783 185.036 119.08 184.805L119.373 184.571C120.517 183.667 121.583 183.049 122.934 183.025C124.316 182.594 125.705 183.192 126.234 184.639L126.266 184.733C126.514 185.47 126.965 186.397 126.866 187.523C126.765 188.73 126.212 189.827 125.386 190.71C125.244 190.863 125.092 191.016 124.935 191.157C139.158 206.539 140.984 230.507 133.691 249.722C133.374 250.566 133.036 251.398 132.683 252.223C131.464 255.049 126.772 254.174 126.175 251.372C125.997 250.534 125.801 249.697 125.586 248.87C125.192 247.337 124.74 245.82 124.23 244.327L124.037 243.768C123.604 242.532 123.2 241.287 122.763 240.05L122.72 239.908C122.703 239.853 122.685 239.788 122.665 239.715L121.927 241.326L119.683 246.184C118.632 248.452 115.295 247.22 115.171 245.035L115.168 244.959C115.157 244.557 115.143 244.157 115.117 243.759C114.957 240.79 114.445 237.906 113.63 235.082L113.336 235.447C108.958 240.855 103.821 245.922 96.7735 247.169C95.0057 247.482 93.0051 245.634 94.2198 243.851C94.7219 243.113 95.2056 242.357 95.6641 241.59C95.2674 241.406 94.8929 241.213 94.5472 241.015C91.8738 239.515 89.6475 237.38 87.807 234.956C83.9039 229.817 82.507 223.349 82.1653 217.019C81.8015 210.329 82.3907 203.276 84.2203 196.823C85.0134 194.032 86.0863 191.354 87.3268 188.755C87.2394 188.523 87.1558 188.29 87.0721 188.058C85.7336 184.329 84.6351 180.518 83.7219 176.662C81.8815 168.879 80.892 160.848 80.772 152.85C80.5537 138.522 83.0272 123.965 88.2397 110.603C93.6232 96.8241 101.72 83.5498 112.739 73.5386ZM106.035 198.812C105.046 197.258 102.573 198.659 103.491 200.224L103.525 200.281C105.093 202.748 105.827 205.553 106.73 208.304C107.308 210.074 110.12 209.318 109.534 207.53L109.34 206.933C108.442 204.143 107.624 201.309 106.035 198.812ZM114.644 169.127L115.301 168.81C117.372 167.822 119.188 167.149 121.635 168.012C124.913 169.164 128.423 172.83 126.208 176.387C125.393 177.699 123.945 178.223 122.454 177.914C119.939 177.393 119.291 175.131 118.015 173.274L117.795 172.96C117.017 171.836 116.034 170.283 114.739 169.843C114.444 169.741 114.32 169.284 114.644 169.127ZM116.497 93.5954L116.708 93.4061C118.116 92.1633 116.05 90.1137 114.649 91.3494C108.24 97.0072 106.014 105.863 102.689 113.41C101.944 115.107 104.45 116.59 105.203 114.878C108.374 107.676 110.479 99.0609 116.497 93.5954ZM193.514 91.1221C191.839 90.3681 190.374 92.8028 191.984 93.6046L192.045 93.6331C197.704 96.1875 200.113 101.973 202.419 107.343C203.153 109.059 205.66 107.58 204.932 105.879L204.516 104.915C202.11 99.3806 199.303 93.739 193.514 91.1221ZM202.384 87.6266C200.609 87.0124 199.848 89.8178 201.609 90.4318C206.407 92.0997 209.699 95.6972 212.474 99.8105C213.515 101.351 216.035 99.8979 214.984 98.3426C211.761 93.5678 207.935 89.5597 202.384 87.6266Z" fill="#2B283A"></path><path fill-rule="evenodd" clip-rule="evenodd" d="M326.051 272.584C329.399 259.642 332.479 254.154 338.426 249.657C343.989 245.45 352.108 241.915 363.956 239.335C376.299 237.184 376.648 230.791 379.741 220.517C380.644 217.428 385.118 216.606 387.049 218.833C387.32 218.54 387.605 218.272 387.899 218.03C387.635 216.556 389.788 212.334 389.717 210.925C388.965 196.218 393.791 188.832 405.839 186.086C408.459 185.489 426.257 185.137 428.81 185.841C439.978 188.919 450.972 198.69 449.29 210.46C452.796 215.026 456.227 217.813 461.634 219.284C473.671 220.807 485.706 222.161 497.745 223.321C521.313 227.005 543.408 239.438 558.51 257.569C559.903 259.242 560.305 261.515 559.076 263.3C560.038 267.409 565.459 277.382 561.194 280.2C568.208 296.92 584.346 329.234 584.376 338.467C584.505 377.252 580.3 427.735 541.9 449.198C540.363 450.705 540.143 452.371 539.476 454.614C537.789 461.673 531.656 466.72 524.946 466.308C491.887 467.041 459.867 463.022 426.806 462.827C412.228 462.74 394.694 464.909 382.028 466.354C369.364 467.8 356.578 466.522 344.424 462.827C343.399 464.436 341.328 465.371 339.226 464.909C326.626 462.416 316.436 454.676 307.562 446.217C304.85 441.302 294.259 427.291 298.469 422.415C294.654 406.338 294.852 389.062 301.633 373.75C300.672 370.945 302.423 367.861 301.633 364.963C301.061 362.865 299.595 361.996 298.857 359.921C297.818 356.998 298.947 353.078 300.116 350.095C300.597 348.608 299.234 347.009 298.857 345.492C297.062 338.338 301.171 338.97 304.131 334.188C304.087 334.172 303.317 330.76 303.32 330.776C302.867 328.338 304.002 325.215 304.993 323.181C305.661 321.807 307.097 320.945 308.522 321.104C307.086 316.248 305.271 312.208 303.32 307.529C299.868 299.284 295.5 291.388 290.543 283.925C288.514 280.868 291.239 277.327 294.525 277.12C305.156 276.447 315.669 274.921 326.051 272.584Z" fill="white"></path><path fill-rule="evenodd" clip-rule="evenodd" d="M357.078 334.942C361.33 333.281 365.91 332.364 370.51 332.005C368.033 331.573 365.549 331.157 363.044 330.941C361.295 330.792 359.675 330.808 358.361 332.129C357.485 333.009 357.074 334.142 356.499 335.183C356.688 335.101 356.883 335.02 357.078 334.942ZM311.438 319.405C318.401 319.757 325.373 321.407 331.672 324.397C334.25 325.621 336.585 327.391 337.268 330.3C337.615 331.787 337.53 333.322 337.346 334.823C337.208 335.96 337.173 337.412 336.181 338.182C336.013 338.311 335.831 338.41 335.643 338.483C337.968 339.529 340.179 340.786 342.146 342.08C343.943 343.263 345.791 345.085 346.62 347.14C346.689 346.908 346.761 346.689 346.829 346.482C348.243 342.316 350.419 338.906 353.85 336.61C353.243 336.339 352.825 335.696 353.02 334.809C353.834 331.098 357.271 327.873 361.155 328.103C365.406 328.351 369.975 329.896 373.819 331.844C375.221 331.814 376.62 331.833 378.002 331.895C378.241 331.902 378.229 332.224 378.002 332.251C376.88 332.391 375.759 332.55 374.637 332.734C371.972 333.159 369.313 333.697 366.714 334.368C363.596 335.172 360.367 335.978 357.453 337.385C351.8 340.115 348.3 347.252 349.017 353.461C349.137 354.479 349.532 357.559 350.95 357.242C352.149 356.973 352.625 354.479 353.043 353.558C354.165 351.108 356.185 349.507 358.609 348.424C361.454 347.149 364.501 346.287 367.452 345.283C369.122 344.713 370.793 344.143 372.468 343.576C374.18 342.99 375.809 342.183 377.634 342.592C378.735 342.84 378.863 344.15 378.243 344.901C377.303 346.046 375.906 346.381 374.548 346.852C372.76 347.473 370.972 348.093 369.187 348.714C366.427 349.672 363.533 350.479 360.84 351.651L360.925 351.841C361.144 351.782 361.401 352 361.36 352.266C360.955 354.744 360.394 357.609 361.017 360.091C361.509 362.058 363.242 364.237 365.491 363.658C365.137 363.336 365.009 362.782 365.245 362.267C366.137 360.369 377.813 352.873 378.854 355.656C378.889 355.755 378.783 355.828 378.698 355.812C377.811 355.628 376.324 357.138 375.614 357.616C374.587 358.306 373.546 358.979 372.532 359.687C371.422 360.461 370.34 361.272 369.283 362.111C368.453 362.771 367.826 363.455 366.875 363.789C367.373 364.025 367.771 364.466 367.939 365.029C368.368 366.496 369.198 367.739 370.639 368.387C372.149 369.06 373.849 368.635 375.439 368.8C377.606 369.019 379.495 370.046 381.074 371.512C384.39 374.598 386.054 380.035 390.689 381.492C393.458 382.363 396.53 381.814 399.334 381.421C402.466 380.98 405.515 380.633 408.668 381.09C411.688 381.531 414.542 382.572 417.299 383.843C419.885 385.036 422.741 386.382 425.034 388.159C425.508 386.709 425.983 385.272 426.344 383.79C427.197 380.288 427.659 376.719 427.769 373.118C427.872 369.692 427.682 366.25 427.385 362.839C427.24 361.134 427.008 359.438 426.864 357.736C426.824 357.306 426.749 356.846 426.691 356.387C422.596 353.978 418.294 352.133 413.958 350.235C413.947 350.23 413.935 350.224 413.924 350.219C413.788 350.157 413.657 350.102 413.524 350.044C413.526 350.035 413.531 350.028 413.538 350.019C413.043 349.718 412.696 349.316 412.49 348.863C406.241 344.731 401.018 339.092 397.123 332.515C395.489 329.758 393.92 326.897 391.783 324.482C389.51 321.906 386.81 320.373 383.468 319.578C379.562 318.642 375.536 318.084 371.533 317.765C369.347 317.595 366.905 317.326 364.524 317.337C362.865 317.349 361.24 317.489 359.749 317.9C357.54 318.505 356.251 320.177 354.863 321.871C353.54 323.493 352.221 325.12 350.984 326.814C349.812 328.418 348.707 330.075 347.746 331.814C347.17 332.855 346.636 333.929 346.186 335.034C346.03 335.425 345.823 335.868 345.726 336.275C345.63 336.684 345.807 337.116 345.345 337.116C347.248 337.143 347.227 340.172 345.338 340.062C337.941 339.632 348.537 325.235 350.086 323.229C352.28 320.389 354.541 316.682 358.053 315.361C358.101 315.343 358.156 315.324 358.204 315.308C357.184 314.343 356.378 313.187 355.605 312.01C354.81 310.802 353.861 309.414 353.599 307.98C353.434 307.065 354.576 306.544 355.118 307.343C355.904 308.511 356.286 309.988 356.872 311.273C357.471 312.573 358.202 313.803 358.777 315.115C360.165 314.69 361.663 314.497 363.187 314.43C361.263 311.836 357.975 306.826 357.579 306.183C355.759 303.205 354.027 300.135 352.372 297.06C350.582 293.728 349.049 290.26 347.335 286.889C346.363 284.979 345.384 283.054 344.304 281.199C343.932 280.565 343.532 279.928 343.079 279.352C342.992 279.237 342.879 279.14 342.776 279.032C342.656 278.968 342.535 278.894 342.466 278.858C341.843 278.501 341.625 277.674 341.186 277.148C340.487 276.302 339.664 276.203 338.612 276.192C336.369 276.169 334.119 276.256 331.879 276.318C328.588 276.41 325.3 276.541 322.011 276.714C321.016 276.766 320.026 276.819 319.031 276.881C314.249 277.164 309.471 277.536 304.705 277.991C300.486 278.393 296.269 279.048 292.048 279.363C297.763 292.898 304.101 306.187 311.277 319.015C311.349 319.143 311.404 319.274 311.438 319.405ZM343.148 354.275C344.07 354.695 344.964 355.222 345.798 355.819C345.66 354.888 345.625 353.907 345.664 352.924C344.975 353.659 344.097 354.08 343.148 354.275ZM303.793 330.992C303.86 331.001 303.919 331.035 303.951 331.1C305.227 333.722 304.694 336.652 302.609 338.708C301.52 339.779 299.142 340.99 299.22 342.751C299.284 344.175 300.84 345.37 301.504 346.545C302.122 347.641 302.352 348.842 301.858 350.031C301.224 351.549 299.452 352.154 298.845 353.648C298.078 355.543 299.326 357.83 300.201 359.48C301.017 361.008 302.069 362.534 302.768 364.149C307.449 366.567 311.641 370.273 315.244 374.038C319.187 378.153 322.572 382.995 328.836 382.873C329.464 382.862 329.939 383.193 330.224 383.648C331.966 383.728 333.715 383.763 335.459 383.77C338.525 383.786 341.588 383.753 344.651 383.659C344.865 382.919 344.708 381.917 344.72 381.292C344.757 379.282 344.777 377.275 344.86 375.265C344.883 374.706 344.908 374.143 344.931 373.585C343.828 375.573 341.677 376.476 339.225 376.338C335.287 376.108 331.323 375.465 327.421 374.885C325.364 374.584 323.314 374.24 321.267 373.872C319.585 373.573 317.211 373.649 316.034 372.305C315.758 371.992 315.742 371.418 316.177 371.206C317.34 370.637 318.075 370.954 319.353 371.2C320.913 371.503 322.475 371.788 324.043 372.057C327.051 372.578 330.066 373.061 333.088 373.486C334.809 373.727 336.535 373.964 338.258 374.152C339.763 374.313 341.461 374.529 342.675 373.401C345.122 371.119 343.75 367.293 342.204 364.988C342.171 364.944 342.171 364.901 342.183 364.862C340.724 364.522 339.269 364.124 337.817 363.844C335.025 363.308 332.212 362.856 329.397 362.453C323.613 361.631 317.79 361.086 311.976 360.539C310.535 360.401 310.519 358.142 311.976 358.278C320.329 359.039 328.726 359.762 336.969 361.366C339.035 361.764 341.087 362.217 343.125 362.727C344.088 362.964 345.122 363.336 346.133 363.347C346.193 363.347 346.255 363.347 346.317 363.343C348.296 363.281 348.583 361.594 347.496 360.188C347.363 360.015 347.222 359.843 347.082 359.68C345.161 357.396 342.769 355.872 340.303 354.296C337.541 353.919 334.786 353.085 332.083 352.473C325.408 350.957 318.732 349.44 312.052 347.928C310.742 347.629 311.298 345.623 312.608 345.917C317.68 347.062 322.749 348.206 327.818 349.353L335.238 351.03C336.723 351.361 338.573 352.032 340.317 352.273C341.179 352.393 342.011 352.407 342.764 352.232C345.196 351.658 345.317 348.629 344.27 346.829C343.095 344.807 340.873 343.543 338.904 342.399C335.489 340.411 331.856 338.984 328.305 337.337C327.676 337.199 327.046 337.061 326.417 336.923C322.754 336.119 318.567 335.726 315.117 334.25C314.083 333.814 314.649 332.191 315.669 332.214C318.346 332.272 321.147 333.221 323.762 333.784C326.593 334.397 329.429 335.004 332.258 335.613C332.543 335.675 334.225 336.21 334.48 336.093C334.641 336.015 334.698 335.457 334.751 335.089C334.926 333.88 335.052 332.61 334.864 331.394C334.448 328.673 332.171 327.393 329.866 326.348C324.734 324.024 319.107 322.57 313.506 321.986C312.217 321.853 310.926 321.77 309.627 321.726C308.104 321.68 306.847 321.412 306.075 322.91C304.861 325.268 304.193 328.301 303.793 330.992ZM310.926 416.506C312.045 412.653 311.739 408.537 312.507 404.605C312.902 402.576 313.44 400.563 314.03 398.582C314.506 396.983 315.299 395.282 315.389 393.612C315.393 393.501 315.262 393.437 315.172 393.488C313.594 394.388 312.383 396.335 311.484 397.863C310.406 399.692 309.584 401.606 308.92 403.619C307.598 407.629 306.514 412.467 308.219 416.506C308.724 417.711 310.508 417.952 310.926 416.506ZM345.478 365.448C344.534 365.356 343.589 365.177 342.645 364.965C343.7 365.992 344.676 367.229 345.219 368.598C345.301 367.546 345.409 366.496 345.552 365.452C345.529 365.452 345.501 365.452 345.478 365.448ZM354.56 445.689C356.226 444.53 357.442 442.91 358.855 441.481C360.243 440.075 358.071 437.908 356.681 439.314C355.474 440.534 354.429 442.058 353.011 443.044C352.326 443.519 352.011 444.376 352.46 445.139C352.855 445.813 353.88 446.162 354.56 445.689ZM363.851 401.142C360.81 399.832 357.818 398.405 354.633 397.461C352.733 396.896 351.926 399.853 353.818 400.414C356.75 401.285 359.498 402.581 362.299 403.787C364.099 404.564 365.661 401.924 363.851 401.142ZM395.976 400.225C396.721 398.394 393.747 397.606 393.014 399.41C392.171 401.487 391.203 403.509 390.36 405.584C389.616 407.413 392.589 408.204 393.322 406.4C394.166 404.323 395.133 402.3 395.976 400.225ZM427.679 436.756C428.176 437.416 429.001 437.772 429.782 437.306C430.435 436.915 430.834 435.878 430.333 435.212C428.867 433.266 427.385 431.342 425.669 429.607C424.276 428.201 422.104 430.368 423.495 431.774C425.027 433.323 426.372 435.019 427.679 436.756ZM432.216 231.765C430.805 232.726 429.571 233.891 428.364 235.092C426.965 236.487 429.136 238.652 430.538 237.257C431.554 236.246 432.576 235.219 433.767 234.41C434.454 233.941 434.762 233.07 434.318 232.314C433.921 231.634 432.9 231.299 432.216 231.765ZM386.084 281.054C386.881 282.645 387.598 284.205 387.644 286.016C387.692 287.985 390.765 287.987 390.716 286.016C390.657 283.646 389.781 281.594 388.738 279.508C387.853 277.741 385.203 279.294 386.084 281.054ZM369.161 241.467C367.509 240.371 365.972 243.025 367.61 244.112C368.938 244.994 370.264 245.877 371.592 246.759C373.245 247.855 374.78 245.201 373.144 244.114C371.815 243.232 370.489 242.35 369.161 241.467ZM442.57 310.685C442.853 312.631 445.815 311.799 445.535 309.871C445.103 306.891 444.574 303.951 443.765 301.049C443.234 299.149 440.27 299.96 440.801 301.863C441.612 304.765 442.14 307.704 442.57 310.685ZM453.343 345.77C455.322 345.729 455.322 342.666 453.343 342.707C451.553 342.744 449.795 343.215 448.067 343.644C446.148 344.122 446.966 347.075 448.885 346.597C450.344 346.234 451.831 345.802 453.343 345.77ZM457.319 416.449C457.997 416.78 458.695 417.076 459.382 417.389C460.756 418.016 462.131 418.644 463.505 419.273C466.368 420.583 469.231 421.898 472.09 423.217C477.812 425.857 483.58 428.405 489.316 431.018C495.166 433.682 501.001 436.382 506.829 439.093C509.575 440.371 512.341 441.603 515.101 442.846C517.461 443.91 520.38 445.771 522.972 445.946C523.105 445.955 523.149 445.785 523.073 445.7C522.094 444.59 520.534 443.944 519.247 443.223C517.932 442.485 516.593 441.791 515.26 441.088C512.482 439.622 509.699 438.165 506.893 436.749C501.281 433.918 495.66 431.108 490.037 428.302C484.301 425.439 478.573 422.557 472.786 419.795C470.063 418.497 467.336 417.201 464.608 415.907C463.13 415.208 461.65 414.51 460.173 413.811C459.534 413.51 458.902 413.184 458.249 412.915C457.381 412.556 456.721 412.63 455.827 412.409C454.368 412.051 453.736 413.901 454.855 414.707C455.779 415.369 456.264 415.937 457.319 416.449ZM477.833 447.862C478.148 447.097 477.488 446.169 476.76 445.978C475.889 445.748 475.188 446.277 474.871 447.047C474.027 449.09 472.828 450.965 471.283 452.548C469.902 453.961 472.074 456.128 473.455 454.713C475.392 452.73 476.783 450.411 477.833 447.862ZM492.924 398.695C494.325 397.3 492.151 395.133 490.752 396.53L486.77 400.499C485.368 401.896 487.542 404.061 488.941 402.666L492.924 398.695ZM533.779 392.221C536.643 393.058 539.982 393.828 541.933 396.264C542.029 396.383 542.188 396.229 542.13 396.112C539.632 390.946 532.465 389.135 527.504 387.327C523.995 386.047 520.394 384.985 516.763 384.036C517.126 379.907 516.124 375.481 515.777 371.372C515.405 366.985 515.101 362.587 514.947 358.186C514.789 353.696 514.75 349.176 514.899 344.685C515.046 340.211 515.628 335.792 515.883 331.334C515.908 330.902 515.306 330.882 515.177 331.238C513.667 335.376 513.024 339.961 512.532 344.322C512.027 348.817 511.859 353.298 511.926 357.821C511.992 362.467 512.263 367.105 512.636 371.74C512.81 373.934 513.015 376.129 513.208 378.323C513.357 379.998 513.424 381.66 513.766 383.28C511.576 382.745 509.382 382.237 507.194 381.745C500.217 380.175 493.208 378.719 486.262 377.023C482.852 376.188 479.49 375.191 476.093 374.304C472.897 373.47 469.521 372.459 466.239 372.087C465.067 371.953 464.918 373.55 465.692 374.093C468.36 375.961 471.904 377.262 474.986 378.307C478.079 379.355 481.293 380.109 484.465 380.886C491.074 382.508 497.747 383.832 504.411 385.213C511.066 386.591 517.733 387.961 524.312 389.661C527.481 390.48 530.638 391.302 533.779 392.221ZM549.475 310.275C551.187 311.277 552.731 308.628 551.026 307.631C548.794 306.325 546.418 305.346 544.021 304.39C542.183 303.655 541.393 306.619 543.206 307.343C545.359 308.203 547.471 309.104 549.475 310.275ZM555.668 424.071C557.384 425.064 558.928 422.417 557.219 421.429C554.817 420.041 552.186 419.115 549.695 417.899C547.926 417.035 546.37 419.678 548.146 420.544C550.635 421.76 553.266 422.683 555.668 424.071ZM558.453 359.478C556.794 361.049 554.581 361.787 552.492 362.612C550.672 363.331 551.471 366.293 553.31 365.567C555.911 364.538 558.558 363.6 560.624 361.645C562.063 360.282 559.884 358.122 558.453 359.478ZM540.106 271.748C538.283 272.462 539.081 275.422 540.924 274.703C542.967 273.903 545.076 273.296 547.119 272.497C548.941 271.784 548.144 268.822 546.301 269.544C544.258 270.341 542.149 270.95 540.106 271.748ZM507.732 236.901C505.792 236.577 504.967 239.528 506.914 239.856C509.327 240.261 511.705 240.736 513.994 241.619C515.841 242.333 516.634 239.369 514.809 238.666C512.521 237.783 510.145 237.308 507.732 236.901ZM497.044 321.745C498.82 320.874 497.26 318.233 495.493 319.1C493.629 320.014 491.699 320.72 489.665 321.152C487.728 321.561 488.553 324.514 490.481 324.105C492.77 323.618 494.948 322.772 497.044 321.745ZM486.933 273.954C485.021 273.432 484.212 276.387 486.117 276.909C489.467 277.823 492.919 278.299 496.295 279.113C498.218 279.577 499.032 276.624 497.11 276.16C493.735 275.344 490.285 274.871 486.933 273.954ZM444.085 258.957C442.138 259.316 442.968 262.268 444.9 261.912C446.959 261.533 449.044 261.526 451.13 261.526C453.111 261.524 453.106 258.461 451.13 258.463C448.761 258.463 446.419 258.527 444.085 258.957ZM304.326 274.96C309.347 274.48 314.375 274.098 319.41 273.811C319.644 273.8 319.876 273.784 320.111 273.772C320.136 273.719 320.171 273.669 320.205 273.616C321.85 271.21 323.059 268.806 324.107 266.088C325.111 263.5 326.083 260.83 327.625 258.495C329.388 255.834 331.766 253.752 334.37 251.948C335.951 253.008 337.419 254.248 338.761 255.563C340.172 256.946 342.346 254.779 340.933 253.396C339.74 252.229 338.467 251.148 337.123 250.174C338.676 249.232 340.262 248.347 341.808 247.467C347.604 244.172 353.537 241.122 359.595 238.337C362.41 237.039 365.259 235.885 368.129 234.718C369.674 234.091 371.2 233.282 372.741 232.556C372.631 231.466 372.958 230.248 373.794 229.533C374.414 229.009 374.892 228.813 375.63 228.443C375.796 228.385 375.897 228.35 375.943 228.331C375.908 228.339 375.807 228.369 375.644 228.423C375.251 228.603 375.221 228.549 375.55 228.266C375.57 227.646 376.795 226.337 377.075 225.697C378.05 223.503 378.353 221.183 379.794 219.184C381.779 216.431 385.114 215.39 388.223 216.324C388.545 213.012 388.63 209.555 389.882 206.598C389.917 206.519 390.027 206.484 390.077 206.572C391.383 208.789 391.495 211.258 391.594 213.816C391.691 216.217 391.599 218.671 391.284 221.056C391.484 221.209 391.686 221.355 391.897 221.496C392.888 222.148 393.956 222.649 395.078 223.021C397.213 223.725 399.453 224.031 401.691 224.138C407.473 224.414 413.43 223.832 419.115 222.844C424.864 221.845 433.679 220.344 438.797 217.476C442.173 215.585 445.286 213.276 448.444 211.04C447.299 207.364 447.008 203.413 448.161 200.308C448.299 199.936 448.883 199.867 448.993 200.308C449.715 203.271 449.926 206.25 450.887 209.179C450.903 209.221 450.919 209.268 450.933 209.309C451.234 209.107 451.532 208.907 451.831 208.708C452.523 208.253 453.465 208.594 453.879 209.244C460.513 219.662 471.017 220.26 482.049 222.121C494.121 224.158 506.254 226.355 517.861 230.34C528.963 234.155 539.573 239.707 547.976 248C549.879 249.878 551.658 251.879 553.337 253.968C551.713 254.17 550.1 254.49 548.509 254.988C546.627 255.577 547.436 258.534 549.327 257.941C551.37 257.3 553.439 256.983 555.525 256.827C561.236 264.612 565.689 273.443 569.538 282.134C576.924 298.797 581.731 316.544 583.942 334.611C582.729 333.885 581.492 333.196 580.224 332.552C578.464 331.658 576.91 334.303 578.675 335.197C580.631 336.19 582.533 337.284 584.374 338.469C585.178 346.377 585.491 354.337 585.302 362.283C584.852 381.228 582.287 400.729 576.483 418.804C573.638 427.677 569.864 436.476 564.246 443.972C561.704 447.368 558.816 450.432 555.413 452.985C553.765 454.226 552.021 455.333 550.18 456.266C547.811 457.477 544.722 457.875 542.679 459.587C542.006 460.15 541.489 460.892 541.096 461.731C541.324 463.323 541.349 464.92 540.912 466.513C540.774 467.012 540.398 467.416 539.933 467.611C539.924 467.749 539.924 467.885 539.924 468.013C539.924 468.075 539.832 468.092 539.821 468.03C539.802 467.91 539.782 467.793 539.763 467.669C539.614 467.719 539.455 467.742 539.294 467.742C533.46 467.765 527.618 467.623 521.777 467.425C522.227 466.046 522.717 464.677 523.188 463.298C523.824 461.425 520.858 460.628 520.224 462.484C519.674 464.098 519.1 465.695 518.59 467.315C512.33 467.083 506.073 466.802 499.824 466.598C486.54 466.157 473.257 466.012 459.968 465.732C439.33 465.297 418.543 464.403 397.872 465.277C397.158 463.764 396.358 462.287 395.597 460.795C394.703 459.035 392.054 460.586 392.945 462.342C393.472 463.378 394.018 464.401 394.538 465.435C390.351 465.653 386.169 465.938 381.995 466.329C374.874 466.995 367.822 468.179 360.709 468.914C353.478 469.663 346.402 469.53 339.225 468.34C337.936 468.126 337.176 467.347 336.861 466.382C336.849 466.38 336.84 466.373 336.833 466.359C336.466 465.931 336.119 465.575 335.762 465.265C335.335 464.989 334.875 464.755 334.333 464.548C333.322 464.167 332.269 463.932 331.203 463.776C330.027 463.599 328.836 463.583 327.662 463.438C326.669 463.312 325.702 463.123 324.734 462.896C322.995 462.482 321.343 461.942 319.7 461.225C318.266 460.602 316.972 459.706 315.749 458.73C313.224 456.887 311.034 454.536 309.12 452.093C308.007 450.666 306.957 449.184 306.006 447.642C304.347 444.967 302.933 442.191 301.504 439.392C300.985 438.565 300.511 437.715 300.079 436.848C302.871 436.028 305.691 435.359 308.651 435.311C310.629 435.279 310.629 432.215 308.651 432.248C305.257 432.303 302.044 433.093 298.855 434.035C298.698 433.624 298.549 433.208 298.411 432.788C298.032 431.912 297.717 431.011 297.455 430.101C297.301 429.688 297.147 429.274 296.995 428.86C296.648 427.429 296.304 425.993 295.954 424.556C295.258 422.258 294.709 419.928 294.307 417.566C293.967 416.01 293.707 414.445 293.53 412.86C292.992 409.02 292.553 405.187 292.524 401.303C292.57 398.911 292.724 396.521 292.986 394.143C293.096 392.527 293.284 390.921 293.537 389.324C293.868 386.95 294.194 384.599 294.743 382.255C295.155 380.669 295.566 379.084 295.977 377.501C297.002 374.196 298.211 370.956 299.606 367.789C299.684 367.592 300.072 367.155 300.305 367.15C300.482 367.146 300.727 367.307 300.647 367.523C300.64 367.541 300.633 367.564 300.624 367.583C300.704 367.403 300.783 367.219 300.863 367.04C300.932 366.87 301.201 366.535 301.408 366.537C301.419 366.537 301.431 366.537 301.447 366.542C301.392 366.502 301.343 366.454 301.293 366.397C299.914 364.77 299.018 362.628 298.032 360.744C297.214 359.19 296.442 357.552 296.219 355.794C296.023 354.252 296.288 352.731 297.26 351.483C298.365 350.063 300.447 349.396 299.291 347.344C297.979 345.007 296.046 342.983 297.97 340.328C298.949 338.977 300.502 338.235 301.653 337.058C302.979 335.7 303.609 333.88 303.575 332.024C303.494 332.07 303.386 332.047 303.347 331.932C302.233 328.579 303.039 324.895 304.181 321.63C304.804 319.856 306.121 319.371 307.654 319.281C301.017 306.36 294.805 293.231 289.27 279.8C289.086 279.358 288.907 278.917 288.725 278.478C288.456 277.819 289.024 276.943 289.681 276.796C294.468 275.751 299.452 275.417 304.326 274.96Z" fill="#2B283A"></path><path fill-rule="evenodd" clip-rule="evenodd" d="M360.128 34.02C381.35 27.7973 454.34 34.1758 456.144 35.5236C459.097 37.9753 473.464 45.7546 475.7 47.5307C495.915 68.9328 476.645 100.715 478.127 126.534C478.033 135.692 481.939 144.054 483.736 152.864C484.492 157.482 484.327 162.257 481.916 166.403C477.681 173.81 468.737 175.311 461.464 178.298C457.845 179.855 454.462 182.062 451.362 184.477C430.49 202.923 418.871 215.554 388.416 211.393C388.26 212.845 386.973 214.272 385.376 213.623C381.637 212.102 377.923 210.488 374.152 209.047C373.346 210.987 371.029 211.541 369.462 209.827L369.453 209.84C362.472 204.182 358.032 196.446 354.732 188.165C352.425 183.387 350.536 178.402 349.091 173.268C348.928 172.687 348.951 172.169 349.098 171.722C342.436 148.785 339.97 124.612 341.723 100.797C342.077 95.8841 343.008 90.9056 342.778 85.9716C342.574 81.514 340.65 77.2972 339.184 73.1456C331.628 55.4967 343.18 39.577 360.128 34.02Z" fill="white"></path><path fill-rule="evenodd" clip-rule="evenodd" d="M357.458 5.36081L357.233 5.18559C354.785 3.26781 352.478 0.754405 349.026 1.69689C346.198 2.47011 344.768 4.80962 344.162 7.63687C343.3 6.73675 342.461 5.80489 341.645 4.84135C339.421 2.22427 334.455 3.58038 333.793 6.91519C332.451 13.6323 332.384 20.4684 333.69 27.1976C333.887 28.2165 334.122 29.2317 334.395 30.2348C332.908 28.3831 331.523 26.4521 330.28 24.4179C328.935 22.2092 325.895 23.3036 325.684 25.663C325.628 26.2736 325.596 26.8922 325.589 27.5147C324.64 27.8479 323.985 28.8232 324.236 30.0209C325.617 36.611 327.366 43.1102 329.471 49.4981C326.088 47.7059 322.299 46.6431 318.73 47.9081C313.061 49.9223 311.712 56.1002 312.819 61.4177C314.212 68.1032 318.594 73.6981 324.247 77.3659C324.918 78.3731 325.58 79.3884 326.212 80.4231C326.224 83.3455 326.754 86.26 327.828 88.9684C329.034 92.0098 331.162 94.6387 333.782 96.6372C334.701 98.6402 337.141 100.103 339.281 99.6977L339.393 99.6745L339.398 99.6786C338.851 101.637 338.378 103.616 337.969 105.599C334.804 120.959 336.406 136.949 339.292 152.223L339.386 152.71C341.979 166.303 344.993 180.38 350.858 193.001C356.159 204.413 365.151 214.449 377.999 216.939C393.116 219.87 409.845 215.226 422.844 207.482C427.555 204.675 423.237 197.275 418.545 200.13C411.775 204.246 404.419 207.121 396.638 208.636C389.367 210.048 381.235 210.527 374.261 207.601C364.547 203.525 358.777 193.568 355.123 184.194C352.972 178.662 351.361 172.953 349.861 167.219C347.928 159.847 346.126 152.428 344.773 144.926C342.252 130.933 341.434 116.4 344.102 102.367C344.95 97.8901 346.154 93.3856 347.721 89.0555C347.967 88.7503 348.201 88.4093 348.413 88.0366C350.051 85.1657 351.182 81.9024 352.402 78.7976C353.468 76.9456 354.636 75.1654 355.874 73.4244C357.727 72.0029 359.489 70.483 361.105 68.8248C356.412 65.7898 352.273 61.9904 349.293 57.1504C348.801 56.352 349.114 55.5891 349.697 55.1589C352.076 58.1316 355.155 60.6493 358.393 62.8797C360.052 64.2991 361.84 65.5745 363.713 66.7267C365.05 66.9912 366.404 67.173 367.716 67.3219C371.45 67.7463 375.205 67.5876 378.921 67.0921C386.955 66.0215 420.93 56.6738 435.254 60.3076C438.236 61.0645 439.643 63.7373 441.224 66.2474C442.593 68.4307 444.335 70.2378 446.426 71.726L446.661 71.8901C450.749 74.7173 458.969 83.6612 462.425 91.6442C466.885 101.951 471.171 132.836 469.199 133.102C464.038 133.8 461.179 136.512 456.976 139.422C456.698 139.613 456.861 140.128 457.22 139.997C459.994 138.998 462.995 138.407 465.904 137.923C468.535 137.483 471.307 137.404 473.846 138.344C477.746 139.787 479.646 143.05 480.427 146.73C480.733 148.17 480.868 149.673 480.885 151.16L480.887 151.591C480.885 156.279 480.009 161.477 476.601 164.935C475.153 166.406 473.189 167.397 471.132 167.671C468.88 167.972 467.492 166.957 465.424 166.43C463.043 165.823 461.184 167.389 461.407 169.431C460.904 169.872 460.414 170.336 459.929 170.807L459.927 170.811C459.608 170.954 459.307 171.144 459.033 171.374C458.585 171.755 458.208 172.171 457.905 172.619C457.236 172.75 456.593 173.123 456.064 173.805C454.977 175.205 453.973 176.62 453.04 178.064C451.369 179.836 449.706 181.613 448.065 183.417C446.093 185.585 444.172 187.803 442.239 190.008L441.27 191.109C440.226 192.295 439.185 193.481 438.147 194.67L437.837 195.02C436.791 196.19 435.989 197.054 435.876 198.739C435.796 199.988 437.143 200.836 438.257 200.551C439.978 200.108 440.776 198.759 441.805 197.421L443.363 195.427L444.827 193.548C445.553 192.612 446.288 191.681 447.017 190.749C447.235 192.466 449.055 193.85 450.714 193.925L451.1 193.94C454.995 194.069 459.732 193.52 462.696 190.777C464.031 192.121 465.69 193.18 467.733 193.814C472.377 195.257 477.125 192.7 479.003 188.81C482.643 190.368 486.756 190.681 490.688 189.535C492.958 188.871 493.742 186.046 492.161 184.317L492.089 184.242L492.071 184.221C492.397 183.797 492.577 183.278 492.607 182.714C492.641 182.027 492.14 181.3 492.243 180.66C492.639 178.218 496.623 180.027 497.892 180.556C498.133 180.657 498.361 180.705 498.572 180.712C500.532 181.282 502.663 178.711 501.635 176.589C499.337 171.846 497.094 167.068 494.769 162.334C495.063 162.433 495.364 162.524 495.663 162.599C499.841 163.67 504.91 161.616 503.947 156.584C503.724 155.402 502.651 154.593 501.587 154.229C499.517 153.515 497.961 154.03 496.364 153.364C494.567 152.619 492.689 151.251 491.108 149.962C489.422 148.59 487.965 147.048 486.675 145.374C486.158 142.944 485.267 140.62 483.837 138.621C483.75 138.502 483.663 138.383 483.571 138.268C492.735 136.086 491.536 127.083 495.578 119.104L495.918 118.443C498.664 113.105 501.058 107.088 499.675 101.011C499.429 99.9362 499.071 98.9092 498.611 97.9496C499.346 98.0408 500.084 98.1243 500.817 98.2074C502.504 98.3977 504.221 96.2247 503.55 94.6267C503.196 93.79 502.807 92.9811 502.387 92.1962C501.219 90.031 499.785 88.0644 498.099 86.2878C500.932 86.2124 503.772 86.2124 506.574 85.8873C509.221 85.5821 512.004 84.1346 511.921 81.0854C511.841 78.178 509.288 75.9775 506.918 74.5589C504.588 71.4626 501.633 68.8891 498.289 66.9765C498.951 66.8281 499.62 66.718 500.302 66.6504L500.643 66.6201C502.552 66.4694 504.266 65.9461 505.999 65.1489C507.546 64.4352 507.523 62.2703 506.509 61.1799C503.237 57.646 498.335 58.7966 494.521 60.8218C494.785 60.485 495.077 60.1607 495.394 59.8505L495.587 59.666C497.462 57.9223 494.647 55.1245 492.781 56.862C492.191 57.4112 491.662 58.008 491.189 58.6404L491.145 58.5468C488.677 53.546 485.067 49.0697 480.797 45.4831L479.793 44.6493C472.092 38.223 469.716 35.1771 459.474 36.1234C459.911 34.2648 459.867 32.1741 459.768 30.455L459.755 30.2231C459.362 23.7596 456.976 16.0234 450.666 13.1208C449.025 12.3714 447.169 13.5967 447.605 15.4722C447.911 16.8006 448.283 18.0933 448.75 19.3503C447.371 17.9029 445.895 16.5508 444.331 15.3057C437.956 10.2302 429.437 5.86439 421.059 7.29189C416.454 8.08097 412.841 10.9677 408.988 13.3786C405.113 15.8053 400.786 17.2447 396.25 17.7641C389.912 18.4937 383.549 17.7602 377.28 16.6023C372.974 14.7268 368.794 12.53 364.715 10.1627C362.205 8.70747 359.765 7.11741 357.458 5.36081ZM470.004 145.744C468.662 145.399 467.156 145.403 465.812 145.74C462.338 146.613 459.107 149.515 458.904 153.175C458.812 154.829 460.148 156.411 461.694 156.835C463.45 157.319 464.957 156.462 465.982 155.09C467.081 153.623 467.356 152.033 468.701 150.701L469.011 150.399C470.155 149.306 471.886 147.894 473.471 148.147C473.706 148.183 473.88 147.865 473.644 147.739C472.348 147.033 471.5 146.125 470.004 145.744ZM451.962 128.505C451.351 128.005 450.54 128.591 450.829 129.31L450.852 129.361C451.578 130.892 450.724 132.688 449.843 133.969C449.085 135.075 450.519 136.126 451.526 135.65C454.361 134.306 454.214 130.329 451.962 128.505ZM441.603 82.5201C441.656 82.1473 441.159 81.9927 441.031 82.3615C438.917 88.4957 438.308 93.9281 438.655 100.415L438.687 100.991C439.061 107.239 440.155 113.853 443.942 118.985C444.818 120.17 446.612 119.472 446.323 117.981C445.16 112.014 442.924 106.347 442.056 100.308C441.148 93.9955 440.739 88.8367 441.603 82.5201ZM461.361 104.816C461.051 103.179 458.53 101.494 457.257 103.139C456.827 103.698 457.33 104.384 457.847 104.591C458.332 104.781 458.764 104.519 459.24 104.614C459.626 104.692 459.906 104.932 460.095 105.26L460.134 105.332C460.506 106.046 461.492 105.514 461.361 104.816ZM462.397 91.7699C461.492 90.0965 459.408 89.03 457.627 90.0728C457.038 90.4177 457.268 91.4211 457.983 91.3893L458.408 91.3721C459.679 91.3259 460.947 91.3517 462.016 92.1546C462.255 92.3329 462.517 91.996 462.397 91.7699ZM459.21 46.0741C464.286 43.794 469.335 45.8523 473.48 49.0626C473.823 49.3283 473.991 49.6385 474.025 49.9501C471.258 48.8735 468.312 48.1678 465.495 47.5852C463.192 47.1086 460.867 46.7869 458.539 46.6601C458.67 46.4266 458.884 46.2202 459.21 46.0741Z" fill="#2B283A"></path><path fill-rule="evenodd" clip-rule="evenodd" d="M376.382 168.354C380.49 166.506 387.869 168.119 390.549 168.76C396.776 170.252 403.04 173.476 404.978 178.527C407.158 184.219 402.806 186.01 402.165 185.718C397.854 186.021 392.72 183.314 388.202 182.615C384.535 182.043 380.667 181.544 377.23 179.597C374.722 180.976 369.056 181.721 364.483 182.927C360.588 183.953 358.901 186.177 355.288 185.704C350.961 185.138 352.733 176.046 357.557 172.363C362.835 168.333 371.763 166.698 376.382 168.354ZM368.247 207.227C371.841 208.103 372.082 200.233 372.484 197.452C372.799 195.28 374.573 189.678 379.073 189.92C383.572 190.161 385.263 194.855 385.033 197.774C384.886 199.667 383.14 209.256 388.715 210.469C392.268 210.456 396.379 210.217 400.117 209.529C404.516 208.534 410.233 205.05 411.745 211.911C412.288 214.38 392.913 221.716 384.317 222.379C375.598 224.144 365.397 221.43 359.188 214.768C357.777 213.252 353.799 206.96 353.514 205.419C352.919 202.18 354.298 200.097 358.31 201.238C361.144 202.75 365.935 206.664 368.247 207.227Z" fill="#2B283A"></path><path fill-rule="evenodd" clip-rule="evenodd" d="M374.814 172.494C373.357 169.935 369.014 170.351 368.35 173.336C367.003 179.388 374.244 184.977 379.746 185.117C385.21 185.255 391.344 180.619 390.553 174.763C390.358 173.314 388.416 173.49 387.754 174.398L387.497 174.747C385.7 177.153 383.328 179.645 379.992 179.058C378.608 178.815 377.354 177.954 376.517 176.846C375.508 175.509 375.619 173.912 374.814 172.494ZM409.569 128.215C408.827 128.012 408.08 128.091 407.423 128.369C405.959 128.636 404.734 129.854 404.304 131.244C404.27 131.365 404.233 131.484 404.192 131.601L404.125 131.777L404.3 131.331C404.219 131.77 403.861 132.231 403.732 132.672C403.574 133.214 403.534 133.829 403.587 134.425C403.123 134.429 402.657 134.445 402.192 134.485L401.742 134.525C399.23 134.758 396.47 135.185 394.981 137.349C394.145 138.565 394.931 140.754 396.466 140.989C398.833 141.349 400.871 140.044 403.229 139.783C405.458 139.536 407.79 139.677 409.992 140.079C414.533 140.906 418.708 142.741 423.134 143.893L423.736 144.045V144.042C424.494 144.225 425.356 143.174 424.605 142.559C421.059 139.655 416.518 137.303 412.046 135.87C412.697 134.837 412.899 133.476 412.453 132.367C412.384 132.137 412.299 131.914 412.209 131.691L412.021 131.232C412.003 131.016 411.961 130.803 411.899 130.594L411.89 130.53L411.885 130.534C411.552 129.455 410.681 128.521 409.569 128.215ZM364.326 128.385C363.357 127.418 361.992 127.561 360.98 128.322L360.847 128.427C359.891 128.849 359.103 129.772 358.584 130.628C358.046 131.516 357.687 132.421 357.674 133.399C355.325 133.407 353.078 134.108 351.354 135.998C350.796 136.607 350.417 137.547 350.722 138.374L350.906 138.866C351.485 140.427 354.087 141.326 354.971 139.49L355.013 139.4C355.952 137.22 359.558 137.449 361.477 137.672C362.812 137.828 364.133 138.159 365.422 138.53C365.877 138.66 366.328 138.802 366.778 138.947L367.229 139.093C367.47 139.17 368.72 139.847 367.941 139.687C367.732 139.643 367.576 139.947 367.789 140.049C368.715 140.491 369.706 139.611 369.644 138.618C369.536 136.895 366.79 135.95 365.468 135.356L365.39 135.32C364.882 135.086 364.352 134.863 363.805 134.655C364.113 134.198 364.368 133.691 364.579 133.146C364.779 132.632 364.912 132.133 364.986 131.586C365.059 131.319 365.059 131.051 364.986 130.784L364.974 130.707C365.013 130.531 365.03 130.348 365.027 130.164L365.036 130.092H365.027C365.002 129.448 364.745 128.803 364.326 128.385ZM379.826 146.736C376.101 147.883 369.954 151.009 371.896 155.834C374.607 160.265 381.798 157.008 385.282 155.577C388.414 154.543 390.043 158.916 387.017 160.234C362.001 170.096 362.093 144.068 378.921 144.45C380.773 144.492 380.83 146.354 379.826 146.736ZM412.917 112.795L412.283 112.611C408.981 111.657 405.607 110.011 402.675 112.58C401.524 113.589 401.287 115.685 402.112 116.943C403.987 119.811 406.772 119.373 409.803 119.617C412.111 119.803 414.383 120.479 416.539 121.323C418.299 122.013 419.933 122.985 421.475 124.07C422.989 125.135 424.023 126.802 425.577 127.761C426.147 128.113 426.804 127.751 427.008 127.181C427.732 125.157 426.51 122.637 425.473 120.913C424.207 118.81 422.286 117.09 420.222 115.789C417.959 114.363 415.459 113.54 412.917 112.795ZM364.786 110.62C359.204 110.619 353.831 113.713 350.708 118.25C349.647 119.791 350.426 122.074 351.947 122.962C353.657 123.958 355.484 123.241 356.61 121.813L356.676 121.727C358.466 119.35 360.776 117.478 363.513 116.259C364.848 115.665 366.323 115.182 367.769 114.937L368.235 114.858C368.89 114.748 369.648 114.644 370.239 114.746C370.556 114.788 370.848 114.892 371.115 115.051C370.986 115.332 371.319 115.67 371.627 115.502C373.015 114.742 372.845 113.388 371.698 112.335C370.078 110.845 366.879 110.621 364.786 110.62Z" fill="#2B283A"></path><path fill-rule="evenodd" clip-rule="evenodd" d="M341.567 147.538C346.009 152.162 353.42 153.489 359.328 151.009C374.5 144.621 367.075 124.697 355.376 119.347C353.914 118.979 351.961 118.108 350.182 117.911C350.019 117.831 349.67 118.062 349.245 117.844C336.346 119.295 333.407 139.478 341.567 147.538ZM390.498 148.72C395.478 155.378 404.739 157.432 412.304 154.337C427.247 148.405 421.948 130.737 411.722 123.811C390.123 115.631 381.203 136.444 390.498 148.72ZM422.9 133.97C422.913 133.964 422.927 133.96 422.941 133.954C422.863 133.919 422.782 133.884 422.704 133.848C422.73 133.916 422.757 133.982 422.782 134.05C422.821 134.023 422.856 133.991 422.9 133.97ZM331.291 126.773C332.511 126.776 334.271 126.978 335.282 127.83C337.771 119.369 346.958 111.539 354.951 117.249C361.242 119.288 365.912 123.812 368.566 129.825C373.35 126.957 380.874 128.182 385.024 131.975C387.74 122.925 394.43 119.756 402.39 119.288C411.079 117.854 419.738 126.358 422.44 133.181C424.687 132.923 428.045 132.202 430.157 133.6C443.876 129.974 467.86 127.975 470.647 129.99C472.635 130.758 473.726 135.486 470.95 135.741C468.531 135.395 471.233 132.277 468.793 131.937C455.802 131.125 443.188 133.762 430.334 134.869C429.187 136.425 425.478 136.945 423.499 136.32C426.615 147.893 419.889 155.767 409.813 158.126C394.207 161.739 380.631 147.669 384.709 133.035C379.982 130.664 374.545 130.766 369.396 132.014C378.002 163.934 326.996 162.502 334.963 128.924C329.661 131.582 328.51 127.309 331.291 126.773Z" fill="#2B283A"></path><path fill-rule="evenodd" clip-rule="evenodd" d="M818.614 354.491L586.389 372.868L586.146 374.442C582.255 399.704 580.291 416.844 580.249 425.859V426.135C580.249 435.074 577.496 449.292 571.99 468.785L571.65 469.985L818.938 470.415L821.854 411.736L818.614 354.491ZM681.128 228.575C671.686 229.04 662.17 233.075 661.435 235.653C659.798 241.398 657.165 265.984 648.508 269.762C639.852 273.54 621.369 270.095 616.086 279.117C610.801 288.137 593.446 324.909 593.446 333.478C593.446 339.191 650.002 341.174 763.109 339.428C761.663 293.417 755.645 269.231 745.049 266.869L744.102 266.66C728.779 263.323 719.622 263.217 714.394 257.838C709.06 252.348 708.093 242.929 705.88 235.653C704.662 231.645 692.717 228.005 681.128 228.575Z" fill="white"></path><path fill-rule="evenodd" clip-rule="evenodd" d="M660.419 242.947C660.384 242.919 660.347 242.912 660.308 242.931C659.573 243.285 659.421 243.988 659.169 244.721C658.799 245.794 658.371 246.842 657.976 247.904C657.188 250.036 656.436 252.166 655.559 254.262C654.658 256.42 653.722 258.541 652.654 260.625C652.139 261.632 651.583 262.622 651.02 263.603C650.632 264.286 650.269 265.221 649.756 265.862C649.717 265.658 649.662 265.465 649.598 265.283C649.664 265.315 649.731 265.352 649.791 265.389C649.922 265.472 650.078 265.309 650 265.182C649.719 264.725 649.356 264.415 648.943 264.203C647.796 262.935 622.504 268.995 615.59 275.801C603.068 288.128 594.616 303.368 589.057 319.58C585.987 328.526 583.163 337.562 580.242 346.556C577.156 356.067 573.934 365.537 570.841 375.044C570.166 377.133 571.643 379.033 573.509 379.723C576.988 381 580.49 382.207 584.025 383.321C582.31 389.884 581.111 396.585 580.249 403.305C578.468 417.164 578.245 431.301 575.442 445.013C574.798 448.161 573.983 451.263 573.123 454.359L572.923 455.071C572.411 456.889 571.944 458.72 571.315 460.497C570.775 462.025 570.074 463.567 569.694 465.143C569.251 466.998 569.906 469.025 571.645 469.976C573.043 470.743 575.042 470.426 575.885 468.988C576.058 468.694 576.161 468.374 576.202 468.05C576.329 467.784 576.446 467.508 576.549 467.227C576.591 467.119 576.625 467.007 576.66 466.894L576.761 466.559C577.007 465.757 577.234 464.95 577.462 464.141C577.829 462.845 578.202 461.554 578.613 460.269L578.822 459.628C579.84 456.54 580.75 453.424 581.545 450.271C584.385 438.962 584.99 427.256 585.769 415.668L585.81 415.07C586.516 404.686 586.939 394.322 586.072 383.96L586.192 383.999L586.309 384.036C587.433 384.378 588.561 384.714 589.694 385.04C589.728 385.054 589.76 385.066 589.797 385.075C590.521 385.3 591.266 385.511 592.022 385.709L592.477 385.826L592.798 385.913L593.136 386.008C594.207 386.318 595.301 386.674 596.413 386.64C598.254 386.934 600.127 387.111 601.967 387.118C601.4 396.362 600.745 405.598 599.963 414.827C599.18 424.104 598.139 433.344 597.061 442.584C596.528 447.15 595.958 451.705 595.328 456.255C595.011 458.562 594.68 460.855 594.26 463.144C593.826 465.483 593.058 467.984 593.52 470.348C593.531 470.346 593.541 470.341 593.55 470.341C593.706 471.026 594.12 471.64 594.844 472.065C596.17 472.837 598.024 472.384 598.785 471.033C598.849 470.92 598.911 470.803 598.968 470.684C599.75 471.017 600.607 471.146 601.657 471.157L615.898 471.297C622.371 471.364 628.844 471.43 635.32 471.525C655.65 471.823 675.983 472.168 696.315 472.414L703.94 472.499C715.375 472.619 726.817 472.855 738.251 472.853C743.971 472.853 749.686 472.832 755.406 472.694C758.177 472.625 760.944 472.52 763.711 472.407L764.2 472.384C766.408 472.276 768.755 472.072 770.917 472.566C771.512 473.722 773.036 473.961 773.833 472.777C775.656 470.072 776.152 466.297 776.49 462.99L776.607 461.8C776.979 458.093 777.308 454.386 777.551 450.675C778.413 437.521 778.728 424.354 778.333 411.175C778.13 404.458 777.512 397.78 776.779 391.102C776.549 389.018 776.31 386.936 776.051 384.859L776.046 384.121C776.046 383.884 776.046 383.659 776.053 383.448L776.117 381.444C776.173 379.771 776.221 378.1 776.242 376.427L776.251 375.425L776.26 373.557C777.862 373.406 779.569 372.875 780.95 372.62C783.191 372.204 785.424 371.753 787.651 371.28C792.111 370.324 796.521 369.193 800.903 367.941L801.836 367.674C805.879 366.514 809.978 365.275 813.804 363.538C815.3 362.856 816.796 362.088 818.108 361.079C818.187 362.139 818.306 363.196 818.377 364.246C818.52 366.323 818.688 368.394 818.828 370.471L818.961 372.447C819.179 375.743 819.377 379.033 819.467 382.336C819.862 396.746 819.931 411.219 819.165 425.618C818.786 432.827 818.244 440.035 817.463 447.214C817.081 450.746 816.674 454.288 816.176 457.806C815.661 461.42 814.73 465.015 814.445 468.655C814.174 472.168 819.561 472.678 820.445 469.466C821.505 465.614 821.774 461.462 822.332 457.502L822.396 457.064C823.015 452.856 823.511 448.632 823.938 444.404C825.416 429.816 825.8 415.153 825.025 400.51C824.658 393.497 823.784 386.511 822.727 379.573L822.603 378.771C822.123 375.664 821.673 372.558 821.128 369.462L820.919 368.304C820.429 365.645 820.053 362.752 819.26 360.093L819.494 359.877C819.935 359.466 820.413 358.993 820.763 358.482C821.962 358.319 822.982 357.46 822.856 355.9C822.445 350.773 820.565 345.559 818.89 340.717C817.208 335.852 815.257 331.077 813.046 326.423C805.27 310.071 794.072 295.226 780.378 283.332C773.114 277.021 765.154 271.426 756.357 267.441C752.021 265.474 747.533 263.953 742.833 263.132C740.508 262.726 738.157 262.409 735.79 262.34C733.871 261.211 731.592 261.685 729.733 262.923L729.632 262.992H729.629L729.154 263.086C729.036 263.109 729.039 263.293 729.154 263.319C729.161 263.319 729.17 263.323 729.177 263.325C728.871 263.564 728.581 263.82 728.313 264.095C727.426 264.998 727.428 266.092 727.885 266.972C725.167 269.486 723.448 272.715 721.648 275.969C719.72 279.45 717.195 282.463 714.122 285.002C702.86 294.314 686.294 298.434 672.182 294.036C661.804 290.805 652.939 282.059 650.489 271.529C651.068 271.736 651.698 271.768 652.293 271.554C655.094 270.559 656.163 267.508 657.234 264.957L657.284 264.835C658.332 262.363 659.21 259.853 659.904 257.261C660.605 254.644 661.016 251.881 661.189 249.179C661.255 248.113 661.225 247.044 661.17 245.976L661.12 245.093C661.083 244.294 661.094 243.475 660.419 242.947ZM705.99 235.747C705.951 235.651 705.799 235.6 705.74 235.715C703.26 240.814 704.887 247.8 707.231 252.663C709.685 257.748 713.38 261.607 717.758 264.943C718.362 265.403 718.98 265.856 719.61 266.297C723.262 268.868 726.516 261.935 722.299 260.612C717.905 258.385 714.332 254.416 711.85 250.25C710.508 247.998 709.317 245.652 708.407 243.188C707.5 240.734 706.955 238.179 705.99 235.747Z" fill="#2B283A"></path><path fill-rule="evenodd" clip-rule="evenodd" d="M718.169 95.1398C697.062 93.9888 678.361 88.0644 663.505 101.323C663.505 101.323 639.47 83.3926 635.46 90.2217C632.772 94.7977 636.499 100.941 635.5 106.587C628.985 117.683 629.352 136.464 628.985 140.866C628.056 151.959 622.208 193.704 622.208 203.617C622.208 208.677 626.383 221.929 628.985 229.304C634.773 245.718 645.822 254.083 663.944 254.083C682.066 254.083 711.643 238.953 721.129 225.52C721.961 224.343 727.336 227.778 732.959 221.82C739.051 215.365 742.431 203.054 742.431 195.716C742.431 186.403 748.454 179.945 747.754 168.025C746.189 141.404 740.754 96.3716 718.169 95.1398Z" fill="white"></path><path fill-rule="evenodd" clip-rule="evenodd" d="M720.527 64.1907C720.254 64.174 719.975 64.1873 719.697 64.2144C719.392 64.228 719.086 64.2576 718.783 64.3183C717.232 64.6156 715.848 65.4355 714.775 66.5898C714.745 66.6199 714.722 66.6537 714.695 66.6836C714.194 67.0616 713.727 67.4904 713.309 67.9449C713.236 67.8749 713.164 67.8048 713.088 67.7347C712.868 67.5403 712.636 67.3562 712.394 67.1825C711.386 66.318 710.202 65.6895 708.929 65.3319L708.754 65.2848C708.72 65.2749 708.688 65.2683 708.653 65.2616C707.748 64.9606 706.797 64.8068 705.841 64.8098C704.694 64.773 703.545 64.9606 702.474 65.402C701.203 65.9278 700.098 66.7571 699.172 67.7547C698.561 68.2499 698.03 68.795 697.467 69.3943C696.304 70.6354 695.385 72.0875 694.806 73.6874C694.725 73.9114 694.656 74.1419 694.592 74.3728C693.174 74.2092 691.752 74.0923 690.327 74.035C688.73 73.9383 687.133 73.9045 685.531 73.9583C681.121 74.1019 676.806 74.8784 672.63 76.3006C671.791 76.5479 670.978 76.8625 670.194 77.2506C668.965 77.7392 667.802 78.3615 666.708 79.1143L665.775 79.6672C665.306 79.9455 664.838 80.2272 664.383 80.5163C663.3 81.2093 662.275 81.9854 661.303 82.8218C660.279 83.6486 659.311 84.5488 658.39 85.4919C658.139 85.7472 657.898 86.0059 657.661 86.2663C655.538 87.4109 653.651 88.8765 651.891 90.6246C650.496 89.8229 649.053 89.096 647.561 88.4498C646.024 87.7841 644.071 87.0981 642.46 86.6466C641.012 86.2419 639.583 85.9641 638.133 85.7596C637.473 85.6458 636.809 85.5555 636.143 85.4785L636.17 85.4889C635.702 85.4383 635.235 85.3949 634.762 85.3547L634.776 85.3514C634.576 85.3351 634.371 85.3179 634.169 85.3046L633.682 85.2648C633.535 85.2515 633.319 85.5957 633.305 85.7161L633.289 85.84C633.178 85.9641 633.077 86.1013 633.008 86.1849C632.921 86.1778 632.834 86.1716 632.746 86.1679C632.484 86.1447 632.183 86.6096 632.029 86.787L631.889 86.9504C631.731 87.1411 631.572 87.3606 631.547 87.6C631.377 88.9889 631.216 90.3806 631.069 91.7727C631.011 92.8265 631.069 93.8705 631.244 94.9046C631.372 95.9084 631.508 96.9121 631.641 97.9127C631.855 98.6156 632.066 99.3183 632.278 100.021C632.36 100.289 632.455 100.553 632.546 100.817C633.082 102.582 633.709 104.301 634.456 105.966C633.911 106.569 633.404 107.194 632.93 107.84C632.815 107.956 632.703 108.071 632.595 108.192C632.565 108.145 632.521 108.102 632.475 108.078C632.314 108.008 632.197 108.092 632.096 108.229C631.041 109.236 630.274 110.411 629.798 111.752L629.502 112.452C629.453 112.569 629.405 112.686 629.357 112.803C628.978 113.82 628.686 114.864 628.445 115.921C628.231 116.753 628.075 117.596 627.976 118.449C627.252 120.875 626.68 123.358 626.14 125.808C626.055 126.193 626.096 126.537 626.218 126.83L625.903 127.137L625.365 127.674C624.458 128.576 623.534 129.524 622.863 130.597C622.164 131.712 621.652 132.903 621.084 134.084L620.96 134.335L620.71 134.838C620.438 135.388 620.31 135.692 620.068 136.356C619.671 137.464 619.455 138.578 619.356 139.753C619.207 141.462 619.227 143.326 619.979 144.915C619.981 144.929 619.988 144.939 619.995 144.949C620.337 146.485 621.181 147.91 622.463 148.82C622.739 149.078 623.033 149.309 623.348 149.493C624.104 149.936 624.798 149.976 625.623 149.77L625.726 149.744C625.83 149.717 625.924 149.694 626.013 149.674C625.88 149.784 625.813 149.915 626.013 150.008C626.209 150.102 626.383 150.155 626.546 150.175C626.475 150.266 626.468 150.363 626.618 150.443C626.939 150.614 627.199 150.668 627.468 150.62L627.411 151.086C626.972 154.606 626.579 155.302 626.234 159.083C626.006 162.954 625.646 166.816 625.147 170.661L624.975 172.057C624.423 176.486 623.803 180.946 622.856 185.303C622.376 187.207 621.964 189.124 621.615 191.055C621.123 192.523 620.779 194.026 620.588 195.558C620.31 197.118 620.119 198.69 620.009 200.276C619.623 201.29 619.437 202.321 619.446 203.372C619.395 204.784 619.441 206.193 619.593 207.595C619.676 209.053 619.878 210.499 620.195 211.931C620.48 213.895 620.999 215.793 621.744 217.633C622.339 219.687 623.07 221.702 623.899 223.672C625.191 226.724 626.746 229.558 628.52 232.351C630.18 234.973 631.963 237.494 633.999 239.84C636.632 242.871 639.634 245.65 642.922 247.991C644.797 249.377 646.778 250.622 648.848 251.686C651.381 252.992 653.952 254.166 656.696 254.959C658.408 255.453 660.15 255.795 661.91 256.057C665.371 256.567 668.956 256.491 672.435 255.892C674.68 255.591 676.886 255.069 678.973 254.322C680.689 253.706 682.323 253.001 683.957 252.203C684.798 251.799 685.609 251.33 686.386 250.806C687.691 249.958 688.914 249.002 690.053 247.945C690.426 247.628 690.786 247.302 691.143 246.962C691.313 246.81 691.219 246.587 691.021 246.534L690.961 246.525C691.037 246.456 691.117 246.385 691.196 246.311C691.212 246.298 691.225 246.282 691.239 246.265C691.276 246.231 691.315 246.199 691.35 246.164C691.481 246.052 691.35 245.797 691.235 245.737C691.193 245.714 691.136 245.709 691.071 245.716C691.085 245.702 691.094 245.693 691.108 245.684C691.122 245.673 691.124 245.647 691.122 245.62L691.173 245.581C691.343 245.429 691.255 245.208 691.055 245.151C690.957 245.121 690.796 245.137 690.626 245.174L690.564 245.188L690.676 245.08C690.878 244.907 690.814 244.712 690.566 244.652C690.382 244.664 690.198 244.689 690.017 244.733L689.883 244.769C689.814 244.786 689.752 244.806 689.686 244.827C689.798 244.723 689.913 244.622 690.024 244.519C690.134 244.422 690.017 244.144 689.916 244.087C689.778 244.011 689.511 244.117 689.387 244.206C689.081 244.241 688.679 244.374 688.532 244.503C688.128 244.889 687.71 245.261 687.284 245.622C687.025 245.702 686.781 245.81 686.593 245.971C686.11 246.433 685.609 246.867 685.097 247.288L684.706 247.557C684.642 247.601 684.575 247.644 684.511 247.688C683.773 248.12 683.035 248.547 682.302 248.979C679.614 249.889 676.923 250.799 674.236 251.707L673.883 251.813L671.272 252.134C669.558 252.316 667.839 252.305 666.125 252.107C664.838 252.125 663.562 251.997 662.305 251.737C660.173 251.374 658.079 250.843 656.043 250.101C653.697 249.246 651.464 248.122 649.283 246.911C648.499 246.472 647.729 246.008 646.971 245.516C646.727 245.342 646.484 245.165 646.238 244.983C644.627 243.777 643.087 242.488 641.603 241.125C640.907 240.486 640.236 239.822 639.59 239.132C639.496 239.031 639.406 238.935 639.314 238.834C638.696 238.158 638.096 237.46 637.524 236.736L636.977 236.12C634.773 233.381 632.813 230.432 631.051 227.396C629.304 224.388 627.863 221.223 626.717 217.947C626.349 216.779 626.027 215.595 625.758 214.397C625.264 212.958 624.938 211.483 624.789 209.977C624.738 209.682 624.697 209.388 624.658 209.093L624.635 208.629C624.63 208.552 624.628 208.474 624.628 208.397C624.561 207.929 624.504 207.46 624.46 206.992C624.432 206.52 624.416 206.048 624.412 205.577L624.451 202.682C624.46 202.592 624.469 202.499 624.476 202.405L624.55 201.766C624.71 200.447 624.835 199.125 624.995 197.807C624.995 197.8 624.995 197.79 625 197.78C625.06 197.288 625.124 196.793 625.198 196.298C625.234 196.004 625.28 195.709 625.324 195.415L625.407 194.9C625.563 194.004 625.751 193.115 625.981 192.235L626.08 191.858L626.664 188.93L627.321 186.049C627.746 184.118 628.1 182.174 628.383 180.213C628.89 177.088 629.327 173.959 629.704 170.817C629.725 170.667 629.745 170.513 629.761 170.362C630.147 167.448 630.425 164.523 630.607 161.589C630.851 158.698 630.991 155.8 631.028 152.899C631.032 152.769 630.945 152.662 630.841 152.601L630.851 152.043C630.862 151.55 630.871 152.142 630.876 151.579L630.883 150.032C630.88 149.903 630.881 149.814 630.878 149.807C632.666 149.931 633.87 149.83 635.598 149.739L635.892 149.724C637.476 149.65 639.05 149.476 640.615 149.215C640.622 149.296 640.674 149.352 640.764 149.369C640.925 149.376 641.077 149.376 641.231 149.379L641.173 149.597C641.171 149.707 641.221 149.777 641.327 149.807L641.775 149.827C642.37 149.852 642.97 149.864 643.563 149.784C644.094 149.714 644.613 149.59 645.13 149.443C645.447 149.389 645.774 149.316 646.105 149.222C646.955 148.977 647.798 148.65 648.653 148.389C649.524 148.204 650.409 148.145 651.333 148.365C652.311 148.596 653.139 149.014 654.164 148.76C654.368 148.71 654.566 148.633 654.763 148.553L654.945 148.54C654.977 148.537 655.009 148.534 655.041 148.529C656.11 148.375 657.061 147.7 658.079 147.338C658.436 147.251 658.787 147.273 659.132 147.417L659.217 147.455L659.557 147.706C659.693 147.867 659.826 148.029 659.959 148.191L660.159 148.435C660.524 148.887 660.913 149.292 661.384 149.586C661.954 150.112 662.632 150.42 663.438 150.44C663.898 150.453 664.353 150.356 664.794 150.216C666.462 150.731 668.248 150.835 669.912 150.333C670.573 150.232 671.219 150.055 671.84 149.777C672.129 149.647 672.421 149.493 672.704 149.322C673.878 149.818 674.99 150.476 676.125 151.046L676.383 151.174C677.541 151.751 678.825 152.314 680.138 152.23C681.794 152.123 683.417 151.902 685.039 151.624C685.053 151.624 685.069 151.621 685.083 151.618L685.306 151.58L686.117 151.438L686.772 151.317L687.105 151.445C689.789 152.459 692.731 153.251 695.428 152.541C696.605 152.398 697.708 152.002 698.701 151.33C698.735 151.306 698.77 151.283 698.802 151.256C698.96 151.176 699.107 151.086 699.238 150.989L699.266 150.967L699.291 150.945L699.305 150.938C700.776 150.263 701.619 148.823 701.472 147.211C701.562 146.699 701.559 146.197 701.458 145.662C701.939 146.227 702.426 146.786 702.922 147.341C704.735 149.522 706.512 151.747 708.155 154.063L708.534 154.599C709.437 155.874 710.278 157.192 711.055 158.551C711.843 159.892 712.649 161.221 713.484 162.533C714.568 163.73 715.616 164.956 716.627 166.212L717.057 166.752L718.512 168.662C719.539 169.881 720.394 171.212 721.067 172.658C721.618 173.685 722.129 174.733 722.588 175.807C722.735 176.131 722.876 176.459 723.013 176.787C723.484 178.068 723.884 179.374 724.195 180.722C724.445 181.697 724.624 182.687 724.732 183.69L724.764 184.025C724.804 184.419 724.836 184.814 724.852 185.209C724.755 185.266 724.675 185.323 724.613 185.38L724.369 185.467L724.172 185.525C723.864 185.621 723.331 185.818 723.459 186.062L724.105 187.294C724.038 187.364 724.008 187.437 724.052 187.518C724.484 188.344 724.918 189.171 725.355 189.998C725.366 190.028 725.392 190.051 725.415 190.068C725.042 190.238 724.682 190.425 724.335 190.63C723.661 191.031 723.167 191.496 722.708 192.038C722.225 192.326 721.77 192.641 721.34 193.002C720.812 193.558 720.35 194.167 719.957 194.826C719.596 195.448 719.302 196.097 719.075 196.776C718.973 197.134 718.925 197.506 718.93 197.884C719.334 200.742 722.607 198.784 722.671 198.533C723.119 196.806 723.636 195.716 724.794 194.431L724.824 194.411C725.495 194.116 726.157 193.825 726.851 193.598C726.954 193.618 727.062 193.631 727.17 193.648C727.049 193.819 727.108 193.986 727.354 194.016C728.409 194.224 729.473 194.28 730.546 194.19L732.173 193.959C732.849 194.218 733.494 194.55 734.103 194.946L734.303 195.08L734.34 195.107C735.912 196.368 737.125 198.045 737.955 199.871C738.028 200.034 738.1 200.199 738.166 200.364L738.267 200.614L738.272 200.628C739.359 204.888 738.389 209.565 736.408 213.43C735.326 215.16 734.198 216.856 733.019 218.519L731.872 220.015C731.196 220.651 730.532 221.303 729.887 221.973C729.786 222.073 729.678 222.173 729.572 222.27C729.229 222.494 728.88 222.692 728.526 222.86C728.388 222.906 728.248 222.95 728.108 222.987C727.423 223.314 726.706 223.489 725.952 223.509C724.957 223.574 723.992 223.458 723.059 223.162L722.871 223.1L722.735 223.05C722.225 222.725 721.754 222.32 721.304 221.845C721.205 221.742 721.016 221.742 720.803 221.799C720.686 221.678 720.568 221.551 720.458 221.414C720.38 221.33 720.26 221.327 720.166 221.39C719.847 221.354 718.987 221.842 719.21 222.1C719.247 222.16 719.295 222.213 719.334 222.27C719.185 222.347 719.033 222.434 718.9 222.525C718.197 222.72 717.158 223.421 717.241 223.632L717.252 223.649C717.413 223.956 717.627 224.214 717.887 224.419L717.974 224.485L718.172 224.623C717.894 224.797 717.659 224.997 717.776 225.138C717.831 225.242 717.889 225.342 717.955 225.433C717.386 226.135 716.82 226.844 716.257 227.554C715.694 228.772 714.998 229.908 714.166 230.963C713.472 232.108 712.64 233.135 711.664 234.052C711.583 234.132 711.5 234.21 711.42 234.286C710.701 234.817 709.949 235.313 709.168 235.789L708.83 235.993C708.653 236.099 708.355 236.232 708.495 236.492C708.513 236.524 708.534 236.552 708.557 236.573C708.063 236.892 707.555 237.198 707.029 237.478L706.978 237.51C706.78 237.637 706.512 237.866 706.794 238.055C707.036 238.213 707.674 237.779 707.978 237.579C708.033 237.579 708.1 237.563 708.168 237.542C708.067 237.595 707.969 237.653 707.867 237.71L707.716 237.793C707.599 237.864 707.022 238.245 707.424 238.406C707.622 238.422 707.803 238.372 707.971 238.257C708.168 238.16 708.361 238.057 708.552 237.949C708.486 238.055 708.486 238.158 708.653 238.225C708.711 238.227 708.768 238.225 708.823 238.218C708.428 238.468 708.024 238.703 707.605 238.923L707.536 238.967C707.36 239.08 707.079 239.298 707.284 239.486C707.514 239.693 708.15 239.252 708.316 239.151L708.805 238.861C708.842 238.877 708.881 238.884 708.924 238.887C708.777 238.979 708.64 239.075 708.49 239.162L708.283 239.273C708.028 239.415 707.665 239.647 707.796 239.882C707.927 240.111 708.318 239.921 708.571 239.771L708.842 239.604C708.853 239.597 708.865 239.59 708.879 239.583L708.888 239.624C708.89 239.629 708.892 239.636 708.897 239.643C709.023 239.861 709.34 239.718 709.556 239.592L709.731 239.486C710.03 239.307 710.324 239.13 710.616 238.953L711.052 238.684H711.059C712.569 237.777 713.966 236.874 715.283 235.708C716.069 235.012 716.802 234.277 717.498 233.489C718.9 231.915 719.941 230.111 720.945 228.27C720.964 228.24 720.938 228.163 720.899 228.079C721.01 227.852 721.118 227.621 721.223 227.383C722.255 227.671 723.409 227.755 724.47 227.685C725.04 227.647 725.601 227.547 726.162 227.396C727.947 227.149 729.668 226.336 731.155 225.362C731.249 225.302 731.332 225.235 731.419 225.175C732.033 224.83 732.617 224.429 733.168 223.97C734.246 223.08 735.275 222.09 736.211 221.056C736.886 220.253 737.525 219.42 738.125 218.556C738.736 217.703 739.352 216.85 739.968 215.996C741.68 213.32 742.774 210.238 743.201 207.089C743.408 205.928 743.516 204.754 743.491 203.582C743.475 202.736 743.38 201.879 743.217 201.026C743.314 200.932 743.41 200.839 743.509 200.742C743.562 200.835 743.615 200.902 743.649 200.869L744.417 200.101C744.961 199.552 745.327 199.149 745.954 198.262C746.951 196.847 747.696 195.291 748.247 193.652C748.647 192.48 748.912 191.148 749.015 189.86C749.05 189.646 749.082 189.428 749.109 189.208C749.323 187.464 749.125 185.795 748.861 184.075C748.845 183.961 748.788 183.891 748.709 183.854C748.691 183.718 748.668 183.578 748.645 183.438C750.863 181.092 752.46 178.264 752.331 174.849C752.29 173.773 752.069 172.712 751.646 171.722L751.596 171.61C753.448 171.326 754.916 170.026 756.019 168.415C756.118 168.338 756.212 168.26 756.304 168.182C758.276 166.499 759.645 164.114 760.581 161.596C761.252 160.134 761.698 158.571 761.886 156.951C761.9 156.835 761.907 156.72 761.918 156.605C762.375 154.042 762.493 151.454 762.281 148.903C762.741 147.325 763.115 145.719 763.37 144.075C763.492 143.293 763.575 142.509 763.639 141.726L763.646 141.683L763.655 141.542L763.683 141.191C763.688 141.133 763.692 141.075 763.697 141.017C764.262 133.85 762.658 126.796 760.004 120.158C759.774 119.561 759.535 118.965 759.289 118.374L759.027 117.757C756.364 113.467 752.365 109.998 748.981 106.333C747.811 105.069 749.702 103.171 750.874 104.441C753.124 106.875 755.539 109.207 757.717 111.71C758.104 111.738 758.487 111.748 758.873 111.729C759.542 111.695 760.192 111.588 760.822 111.417C762.394 111.187 763.823 110.554 765.124 109.624C766.861 108.815 768.346 107.288 768.493 105.297C768.509 105.097 768.506 104.899 768.493 104.702C768.654 103.728 768.509 102.708 768.1 101.767C768.031 101.51 767.939 101.256 767.826 101.004C767.495 100.258 766.948 99.5426 766.282 99.0571C766.266 99.0469 766.252 99.0407 766.238 99.0302C766.167 98.9571 766.1 98.8831 766.025 98.8165C765.91 98.7124 765.79 98.6156 765.662 98.5253C766.114 97.7821 766.523 97.0197 766.87 96.2062C767.249 95.3228 767.445 94.4264 767.551 93.4792C767.594 93.1044 767.613 92.733 767.617 92.3619C767.638 92.1909 767.652 92.017 767.665 91.8428C767.748 90.5178 767.594 89.1429 767.1 87.9045C767.063 87.8112 767.015 87.7172 766.971 87.62C766.877 87.339 766.774 87.0584 766.647 86.7835C766.151 85.7295 765.448 84.8362 764.579 84.1034C764.11 83.6316 763.587 83.2132 763.012 82.8586C762.674 82.6479 762.288 82.4604 761.884 82.3064C761.16 81.9249 760.231 81.577 759.48 81.5506C759.388 81.5469 759.308 81.5573 759.22 81.5573C759.151 79.6364 758.903 77.545 758.143 75.8049C757.701 74.5438 757.037 73.4229 756.04 72.6163C755.461 72.0126 754.746 71.5224 753.857 71.2021L753.698 71.1472L753.636 71.1306C752.837 70.7425 751.973 70.5885 751.086 70.5922C750.049 70.5382 748.994 70.7326 748.094 71.2076C747.907 71.3078 747.705 71.4317 747.514 71.5656C747.37 71.2777 747.209 70.9865 747.025 70.6958C746.379 69.6615 745.598 68.7614 744.695 67.9417C744.587 67.8447 744.47 67.7577 744.355 67.6644C743.918 67.2661 743.452 66.898 742.969 66.5634C741.928 65.8404 740.786 65.302 739.586 64.9537C738.201 64.4426 736.741 64.2054 735.28 64.2553L734.977 64.2679C734.91 64.2744 734.843 64.2778 734.779 64.281C733.329 64.375 731.9 64.7298 730.532 65.2648C729.115 65.8239 727.917 66.6703 726.8 67.6405C726.541 67.2794 726.242 66.938 725.877 66.6167C725.773 66.5266 725.663 66.446 725.557 66.3623C725.477 66.2821 725.394 66.2051 725.307 66.1282C724.909 65.7768 724.486 65.4723 724.025 65.2012C723.505 64.8971 722.947 64.6864 722.365 64.5559C721.777 64.3548 721.157 64.2309 720.527 64.1907ZM727.412 202.136C727.352 202.133 724.25 203.295 722.703 204.046L722.627 204.084C720.846 204.967 719.989 205.603 718.388 206.737C718.28 206.814 718.169 206.931 718.169 207.045C718.169 208.697 718.571 210.717 719.962 209.822C720.162 209.693 720.366 209.566 720.568 209.442L720.876 209.257L720.885 209.26C720.883 209.26 720.879 209.257 720.876 209.253C723.905 207.41 727.104 205.964 730.48 204.93C730.709 204.847 729 202.263 728.526 202.407C728.797 202.3 727.455 202.139 727.412 202.136ZM695.594 129.162C697.607 129.377 699.62 129.588 701.633 129.796C702.915 129.943 704.202 130.073 705.489 130.184C707.422 130.328 709.354 130.351 711.28 130.087C711.962 129.993 712.633 129.859 713.295 129.695C713.748 130.026 714.217 130.338 714.697 130.636L720.015 134.701C723.583 137.502 727.072 140.47 730.215 143.745C735.703 149.469 740.17 156.164 742.981 163.581C743.236 163.731 743.433 163.993 743.498 164.395C743.994 167.435 745.446 170.207 745.97 173.235C746.487 176.217 745.8 178.752 743.925 181.116C743.525 181.621 742.705 181.594 742.202 181.253C742.084 181.482 741.579 181.473 741.402 180.459C740.568 179.557 739.853 178.612 739.37 177.441C739.016 176.579 739.614 175.982 740.338 175.864C740.037 174.78 739.697 173.706 739.315 172.643C738.182 169.484 736.744 166.466 734.931 163.635C733.336 161.145 731.491 158.977 729.507 156.802C729.484 156.772 729.443 156.762 729.399 156.755L728.988 156.3C728.931 156.237 728.813 156.243 728.685 156.277C728.561 156.146 728.439 156.012 728.313 155.882C728.188 155.748 728.051 155.788 727.975 155.895C727.763 155.848 727.377 156.076 727.26 156.15C727.06 156.283 726.996 156.434 727.166 156.625C727.196 156.658 727.228 156.692 727.258 156.722C727.026 156.819 726.798 156.949 726.621 157.077C726.001 157.214 725.13 157.789 725.281 157.96C725.599 158.291 725.907 158.629 726.212 158.974C725.943 159.161 725.769 159.345 725.84 159.426C727.147 160.801 728.352 162.256 729.457 163.799C730.298 164.95 731.059 166.148 731.739 167.396C732.75 169.162 733.607 170.979 734.368 172.847C734.476 173.131 734.579 173.415 734.68 173.7C735.792 176.808 736.622 180.034 736.974 183.32L736.99 183.541C737.054 184.725 737.079 187.894 737.201 188.65C736.461 189.015 735.691 189.326 734.889 189.581C734.74 189.624 734.586 189.664 734.432 189.701C734.345 189.664 734.255 189.634 734.163 189.607C733.428 189.309 732.656 189.095 731.87 188.991C731.339 188.921 730.81 188.897 730.284 188.912L730.057 188.921C729.822 188.928 729.592 188.945 729.358 188.968C729.37 188.834 729.376 188.704 729.388 188.57C729.455 188.526 729.505 188.466 729.507 188.386C729.666 186.88 729.668 185.374 729.519 183.869C729.418 183.082 729.301 182.299 729.172 181.517C729.043 180.874 728.892 180.242 728.728 179.609C728.292 177.836 727.713 176.106 727.01 174.413C725.006 169.584 722.136 165.231 719.249 160.901C717.142 157.739 715.147 154.507 712.969 151.398C711.112 148.751 709.163 146.145 707.084 143.668C705.006 141.196 702.812 138.817 700.445 136.615C700.061 136.264 699.677 135.922 699.284 135.585C697.042 133.577 694.603 131.927 692.064 130.308C691.965 130.244 691.793 130.315 691.648 130.435L691.239 130.183C691.17 130.141 691.101 130.1 691.032 130.06C690.968 130.02 690.897 130.087 690.86 130.144C690.688 130.053 690.513 129.966 690.338 129.879C690.212 129.777 690.081 129.68 689.952 129.579C691.834 129.484 693.716 129.344 695.594 129.162ZM671.982 106.851C673.501 106.546 675.029 106.503 676.564 106.73C677.205 106.824 677.847 106.937 678.481 107.074C677.04 108.329 675.882 109.935 675.13 111.783C674.317 113.78 677.557 114.641 678.359 112.673C679.131 110.773 680.595 109.316 682.362 108.443C682.744 108.656 683.114 108.887 683.467 109.143C683.929 109.517 684.364 109.922 684.773 110.367C685.664 111.335 686.482 112.626 687.018 113.904C687.225 114.6 687.379 115.316 687.477 116.052C687.496 116.22 687.516 116.39 687.533 116.561C687.863 120.024 686.873 123.393 685.168 126.375L685.101 126.375C683.578 125.551 681.985 124.856 680.345 124.29C679.032 123.407 677.67 122.591 676.266 121.851C673.283 120.279 670.13 119.066 666.883 118.238L666.508 118.144C665.743 117.949 664.971 117.777 664.197 117.626L663.732 117.538H663.725L663.776 117.039C664.036 115.082 664.803 113.265 665.796 111.586C666.538 110.318 667.66 109.019 668.907 107.982L668.914 107.978C669.48 107.657 670.075 107.391 670.686 107.172L670.916 107.091L671.982 106.851ZM712.817 103.879C715.979 103.58 719.141 103.611 722.303 103.868C724.369 104.073 726.424 104.357 728.466 104.718C729.85 104.956 731.206 105.29 732.538 105.706L731.778 107.246C730.502 109.811 729.197 112.36 727.66 114.783C726.865 116.031 726.005 117.219 725.068 118.36C724.434 119.177 723.737 119.933 722.974 120.629C722.772 120.873 722.558 121.104 722.34 121.328C721.644 121.924 720.892 122.446 720.072 122.877C719.415 123.356 718.728 123.775 718.011 124.141L717.742 124.276L715.23 125.24C715.095 125.278 714.959 125.316 714.823 125.352L714.619 125.404L714.237 125.484L713.95 125.328C713.904 125.303 713.854 125.278 713.805 125.253C713.725 125.21 713.667 125.294 713.651 125.354C713.645 125.377 713.656 125.41 713.672 125.444L713.304 125.246C712.677 125.501 712.008 125.706 711.291 125.84C710.967 125.901 710.643 125.947 710.317 125.987L710.273 126.016C710.266 126.021 710.26 126.027 710.253 126.033H709.897C707.392 126.274 704.852 125.955 702.352 125.507C698.813 125.151 695.277 124.76 691.742 124.393C691.676 124.387 691.648 124.417 691.648 124.464L691.43 124.444C691.115 124.41 690.747 124.935 690.986 125.126C690.793 125.24 690.61 125.404 690.472 125.531L690.394 125.524C690.878 124.574 691.253 123.58 691.522 122.547L691.862 120.813C691.956 120.167 692.011 119.478 692.021 118.799C692.044 118.487 692.06 118.196 692.06 117.942C692.06 117.701 692.057 117.46 692.048 117.219C692.715 116.945 693.39 116.704 694.08 116.5C696.04 116.259 697.995 116.018 699.955 115.78C701.132 115.824 702.306 115.907 703.478 116.038C704.809 116.155 706.135 116.306 707.458 116.486C707.582 116.5 707.803 116.332 707.936 116.138L708.504 116.216C708.798 116.252 709.106 115.663 708.718 115.543C708.577 115.487 708.437 115.434 708.295 115.383L708.086 115.309L708.205 115.322C708.244 115.326 708.295 115.315 708.352 115.296C708.665 115.335 708.975 115.375 709.283 115.412C709.674 115.461 709.586 114.946 709.311 114.825L709.18 114.776C709.412 114.632 709.616 114.238 709.329 114.109L709.29 114.094C709.157 114.041 709.026 113.997 708.892 113.947C708.901 113.903 708.901 113.863 708.888 113.827L709.442 113.896C709.492 113.903 709.251 113.551 709.136 113.481L709.115 113.472L708.851 113.391C708.812 113.277 708.598 113.026 708.522 113.003C707.553 112.699 706.647 112.424 705.703 112.213C705.657 112.156 705.602 112.113 705.542 112.1C704.954 111.959 704.356 111.849 703.761 111.755C703.72 111.695 703.681 111.652 703.632 111.648C702.157 111.46 700.675 111.417 699.188 111.518C698.903 111.544 698.618 111.575 698.333 111.611C697.788 111.672 697.242 111.749 696.699 111.852C695.341 112.085 694.013 112.44 692.719 112.917L692.423 113.03C692.096 113.151 691.775 113.277 691.458 113.415C691.297 112.843 691.097 112.28 690.858 111.729C690.821 111.621 690.782 111.518 690.738 111.414L691.062 111.22C691.134 111.353 691.276 111.457 691.37 111.401C693.698 109.831 696.159 108.523 698.756 107.479C700.211 106.836 701.697 106.291 703.221 105.836C703.982 105.592 704.749 105.371 705.519 105.16C705.905 105.08 706.289 104.999 706.682 104.932C708.695 104.39 710.74 104.039 712.817 103.879ZM636.106 109.191C636.389 109.679 636.683 110.162 636.995 110.638C638.51 112.954 640.325 115.126 642.384 117.021C641.846 117.019 641.311 117.039 640.782 117.089C639.87 117.175 638.976 117.326 638.105 117.538C638.036 117.482 637.956 117.453 637.894 117.498L637.666 117.655C635.798 118.159 634.045 118.95 632.455 120.011L632.484 119.801C632.489 119.766 632.494 119.732 632.501 119.697C632.473 119.285 632.466 118.873 632.48 118.465C632.808 116.052 633.629 113.831 634.566 111.582C634.585 111.539 634.571 111.482 634.546 111.425C635.019 110.652 635.536 109.906 636.106 109.191ZM635.672 90.2218C636.37 90.3491 637.064 90.5129 637.754 90.7172C639.052 90.9114 640.307 91.2529 641.52 91.7378C643.191 92.33 644.813 93.0191 646.426 93.749C649.561 95.1675 652.502 96.9613 655.179 99.1228C655.349 99.2531 655.515 99.3873 655.678 99.521C656.278 100.039 656.861 100.581 657.413 101.154C657.992 101.783 658.576 102.412 659.155 103.044C659.865 103.787 660.683 104.46 661.326 105.263C661.455 105.427 661.57 105.607 661.673 105.788L661.294 105.918C660.977 106.025 661.03 106.621 661.345 106.534C661.453 106.504 661.554 106.467 661.653 106.427C661.609 106.484 661.579 106.541 661.572 106.591C661.554 106.752 661.678 106.973 661.876 106.916C661.965 106.892 662.055 106.859 662.147 106.822C662.172 106.926 662.193 107.029 662.193 107.13C662.177 107.136 662.158 107.143 662.14 107.147C661.919 107.224 661.503 107.568 661.444 107.803C661.395 107.983 661.549 108.177 661.747 108.124C661.894 108.083 662.039 108.023 662.179 107.956C662.085 108.047 662.011 108.144 662.004 108.228C661.993 108.382 662.126 108.599 662.31 108.549C662.652 108.455 662.926 108.311 663.153 108.131C663.215 108.211 663.3 108.274 663.372 108.254L663.503 108.214C663.466 108.247 663.434 108.283 663.401 108.317L663.356 108.368C662.432 109.365 661.623 110.469 660.977 111.657C660.947 111.624 660.911 111.593 660.862 111.557C660.561 111.302 660.251 111.055 659.938 110.814L659.844 110.732L659.748 110.65L660.449 110.881L660.433 110.862C660.382 110.799 660.228 110.588 660.157 110.518L660.141 110.503C659.178 109.643 658.13 108.913 656.997 108.318C656.264 107.842 655.494 107.441 654.688 107.11C652.76 106.216 650.797 105.537 648.782 104.908C648.481 104.811 648.177 104.708 647.876 104.613C647.789 104.583 647.773 104.62 647.787 104.68L647.628 104.634C647.348 104.543 646.87 105.038 647.061 105.269C646.943 105.363 646.831 105.467 646.732 105.565L646.661 105.637L646.58 105.614C646.341 105.54 645.937 105.913 645.682 106.177L645.491 106.377C645.349 106.531 645.066 106.849 645.413 106.973L645.845 107.12C645.831 107.207 645.868 107.28 646.001 107.33C646.153 107.381 646.3 107.434 646.447 107.488C646.357 107.566 646.27 107.647 646.183 107.729L646.054 107.853C645.902 108.007 645.544 108.348 645.861 108.499L645.9 108.515L646.314 108.662C646.259 108.783 646.272 108.897 646.454 108.963C648.858 109.78 651.206 110.737 653.502 111.825C655.218 112.775 657.034 113.484 658.948 113.949C659.104 114 659.447 113.762 659.587 113.524L659.872 113.608C659.92 113.622 659.968 113.636 660.017 113.648L660.063 113.658C659.704 114.612 659.44 115.645 659.293 116.646C659.274 116.736 659.263 116.83 659.251 116.921C658.877 116.89 658.504 116.863 658.13 116.844C655.533 116.706 652.909 116.79 650.305 117.098C649.253 116.472 648.242 115.786 647.274 115.044C646.98 114.816 646.688 114.582 646.399 114.344C644.671 112.845 643.108 111.162 641.72 109.345C640.438 107.662 639.323 105.855 638.383 103.961C637.554 102.184 636.867 100.337 636.347 98.4299C635.872 96.6865 635.709 94.9901 635.587 93.1866C635.548 92.892 635.52 92.5979 635.497 92.3031L635.499 92.1769L635.504 92.1158C635.539 91.4836 635.601 90.851 635.672 90.2218ZM660.219 112.631C660.295 112.658 660.375 112.684 660.456 112.708C660.41 112.811 660.366 112.912 660.322 113.015L660.318 113.013L660.001 112.765C660.067 112.734 660.145 112.688 660.219 112.631ZM636.141 85.4774C635.538 85.2536 635.083 85.2113 634.776 85.3514C635.231 85.385 635.686 85.4273 636.141 85.4774Z" fill="#2B283A"></path><path fill-rule="evenodd" clip-rule="evenodd" d="M656.229 232.891C658.635 231.912 660.784 230.281 662.354 228.195C662.898 227.471 663.041 226.705 662.926 226.005C662.797 225.218 662.331 224.505 661.692 224.026C661.053 223.546 660.253 223.309 659.481 223.43C658.81 223.535 658.141 223.901 657.611 224.662L657.5 224.814C656.567 226.072 655.352 227.105 653.966 227.77C652.629 228.411 651.135 228.711 649.591 228.537C646.645 228.205 644.615 226.618 642.46 224.464C642.191 224.191 641.925 223.911 641.656 223.626C641.486 223.367 641.251 223.201 640.989 223.114C640.697 223.017 640.369 223.023 640.068 223.127C639.778 223.228 639.519 223.42 639.346 223.674C639.181 223.916 639.087 224.215 639.116 224.559C639.314 226.792 640.486 228.785 642.15 230.35C643.997 232.089 646.447 233.291 648.754 233.712C651.296 234.178 653.885 233.845 656.229 232.891ZM647.564 198.436C644.859 200.074 640.739 203.893 643.648 207.953C647.072 211.533 652.001 207.428 654.43 205.572C656.682 204.133 659.212 207.833 657.123 209.513C639.571 222.463 632.448 198.865 646.194 196.511C647.709 196.251 648.272 197.929 647.564 198.436ZM679.009 183.372C678.711 179.677 673.062 178.838 672.501 182.494C671.998 185.77 672.591 188.778 674.071 191.727C675.484 194.545 679.041 193.23 679.31 190.665C679.669 187.226 679.195 185.67 679.009 183.372ZM636.028 181.738C635.242 180.711 634.104 180.009 632.742 180.406C628.488 181.645 629.741 187.665 631.237 190.595C632.048 192.187 634.672 192.59 635.858 191.189C637.793 188.904 638.719 184.341 636.26 182.091C636.193 181.974 636.12 181.857 636.028 181.738ZM674.133 167.201L673.462 167.083C671.382 166.725 668.797 166.381 667.326 168.047C666.545 168.93 666.276 170.572 667.326 171.417C669.169 172.905 671.21 172.329 673.421 172.455C675.241 172.559 676.992 172.859 678.747 173.359C682.596 174.456 685.733 176.457 689.019 178.655C689.451 178.944 689.893 178.394 689.686 177.992C687.788 174.287 684.111 171.244 680.427 169.389C678.46 168.399 676.309 167.577 674.133 167.201ZM639.902 165.545L639.39 165.65C633.79 166.816 626.517 169.145 623.867 174.626C623.766 175.401 623.872 175.567 623.959 175.675L623.986 175.711C624.058 175.804 624.115 175.932 624.453 176.037C624.547 176.015 624.641 175.991 624.736 175.967C625.951 175.649 626.914 175.212 627.845 174.758L628.854 174.263C630.023 173.69 631.204 173.139 632.457 172.732C635.129 171.864 637.875 171.252 640.667 170.925C641.272 170.854 641.853 170.651 642.313 170.302C642.749 169.972 643.083 169.513 643.234 168.904C643.432 168.116 643.375 167.519 642.952 166.808C642.632 166.274 642.175 165.904 641.651 165.692C641.116 165.475 640.509 165.424 639.902 165.545Z" fill="#2B283A"></path><path fill-rule="evenodd" clip-rule="evenodd" d="M201.404 187.65C204.305 183.588 200.244 179.527 197.342 177.786C196.762 177.206 197.342 175.465 198.793 175.755C213.008 178.366 205.756 202.736 187.189 189.391C185.158 187.65 188.059 183.588 190.09 185.329H190.67C193.281 187.65 197.923 191.131 201.404 187.65ZM172.683 145.584H172.393L165.721 147.905C161.69 149.861 158.35 152.998 156.147 156.898C156.147 157.189 156.437 157.769 157.017 157.479C160.188 155.104 163.712 153.244 167.461 151.967C169.824 151.326 172.267 151.033 174.714 151.096C176.455 151.096 177.905 151.096 179.356 149.936C180.516 149.065 180.226 147.615 179.356 146.454C177.905 144.714 175.294 145.294 172.973 145.584H172.683ZM209.817 144.134H209.237C208.67 143.955 208.063 143.955 207.496 144.134C207.006 144.401 206.603 144.804 206.336 145.294C205.756 146.164 205.756 146.745 206.046 147.325C206.046 148.195 206.336 148.485 206.916 148.775C207.206 149.356 208.077 149.356 208.657 149.646C212.865 150.213 216.969 151.386 220.841 153.127L221.712 153.417C222.905 154.053 224.171 154.54 225.483 154.868L225.773 154.578C225.773 154.578 226.063 154.287 225.773 153.417C223.162 147.615 215.619 145.294 209.817 144.134ZM179.646 171.694C179.144 171.964 178.574 172.081 178.007 172.029C177.439 171.978 176.899 171.76 176.455 171.404C175.897 170.889 175.41 170.304 175.004 169.663L173.263 167.632C171.813 167.052 170.362 167.052 168.912 167.052C166.881 167.342 165.14 168.503 163.11 169.373L160.209 171.114L159.628 170.243C161.369 166.182 165.431 162.701 169.782 162.12C174.424 161.25 179.356 164.151 181.096 168.793C181.387 169.953 180.806 171.114 179.646 171.694ZM224.032 167.052C222.872 162.991 218.52 161.25 214.749 161.83C212.428 161.83 210.397 162.701 208.657 164.441C206.916 165.892 205.756 168.503 207.206 170.533C208.657 172.854 211.848 171.984 212.138 169.373C212.138 167.632 215.039 166.472 216.78 166.182C219.101 165.602 221.712 166.182 224.032 167.052ZM180.806 203.606C181.967 204.186 191.25 204.476 196.762 204.476C201.278 204.053 205.69 202.876 209.817 200.995C209.817 200.125 209.817 199.254 209.237 199.254L188.349 199.544C185.255 199.531 182.16 199.531 179.066 199.544C178.776 200.705 179.646 203.316 180.806 203.606ZM199.373 196.643H212.428C213.879 196.933 214.459 198.964 214.459 199.544C215.329 208.248 208.657 214.63 201.404 217.241C194.732 219.562 185.738 220.142 179.646 215.5C176.745 213.76 175.004 211.149 173.844 207.957C172.969 206.433 172.38 204.761 172.103 203.026V202.445C171.813 201.285 171.523 199.544 172.103 198.674C172.683 196.933 174.134 196.933 175.584 196.933H182.547C187.189 196.907 191.83 196.907 196.472 196.933H199.373V196.643Z" fill="#2B283A"></path></g><defs><clipPath id="clip0_2_34"><rect width="834.167" height="455" fill="white"></rect></clipPath></defs></svg>