<svg xmlns="http://www.w3.org/2000/svg" width="244" height="64" viewBox="0 0 244 64" fill="none"><g clip-path="url(#clip0_2_8)"><path d="M7.44842 0.168053C11.5141 0.168053 14.8155 3.46942 14.8155 7.53515C14.8155 11.6822 11.5141 14.9836 7.44842 14.9836C3.30137 14.9836 0 11.6822 0 7.53515C0 3.46942 3.30137 0.168053 7.44842 0.168053ZM0.590886 20.063H14.2192V62.9863H0.590886V20.063Z" fill="#69D27D"></path><path d="M56.2101 19.1306C50.0301 19.1306 45.2055 21.6731 41.9041 25.9881C38.9443 21.7544 34.2009 19.1306 27.5114 19.1306C22.703 19.1306 18.5018 21.608 16.7508 24.042C16.7508 24.042 16.7616 43.4166 16.7616 39.6165C16.7616 35.8218 20.3666 31.9133 24.5516 31.9133C30.0539 31.9133 32.5909 36.4831 32.5909 41.5626V62.9809H46.1379V41.7307C46.1379 35.3827 49.1845 31.9133 53.9278 31.9133C59.4301 31.9133 61.9725 36.4831 61.9725 41.5626V62.9809H75.5196V41.568C75.5141 29.5443 69.421 19.1306 56.2101 19.1306Z" fill="#69D27D"></path><path d="M96.0813 0H82.5343V62.9863H96.0813V0Z" fill="#69D27D"></path><path d="M102.006 41.568C102.006 29.463 110.387 19.136 123.425 19.136C128.081 19.136 132.06 20.5726 135.275 22.947V20.0684H148.822V62.9917H135.275V60.1999C132.06 62.5689 128.081 64.0108 123.425 64.0108C110.387 64 102.006 53.5863 102.006 41.568ZM124.948 50.8812C130.114 50.8812 134.261 46.7342 134.261 41.568C134.261 36.4018 130.114 32.1735 124.948 32.1735C119.782 32.1735 115.635 36.4073 115.635 41.568C115.635 46.7288 119.782 50.8812 124.948 50.8812Z" fill="#69D27D"></path><path d="M169.98 60.1891V62.9809H156.433V0H169.98V22.9416C173.195 20.5726 177.174 19.1306 181.83 19.1306C194.868 19.1306 203.249 29.4576 203.249 41.5626C203.249 53.5863 194.868 64 181.83 64C177.174 64 173.195 62.5634 169.98 60.1891ZM180.307 50.8812C185.473 50.8812 189.702 46.7342 189.702 41.568C189.702 36.4018 185.468 32.1735 180.307 32.1735C175.146 32.1735 170.994 36.4073 170.994 41.568C170.994 46.7288 175.141 50.8812 180.307 50.8812Z" fill="#69D27D"></path><path d="M206.208 51.6402L219.669 49.1845C219.669 51.1306 221.447 53.4183 225.512 53.4183C227.881 53.4183 229.491 52.3178 229.491 50.5397C229.491 48.6749 228.136 48.3388 221.197 46.8155C214.172 45.2922 208.247 42.2456 208.247 33.3552C208.247 23.9607 216.541 19.1306 224.417 19.1306C232.462 19.1306 238.978 22.9416 240.756 29.8804L229.242 32.5909C228.906 31.4037 227.719 29.7124 224.754 29.7124C222.639 29.7124 221.029 30.7261 221.029 32.3361C221.029 34.369 222.807 34.7918 228.223 36.0603C234.994 37.6703 243.038 39.7032 243.038 49.4339C243.038 59.8475 234.403 63.9946 224.835 63.9946C215.267 64 207.396 60.4438 206.208 51.6402Z" fill="#69D27D"></path></g><defs><clipPath id="clip0_2_8"><rect width="243.033" height="64" fill="white"></rect></clipPath></defs></svg>