<svg xmlns="http://www.w3.org/2000/svg" width="286" height="76" viewBox="0 0 286 76" fill="none"><g clip-path="url(#clip0_23_215)"><path d="M8.76526 0.198242C13.5498 0.198242 17.4348 4.08328 17.4348 8.86781C17.4348 13.748 13.5498 17.6331 8.76526 17.6331C3.88504 17.6331 0 13.748 0 8.86781C0 4.08328 3.88504 0.198242 8.76526 0.198242ZM0.695351 23.6105H16.7331V74.1224H0.695351V23.6105Z" fill="#2B283A"></path><path d="M66.1477 22.5117C58.8752 22.5117 53.1976 25.5036 49.3125 30.5816C45.8294 25.5993 40.2474 22.5117 32.3753 22.5117C26.7168 22.5117 21.7728 25.4271 19.7122 28.2914C19.7122 28.2914 19.725 51.0913 19.725 46.6194C19.725 42.1538 23.9673 37.5543 28.8922 37.5543C35.3672 37.5543 38.3528 42.9321 38.3528 48.9096V74.1145H54.2948V49.1073C54.2948 41.6371 57.88 37.5543 63.462 37.5543C69.937 37.5543 72.9289 42.9321 72.9289 48.9096V74.1145H88.871V48.9159C88.8646 34.7665 81.6942 22.5117 66.1477 22.5117Z" fill="#2B283A"></path><path d="M113.068 0H97.1259V74.1219H113.068V0Z" fill="#2B283A"></path><path d="M120.041 48.9174C120.041 34.6722 129.903 22.5195 145.246 22.5195C150.725 22.5195 155.408 24.2101 159.191 27.0042V23.6168H175.133V74.1286H159.191V70.8433C155.408 73.6311 150.725 75.328 145.246 75.328C129.903 75.3152 120.041 63.0604 120.041 48.9174ZM147.038 59.8771C153.118 59.8771 157.998 54.9969 157.998 48.9174C157.998 42.8378 153.118 37.8619 147.038 37.8619C140.959 37.8619 136.078 42.8442 136.078 48.9174C136.078 54.9905 140.959 59.8771 147.038 59.8771Z" fill="#2B283A"></path><path d="M200.032 70.8302V74.1155H184.09V0H200.032V26.9975C203.815 24.2097 208.497 22.5128 213.977 22.5128C229.319 22.5128 239.182 34.6655 239.182 48.9106C239.182 63.0601 229.319 75.3149 213.977 75.3149C208.497 75.3149 203.815 73.6243 200.032 70.8302ZM212.184 59.8768C218.264 59.8768 223.24 54.9966 223.24 48.917C223.24 42.8375 218.257 37.8616 212.184 37.8616C206.111 37.8616 201.225 42.8439 201.225 48.917C201.225 54.9902 206.105 59.8768 212.184 59.8768Z" fill="#2B283A"></path><path d="M242.665 60.7688L258.505 57.879C258.505 60.1692 260.597 62.8612 265.382 62.8612C268.17 62.8612 270.064 61.5662 270.064 59.4738C270.064 57.2793 268.469 56.8838 260.304 55.0912C252.036 53.2986 245.064 49.7134 245.064 39.2512C245.064 28.1957 254.824 22.5117 264.093 22.5117C273.56 22.5117 281.228 26.9964 283.321 35.162L269.771 38.3517C269.375 36.9546 267.978 34.9643 264.489 34.9643C262.001 34.9643 260.106 36.1572 260.106 38.0519C260.106 40.4441 262.199 40.9417 268.572 42.4345C276.539 44.3292 286.006 46.7214 286.006 58.1724C286.006 70.4272 275.844 75.3074 264.584 75.3074C253.325 75.3138 244.062 71.1289 242.665 60.7688Z" fill="#2B283A"></path></g><defs><clipPath id="clip0_23_215"><rect width="286" height="75.3149" fill="white"></rect></clipPath></defs></svg>