<svg xmlns="http://www.w3.org/2000/svg" width="133" height="35" viewBox="0 0 133 35" fill="none"><g clip-path="url(#clip0_76_398)"><path d="M4.07335 0.0917969C6.2968 0.0917969 8.10224 1.89723 8.10224 4.12068C8.10224 6.3886 6.2968 8.19403 4.07335 8.19403C1.80544 8.19403 0 6.3886 0 4.12068C0 1.89723 1.80544 0.0917969 4.07335 0.0917969ZM0.323141 10.9719H7.77613V34.4455H0.323141V10.9719Z" fill="white"></path><path d="M30.7399 10.4619C27.3603 10.4619 24.7218 11.8523 22.9164 14.2121C21.2977 11.8968 18.7037 10.4619 15.0454 10.4619C12.4158 10.4619 10.1182 11.8167 9.16064 13.1478C9.16064 13.1478 9.16657 23.7433 9.16657 21.6651C9.16657 19.5899 11.138 17.4524 13.4267 17.4524C16.4358 17.4524 17.8232 19.9516 17.8232 22.7294V34.4425H25.2317V22.8213C25.2317 19.3498 26.8978 17.4524 29.4918 17.4524C32.5009 17.4524 33.8913 19.9516 33.8913 22.7294V34.4425H41.2998V22.7324C41.2968 16.1569 37.9646 10.4619 30.7399 10.4619Z" fill="white"></path><path d="M52.5445 0H45.136V34.4456H52.5445V0Z" fill="white"></path><path d="M55.7848 22.7328C55.7848 16.1129 60.3681 10.4653 67.4979 10.4653C70.0445 10.4653 72.2205 11.251 73.9785 12.5494V10.9752H81.387V34.4489H73.9785V32.9221C72.2205 34.2177 70.0445 35.0062 67.4979 35.0062C60.3681 35.0003 55.7848 29.3053 55.7848 22.7328ZM68.331 27.826C71.1562 27.826 73.4241 25.5581 73.4241 22.7328C73.4241 19.9076 71.1562 17.5952 68.331 17.5952C65.5057 17.5952 63.2378 19.9105 63.2378 22.7328C63.2378 25.5551 65.5057 27.826 68.331 27.826Z" fill="white"></path><path d="M92.9578 32.9159V34.4427H85.5493V0H92.9578V12.5462C94.7158 11.2506 96.8918 10.4621 99.4384 10.4621C106.568 10.4621 111.152 16.1096 111.152 22.7295C111.152 29.305 106.568 35 99.4384 35C96.8918 35 94.7158 34.2144 92.9578 32.9159ZM98.6054 27.8257C101.431 27.8257 103.743 25.5578 103.743 22.7325C103.743 19.9073 101.428 17.5949 98.6054 17.5949C95.7831 17.5949 93.5122 19.9102 93.5122 22.7325C93.5122 25.5548 95.7801 27.8257 98.6054 27.8257Z" fill="white"></path><path d="M112.77 28.2406L120.131 26.8976C120.131 27.9619 121.104 29.213 123.327 29.213C124.623 29.213 125.503 28.6112 125.503 27.6388C125.503 26.619 124.762 26.4351 120.967 25.6021C117.125 24.769 113.885 23.1029 113.885 18.241C113.885 13.1034 118.421 10.4619 122.728 10.4619C127.128 10.4619 130.691 12.546 131.664 16.3407L125.367 17.823C125.183 17.1738 124.534 16.2488 122.912 16.2488C121.756 16.2488 120.875 16.8032 120.875 17.6837C120.875 18.7954 121.848 19.0266 124.809 19.7203C128.512 20.6008 132.912 21.7126 132.912 27.034C132.912 32.729 128.189 34.9969 122.957 34.9969C117.724 34.9999 113.419 33.0551 112.77 28.2406Z" fill="white"></path></g><defs><clipPath id="clip0_76_398"><rect width="132.909" height="35" fill="white"></rect></clipPath></defs></svg>