<svg xmlns="http://www.w3.org/2000/svg" width="263" height="413" viewBox="0 0 263 413" fill="none"><path fill-rule="evenodd" clip-rule="evenodd" d="M255.879 373.458C257.07 382.688 259.452 393.108 254.986 402.04C257.963 402.04 255.581 402.933 253.795 403.231C253.2 404.124 252.009 404.124 250.818 404.124C244.863 405.315 239.206 405.91 233.55 406.506C161.5 412.46 89.1517 410.972 17.1016 408.292C15.0176 408.292 13.2312 406.506 13.2312 404.124C10.3007 370.464 9.0091 336.682 9.3608 302.897C10.5517 290.988 1.32216 295.751 6.38353 279.972C10.098 263.507 15.6922 247.523 23.0562 232.335C28.1176 222.212 32.8813 211.494 40.6222 203.456C43.004 203.158 45.0881 200.478 47.1722 199.287C48.9586 198.99 50.7449 197.203 52.829 196.608C56.6994 195.715 65.6312 193.631 69.204 196.012H69.5018C70.0973 196.608 70.9905 196.012 71.5859 195.417C73.3723 194.226 80.5176 193.928 81.7086 192.142C85.8767 187.974 87.0676 179.637 87.0676 174.576C88.854 172.79 88.8541 173.087 91.2359 172.194C93.3709 169.371 95.9922 166.952 98.9767 165.049C115.649 154.331 139.765 165.644 143.636 184.699C149.536 189.881 156.284 194.011 163.584 196.906C167.454 195.119 171.622 194.524 175.493 194.524C178.47 194.524 182.34 192.737 184.425 195.715C215.984 206.135 235.038 236.503 249.031 265.085C250.818 269.253 253.2 273.422 252.604 278.185C252.307 283.842 246.054 287.117 247.245 293.072L252.604 341.601L255.879 373.458Z" fill="white"></path><path fill-rule="evenodd" clip-rule="evenodd" d="M23.0562 295.754C25.1403 296.647 28.1176 297.242 29.6062 299.029L30.2017 294.265H17.1016L23.0562 295.754ZM32.5835 394.301L37.0494 394.599C57.2922 395.371 77.5378 396.066 97.7859 396.683L167.156 398.47L186.211 399.363C189.486 399.363 192.761 399.363 196.334 399.958L204.372 401.149L204.075 390.431L203.479 380.308C192.761 380.904 181.745 380.904 170.729 381.201L136.788 381.499L68.6087 381.201L49.554 380.904H34.9653C33.4767 380.904 32.2858 380.308 31.0949 379.117C30.4994 378.522 30.4994 377.033 31.0949 376.438C31.988 375.842 32.8813 374.949 34.37 374.949H47.4699L64.738 375.247L98.9767 375.842C109.993 375.842 121.306 375.842 132.62 376.438C143.934 376.438 155.545 377.331 166.859 377.629L203.479 379.415L202.586 360.36C153.319 363.407 103.925 363.805 54.6154 361.551H43.8971L38.5381 361.254C37.0494 361.254 35.5609 361.254 34.37 360.36C31.9882 359.169 31.6904 355.299 34.37 354.406C36.1563 353.81 37.6449 354.406 38.2404 355.894H42.4085L51.3403 356.192C68.1095 356.7 84.8819 357.097 101.656 357.383L168.347 358.574L202.586 359.467L201.693 338.924V336.542L196.632 337.435C193.654 337.435 190.677 338.031 187.997 338.329L171.622 339.519C138.214 341.43 104.747 342.125 71.2881 341.604L34.9653 341.306H32.5835L30.7972 373.46L29.3086 395.195C30.4995 394.599 31.3926 394.301 32.5835 394.301ZM241.886 285.333C243.97 284.142 246.352 283.249 247.841 281.76C250.222 280.272 250.818 278.485 249.925 275.806V275.21L204.67 274.317C148.002 272.93 91.303 273.426 34.6676 275.806V290.99H51.9358C66.2267 290.692 80.5176 290.99 94.5108 291.288L179.959 293.372L203.181 293.967L204.075 290.097C204.67 288.31 205.266 286.226 206.754 284.738C207.647 286.524 207.35 288.31 207.35 290.097L207.052 294.265C211.816 294.265 216.579 294.86 221.343 295.456L225.511 293.372C230.87 290.394 236.229 288.013 241.886 285.333ZM67.12 335.054H100.763C123.093 335.054 145.422 334.458 167.454 333.863C176.782 333.727 186.112 333.727 195.441 333.863H201.395V314.808C179.959 317.785 158.522 318.679 137.086 319.572C106.33 320.48 75.5585 320.778 44.7904 320.465H39.729C38.2404 320.465 37.0495 319.869 35.8586 318.679C35.6737 318.54 35.5237 318.36 35.4203 318.153C35.317 317.947 35.2631 317.719 35.2631 317.488C35.2631 317.257 35.317 317.029 35.4203 316.822C35.5237 316.615 35.6737 316.435 35.8586 316.297C37.9427 314.213 40.6223 314.808 43.3018 314.808C62.1568 315.09 81.015 315.09 99.87 314.808C121.902 314.808 143.636 314.213 165.37 313.617L201.097 313.915C201.296 308.84 201.693 303.775 202.288 298.731L184.425 298.433C156.236 298.142 128.051 297.646 99.87 296.944C85.5791 296.647 71.5859 296.647 57.5927 295.754L34.6676 294.563V296.647C34.5429 309.258 34.1458 321.864 33.4767 334.458L67.12 335.054ZM244.863 260.622L240.397 250.797C234.145 252.583 227.297 253.774 220.747 254.369C213.718 255.025 206.667 255.422 199.609 255.56C185.616 255.56 171.622 254.965 157.927 254.369C115.177 252.615 72.3851 252.119 29.6062 252.881H26.629L23.6517 251.988C22.4608 251.392 21.5675 249.308 23.0562 248.713C24.8426 247.819 26.0336 247.522 27.8199 247.522C33.377 247.397 38.9346 247.298 44.4926 247.224C65.8297 246.925 87.1706 247.024 108.504 247.522C137.086 248.117 165.072 250.201 193.654 251.094H217.472C224.916 251.094 232.359 250.201 240.1 249.903L231.168 233.826C211.912 234.491 192.635 234.192 173.409 232.933H163.286L158.522 232.635C156.736 232.635 154.95 232.635 153.461 232.04L152.568 231.742C137.966 238.523 121.885 241.494 105.825 240.376C96.8928 239.483 88.2586 237.399 80.8154 233.231C63.2495 234.719 45.6836 233.826 28.4154 233.826C26.6291 233.826 26.0336 232.338 26.3313 230.849C21.0133 243.072 16.7309 255.72 13.529 268.66L7.5745 292.479H7.87215C7.87215 291.585 7.87215 290.692 9.36079 290.692H30.4994L31.0949 285.631L31.988 278.485L32.2859 275.806L15.613 276.401C12.0403 276.401 12.0403 270.744 15.613 270.744L107.611 268.363C138.277 267.767 168.943 267.469 199.609 268.958C216.282 269.851 232.954 271.042 249.329 274.019L244.863 260.622ZM218.663 218.344C218.068 218.344 218.068 218.94 217.175 218.94L214.197 219.238L208.243 219.535L196.929 220.131C189.188 220.131 181.15 220.726 173.409 220.131C171.622 220.131 170.729 218.642 171.027 217.153C169.571 218.96 167.979 220.652 166.263 222.215C163.286 224.894 160.309 226.978 157.331 229.063H163.286C173.21 229.554 183.135 230.051 193.059 230.551C205.861 231.147 218.068 232.04 230.572 233.231C227.061 227.919 223.074 222.937 218.663 218.344ZM15.3153 244.247C20.6744 229.658 27.2245 214.474 39.729 204.649C45.6836 199.588 52.829 196.015 60.8676 194.228C60.8676 194.228 61.1653 194.526 60.8676 194.824C47.1722 199.29 37.0495 211.199 30.2017 223.406L26.629 230.253C27.2244 229.658 27.5222 229.36 28.4154 229.36C44.4927 229.658 61.1653 229.36 77.2426 230.849L76.0518 230.253C71.502 227.026 67.484 223.109 64.1427 218.642C62.3564 219.238 60.2723 219.535 58.1882 219.535L50.1495 220.131H41.8132C40.0268 220.131 36.4539 220.726 36.4539 217.749C36.4539 214.772 40.0268 215.367 41.8132 215.367H50.1495L57.8903 215.963C59.379 215.963 60.8677 215.963 62.6541 216.558C59.3008 211.686 56.8781 206.235 55.5086 200.481C55.5086 198.694 56.9972 197.503 58.4858 197.503C65.3336 196.61 72.479 195.717 77.8381 191.549C80.2199 189.167 82.304 187.083 83.7927 184.403C86.1745 181.426 86.77 178.449 86.77 174.876C86.77 174.578 87.0676 174.578 87.0676 174.876C88.2585 181.724 86.7699 189.763 81.7085 194.824C76.6895 199.406 70.3139 202.228 63.5472 202.863C66.2268 210.901 70.6926 217.749 77.2426 223.406C84.3881 229.36 93.6178 232.635 102.847 234.124C112.97 235.315 123.39 234.719 133.215 232.635C147.763 229.55 160.863 221.69 170.431 210.306C172.813 207.328 174.897 203.756 176.981 200.183C168.943 202.565 159.118 199.588 151.972 195.122C144.853 190.572 139.336 183.909 136.193 176.067C135.868 175.415 135.667 174.708 135.597 173.983L135.895 172.197C136.49 171.601 136.788 171.601 136.193 171.601C136.788 170.41 138.575 170.112 139.765 171.006L141.552 172.197L142.147 173.983C143.119 176.859 144.524 179.57 146.315 182.022C151.237 188.631 158.11 193.526 165.965 196.015C170.134 197.206 174.302 197.503 178.47 198.099C178.768 197.801 179.066 197.801 179.066 198.099C179.661 198.397 179.661 199.29 179.066 199.588C178.596 203.591 177.277 207.449 175.195 210.901L172.515 215.069C172.811 215.024 173.113 215.024 173.409 215.069C181.15 214.772 189.188 215.069 196.929 215.367L208.243 215.963L214.197 216.26L217.175 216.558C206.868 206.289 194.188 198.721 180.256 194.526C201.395 196.61 218.961 210.008 231.465 226.681C241.848 240.761 249.613 256.594 254.391 273.424C255.284 276.401 255.581 279.378 254.391 282.058C253.2 284.142 251.413 285.631 249.627 286.822L249.032 287.119C251.116 293.967 252.306 301.113 253.795 307.96C259.136 337.238 261.926 366.923 262.132 396.683C262.132 399.065 262.132 401.745 260.941 404.126C259.452 407.104 256.177 405.913 254.986 404.126C254.764 403.845 254.565 403.546 254.391 403.233C254.35 402.937 254.35 402.636 254.391 402.34C253.795 400.851 254.093 399.363 254.093 398.172V392.217C254.06 380.591 253.563 368.97 252.604 357.383L248.138 311.831L246.352 288.608L240.993 291.585C237.718 293.074 234.145 294.563 230.87 296.647L221.045 301.41C218.068 303.197 214.495 305.281 210.922 305.579C208.838 305.876 207.945 303.197 209.434 302.006C210.922 300.517 212.709 299.326 214.793 298.433H206.754V308.854L208.541 333.863C209.732 351.131 210.922 368.399 211.518 385.667L212.411 398.47V404.424C212.709 406.806 212.411 409.783 210.625 411.272C209.136 412.165 207.647 411.867 206.159 410.379C204.67 408.592 204.67 405.913 204.67 403.531V402.042L197.525 402.935L188.89 403.531H171.622L136.788 403.233C104.029 402.585 71.2767 401.593 38.5381 400.256C35.5608 400.256 31.988 400.851 29.0107 399.065V402.042C29.0107 404.126 27.5222 405.615 25.4382 405.615C23.6518 405.615 21.8654 404.126 21.8654 402.042L25.4382 350.833L29.0107 303.792C28.5783 304.123 28.0634 304.329 27.5221 304.388C25.438 304.388 23.3539 303.197 21.5675 302.304C18.3622 301.246 15.0765 300.449 11.7426 299.922V307.365L12.3381 318.381L12.6357 340.71C13.1104 361.87 14.1031 383.015 15.613 404.126C15.613 406.21 15.9109 408.295 15.0177 410.379C14.4222 412.165 12.0403 413.058 10.8494 410.974C9.06306 407.997 9.36079 403.531 9.36079 399.958C8.07228 373.778 7.87359 347.555 8.7653 321.358L9.65844 308.854L10.5518 299.922L3.40624 299.029C1.02442 299.029 -0.464149 296.944 0.131306 294.86C4.08522 277.676 9.15732 260.769 15.3153 244.247Z" fill="#2B283A"></path><path fill-rule="evenodd" clip-rule="evenodd" d="M51.936 91.2127C51.936 82.2808 52.5315 73.0513 56.9974 65.0126C60.9456 57.5743 65.9609 50.7536 71.8838 44.7672C74.5633 42.3853 77.8383 39.7058 77.2428 35.8353C77.2428 31.9649 74.5633 23.3308 74.2655 19.1626C73.6701 11.124 79.3269 9.03986 86.1746 5.1694C93.9156 0.703487 103.443 1.29894 112.375 3.38303C128.452 7.25349 147.804 13.5058 154.057 30.774C155.545 34.9422 154.95 39.7058 155.247 43.874C155.545 48.0422 157.332 51.9126 158.82 55.7831C166.028 74.6473 168.383 95.0198 165.668 115.031C170.134 115.924 174.6 119.497 175.493 123.963C176.982 132.299 168.645 135.872 163.584 140.338C157.629 145.697 152.866 152.545 147.209 158.499C111.481 198.395 31.6905 179.936 48.0656 118.008C50.4474 109.076 52.2337 100.145 51.936 91.2127Z" fill="white"></path><path fill-rule="evenodd" clip-rule="evenodd" d="M123.39 3.98009C114.459 0.70509 104.634 -0.78355 95.1064 0.40736C87.4355 1.39359 80.0978 4.14521 73.6699 8.44601C71.8836 9.63692 70.3949 11.4233 70.6927 13.2096C70.5918 13.6002 70.5918 14.01 70.6927 14.4006L75.4564 35.8369L76.3496 40.6006C64.3973 48.8173 55.3349 60.588 50.4472 74.2438C46.5768 87.9393 48.3631 101.932 46.8745 115.926C46.8745 118.903 45.9813 122.476 45.0882 125.453C44.195 129.026 42.7063 132.301 42.1109 135.576C40.3245 142.721 42.7064 149.271 46.2791 155.226C53.1269 166.242 63.2495 175.471 75.1586 180.235C81.3141 182.712 87.8761 184.024 94.5109 184.105C101.341 184.206 108.057 182.346 113.863 178.746C117.436 176.364 114.459 171.303 110.291 172.792L109.397 173.387C106.42 174.578 104.038 175.769 101.061 176.364C97.7859 176.96 94.511 176.96 90.9383 176.96C84.686 176.364 78.4337 174.28 73.0746 171.005C68.0133 168.028 63.2495 164.455 59.379 160.287L59.0814 159.692C55.0184 155.747 51.6913 151.109 49.2564 145.996C48.0655 143.317 47.47 140.637 48.0654 137.66C48.6609 134.385 49.8518 131.408 51.0427 128.132C52.5314 122.178 53.1268 115.628 53.1268 109.376V109.078C53.4246 95.9779 52.5314 83.1756 56.9973 70.6711C61.1655 59.6551 69.7995 51.021 76.6472 41.7915L77.8382 46.2574L79.0292 51.9142V53.1051H79.3268C79.6246 53.9983 80.2201 54.8915 81.411 55.1892C82.6019 55.1892 83.1973 54.8915 83.7928 53.9983H89.1518C92.7245 53.9983 96.5951 54.5938 99.8701 53.9983C100.466 53.9983 100.466 53.1051 99.8701 52.8074C96.8928 51.9142 93.0224 51.9142 89.4496 51.6165L84.3882 51.021C84.0905 51.0269 83.7928 51.0269 83.4951 51.021L81.411 42.6847L79.3268 33.1574L75.4564 15.2937C79.5477 14.3096 83.7575 13.9087 87.961 14.1028H88.5563C90.2243 14.047 91.8746 14.4595 93.3201 15.2937C95.1064 16.4846 95.1064 19.1642 95.7019 20.9506L98.0836 36.7301L98.9768 44.1733V47.7461L99.8701 50.7233C99.8701 52.5097 101.954 54.2961 103.145 52.8074C104.634 51.021 106.122 48.937 107.909 47.4483C109.695 45.6619 111.481 44.471 113.863 42.9824C118.046 40.4867 122.555 38.5829 127.261 37.3256C132.025 38.8142 136.491 40.3029 140.956 42.9824C150.781 48.3415 158.82 57.5711 161.5 68.587C164.024 78.6047 164.631 89.0098 163.286 99.2529C162.691 102.826 161.202 106.101 160.309 109.673C160.011 110.567 160.309 111.162 160.309 112.055C157.927 112.055 153.759 113.246 153.461 115.628C153.461 116.223 153.461 116.819 154.354 116.819C155.545 116.819 156.141 115.926 157.332 115.33H157.629C163.584 112.055 170.431 116.819 171.622 122.476C172.813 127.835 171.027 134.087 165.668 136.469C163.286 137.66 160.309 138.255 157.927 140.042C155.843 141.233 154.354 143.019 152.568 144.805L144.231 157.012C143.054 158.863 141.655 160.563 140.063 162.073C138.277 163.562 135.597 164.158 135.002 166.837C134.704 167.73 135.002 168.921 135.895 169.219C139.17 171.005 142.743 168.028 144.827 165.944C147.209 163.562 149.293 161.18 150.781 158.501C153.759 154.035 156.141 148.973 160.309 145.698C162.988 143.614 166.263 142.721 168.943 141.232C171.92 139.744 174.6 137.064 175.791 133.789C178.47 127.537 177.875 119.796 172.813 114.735C171.325 113.246 169.538 112.055 167.454 111.757C170.491 103.687 171.711 95.0463 171.027 86.4506V85.2597C170.729 77.5188 169.836 69.7779 167.156 62.6324C164.775 56.6779 161.202 51.3188 156.736 46.8529C156.25 46.3462 155.754 45.8499 155.247 45.3642H155.545C156.736 43.8756 156.438 41.7915 156.438 40.0051L155.545 34.0506C153.84 27.4652 150.526 21.4063 145.901 16.4177C141.276 11.4291 135.485 7.66691 129.047 5.46873C127.194 4.77526 125.306 4.179 123.39 3.68236V3.98009ZM167.156 122.178C165.072 120.987 162.095 121.285 159.713 122.178C157.331 123.369 154.652 125.155 153.759 128.132C152.568 130.217 156.141 131.11 157.332 129.621L159.416 126.644C159.515 126.639 159.614 126.639 159.713 126.644C160.309 127.239 160.904 127.835 161.5 127.835C162.095 127.835 162.988 127.239 162.988 126.644C163.286 125.751 162.988 124.857 162.393 124.56C163.882 123.369 165.37 123.369 167.156 122.476V122.178ZM109.1 7.25509C120.116 7.25509 132.025 10.2324 140.063 17.9733C145.41 23.3148 149.216 30.0008 151.079 37.3256L151.675 41.4938V42.6847C147.728 39.5708 143.169 37.3248 138.295 36.0935C133.421 34.8623 128.342 34.6734 123.39 35.5392V36.4324H124.879C120.413 36.7301 115.947 38.2188 112.375 40.3029C108.504 42.0892 104.634 45.0665 101.656 48.6392L101.954 47.1506V42.9824L101.359 34.0506V32.5619L98.6791 16.7824C98.0837 13.8051 96.2973 12.0187 94.2132 10.8278C98.5829 8.40872 103.51 7.1769 108.504 7.25509H109.1ZM88.8542 5.76645C93.7576 4.20196 98.8945 3.49688 104.038 3.68236C102.252 3.98009 100.465 4.87327 98.6791 5.76645C96.595 6.95737 94.8086 8.74373 93.6177 10.5301C92.4268 9.93464 90.6406 9.63692 89.4496 9.63692C85.8769 9.63692 82.3041 9.63691 78.7313 10.2324C81.8985 8.31276 85.3012 6.81162 88.8542 5.76645Z" fill="#2B283A"></path><path fill-rule="evenodd" clip-rule="evenodd" d="M60.8676 170.112L64.4404 168.921C70.3949 165.944 77.2428 165.349 83.495 168.028C86.4723 169.219 89.4496 171.303 92.4269 172.792L94.5108 173.387C98.017 172.096 101.404 170.502 104.634 168.624L105.527 167.433L99.5722 165.944C93.6177 164.455 88.2585 161.776 82.6017 159.989C77.2771 158.281 71.5513 158.281 66.2267 159.989C63.5471 160.585 61.463 162.371 58.7835 163.264C57.5926 163.86 55.8063 164.455 54.6154 164.455C55.5248 166.752 56.8353 168.869 58.4858 170.708L60.57 170.112H60.8676ZM48.6609 152.248C48.9586 152.248 51.0427 153.737 51.6381 154.63H52.5313C52.5313 154.035 53.1268 154.035 53.7223 154.035C56.6996 152.546 59.6768 150.462 62.0586 147.783C63.845 145.996 65.6313 143.912 68.0132 143.019C70.9904 141.53 73.6699 142.126 76.6472 142.423C79.6244 142.423 82.6018 141.828 85.8768 142.423C88.2586 142.423 90.3427 143.614 92.129 144.805C95.9995 147.783 98.679 151.653 101.954 154.928C105.437 158.562 109.875 161.142 114.756 162.371H115.054C118.716 159.064 122.011 155.371 124.879 151.355C127.856 147.485 135.3 129.919 137.086 128.43L139.468 127.537C140.956 127.537 142.445 128.43 143.041 130.217C143.934 132.598 143.338 136.171 143.338 139.148C143.265 142.529 143.066 145.905 142.743 149.271C142.363 152.662 141.866 156.038 141.254 159.394C140.989 161.087 140.691 162.774 140.361 164.455C140.192 164.867 139.993 165.265 139.765 165.646L139.17 168.326C138.217 173.767 135.739 178.826 132.025 182.914C127.615 186.804 122.583 189.924 117.138 192.144C112.053 194.564 106.775 196.556 101.359 198.099C96.8928 200.183 91.8313 201.969 86.77 202.862C81.4109 203.755 75.4564 203.755 70.0973 201.969C67.5466 201.018 65.1414 199.716 62.9518 198.099C59.9745 196.312 56.9972 194.228 54.6154 191.251C50.4472 185.892 48.6608 179.342 47.4699 172.494L46.2791 163.264L45.6836 153.142C45.6836 151.653 47.47 151.355 48.6609 151.951V152.248Z" fill="#2B283A"></path><path fill-rule="evenodd" clip-rule="evenodd" d="M83.1972 160.883C85.8767 159.692 87.9608 157.906 89.7472 155.822C90.3427 154.929 90.6404 154.035 90.3427 153.44C90.3053 153.009 90.1831 152.59 89.9829 152.207C89.7828 151.824 89.5086 151.484 89.1764 151.207C88.8443 150.93 88.4607 150.722 88.0476 150.594C87.6346 150.466 87.2004 150.422 86.7699 150.463C86.3337 150.54 85.9202 150.714 85.5597 150.971C85.1991 151.229 84.9005 151.564 84.6858 151.951C83.4949 153.44 82.304 154.631 80.8154 155.226C79.3267 155.822 77.8381 156.417 76.3495 156.12C73.0745 155.822 70.9904 154.035 68.6086 151.654C68.3074 151.359 68.0095 151.062 67.7153 150.76C67.5418 150.617 67.3384 150.516 67.12 150.463H66.2267C65.6312 150.463 65.6312 150.463 65.3335 151.058C65.2421 151.349 65.2421 151.661 65.3335 151.951C65.3335 154.333 66.5244 156.417 68.3108 157.906C70.2619 159.75 72.6932 161.008 75.326 161.535C77.9589 162.061 80.6867 161.835 83.1972 160.883ZM74.2653 123.965C71.2881 125.751 66.8222 129.919 69.7994 134.088C73.3722 137.958 78.7313 133.492 81.4109 131.706C83.7927 130.217 86.4722 134.088 84.3882 135.874C65.6313 149.569 57.8904 124.56 72.479 121.881C74.2654 121.881 74.8609 123.369 73.9677 123.965H74.2653ZM107.611 107.888C107.015 104.017 101.061 103.124 100.465 106.994C99.8699 110.567 100.465 113.842 102.252 116.819C103.74 119.797 107.611 118.606 107.909 115.629L107.611 107.888ZM61.7607 106.399C60.8676 105.208 59.6768 104.315 58.1882 104.91C53.7222 106.101 55.2109 112.651 56.6995 115.629C57.5927 117.415 60.2722 117.713 61.4631 116.224C63.5472 113.842 64.4404 109.079 62.0586 106.697C62.0635 106.598 62.0635 106.498 62.0586 106.399H61.7607ZM102.252 90.9172H101.656C99.2745 90.3217 96.5949 90.024 95.1063 91.8103C94.2131 92.7035 93.9154 94.4899 95.1063 95.3831C96.8926 96.8717 99.2745 96.2763 101.656 96.2763C103.443 96.2763 105.229 96.8717 107.313 97.4672C111.161 98.7782 114.778 100.687 118.031 103.124C118.627 103.124 118.924 102.826 118.924 102.231C116.84 98.3603 112.97 95.0853 109.1 93.299C107.015 92.1081 104.634 91.2149 102.252 90.9172ZM65.929 89.1308H65.3335C59.379 90.3217 51.638 93.0012 48.9585 98.6581V99.849L49.554 100.147C50.7854 99.8835 51.9837 99.4841 53.1268 98.9558L54.3176 98.3604L57.8903 96.574L66.8222 94.7876L68.6086 94.1922C69.0633 93.8088 69.3775 93.2851 69.5018 92.7035L69.2039 90.3217C68.8517 89.7723 68.3286 89.3539 67.7153 89.1308C67.1339 88.9479 66.5104 88.9479 65.929 89.1308Z" fill="#2B283A"></path><path fill-rule="evenodd" clip-rule="evenodd" d="M36.1562 114.139C39.1334 135.575 61.1653 137.957 65.0358 116.521C64.4403 116.521 63.8449 115.925 64.1426 114.734C64.1426 110.269 62.6539 105.207 58.4857 102.825C54.3175 99.8481 49.2562 99.8481 44.1948 99.8481C34.9653 99.8481 35.263 107.589 36.1562 114.139ZM68.3107 104.909C71.288 104.909 75.1585 104.909 77.838 106.696C78.4335 104.612 80.5176 102.528 82.3039 101.337C75.1585 101.634 68.013 101.039 60.8675 100.444C62.3561 101.634 63.8449 103.421 65.0358 105.505C65.929 104.909 67.4175 104.909 68.3107 104.909ZM81.4108 116.521C89.7472 144.805 109.993 132.598 112.374 128.728C116.245 122.773 117.138 107.887 113.565 104.016C108.504 100.741 101.656 101.634 95.7017 101.337C84.6858 101.337 76.9449 104.909 81.4108 116.223V116.521ZM26.6288 103.123C28.8248 102.703 31.0947 102.909 33.1789 103.719C33.4842 102.436 34.0698 101.237 34.8934 100.207C35.717 99.1778 36.7582 98.3434 37.9424 97.764C38.2402 97.1685 38.2402 97.1685 39.1334 97.1685C45.088 95.3822 51.3403 96.2754 56.9971 98.0617L83.7926 100.444C91.8312 96.5731 116.543 96.2754 118.031 105.207C120.115 105.207 123.39 103.421 124.879 105.505C136.788 103.421 149.293 106.398 161.202 107.589C164.179 108.184 165.965 114.437 162.393 114.139C160.606 113.544 162.393 110.566 160.011 110.269C148.102 108.78 137.086 107.291 125.177 106.994C125.772 108.78 117.436 109.078 117.436 107.887C119.52 115.33 117.436 126.346 113.863 131.109C108.802 137.064 95.9994 139.148 90.3426 134.98C82.8994 131.407 75.4563 112.948 77.5404 106.994C73.6526 105.936 69.567 105.834 65.6313 106.696C66.8222 109.375 68.3107 115.628 65.9289 116.521C66.5244 129.323 54.913 137.362 44.1948 132.003C34.9653 127.537 31.6903 113.841 32.8812 105.207C31.6903 107.589 21.8652 105.207 26.6288 103.123Z" fill="#2B283A"></path></svg>