<svg xmlns="http://www.w3.org/2000/svg" width="262" height="234" viewBox="0 0 262 234" fill="none"><path fill-rule="evenodd" clip-rule="evenodd" d="M258.893 203.729L255.563 189.855L249.181 160.72L236.14 104.67L228.925 76.0898C226.983 67.7655 225.318 59.4412 221.711 51.3944C218.322 43.3284 211.965 36.872 203.952 33.3584C197.015 30.5836 189.246 28.9187 181.754 28.3638C182.586 27.2539 182.864 25.589 181.754 24.2016C179.812 22.5368 179.534 19.762 178.979 17.5422C178.424 14.7674 177.592 11.7152 175.927 9.21786C175.599 8.73567 175.128 8.36892 174.58 8.16968C174.032 7.97045 173.436 7.94886 172.875 8.10795L170.655 8.6629L170.1 7.83048C169.545 6.99805 169.268 6.16561 168.435 5.61066C168.158 5.0557 167.603 5.05571 167.048 5.33318C165.66 6.16561 165.383 8.10795 165.938 9.49534V10.3278L159.556 11.1602C157.525 11.3182 155.489 11.4107 153.451 11.4377C144.882 11.8156 136.299 11.0693 127.923 9.21786C125.149 8.66291 122.374 8.38543 119.877 6.72057V4.50074C119.877 3.11336 119.877 2.00346 119.044 0.893555L117.102 3.11336H114.327C113.279 3.56381 112.334 4.22495 111.552 5.05571C110.442 6.44309 110.165 7.83048 109.61 9.49534C109.61 10.8827 109.332 11.7152 108.778 12.2701L108.5 13.1025H108.223L107.668 13.6575L107.39 13.935C105.448 15.3223 103.783 15.8773 101.841 16.7097C97.1235 17.8196 92.1289 18.6521 87.4118 20.3169C61.6935 27.3978 39.3536 43.4392 24.4246 65.5457C11.9393 86.4434 4.70343 110.055 3.33628 134.36C0.561513 160.72 0.561538 187.081 0.284061 213.718L0.0065675 223.43C0.0065675 226.76 -0.270909 230.09 2.78134 232.309C5.00115 234.252 8.33088 233.697 11.1056 232.864C19.8285 230.282 28.9548 229.342 38.0209 230.09C41.3506 230.367 45.2353 231.477 47.7326 228.98C48.8425 228.147 49.3975 227.037 49.675 225.927L51.6173 221.488L53.2821 217.881L55.7795 228.98C56.0569 230.645 57.7218 230.644 58.5542 230.09C59.9416 230.922 62.1614 230.922 63.8263 230.922L72.1506 231.477L88.5218 231.754H121.819C144.017 231.754 165.938 231.477 187.858 230.922L206.449 230.367L215.606 230.09L218.381 229.812L219.768 230.644C221.988 231.199 223.931 229.812 224.485 227.87L225.04 225.095L225.318 223.153C228.648 225.372 232.81 225.927 236.972 225.927L250.846 223.985C255.008 223.43 261.945 223.43 261.945 217.603C262.222 215.383 261.39 213.163 260.835 210.944L259.17 203.452L258.893 203.729Z" fill="#2B283A"></path></svg>